<?xml version="1.0" encoding="UTF-8" standalone="no"?>
<!-- Created with Inkscape (http://www.inkscape.org/) -->

<svg
   version="1.1"
   id="svg1"
   width="793.59998"
   height="1122.1333"
   viewBox="0 0 793.59998 1122.1333"
   sodipodi:docname="Mikey - scared - 1.png"
   xmlns:inkscape="http://www.inkscape.org/namespaces/inkscape"
   xmlns:sodipodi="http://sodipodi.sourceforge.net/DTD/sodipodi-0.dtd"
   xmlns="http://www.w3.org/2000/svg"
   xmlns:svg="http://www.w3.org/2000/svg">
  <defs
     id="defs1" />
  <sodipodi:namedview
     id="namedview1"
     pagecolor="#ffffff"
     bordercolor="#000000"
     borderopacity="0.25"
     inkscape:showpageshadow="2"
     inkscape:pageopacity="0.0"
     inkscape:pagecheckerboard="0"
     inkscape:deskcolor="#d1d1d1" />
  <g
     inkscape:groupmode="layer"
     inkscape:label="Image"
     id="g1">
    <path
       style="fill:#000000"
       d="m 327.18672,711.91626 c -3.43947,-1.86566 -16.53059,-18.00378 -17.45384,-21.51628 -0.34695,-1.32 -0.33473,-3.57973 0.0272,-5.02163 0.72256,-2.87892 8.94303,-9.10818 12.03214,-9.11765 4.89095,-0.015 10.61994,-2.67683 15.41536,-7.16239 2.85585,-2.67131 5.19245,-5.7025 5.19245,-6.73598 0,-1.03348 -1.44,-4.61654 -3.2,-7.96235 -3.7613,-7.15035 -3.96118,-10.78696 -1.05685,-19.22854 2.27204,-6.6038 2.04028,-9.50931 -0.88206,-11.05802 -0.98693,-0.52303 -6.59442,-1.76019 -12.46109,-2.74924 -5.86667,-0.98904 -13.78667,-2.4947 -17.6,-3.3459 -3.81333,-0.85119 -8.37333,-1.80748 -10.13333,-2.12508 -6.96831,-1.25745 -17.57628,-7.12868 -22.73491,-12.58316 -5.61139,-5.93322 -9.35606,-14.01076 -8.35125,-18.01426 2.00209,-7.97693 14.83654,-4.90969 33.08742,7.9074 8.63473,6.06394 13.67593,6.84245 18.11049,2.7968 4.83752,-4.41326 19.95638,-35.84099 26.76314,-55.6328 1.94329,-5.65044 2.68786,-9.5218 2.25667,-11.73333 -0.35394,-1.81529 -4.2803,-8.34053 -8.72524,-14.50053 -4.44495,-6.16 -9.00273,-13.29841 -10.12841,-15.86312 -1.97953,-4.51008 -2.1599,-4.63312 -5.49564,-3.74892 -6.96854,1.84715 -20.10791,1.02559 -26.10669,-1.63236 -6.09928,-2.70248 -12.62005,-9.10254 -13.71365,-13.4598 -2.00938,-8.00602 2.07177,-16.34836 11.04073,-22.56851 9.26945,-6.42854 20.40612,-6.3381 30.18882,0.24518 6.69181,4.50325 9.32069,4.6218 13.17927,0.59431 3.67952,-3.8406 3.11308,-5.90862 -2.80298,-10.23345 -6.20652,-4.53716 -8.52497,-8.13734 -9.10102,-14.13244 -0.9655,-10.04816 6.21432,-18.25647 19.39351,-22.17157 17.0725,-5.07167 31.07052,3.26375 34.81689,20.73246 0.62503,2.91441 1.70336,5.74637 2.3963,6.29326 1.27862,1.00912 14.76215,5.72041 17.91447,6.2595 6.15964,1.05339 7.85062,2.84823 25.20397,26.75213 3.83253,5.27924 8.25798,4.85934 14.27388,-1.35435 7.5744,-7.82342 14.80089,-8.49635 14.80089,-1.37826 0,3.87567 -1.18891,6.1771 -7.092,13.72826 -2.54922,3.26095 -5.34511,8.32033 -6.21307,11.24308 -1.94454,6.54797 -4.67901,9.14119 -17.82974,16.90869 l -10.3348,6.10427 -0.71902,5.75482 c -0.96544,7.72717 -0.53127,9.00791 7.02835,20.73233 3.59159,5.5703 7.69129,12.39059 9.11045,15.15619 2.52882,4.92808 5.16589,7.2383 8.26236,7.2383 0.85403,0 4.55341,-2.28 8.22083,-5.06667 10.51763,-7.99174 11.98624,-8.78842 16.21172,-8.79438 7.61791,-0.0108 16.82159,5.0322 16.82159,9.21703 0,0.8358 -4.37053,5.72694 -9.71228,10.8692 l -9.71228,9.34956 4.64561,2.07193 c 4.90331,2.18686 7.40701,4.49985 10.00584,9.24367 1.50273,2.74304 1.41593,3.0811 -1.70322,6.63362 -4.89995,5.58074 -8.89428,5.93239 -17.77953,1.56529 -5.98782,-2.94301 -8.70746,-3.61473 -16.03509,-3.96047 -10.89654,-0.51414 -12.49073,0.41805 -11.42119,6.67841 0.4065,2.37938 0.68738,7.82398 0.62417,12.09913 -0.0855,5.78362 0.41946,8.82047 1.97308,11.86582 2.51982,4.93926 7.88693,9.67192 11.06339,9.75558 1.27499,0.0336 14.31816,0.15358 28.98483,0.26666 l 26.66666,0.20561 9.91548,3.46269 c 12.0359,4.20318 18.02418,7.42668 20.865,11.23165 2.5482,3.41303 1.9201,4.72924 -0.99143,2.07758 -3.78748,-3.44942 -12.6723,-8.55391 -17.95278,-10.31419 -2.87672,-0.95898 -9.83672,-2.19189 -15.46667,-2.73981 -11.68211,-1.13692 -47.20625,-1.39058 -52.29221,-0.37339 -4.07698,0.81539 -8.46568,6.13523 -9.29932,11.27231 -0.53146,3.27501 -0.2005,3.87463 3.51764,6.37312 5.48849,3.68812 9.08833,4.18732 17.97149,2.49219 8.97291,-1.71227 11.89362,-0.7591 14.66448,4.78574 3.93699,7.87839 0.84999,19.21298 -6.52757,23.96736 -5.49042,3.53824 -21.91297,6.13404 -41.76357,6.60129 -18.4166,0.43349 -21.47596,-0.26651 -23.6138,-5.40305 -1.07218,-2.57612 -0.97139,-3.92775 0.59656,-8 1.03769,-2.69508 2.30766,-7.24103 2.82215,-10.1021 1.11206,-6.18415 3.12892,-8.68562 8.3502,-10.35658 2.12907,-0.68136 5.38189,-2.36638 7.2285,-3.74449 4.03321,-3.00994 8.12388,-10.98645 7.65075,-14.91839 -0.29646,-2.46363 -0.90168,-2.88785 -4.58321,-3.21254 -5.06137,-0.44639 -6.96277,-1.15728 -23.19621,-8.6725 -13.6441,-6.31648 -15.78678,-6.46933 -18.45154,-1.31625 -2.24353,4.33851 -4.617,5.28936 -13.20294,5.28936 -6.32262,0 -7.67252,0.32373 -8.60346,2.06321 -4.20593,7.85886 3.6167,21.43691 15.39482,26.7214 7.79266,3.49633 12.72415,8.79347 14.84961,15.95065 2.11305,7.11543 0.79466,11.66283 -4.75968,16.41713 -6.42772,5.5019 -36.71666,16.79842 -44.70084,16.67157 -1.47846,-0.0235 -4.01408,-0.76194 -5.63471,-1.64101 z m 27.35483,-7.60345 c 20.28059,-6.89382 24.12511,-9.3708 24.12511,-15.54351 0,-5.08569 -2.28397,-6.66673 -9.37908,-6.49254 l -5.84274,0.14344 5.19759,-2.81011 c 5.87973,-3.17891 6.73131,-5.10458 3.83768,-8.67806 l -2.00948,-2.4816 -5.8985,3.37477 c -4.47378,2.55964 -7.19454,3.37478 -11.2643,3.37478 -5.00301,0 -5.44124,-0.21636 -6.48134,-3.2 -1.22374,-3.51042 -4.32877,-4.28827 -6.53007,-1.63586 -1.94985,2.34943 -0.1251,6.30765 4.65024,10.08721 4.64543,3.67674 3.97712,4.14319 -2.14974,1.50045 -6.02495,-2.59879 -23.43271,-2.63729 -27.37216,-0.0605 -4.84966,3.17211 -3.98078,7.38171 3.46255,16.77541 6.82746,8.61645 10.77164,11.70896 14.97935,11.74483 1.46666,0.0125 10.77037,-2.7319 20.67489,-6.09867 z m 81.3667,-12.05458 c 14.92338,-1.86753 19.7494,-3.21847 22.95739,-6.42647 2.75712,-2.75711 3.00101,-3.65166 3.00101,-11.00687 0,-9.56905 -1.24152,-11.37059 -7.80952,-11.33217 -7.26979,0.0425 -13.84503,2.02862 -17.25714,5.21261 -3.39123,3.16451 -6.93334,4.8973 -6.93334,3.39178 0,-0.49642 0.72,-1.50013 1.6,-2.23046 3.05247,-2.53333 1.33161,-8.29872 -2.95752,-9.90858 -1.22897,-0.46127 -2.53582,0.0473 -3.73334,1.45277 -7.64731,8.9755 -8.42099,9.52247 -13.46914,9.52247 -5.27203,0 -5.46591,-0.16195 -3.83711,-3.20539 1.64838,-3.08002 -0.53446,-3.55254 -3.72667,-0.80672 -3.48094,2.99418 -2.83186,5.21055 2.49629,8.52386 l 3.89416,2.42159 -5.57381,0.56047 c -6.66167,0.66987 -7.75023,1.59012 -8.50087,7.18653 -0.46449,3.46307 -0.12435,4.72063 1.79634,6.64132 2.27826,2.27827 2.89444,2.34396 16.0321,1.70928 7.51452,-0.36302 17.42405,-1.13073 22.02117,-1.70602 z m -15.6416,-58.3549 c 0,-1.90429 -3.91975,-5.63668 -5.91963,-5.63668 -2.07518,0 -7.95637,2.99075 -7.91971,4.02739 0.015,0.42493 1.81502,2.0483 4,3.60747 3.80776,2.71717 4.09445,2.76298 6.90601,1.10335 1.61333,-0.95233 2.93333,-2.34802 2.93333,-3.10153 z m -52.1719,-3.3656 c 2.37683,-1.92463 2.39999,-2.09394 0.65151,-4.76247 -0.99712,-1.52179 -1.81164,-2.90378 -1.81006,-3.07108 0.002,-0.16731 3.72158,-0.35144 8.26666,-0.40918 4.54509,-0.0577 11.31689,-0.92464 15.04846,-1.92645 3.73156,-1.0018 7.03658,-1.56954 7.34449,-1.26164 0.3079,0.30791 -0.22743,1.76133 -1.18963,3.22983 -1.70297,2.59906 -1.66571,2.7133 1.40254,4.29995 4.07531,2.10742 6.00876,2.02911 11.50531,-0.46601 5.50569,-2.49927 15.21929,-11.37374 15.21929,-13.90454 0,-1.89583 -4.89342,-7.46616 -6.55886,-7.46616 -0.51405,0 0.8432,-3.48 3.01611,-7.73333 5.05508,-9.89504 5.36103,-16.74533 1.1151,-24.96692 -1.56229,-3.02514 -3.41624,-5.69216 -4.11989,-5.9267 -0.70365,-0.23455 -4.91831,1.41182 -9.36591,3.6586 -4.4476,2.24679 -10.96655,4.60945 -14.48655,5.25036 -10.04222,1.82846 -24.34447,0.48176 -34.58853,-3.25685 -4.79659,-1.75055 -9.4424,-2.90601 -10.32401,-2.5677 -0.88161,0.3383 -3.72331,4.83701 -6.31487,9.99713 -2.59157,5.16011 -5.16927,9.66467 -5.72823,10.01013 -1.71924,1.06255 -0.55659,8.69588 1.93969,12.73493 1.30149,2.10587 3.74413,4.80991 5.42807,6.00898 5.47331,3.89734 5.43377,9.44186 -0.0877,12.29713 -1.71842,0.88863 -3.12441,2.21987 -3.12441,2.95832 0,1.8079 5.49548,4.93986 12.7293,7.25462 7.70243,2.46471 11.00633,2.4692 14.03213,0.019 z m 2.45256,-32.11649 c -1.23897,-0.5006 -3.27897,-2.21491 -4.53333,-3.80957 -6.02993,-7.66581 1.35118,-17.38123 10.72299,-14.11419 6.55387,2.28469 7.92073,12.35223 2.27951,16.78962 -2.96064,2.32884 -4.87714,2.58548 -8.46917,1.13414 z m 8.04193,-3.89844 c 1.21591,-1.54578 2.21075,-3.65261 2.21075,-4.68183 0,-5.34975 -9.45003,-9.57191 -13.1477,-5.87424 -2.71129,2.71129 -2.36502,9.6398 0.58504,11.7061 3.63708,2.54751 7.80789,2.08416 10.35191,-1.15003 z m 30.35405,-5.12825 c -5.35994,-2.31879 -6.78451,-10.08966 -2.55186,-13.92015 1.10307,-0.99827 3.77771,-1.86527 5.94364,-1.92667 3.05638,-0.0866 4.50449,0.54691 6.46815,2.8298 3.17538,3.69159 3.21909,7.27895 0.1301,10.67677 -3.1395,3.45339 -5.9144,4.10343 -9.99003,2.34025 z m 7.09675,-4.19792 3.01469,-2.53669 -2.91907,-2.79664 c -3.61364,-3.46209 -4.45842,-3.47653 -7.60234,-0.12998 l -2.5052,2.66666 2.5052,2.66667 c 3.09304,3.29239 3.73519,3.30351 7.50672,0.12998 z m -15.27309,-54.71234 c 3.79528,-1.80097 6.96761,-6.945 5.93788,-9.62845 -0.83934,-2.18729 -5.4008,-1.68414 -6.15066,0.67845 -0.90973,2.86632 -7.662,8.59903 -10.12835,8.59903 -1.11829,0 -2.32992,0.48 -2.6925,1.06666 -1.09897,1.77818 8.93985,1.22694 13.03363,-0.71569 z m -24.15551,-2.93449 -2.42709,-2.58352 3.04115,-1.54792 c 1.67264,-0.85135 9.52115,-3.57529 17.44115,-6.05319 24.75123,-7.74382 30.12603,-10.14754 35.47357,-15.86449 8.15954,-8.72321 8.52898,-11.46495 1.73098,-12.84603 -3.05002,-0.61964 -3.75656,-1.34169 -4.59267,-4.69348 -1.10956,-4.44799 -1.68621,-4.61653 -8.07854,-2.36118 -5.86963,2.07092 -5.86094,2.07389 -3.33208,-1.14103 l 2.15609,-2.74103 -4.74534,-7.39231 c -15.33411,-23.88752 -13.71889,-21.93797 -20.1782,-24.35471 -6.31505,-2.36276 -16.56714,-3.04396 -16.56714,-1.1008 0,2.71918 3.27941,6.59516 16.18549,19.12988 13.23553,12.85468 13.72751,13.49076 13.70477,17.71875 -0.0223,4.14112 -0.17779,4.35594 -2.79164,3.85627 -2.66699,-0.50983 -9.2948,-7.97327 -18.65461,-21.00657 -1.99298,-2.77519 -5.66801,-6.24389 -8.16672,-7.70823 -5.50337,-3.22519 -15.26625,-4.37804 -21.01326,-2.48135 -5.37724,1.77465 -10.86967,6.79418 -12.35333,11.28971 -2.07715,6.29384 1.21358,11.1163 15.5191,22.74272 6.77502,5.50622 12.17992,10.37815 12.01088,10.82652 -0.16904,0.44836 -5.46734,4.95825 -11.77401,10.02196 -7.48493,6.00977 -11.46667,9.92649 -11.46667,11.27943 0,3.88117 14.56971,9.4422 24.98594,9.53676 l 6.31926,0.0574 z"
       id="path1" />
  </g>
</svg>
