<?xml version="1.0" encoding="UTF-8"?><svg id="Layer_1" xmlns="http://www.w3.org/2000/svg" viewBox="0 0 271 298"><defs><style>.cls-1,.cls-2{stroke-width:0px;}.cls-2{fill:#fff;}</style></defs><path class="cls-2" d="M271,298c-90.31,0-180.62,0-271,0V0h271v298ZM115.71,186.61c.44,4.97-3.24,9.29,1.85,12.34,3.45,2.07,3.02,5.16.96,8.19-2.82,4.12-5.62,8.25-8.44,12.37-3.2,4.66-6.92,8.37-13.12,8.75-1.6.1-3.1,1.74-4.67,2.62-3.11,1.73-6.11,3.71-9.38,5.05-5.93,2.44-12.21,4.07-17.98,6.8-7.37,3.49-10.1,12.2-7.47,20.02,2.8,8.33,9.71,10.13,16.93,10.7,14.15,1.12,25.35-5.95,35.1-15.02,3.61-3.36,6.37-8.68,7.34-13.54,1.03-5.19,4.13-10.63,1.24-16.31-.23-.46.52-1.51.94-2.2,2.94-4.82,5.59-9.87,9.01-14.32,1.59-2.06,4.76-4.25,7.1-4.13,7.03.37,12.69-1.11,16.97-7.11.72-1.01,3.35-1.13,4.94-.82.57.11,1.3,2.94.86,4.1-1.91,4.96,1.35,7.17,4.64,9.15,5.91,3.56,7.34,8.15,4.07,14.47-1.83,3.54-3.66,7.08-5.54,10.59-2.17,4.05-4.97,6.69-10.2,6.48-3.9-.15-7.94.72-11.74,1.78-1.49.42-3.8,3.1-3.5,3.92,2.44,6.59-1.71,11.47-3.67,16.96-1.82,5.09.51,9.07,5.47,11.64,12.59,6.54,26.07,8.33,40.01,8.9,6.6.27,11.2-1.98,14.96-7.04,2.94-3.96,5.87-7.81,3.3-13.13-2.67-5.54-7.04-8.55-13.13-9.49-3.33-.51-6.56-1.68-10.11-2.62-1.57,2.15-3.68,5.05-5.94,8.15,1.11.34,1.47.59,1.71.5.77-.26,1.54-.59,2.24-1.01,5.52-3.29,11.26-2.76,16.8-.45,5.55,2.31,7.42,7.98,4.72,13.24-3.14,6.12-8.03,10.03-15.12,9.55-7.77-.52-15.59-1.29-23.22-2.82-5.12-1.03-10.15-3.16-14.81-5.59-5.03-2.62-5.23-6.43-2.85-12.87,1.98-5.35,5.14-4.65,9.03-2.87.36.16.89-.05,1.6-.11-3.28-3.06-9.17-3.88-8.17-9.71.27-1.56,2.73-3.38,4.53-3.9,3.07-.89,6.57-1.43,9.02,2.34-1.06,1.12-2.02,2.14-2.97,3.15,4.05,4.09,10.27,3.63,13.53-.4,1.65-2.04,4.03-3.5,6.79-5.82.19-.89.25-3.31,1.22-5.27,3.22-6.51,5.47-13.19,5.14-20.56-.17-3.7,1.64-5.78,5.32-5.62,7.09.31,8.01-.46,10.23-9.33.36-1.45.69-2.92,1.04-4.38,1.5-6.3,5.24-8.67,10.89-5.16,5.99,3.72,9.07.94,12.54-3.02,1.2-1.38,2.82-2.49,3.69-4.04,4.26-7.57,8.47-15.18,12.39-22.93,1.4-2.77,1.66-6.1,2.94-8.95,4.2-9.29,1.03-19.13-7.67-24.49-5.48-3.38-10.7-7.23-15.78-11.21-1.11-.87-2.02-4.04-1.43-4.68,4.28-4.63,8.48-9.62,13.66-13.07,5.25-3.5,7.34-8.06,7.69-13.66.23-3.69,1.94-5.64,4.83-7.46,7.24-4.57,14.51-9.14,21.38-14.23,2.97-2.2,5.54-5.4,7.32-8.68,4.03-7.44,1.65-16.94-5.32-21.24-7.69-4.75-17.24-5.9-23.08,1.63-3.03,3.9-5.62,8.23-7.81,12.66-3.03,6.15-4.16,6.43-9.03,1.7-3.34-3.24-1.47-4.88,1.25-7.04,13.02-10.36,13.58-24.87,1.51-35.39-7.26-6.33-14.6-6.77-20.98-1.06-6.4,5.73-8.81,13.55-8.36,21.53.31,5.58-1.47,6.25-5.91,6.08-11.46-.43-20.13,5.71-28.58,12.37-1.54,1.21-3.49,1.9-5.25,2.83-.55-1.73-1.14-3.45-1.65-5.19-.91-3.08-.77-6.86-5.06-7.65-4.39-.81-7.59,1.06-9.18,5.03-.89,2.22-1.15,4.81-1.14,7.23.01,3.77-.12,6.82-4,9.3-4.75,3.03-4.46,6.58-.46,10.38,1.66,1.58,2.89,3.62,4.47,5.31,1.57,1.66,3.09,3.91,5.06,4.54,5.09,1.61,5.62,5.29,5.11,9.48-.67,5.46-1.71,10.88-2.69,16.9-.26.06-1.35.56-2.46.58-7.61.18-14.21,3.24-20.4,7.27-10.95,7.13-15.25,7.15-24.39-1.8-4.25-4.17-9.27-5.12-14.52-5.44-1.79-.11-4.71,1.71-5.32,3.32-.61,1.64.52,4.48,1.79,6.09,1.09,1.39,3.47,1.75,5.23,2.65,2.08,1.06,4.12,2.21,6.17,3.32-.14.55-.27,1.11-.41,1.66-2.18.19-4.37.32-6.54.58-5.42.64-10.98.81-16.18,2.26-2.07.58-3.35,4.02-4.99,6.16,2.24,1.71,4.38,3.58,6.77,5.06.84.51,2.28.03,3.44.03,4.17-.03,8.34-.15,12.5-.02,1.17.04,2.32.79,3.48,1.21-.67,1.23-1.06,2.8-2.06,3.62-2.42,1.99-5.52,3.28-7.58,5.54-1.5,1.65-2.87,6.09-2.42,6.38,2.58,1.67,5.67,2.65,8.7,3.45.82.22,2.02-.96,3.04-1.53,5.75-3.2,11.25-7,17.3-9.48,8.84-3.62,15.44-8.79,17.79-18.47.36-1.5,1.31-3.19,2.52-4.1,7.99-6.03,16.99-7.56,27.59-5.7-1.02,2.06-1.41,4-2.59,5.04-5.18,4.56-10.64,8.82-15.9,13.3-1.75,1.49-3.4,3.18-4.77,5.02-6.05,8.15-8.77,17.45-8.86,27.51-.03,3.37-1.11,5.84-4.29,7.14-4.6,1.88-9.07,4.69-13.85,5.36-13.98,1.98-28.06,3.43-42.14,4.46-16.38,1.2-31.72,4.59-44.74,15.54-7.75,6.52-12.16,14.38-12.49,24.45-.06,1.66.75,3.35,1.37,5.92.9-1.47,1.17-1.72,1.21-2.01.09-.66.12-1.33.1-1.99-.35-9.54,4.11-16.92,10.53-23.4,10.66-10.75,24.67-13.45,38.71-15.1,14-1.64,28.17-1.88,42.26-2.78,1.15-.07,2.27-.46,3.41-.72,4.78-1.11,9.56-2.22,15.11-3.51Z"/><path class="cls-1" d="M115.71,186.61c-5.55,1.29-10.32,2.41-15.11,3.51-1.13.26-2.26.65-3.41.72-14.09.9-28.26,1.14-42.26,2.78-14.04,1.64-28.05,4.34-38.71,15.1-6.43,6.48-10.88,13.86-10.53,23.4.02.66,0,1.34-.1,1.99-.04.29-.31.54-1.21,2.01-.62-2.57-1.43-4.26-1.37-5.92.33-10.07,4.74-17.93,12.49-24.45,13.02-10.95,28.36-14.34,44.74-15.54,14.09-1.03,28.16-2.49,42.14-4.46,4.77-.68,9.25-3.49,13.85-5.36,3.19-1.3,4.26-3.77,4.29-7.14.09-10.06,2.81-19.36,8.86-27.51,1.37-1.84,3.02-3.53,4.77-5.02,5.26-4.48,10.71-8.73,15.9-13.3,1.18-1.04,1.57-2.98,2.59-5.04-10.6-1.86-19.6-.33-27.59,5.7-1.2.91-2.15,2.6-2.52,4.1-2.35,9.68-8.96,14.85-17.79,18.47-6.04,2.48-11.55,6.28-17.3,9.48-1.01.56-2.22,1.75-3.04,1.53-3.03-.8-6.12-1.78-8.7-3.45-.45-.29.92-4.74,2.42-6.38,2.06-2.26,5.16-3.55,7.58-5.54,1-.82,1.39-2.39,2.06-3.62-1.16-.42-2.31-1.18-3.48-1.21-4.16-.13-8.33-.01-12.5.02-1.17,0-2.61.49-3.44-.03-2.39-1.47-4.53-3.34-6.77-5.06,1.64-2.14,2.92-5.58,4.99-6.16,5.2-1.45,10.76-1.62,16.18-2.26,2.17-.26,4.36-.39,6.54-.58.14-.55.27-1.11.41-1.66-2.05-1.11-4.09-2.26-6.17-3.32-1.77-.9-4.14-1.26-5.23-2.65-1.27-1.61-2.4-4.46-1.79-6.09.6-1.61,3.53-3.43,5.32-3.32,5.25.33,10.27,1.27,14.52,5.44,9.14,8.95,13.44,8.93,24.39,1.8,6.19-4.03,12.79-7.09,20.4-7.27,1.11-.03,2.2-.52,2.46-.58.98-6.02,2.02-11.44,2.69-16.9.51-4.19-.02-7.86-5.11-9.48-1.97-.63-3.5-2.88-5.06-4.54-1.58-1.68-2.81-3.72-4.47-5.31-3.99-3.8-4.28-7.35.46-10.38,3.88-2.48,4.02-5.54,4-9.3,0-2.42.26-5.01,1.14-7.23,1.59-3.97,4.79-5.84,9.18-5.03,4.3.79,4.16,4.57,5.06,7.65.51,1.74,1.1,3.46,1.65,5.19,1.76-.93,3.71-1.62,5.25-2.83,8.45-6.67,17.12-12.8,28.58-12.37,4.44.17,6.22-.5,5.91-6.08-.45-7.98,1.96-15.8,8.36-21.53,6.38-5.71,13.71-5.27,20.98,1.06,12.07,10.52,11.5,25.03-1.51,35.39-2.71,2.16-4.58,3.8-1.25,7.04,4.88,4.73,6,4.45,9.03-1.7,2.19-4.43,4.78-8.76,7.81-12.66,5.84-7.53,15.39-6.37,23.08-1.63,6.97,4.3,9.35,13.81,5.32,21.24-1.78,3.28-4.35,6.47-7.32,8.68-6.87,5.09-14.14,9.66-21.38,14.23-2.89,1.82-4.6,3.77-4.83,7.46-.35,5.61-2.44,10.16-7.69,13.66-5.18,3.45-9.38,8.43-13.66,13.07-.59.64.33,3.81,1.43,4.68,5.07,3.98,10.29,7.83,15.78,11.21,8.7,5.37,11.86,15.21,7.67,24.49-1.29,2.85-1.54,6.18-2.94,8.95-3.92,7.75-8.13,15.36-12.39,22.93-.87,1.55-2.49,2.66-3.69,4.04-3.46,3.96-6.54,6.74-12.54,3.02-5.65-3.51-9.39-1.14-10.89,5.16-.35,1.46-.68,2.92-1.04,4.38-2.22,8.87-3.14,9.64-10.23,9.33-3.68-.16-5.49,1.92-5.32,5.62.33,7.37-1.92,14.04-5.14,20.56-.97,1.96-1.03,4.38-1.22,5.27-2.77,2.32-5.14,3.78-6.79,5.82-3.26,4.04-9.48,4.49-13.53.4.95-1.01,1.91-2.03,2.97-3.15-2.45-3.77-5.95-3.23-9.02-2.34-1.8.52-4.26,2.34-4.53,3.9-1,5.83,4.89,6.66,8.17,9.71-.7.06-1.24.27-1.6.11-3.89-1.78-7.05-2.48-9.03,2.87-2.38,6.44-2.18,10.25,2.85,12.87,4.66,2.43,9.7,4.56,14.81,5.59,7.62,1.54,15.44,2.3,23.22,2.82,7.09.48,11.98-3.43,15.12-9.55,2.7-5.26.83-10.93-4.72-13.24-5.54-2.3-11.28-2.84-16.8.45-.7.42-1.47.74-2.24,1.01-.25.08-.6-.16-1.71-.5,2.26-3.1,4.38-6,5.94-8.15,3.56.95,6.78,2.11,10.11,2.62,6.09.94,10.46,3.95,13.13,9.49,2.56,5.32-.36,9.17-3.3,13.13-3.76,5.06-8.36,7.31-14.96,7.04-13.94-.56-27.42-2.36-40.01-8.9-4.96-2.57-7.28-6.55-5.47-11.64,1.96-5.49,6.11-10.37,3.67-16.96-.3-.82,2.01-3.5,3.5-3.92,3.8-1.07,7.84-1.94,11.74-1.78,5.23.21,8.03-2.43,10.2-6.48,1.88-3.51,3.71-7.06,5.54-10.59,3.27-6.31,1.85-10.9-4.07-14.47-3.29-1.98-6.55-4.19-4.64-9.15.45-1.16-.28-3.99-.86-4.1-1.58-.31-4.21-.2-4.94.82-4.28,6-9.94,7.48-16.97,7.11-2.34-.12-5.51,2.07-7.1,4.13-3.42,4.45-6.07,9.5-9.01,14.32-.42.7-1.18,1.74-.94,2.2,2.89,5.67-.21,11.11-1.24,16.31-.97,4.86-3.73,10.18-7.34,13.54-9.75,9.07-20.95,16.14-35.1,15.02-7.22-.57-14.13-2.38-16.93-10.7-2.63-7.82.1-16.53,7.47-20.02,5.77-2.73,12.06-4.37,17.98-6.8,3.27-1.34,6.28-3.32,9.38-5.05,1.58-.88,3.07-2.52,4.67-2.62,6.2-.37,9.92-4.09,13.12-8.75,2.83-4.11,5.62-8.25,8.44-12.37,2.07-3.02,2.49-6.12-.96-8.19-5.1-3.06-1.41-7.37-1.85-12.34ZM167.07,197.91c.01.22.02.44.04.65-1.03.29-2.55.24-3.01.92-1.76,2.57-3.53,5.27-4.42,8.19-.18.57,3.35,2.87,5.43,3.42,3.33.89,6.87,1.01,10.33,1.41,9.84,1.14,11.29.2,13.57-9.25.5-2.06,1.18-4.65.35-6.25-.62-1.19-3.55-1.17-5.58-1.73,13.31-8.72,18.39-21.99,20.01-37.07.12-1.15-.3-2.82-1.1-3.46-.56-.45-2.29.27-3.33.79-2.97,1.48-5.77,3.32-8.79,4.66-20.9,9.25-43.2,2.68-53.81-15.75-11.83,3.88-17.13,27.65-9.1,44.65-3.38-3.78-6-4.08-8.28-.57-2.22,3.43-2.38,6.97,1.32,9.12,4.96,2.88,10.12,5.95,15.6,7.31,8.61,2.14,12.48-1.05,13.87-9.07,5.68.68,11.31,1.35,16.93,2.02ZM196.91,88.57c1.94-.69,3.93-.99,5.44-2.01,5.56-3.76,11.79-6.99,16.23-11.83,6.15-6.71,4.01-15.99-3.69-21.72-5.19-3.86-19.09-1.9-23.32,2.53-3.93,4.12-8.66,7.51-13.17,11.05-2.19,1.71-4.11,1.25-6.66-.44-4.39-2.93-9.38-4.97-14.2-7.2-3.88-1.79-7.01-1.56-8.32,3.47-.99,3.8-3.72,4.51-6.84,2.5-2.25-1.45-4.18-3-6.42-.26-2.3,2.81-3.49,6.26-1.01,9.09,4.01,4.57,8.25,9.03,15.55,8.04,4.58-.62,9.36-.51,13.97,0,12.39,1.36,23.83,4.9,28.49,18.15,5.37,15.24,1.67,25.9-18.03,25.59-11.27-.18-21.82-9.2-22.46-19.75-.21-3.52-.92-7.02-1.52-11.42-3.99,10.9-1.43,20.2,6.82,27.08,8.6,7.18,23.76,8.55,33.15,2.71,3.03-1.89,5.26-5.43,8.45-6.62,4.16-1.55,5.14-4.27,5.44-7.91.27-3.32.61-6.64.56-9.96-.11-7.31-.88-8.16-7.48-9.64-.23-.05-.36-.51-.97-1.45ZM107.07,246.31c2.95-2.43,6.14-4.35,8.28-7.1,1.17-1.51.54-4.42.73-6.7-1.66,1.01-3.49,1.82-4.94,3.07-1.75,1.51-2.89,3.86-4.8,5.01-2.44,1.47-5.33,2.57-8.14,2.94-1.58.21-3.99-.95-4.88-2.27-.59-.87.64-3.24,1.46-4.72.85-1.56,2.18-2.85,4.16-5.35-7.5,2.55-11.57,7.4-10.91,12.29.95,7.11,7.1,6.36,12.9,7.12-9.42,3.08-14.33.16-14.86-8.3-.18-2.81-1.57-3.8-3.77-3.11-4.85,1.53-9.7,3.19-14.29,5.35-7.51,3.54-10.17,9.02-8.66,16.54,1.06,5.3,6.99,9.51,13.94,10.25,11.55,1.23,21.2-3.52,30.06-9.94,3.49-2.53,6.04-6.47,8.63-10.04.9-1.24.65-3.32.92-5.02h-5.82ZM163.63,58.09c2.54,1.63,5.33,3.56,8.28,5.21.59.33,1.92-.11,2.62-.6,4.44-3.16,8.89-6.32,13.14-9.73,2.03-1.64,3.9-3.65,5.33-5.83,1.56-2.37,1.48-4.52-2.34-4.44-1.31.03-2.74-.51-3.93-.17-4.82,1.39-10.08,2.22-14.18,4.83-3.49,2.22-5.61,6.59-8.91,10.73ZM200.7,143.91c1.83,2.42,3.37,6.19,6.08,7.46,2.07.97,5.89-.78,8.41-2.23,1.43-.82,3.01-4.46,2.46-5.12-3.19-3.83-6.9-7.25-10.68-10.53-.43-.38-2.97.6-3.39,1.48-1.19,2.52-1.78,5.33-2.89,8.93Z"/><path class="cls-2" d="M167.07,197.91c-5.62-.67-11.25-1.34-16.93-2.02-1.39,8.02-5.26,11.21-13.87,9.07-5.48-1.36-10.63-4.43-15.6-7.31-3.7-2.15-3.55-5.69-1.32-9.12,2.28-3.52,4.9-3.21,8.28.57-8.03-16.99-2.74-40.77,9.1-44.65,10.61,18.43,32.91,24.99,53.81,15.75,3.03-1.34,5.82-3.18,8.79-4.66,1.05-.52,2.78-1.24,3.33-.79.8.64,1.23,2.31,1.1,3.46-1.62,15.08-6.7,28.35-20.01,37.07,2.03.56,4.97.54,5.58,1.73.83,1.6.15,4.2-.35,6.25-2.29,9.45-3.74,10.38-13.57,9.25-3.46-.4-7-.52-10.33-1.41-2.07-.55-5.6-2.85-5.43-3.42.9-2.92,2.66-5.62,4.42-8.19.46-.68,1.98-.63,3.01-.92-.01-.22-.02-.44-.04-.65ZM144.6,162c-2.9-1.92-6.16-2.18-7.58.97-1.38,3.06-2.14,6.96-1.5,10.15.35,1.75,4.13,2.82,6.37,4.2.31-.49.62-.99.93-1.48-3.75-1.06-7.22-2.68-6.58-7.16.65-4.5,4.2-5.99,8.36-6.69ZM177.38,169.35c2.64.97,5.73,2.11,8.54,3.15-.92-4.85-4.14-5.98-8.54-3.15Z"/><path class="cls-2" d="M196.91,88.57c.61.94.75,1.4.97,1.45,6.6,1.48,7.37,2.33,7.48,9.64.05,3.32-.3,6.65-.56,9.96-.29,3.64-1.27,6.36-5.44,7.91-3.19,1.19-5.41,4.73-8.45,6.62-9.4,5.84-24.56,4.47-33.15-2.71-8.25-6.89-10.81-16.18-6.82-27.08.6,4.4,1.31,7.89,1.52,11.42.63,10.55,11.19,19.57,22.46,19.75,19.7.31,23.4-10.35,18.03-25.59-4.66-13.24-16.1-16.79-28.49-18.15-4.61-.51-9.39-.62-13.97,0-7.3.99-11.54-3.47-15.55-8.04-2.48-2.83-1.29-6.28,1.01-9.09,2.24-2.74,4.17-1.19,6.42.26,3.12,2.01,5.85,1.3,6.84-2.5,1.31-5.03,4.44-5.26,8.32-3.47,4.83,2.23,9.82,4.27,14.2,7.2,2.54,1.7,4.47,2.16,6.66.44,4.52-3.54,9.24-6.92,13.17-11.05,4.23-4.44,18.13-6.39,23.32-2.53,7.7,5.73,9.84,15.01,3.69,21.72-4.44,4.84-10.67,8.08-16.23,11.83-1.51,1.02-3.5,1.32-5.44,2.01Z"/><path class="cls-2" d="M107.07,246.31h5.82c-.27,1.7-.02,3.78-.92,5.02-2.59,3.58-5.14,7.52-8.63,10.04-8.86,6.43-18.51,11.17-30.06,9.94-6.96-.74-12.88-4.95-13.94-10.25-1.51-7.51,1.16-13,8.66-16.54,4.59-2.16,9.44-3.82,14.29-5.35,2.2-.69,3.59.3,3.77,3.11.53,8.46,5.44,11.38,14.86,8.3-5.8-.76-11.95,0-12.9-7.12-.65-4.89,3.41-9.73,10.91-12.29-1.98,2.49-3.3,3.79-4.16,5.35-.81,1.48-2.04,3.84-1.46,4.72.89,1.32,3.3,2.48,4.88,2.27,2.81-.37,5.69-1.47,8.14-2.94,1.91-1.15,3.05-3.5,4.8-5.01,1.45-1.25,3.28-2.06,4.94-3.07-.18,2.28.44,5.18-.73,6.7-2.13,2.75-5.33,4.68-8.28,7.1Z"/><path class="cls-2" d="M163.63,58.09c3.3-4.14,5.42-8.51,8.91-10.73,4.1-2.61,9.36-3.43,14.18-4.83,1.19-.35,2.62.2,3.93.17,3.82-.09,3.9,2.07,2.34,4.44-1.43,2.18-3.3,4.19-5.33,5.83-4.24,3.41-8.7,6.57-13.14,9.73-.7.5-2.03.93-2.62.6-2.94-1.66-5.73-3.58-8.28-5.21Z"/><path class="cls-2" d="M200.7,143.91c1.11-3.61,1.7-6.41,2.89-8.93.42-.89,2.96-1.86,3.39-1.48,3.77,3.29,7.49,6.7,10.68,10.53.55.66-1.04,4.3-2.46,5.12-2.52,1.45-6.34,3.2-8.41,2.23-2.71-1.27-4.25-5.05-6.08-7.46Z"/><path class="cls-1" d="M144.6,162c-4.16.7-7.72,2.19-8.36,6.69-.64,4.48,2.83,6.09,6.58,7.16-.31.49-.62.99-.93,1.48-2.24-1.38-6.02-2.45-6.37-4.2-.63-3.2.12-7.1,1.5-10.15,1.43-3.15,4.69-2.89,7.58-.97Z"/><path class="cls-1" d="M177.38,169.35c4.4-2.83,7.63-1.7,8.54,3.15-2.81-1.04-5.9-2.17-8.54-3.15Z"/></svg>