<?xml version="1.0" encoding="UTF-8" standalone="no"?>
<!-- Created with Inkscape (http://www.inkscape.org/) -->

<svg
   version="1.1"
   id="svg1"
   width="793.59998"
   height="1122.1333"
   viewBox="0 0 793.59998 1122.1333"
   sodipodi:docname="Mikey - scared - 3.png"
   xmlns:inkscape="http://www.inkscape.org/namespaces/inkscape"
   xmlns:sodipodi="http://sodipodi.sourceforge.net/DTD/sodipodi-0.dtd"
   xmlns="http://www.w3.org/2000/svg"
   xmlns:svg="http://www.w3.org/2000/svg">
  <defs
     id="defs1" />
  <sodipodi:namedview
     id="namedview1"
     pagecolor="#ffffff"
     bordercolor="#000000"
     borderopacity="0.25"
     inkscape:showpageshadow="2"
     inkscape:pageopacity="0.0"
     inkscape:pagecheckerboard="0"
     inkscape:deskcolor="#d1d1d1" />
  <g
     inkscape:groupmode="layer"
     inkscape:label="Image"
     id="g1">
    <path
       style="fill:#000000"
       d="m 334.37725,711.67229 c -4.85703,-2.28307 -14.07682,-11.97052 -15.0382,-15.80099 -2.10115,-8.37163 4.02794,-13.47302 19.06094,-15.86489 3.21295,-0.5112 4.00321,-1.09915 4.01633,-2.9881 0.009,-1.29341 0.36899,-2.88718 0.8,-3.54171 1.13244,-1.71966 9.40666,-5.74329 11.81057,-5.74329 4.27523,0 4.70341,-2.17759 3.48032,-17.69956 -0.63211,-8.02206 -1.6936,-15.2414 -2.35887,-16.04299 -0.66526,-0.8016 -2.29762,-1.45745 -3.62746,-1.45745 -5.07241,0 -7.18442,-3.23145 -7.91003,-12.10263 -0.66295,-8.10506 -0.73093,-8.25765 -5.97405,-13.40906 -9.41552,-9.25083 -12.80296,-7.52786 -9.57384,4.86956 2.06482,7.92738 2.03848,13.65497 -0.0725,15.76594 -3.42819,3.42819 -5.33945,2.02132 -10.59048,-7.79554 -1.76,-3.29034 -3.97741,-6.12839 -4.92757,-6.30677 -1.10081,-0.20667 -3.76495,2.42392 -7.34325,7.25077 -4.76001,6.42091 -6.04006,7.5258 -8.40092,7.25143 -2.40685,-0.27972 -2.90952,-1.00792 -3.69994,-5.36001 -0.74571,-4.10595 -0.52404,-5.87937 1.19997,-9.6 3.93586,-8.49409 3.98025,-8.29702 -1.86895,-8.29702 -5.98733,0 -10.15124,-2.83508 -11.28983,-7.68691 -0.59546,-2.53741 -0.30976,-2.96297 2.35984,-3.51516 9.34289,-1.93253 11.79308,-3.106 16.37065,-7.8404 3.685,-3.81126 5.38178,-6.79105 7.30451,-12.82782 3.40106,-10.67826 7.74185,-20.12131 14.05022,-30.56512 7.06998,-11.70472 7.11591,-12.88059 0.66976,-17.14787 -10.90303,-7.2177 -15.34909,-13.69744 -18.38728,-26.79788 -0.91841,-3.96013 -2.20044,-7.83955 -2.84894,-8.62095 -0.6485,-0.78139 -7.04763,-5.93516 -14.22028,-11.45282 -14.81178,-11.39416 -18.86434,-15.784 -20.73313,-22.45867 -1.63128,-5.82636 -0.83244,-13.69676 1.67098,-16.46301 2.74033,-3.02803 11.47534,-2.85736 16.73522,0.32698 3.7405,2.2645 17.69057,17.41551 23.06409,25.04964 1.34206,1.90666 3.13816,3.46666 3.99132,3.46666 1.75555,0 10.69893,-7.91759 12.27965,-10.87119 0.85852,-1.60414 -0.49425,-3.55423 -7.84937,-11.31527 -10.2335,-10.79826 -13.90761,-17.46181 -14.03734,-25.45878 -0.072,-4.43969 0.41362,-6.04777 2.49653,-8.26666 3.07816,-3.27912 6.23261,-3.47481 11.58989,-0.71899 11.99851,6.17212 19.68782,14.80884 23.68291,26.60094 l 2.76568,8.16329 9.02112,0.68365 c 13.6961,1.03793 20.37315,3.88508 30.68106,13.08265 8.96982,8.00362 11.33926,8.02049 18.9767,0.13509 6.02675,-6.22241 9.58165,-7.85395 13.05844,-5.99323 3.87568,2.0742 3.80188,5.10358 -0.46333,19.02107 -4.69119,15.30749 -5.34518,16.01541 -20.03885,21.6914 -11.07319,4.27743 -12.92671,5.60509 -15.63463,11.19892 -1.71897,3.55091 -2.10636,5.73631 -1.57468,8.88331 0.78267,4.63254 2.70348,6.77042 7.48308,8.32874 3.3981,1.1079 3.50774,1.64422 2.05954,10.07452 -0.58134,3.38408 -0.3103,4.14248 2.02801,5.6746 7.20512,4.72097 26.74545,8.9759 34.52155,7.51709 4.8383,-0.90767 4.51448,-3.18941 -1.20167,-8.46746 -11.22708,-10.36659 -4.20072,-17.09429 9.042,-8.65766 3.19948,2.03832 6.6264,3.71832 7.61539,3.73334 0.98898,0.015 4.73836,-3.57093 8.33197,-7.96877 6.66108,-8.15181 9.52076,-9.85799 14.44939,-8.62099 2.85102,0.71556 4.75443,4.11765 3.97383,7.10267 -0.25388,0.97085 -2.34795,4.04792 -4.65349,6.83794 -5.09175,6.16172 -6.28715,9.93439 -3.73832,11.79814 0.99519,0.7277 4.99985,1.92508 8.89925,2.66085 15.88316,2.99693 16.34082,13.92377 0.52311,12.48947 -11.56679,-1.04883 -15.2824,2.47817 -13.55855,12.87029 1.82242,10.98626 0.49337,14.62462 -4.21521,11.53944 -2.52989,-1.65765 -3.51606,-3.39991 -8.83859,-15.61508 -3.16041,-7.25311 -3.87777,-7.56424 -17.41269,-7.55192 -6.58536,0.006 -12.16744,0.20496 -12.40463,0.44215 -0.23719,0.23718 1.31612,4.40549 3.4518,9.26291 3.30905,7.52613 4.00357,10.50318 4.69831,20.13926 0.55837,7.74457 1.50872,12.82008 3.01602,16.1076 1.92747,4.20394 2.04665,5.3754 0.95974,9.43361 -1.10393,4.12176 -1.02401,4.79228 0.72355,6.07013 2.85988,2.09119 11.43711,3.69626 19.75222,3.69626 5.80514,0 10.20777,-0.9934 22.08083,-4.98225 17.07284,-5.73576 30.81111,-7.31099 37.78533,-4.33247 4.44357,1.89774 10.86048,7.29333 13.38149,11.25168 1.81806,2.85461 1.81284,2.85362 -1.77308,-0.33696 -1.97807,-1.76 -3.86093,-3.54134 -4.18412,-3.95853 -0.32319,-0.41719 -2.97083,-1.83044 -5.88364,-3.14055 -8.18798,-3.68278 -18.63701,-3.36907 -31.42934,0.94359 -5.57333,1.87893 -11.33333,3.66765 -12.8,3.97494 -12.45231,2.60889 -15.44686,2.87622 -25.6,2.28536 -6.16,-0.35847 -13.24,-0.93913 -15.73333,-1.29033 -4.23065,-0.59592 -4.53339,-0.47083 -4.53412,1.87348 -10e-4,4.49806 5.60324,30.73901 6.96233,32.59768 1.77663,2.42968 13.26235,3.89263 31.24147,3.97926 11.47993,0.0553 14.36869,0.3752 15.06712,1.66843 1.66152,3.0765 2.39007,18.67484 1.01338,21.69635 -3.16106,6.93777 -23.97326,11.69098 -51.79307,11.8288 -14.5718,0.0722 -15.20768,-0.0172 -17.86667,-2.51108 -3.33868,-3.1314 -3.51632,-6.70795 -0.6472,-13.03092 1.16045,-2.5574 2.12045,-6.11807 2.13333,-7.91261 0.0312,-4.35164 1.91615,-6.69228 7.57684,-9.40873 3.16671,-1.51965 4.82381,-3.0395 5.05019,-4.63192 0.42045,-2.95751 -5.83363,-28.96551 -7.4269,-30.88528 -0.64419,-0.7762 -2.83017,-1.41127 -4.85774,-1.41127 -2.86435,0 -4.65719,-0.95153 -8.03914,-4.26667 -2.39395,-2.34666 -4.987,-4.26666 -5.76233,-4.26666 -0.77532,0 -2.49894,2.28 -3.83025,5.06666 -2.36076,4.94147 -2.55169,5.07494 -7.72682,5.40156 -2.91844,0.1842 -5.91844,0.84297 -6.66667,1.46394 -0.98697,0.81911 -1.33123,4.97298 -1.25409,15.13178 0.14163,18.65252 0.27681,19.04631 6.99868,20.38823 6.84476,1.36645 7.56897,2.01409 12.07379,10.79715 5.75534,11.22117 4.6705,17.55424 -4.0209,23.47331 -5.02356,3.42118 -29.7334,11.2915 -37.02456,11.79268 -4.75925,0.32714 -7.49967,-0.077 -10.68941,-1.57634 z m 30.25051,-6.86756 c 8.99861,-2.93491 17.61461,-6.41443 19.14667,-7.73225 5.93816,-5.10779 1.80435,-15.4725 -6.17097,-15.4725 -3.93774,0 -5.05086,-1.70611 -1.66719,-2.55536 4.14791,-1.04106 4.99695,-7.04464 0.99626,-7.04464 -0.88452,0 -3.28755,1.28089 -5.34006,2.84642 -2.59045,1.97583 -5.09708,2.873 -8.1955,2.93333 -4.27721,0.0833 -4.47761,-0.0579 -4.7979,-3.37975 -0.18383,-1.90667 -0.76755,-3.46667 -1.29714,-3.46667 -0.76016,0 -7.69897,2.87021 -9.39933,3.88799 -1.14661,0.68632 1.45727,4.87056 3.79235,6.09404 2.49204,1.30571 1.61195,1.49021 -9.4335,1.97765 -13.97329,0.61663 -18.1969,2.15891 -19.98874,7.29899 -1.51999,4.36025 0.32102,8.70737 5.99298,14.15103 5.07248,4.86831 11.13284,7.25713 16.26763,6.41223 2.05334,-0.33787 11.09583,-3.01559 20.09444,-5.95051 z m 86.42279,-12.41203 c 13.35317,-2.86343 14.0161,-3.55469 14.0161,-14.61518 0,-11.58088 -0.98628,-12.69894 -10.35541,-11.73905 -8.03633,0.82335 -11.44375,2.21898 -13.65422,5.59258 -2.33498,3.56363 -3.545,3.10435 -3.92598,-1.49016 -0.39226,-4.73051 -3.97212,-7.06603 -9.2215,-6.01615 -2.90484,0.58097 -3.20737,0.98617 -2.68526,3.59668 0.45386,2.26935 0.0221,3.33862 -1.88863,4.67693 -1.36235,0.95423 -3.55128,1.73496 -4.86428,1.73496 -2.37844,0 -2.87297,-0.3934 -6.53543,-5.19903 -1.88536,-2.47383 -2.01011,-2.49091 -5.39792,-0.73901 -2.80122,1.44856 -3.4042,2.34559 -3.13633,4.6657 0.24931,2.1593 1.17937,3.14636 3.74658,3.97618 5.39373,1.74345 5.21637,2.38637 -1.17049,4.24308 -3.41225,0.99197 -6.44184,2.59374 -7.04799,3.72634 -1.69783,3.17243 -1.26882,8.29203 0.80353,9.58886 3.13683,1.96295 39.42876,0.54661 51.31723,-2.00273 z m -72.20317,-64.77108 c 0.48727,-0.30115 0.88594,-2.67007 0.88594,-5.26427 0,-4.27762 0.27308,-4.77693 2.93333,-5.36348 1.61334,-0.35572 5.40721,-1.32487 8.43084,-2.15366 7.24531,-1.98598 7.19998,-2.00322 4.46335,1.69827 l -2.36968,3.20516 2.18413,2.92817 c 1.20126,1.6105 2.97554,3.08381 3.94284,3.27403 2.71633,0.53418 18.50946,-10.36592 19.90672,-13.73922 1.00928,-2.43662 0.81626,-3.65913 -1.19313,-7.55676 -1.8615,-3.61079 -2.44074,-6.67596 -2.59207,-13.71654 -0.28004,-13.02855 -5.92786,-27.87496 -10.87872,-28.59683 -1.2454,-0.18158 -6.74109,1.80655 -12.21265,4.41809 -5.47156,2.61153 -12.20085,5.2801 -14.95397,5.93015 -7.97638,1.88335 -20.76688,1.44157 -29.66662,-1.02467 l -7.96275,-2.20659 -1.88247,2.32476 c -2.55129,3.15071 -2.36961,4.72388 0.78419,6.79033 3.51901,2.30575 3.34986,5.51671 -0.56301,10.6881 -5.16274,6.82326 -4.14982,9.59231 6.98632,19.09883 l 6.77128,5.78041 -2.72061,2.36554 c -2.25529,1.96095 -2.61713,3.00321 -2.11558,6.09388 1.11953,6.89887 1.71193,7.11667 17.14094,6.30214 7.58749,-0.40056 14.19411,-0.97469 14.68138,-1.27584 z m -15.11406,-37.81578 c -1.42222,-0.97317 -1.42222,-1.06529 0,-0.82915 0.88,0.14611 2.94919,-0.0903 4.59819,-0.52546 2.60512,-0.6874 2.95472,-1.24079 2.66666,-4.22118 -0.2871,-2.97054 -0.86022,-3.56069 -4.27797,-4.40511 -4.67012,-1.15384 -6.92767,0.20369 -7.51634,4.51977 l -0.38943,2.85527 -0.90207,-3.11613 c -0.76981,-2.65925 -0.47868,-3.48033 1.98559,-5.6 3.37889,-2.9064 6.66257,-3.15963 10.06536,-0.77623 3.69758,2.58989 4.74144,6.34229 2.80568,10.08564 -1.71934,3.32483 -5.79213,4.23199 -9.03567,2.01258 z m 33.6,-2.97031 c -6.90918,-4.22428 -8.52493,-9.34092 -4.28773,-13.57812 2.49702,-2.49702 3.46292,-2.78083 7.8003,-2.29194 9.04803,1.01984 13.3597,10.62928 7.01025,15.62376 -3.46268,2.72375 -6.35982,2.79156 -10.52282,0.2463 z m 10.07779,-3.58666 c 1.48685,-2.66095 1.43987,-3.11553 -0.60633,-5.86667 -1.68861,-2.27036 -3.25974,-3.05978 -6.582,-3.30715 -3.69127,-0.27484 -4.63914,0.0951 -6.14937,2.4 -1.66929,2.54766 -1.66933,2.90215 -5.8e-4,5.44898 3.52824,5.38478 10.67316,6.09445 13.33828,1.32484 z m -76.003,-4.04889 c 1.29645,-2.64 3.19079,-7.32997 4.20964,-10.42216 1.82719,-5.54542 1.81918,-5.69069 -0.58665,-10.64261 l -2.43912,-5.02045 -3.459,3.77442 c -3.13009,3.41551 -10.19966,19.27046 -10.19966,22.87479 0,2.17724 4.44292,4.88028 7.45881,4.53788 1.95764,-0.22226 3.28044,-1.56771 5.01598,-5.10187 z m 42.7435,-41.9708 c 3.67673,-2.2399 7.37143,-5.40002 8.21044,-7.0225 1.49609,-2.89312 1.45475,-2.97165 -2.14649,-4.0769 -3.5671,-1.09478 -3.65328,-1.05247 -3.01735,1.48127 0.85935,3.42394 -1.80432,6.37396 -8.66489,9.59636 -5.76214,2.70648 -10.59415,3.12675 -16.64009,1.44731 -5.81977,-1.61662 -7.93511,-4.57417 -7.67022,-10.72407 0.28052,-6.51254 3.20231,-12.30716 8.71834,-17.29056 5.55316,-5.01695 9.43341,-6.93682 26.25864,-12.99228 7.62666,-2.74486 16.68909,-6.0056 20.13872,-7.24608 5.67603,-2.04109 10.26128,-5.30377 10.26128,-7.30152 0,-0.4203 -2.09191,-1.99012 -4.64868,-3.48848 -2.55677,-1.49837 -5.47943,-3.9922 -6.4948,-5.54185 -1.46681,-2.23863 -2.42933,-2.69398 -4.68465,-2.21618 -9.76053,2.06778 -9.19334,2.15349 -12.77982,-1.93128 -1.86563,-2.12483 -3.39205,-4.7419 -3.39205,-5.8157 0,-2.7081 -3.80802,-7.28144 -7.76807,-9.32926 -4.41611,-2.28366 -16.83507,-5.79357 -17.98485,-5.08296 -2.82251,1.74441 2.3132,8.25676 11.33723,14.37621 6.59374,4.4714 10.14902,9.08046 10.14902,13.15715 0,3.11022 -3.80811,1.76766 -7.53023,-2.65482 -2.01837,-2.39815 -4.95703,-5.90423 -6.53036,-7.7913 -3.92274,-4.70498 -13.69854,-9.28967 -21.27249,-9.97645 -5.97727,-0.542 -6.32096,-0.43126 -9.96222,3.21 -8.21355,8.21355 -2.62322,19.30776 14.0953,27.97259 3.08,1.5963 5.6,3.2364 5.6,3.64468 0,0.40828 -2.14387,1.7839 -4.76417,3.05694 -10.48481,5.09391 -13.49181,16.77809 -7.62453,29.6263 3.21716,7.04494 9.09838,13.80852 13.9887,16.0874 2.03274,0.94725 5.92362,1.3831 10.66667,1.19486 6.49632,-0.25782 8.33543,-0.82559 14.15162,-4.36888 z m -36.01829,-22.02919 c 0,-2.93334 0.48,-5.33334 1.06667,-5.33334 0.58667,0 1.06667,2.4 1.06667,5.33334 0,2.93333 -0.48,5.33333 -1.06667,5.33333 -0.58667,0 -1.06667,-2.4 -1.06667,-5.33333 z"
       id="path1" />
  </g>
</svg>
