<?xml version="1.0" encoding="UTF-8"?><svg id="Layer_1" xmlns="http://www.w3.org/2000/svg" viewBox="0 0 252 298"><defs><style>.cls-1,.cls-2{stroke-width:0px;}.cls-2{fill:#fff;}</style></defs><path class="cls-2" d="M0,0c84,0,168,0,252,0,0,99.33,0,198.67,0,298-84,0-168,0-252,0C0,198.67,0,99.33,0,0ZM11.96,212.4c1.43-1.51,2.86-3.04,4.31-4.54,9.77-10.13,22.58-12.66,35.97-7.69,17.85,6.61,36.03,10.75,55.07,5.27,3.92-1.13,4.91.66,4.21,4.09-1.71,8.44-3.59,16.85-5.21,25.31-.82,4.28-2.81,6.34-7.41,5.63-2.1-.33-4.6-.55-6.42.28-8.13,3.71-16.34,2.19-24.57.95-5.09-.76-7.2.45-7.89,5.56-.53,3.95-.4,7.98-.71,11.96-.36,4.55,1.64,7.78,5.51,9.79,2.48,1.28,5.14,2.54,7.85,3.01,7.68,1.34,15.41,2.64,23.17,3.24,8.06.63,16.25,1.13,24.26.41,8.56-.76,11.08-7.63,6.51-14.82-1.16-1.83-1.9-4.29-1.86-6.45.09-5.14-2.37-8.63-6.93-9.73-5.55-1.35-5.76-4.77-4.8-9.02,1.76-7.77,3.62-15.52,5.66-23.21.29-1.09,1.91-2.7,2.79-2.63,5.62.48,9.66-1.36,12.27-6.55.49-.98,2.53-1.4,3.92-1.59.56-.08,1.68,1.02,1.9,1.78,2.41,7.98,2.38,8.27,10.43,8.13,4.89-.09,5.96,2.04,5.72,6.34-.37,6.81-.4,13.65-.54,20.47-.13,6.56-1.03,7.79-7.41,7.9-4.39.08-6.61,2.1-8.07,5.99-1.01,2.71-2.94,5.06-4.1,7.73-.9,2.05-1.75,4.35-1.74,6.53.03,7.36,5.09,11.54,10.94,14.11,7.26,3.18,14.98,5.38,22.57,7.77,10.22,3.22,19.68,2.76,27.1-6.33,3.31-4.05,8.1-7.75,6.44-13.68-1.8-6.39-7.96-7.96-13.51-9.77-1.23-.4-2.64-.4-3.96-.34-3.12.14-5.23-.57-4.9-4.37.08-.99-.4-2.64-1.11-2.99-3.39-1.68-6.84-3.78-10.47-4.28-4.51-.62-4.33-3.04-4.05-6.23.64-7.25,1.43-14.51,1.67-21.78.12-3.59,1.09-4.98,4.83-5.09,5.04-.15,7.03-2.57,7.16-7.64.07-2.66-.32-5.4.16-7.98.36-1.95,1.5-3.91,2.76-5.49,1.94-2.44,4.09-4.8,6.52-6.74,1.46-1.17,3.61-1.48,5.44-2.18.44,1.81,1.12,3.6,1.24,5.43.07,1.04-.98,2.1-1.18,3.21-.8,4.52-1.85,9.04-1.99,13.59-.05,1.63,1.92,3.89,3.56,4.78.96.52,3.73-.67,4.54-1.87,2.09-3.07,3.47-6.62,5.3-9.89.73-1.31,1.73-2.88,2.97-3.34.76-.28,2.49,1.11,3.31,2.13,2.81,3.49,5.28,7.27,8.17,10.69.93,1.09,3.12,2.26,4.12,1.86,1.37-.54,2.94-2.48,3.07-3.94.37-4.39,1.13-8.96-2.21-12.89-1.04-1.23-1.2-3.22-2.11-5.85,8.58,1.05,15.67.5,15.85-10.33-1.46-.25-3.02-.75-4.57-.75-7.51,0-17.11-8.47-19.05-15.5-1.99-7.23-4.89-14.29-8.11-21.09-2.97-6.28-6.99-12.05-10.37-18.15-2.75-4.98-1.99-6.46,2.94-9.15,10.77-5.87,16.57-15.04,17.99-27.25.3-2.62,1.66-5.78,3.61-7.43,7.32-6.18,15.18-11.73,22.66-17.73,7.11-5.71,10.88-12.61,10-22.44-.6-6.68-3.6-8.91-8.85-8.87-3.88.03-8.59,1.34-11.44,3.8-5.47,4.72-9.81,10.73-14.74,16.09-9.05,9.82-5.42,15.13-17.86,2.46-.35-.36-.75-.66-1.12-1-2.34-2.15-2.22-4.08.14-6.3,3.88-3.65,7.91-7.23,11.2-11.38,4.88-6.15,8.92-12.84,8.23-21.28-.48-5.95-5.81-9.89-11.2-7.36-13.2,6.2-23.1,15.62-26.08,30.54-.63,3.14-1.46,4.35-4.63,4.12-14.94-1.07-27.23,4.22-37.27,15.33-4.09,4.53-10.53,3.39-13.99-1.71-1.55-2.28-3.33-4.69-5.58-6.16-5.4-3.51-10.79-.71-10.51,5.67.16,3.56,2.17,7.02,3.26,10.56.75,2.42,1.26,4.92,2.07,7.32.88,2.61,1.25,6.31,3.13,7.48,5.42,3.37,11.26,6.49,17.36,8.26,10.04,2.92,15.22,11.16,11.75,21.22-.55,1.59-2.79,3.24-4.53,3.64-6.09,1.41-6.63,2.03-3.66,7.72,1.93,3.69,1.25,5.96-2.45,8.12-9.73,5.68-20.37,6.73-31.25,6.74-1.46,0-2.92-.9-4.37-1.39.85-1.65,1.38-3.62,2.63-4.87,1.86-1.85,4.77-2.81,6.24-4.86,1.45-2.02,1.65-4.93,2.4-7.45-2.35-.61-4.96-2.18-6.98-1.61-3.41.95-6.64,2.98-9.58,5.06-4.8,3.39-6.83,3.07-10.23-1.58-2.64-3.6-5.52-7.13-8.82-10.11-2.9-2.62-6.89-3.33-10.05-.49-3.25,2.92-1.83,6.41.44,9.39,1.6,2.12,3.7,3.89,5.11,6.11,1.22,1.92,2.97,4.76,2.32,6.26-.71,1.62-3.83,2.45-6.05,3.1-3.8,1.11-7.95,1.29-11.49,2.88-1.94.87-3.52,3.69-4.09,5.93-.24.95,2.29,3.38,3.94,3.86,2.41.71,5.27.8,7.73.25,9.86-2.2,15.11,3.26,12.35,13.08-.54,1.91-1.26,3.9-1.16,5.81.1,1.89,1.13,3.73,1.76,5.6,2.04-1.08,4.98-1.66,5.96-3.35,2.55-4.41,4.4-9.26,6.22-14.05,1.59-4.18,3.94-6.74,8.8-6.44,3.82.24,7.66-.04,11.49.07,2.36.07,4.71.42,7.68.7-1.18,2.79-1.84,4.64-2.73,6.37-3.72,7.24-5.88,14.83-5.25,23.03.4,5.17-.73,9.77-3.5,14.23-1.06,1.71-1.5,4.56-.86,6.43,2.1,6.14,1.57,7.75-4.94,9.36-9.2,2.28-18.35,2.85-27.5-.7-6.51-2.52-13.14-4.94-19.91-6.57-20-4.82-29.3-.22-38.72,15.78ZM8.14,218.25c-4.98,5.12-7.25,17.74-4.07,20.26,1.31-6.53,2.68-13.33,4.07-20.26Z"/><path class="cls-1" d="M11.96,212.4c9.42-15.99,18.73-20.6,38.72-15.78,6.78,1.63,13.4,4.05,19.91,6.57,9.16,3.55,18.3,2.98,27.5.7,6.52-1.61,7.05-3.22,4.94-9.36-.64-1.87-.2-4.72.86-6.43,2.77-4.45,3.89-9.06,3.5-14.23-.63-8.2,1.53-15.79,5.25-23.03.89-1.73,1.55-3.59,2.73-6.37-2.97-.28-5.32-.63-7.68-.7-3.83-.11-7.68.17-11.49-.07-4.86-.3-7.21,2.27-8.8,6.44-1.82,4.79-3.67,9.63-6.22,14.05-.98,1.7-3.91,2.27-5.96,3.35-.62-1.86-1.66-3.71-1.76-5.6-.1-1.91.63-3.9,1.16-5.81,2.76-9.82-2.49-15.28-12.35-13.08-2.47.55-5.32.47-7.73-.25-1.65-.49-4.18-2.92-3.94-3.86.58-2.24,2.15-5.06,4.09-5.93,3.54-1.59,7.69-1.78,11.49-2.88,2.22-.65,5.34-1.48,6.05-3.1.65-1.49-1.1-4.34-2.32-6.26-1.41-2.22-3.51-3.99-5.11-6.11-2.26-2.99-3.69-6.47-.44-9.39,3.16-2.84,7.15-2.12,10.05.49,3.3,2.98,6.18,6.51,8.82,10.11,3.4,4.66,5.43,4.98,10.23,1.58,2.95-2.08,6.18-4.1,9.58-5.06,2.02-.56,4.64,1,6.98,1.61-.75,2.52-.96,5.43-2.4,7.45-1.47,2.05-4.38,3.01-6.24,4.86-1.25,1.25-1.78,3.22-2.63,4.87,1.46.48,2.92,1.39,4.37,1.39,10.88,0,21.52-1.06,31.25-6.74,3.7-2.16,4.38-4.42,2.45-8.12-2.97-5.68-2.43-6.31,3.66-7.72,1.74-.4,3.98-2.06,4.53-3.64,3.47-10.06-1.71-18.29-11.75-21.22-6.1-1.77-11.93-4.89-17.36-8.26-1.87-1.16-2.25-4.87-3.13-7.48-.81-2.4-1.32-4.9-2.07-7.32-1.1-3.53-3.11-7-3.26-10.56-.28-6.37,5.11-9.18,10.51-5.67,2.25,1.47,4.03,3.88,5.58,6.16,3.46,5.1,9.9,6.24,13.99,1.71,10.04-11.11,22.33-16.41,37.27-15.33,3.17.23,4-.98,4.63-4.12,2.98-14.92,12.88-24.34,26.08-30.54,5.38-2.53,10.72,1.4,11.2,7.36.68,8.44-3.35,15.13-8.23,21.28-3.29,4.15-7.33,7.73-11.2,11.38-2.35,2.22-2.48,4.15-.14,6.3.37.34.77.64,1.12,1,12.45,12.66,8.82,7.35,17.86-2.46,4.94-5.36,9.27-11.37,14.74-16.09,2.85-2.46,7.55-3.76,11.44-3.8,5.25-.04,8.25,2.19,8.85,8.87.89,9.82-2.89,16.73-10,22.44-7.48,6-15.34,11.55-22.66,17.73-1.95,1.64-3.3,4.81-3.61,7.43-1.42,12.22-7.21,21.39-17.99,27.25-4.93,2.69-5.69,4.17-2.94,9.15,3.37,6.1,7.39,11.87,10.37,18.15,3.22,6.8,6.12,13.86,8.11,21.09,1.94,7.03,11.54,15.51,19.05,15.5,1.55,0,3.11.5,4.57.75-.19,10.83-7.27,11.39-15.85,10.33.9,2.63,1.06,4.62,2.11,5.85,3.33,3.94,2.58,8.5,2.21,12.89-.12,1.46-1.69,3.4-3.07,3.94-1.01.4-3.2-.77-4.12-1.86-2.9-3.42-5.36-7.19-8.17-10.69-.82-1.02-2.55-2.41-3.31-2.13-1.24.46-2.23,2.03-2.97,3.34-1.83,3.26-3.21,6.81-5.3,9.89-.82,1.2-3.59,2.39-4.54,1.87-1.64-.89-3.61-3.15-3.56-4.78.14-4.55,1.18-9.08,1.99-13.59.2-1.11,1.25-2.17,1.18-3.21-.12-1.83-.79-3.62-1.24-5.43-1.84.7-3.98,1.01-5.44,2.18-2.42,1.94-4.58,4.3-6.52,6.74-1.26,1.59-2.4,3.55-2.76,5.49-.48,2.58-.09,5.31-.16,7.98-.13,5.07-2.12,7.49-7.16,7.64-3.73.11-4.71,1.5-4.83,5.09-.24,7.27-1.03,14.52-1.67,21.78-.28,3.19-.46,5.61,4.05,6.23,3.63.5,7.08,2.6,10.47,4.28.71.35,1.19,2,1.11,2.99-.33,3.81,1.78,4.52,4.9,4.37,1.32-.06,2.73-.06,3.96.34,5.55,1.81,11.71,3.38,13.51,9.77,1.67,5.92-3.13,9.62-6.44,13.68-7.42,9.1-16.88,9.55-27.1,6.33-7.59-2.39-15.31-4.59-22.57-7.77-5.85-2.57-10.91-6.75-10.94-14.11,0-2.18.85-4.48,1.74-6.53,1.17-2.67,3.09-5.02,4.1-7.73,1.46-3.9,3.69-5.92,8.07-5.99,6.39-.11,7.28-1.34,7.41-7.9.14-6.83.17-13.66.54-20.47.24-4.3-.83-6.42-5.72-6.34-8.06.14-8.03-.15-10.43-8.13-.23-.76-1.34-1.86-1.9-1.78-1.39.2-3.43.62-3.92,1.59-2.62,5.19-6.65,7.03-12.27,6.55-.88-.08-2.51,1.53-2.79,2.63-2.04,7.7-3.9,15.45-5.66,23.21-.96,4.24-.76,7.67,4.8,9.02,4.56,1.11,7.01,4.59,6.93,9.73-.04,2.16.7,4.62,1.86,6.45,4.58,7.2,2.06,14.06-6.51,14.82-8.02.72-16.2.22-24.26-.41-7.76-.61-15.49-1.91-23.17-3.24-2.72-.47-5.37-1.73-7.85-3.01-3.87-2-5.87-5.24-5.51-9.79.31-3.98.18-8.01.71-11.96.69-5.11,2.8-6.33,7.89-5.56,8.23,1.24,16.44,2.76,24.57-.95,1.82-.83,4.32-.61,6.42-.28,4.6.71,6.59-1.35,7.41-5.63,1.62-8.46,3.5-16.87,5.21-25.31.7-3.43-.3-5.22-4.21-4.09-19.04,5.48-37.23,1.34-55.07-5.27-13.39-4.96-26.2-2.43-35.97,7.69-1.45,1.5-2.87,3.02-4.31,4.54ZM124.9,194.24c5.4,1.6,9.96,3.62,14.69,4.15,3.84.43,5.25,1.38,4.11,5.08-1.32,4.28.77,5.87,4.67,6.06,5.99.29,11.98.64,17.98.79,3.28.08,7.19.6,7.71-4.16.43-3.9,1.98-8.71-5.99-8.97,2.55-1.99,4.14-3.08,5.56-4.36,3.31-2.99,6.77-5.87,9.74-9.18,3.15-3.51,3.44-6.87-.44-10.81-5.43-5.52-4.36-9.58,2.2-12.08-1.77-6.26-3.05-7.11-8.56-5.24-18.4,6.25-35.52,2.7-51.54-7.21-4.15-2.57-6.72-1.86-8.44,1.87-3.61,7.84-7.66,15.79-6.44,24.78.63,4.64-.3,8.43-2.69,12.24-2.33,3.7-2.17,7.64,1.26,10.39,4.12,3.3,8.68,6.08,13.24,8.78,2.88,1.71,5.13.66,7.16-2.16,2.06-2.85.9-4.48-1.07-6.38-1.11-1.07-2.03-2.32-3.13-3.6ZM170.82,42.74c-.53-.74-1.06-1.49-1.59-2.23-4.92,1.45-9.97,2.58-14.72,4.46-4.29,1.7-7.71,4.06-8.57,9.77-.51,3.4-4.11,6.74-7.1,9.14-1.06.85-4.48-.96-6.7-1.87-3.21-1.31-5.04-.96-6.5,2.72-.78,1.96-3.54,3.2-5.54,4.58-1.47,1.01-3.14,1.73-4.72,2.58,1.12,1.67,1.88,4.14,3.44,4.85,5.1,2.33,10.51,4.01,15.79,5.96,8.88,3.28,18.18,5.76,26.5,10.1,8.31,4.34,15.23,10.86,16.37,21.28.7,6.41-1.2,8.86-7.42,11-7.34,2.53-13.63.57-19.83-3.32-3.21-2.02-6.12-3.93-3.63-9.54-3.04.98-4.94,1.59-6.84,2.21,1.04,1.71,1.68,4.01,3.19,5.01,4.53,3.01,9.14,6.76,14.22,7.87,5.14,1.12,11.98,1.15,16.14-1.44,6.98-4.34,11.89-11.49,14.06-19.95,2.92-11.37-1.62-20.08-12.65-24.15-.56-.21-.99-.75-2.09-1.61,2.07-.96,3.7-1.61,5.24-2.45,6.44-3.53,12.92-7.09,16.52-13.93,3.34-6.36.33-13.98-6.11-15.82-8.16-2.34-23.51,4.48-27.7,11.98-1.59,2.84-3.76,5.46-6.12,7.7-1.1,1.04-3.29.92-4.99,1.32.05-1.66-.37-3.54.27-4.93,1.01-2.21,2.38-4.54,4.23-6.04,3.58-2.91,7.85-5,11.36-7.97,2.26-1.92,3.69-4.82,5.49-7.28ZM165.01,261.33c2.09-1.04,4.57-1.92,6.59-3.43,1.13-.85,1.48-2.74,2.18-4.17-3.14-1.37-6.29-2.74-9.43-4.1-.21,2.15-.41,4.3-.65,6.78-6.13,1.3-9.61.25-14.51-4.39-.89-.85-2.5-1.38-3.72-1.29-.72.06-1.98,1.74-1.84,2.49.23,1.27,1.11,2.81,2.18,3.45,1.72,1.04,3.83,1.45,5.77,2.12-2.54,1.02-5.05.59-7.32,1.14-2.02.5-4.34,1.66-5.53,3.27-3.41,4.61-1.62,11,4.61,13.42,10.48,4.08,21.23,7.7,32.15,10.33,5.99,1.44,12.32-.5,16.73-5.58,3.23-3.72,7.49-7.63,5.76-13.03-1.83-5.72-7.51-6.71-12.76-6.95-6.68-.31-13.39-.08-20.21-.08ZM113.66,257.69l.06-1.59c1.86-.38,3.84-.49,5.54-1.25,1.09-.49,2.39-1.87,2.48-2.95.25-2.76-4.62-6.53-7.61-5.49-1.42.5-2.04,3.29-3.02,5.04-3.19,2.82-7.01,1.71-10.09-1.03-.94-.83-.15-3.61-.15-6.06-3.68-1.78-8.02-1.58-11.32,1.55-1.19,1.13-.19,4.56-.19,7.29-.77-.46-2.86-.96-3.51-2.22-1.88-3.64-4.99-4.45-8.54-5.1-13.4-2.44-14.38-1.66-14.49,12.19-.06,7.08,1.03,9.07,7.83,10.63,7.1,1.63,14.35,2.92,21.61,3.49,9.37.74,18.8.81,28.2.75,3.2-.02,6.66-1.36,6.1-5.62-.52-3.9-1.98-7.34-7.02-7.59-1.99-.1-3.93-1.34-5.89-2.06ZM183.57,147.51c1.03,3.46,1.57,5.89,2.49,8.16,1.3,3.21,3.3,6.18,4.22,9.48,1.07,3.82,3.3,3.53,6.06,2.71,3.08-.92,5.22-2.73,4.02-6.18-1.9-5.46-3.84-10.95-6.43-16.09-1.25-2.49-4.01-4.22-6.09-6.3-1.51,2.91-3.02,5.83-4.27,8.23Z"/><path class="cls-1" d="M8.14,218.25c-1.39,6.93-2.76,13.73-4.07,20.26-3.18-2.52-.92-15.14,4.07-20.26Z"/><path class="cls-2" d="M124.9,194.24c1.1,1.27,2.02,2.53,3.13,3.6,1.97,1.89,3.13,3.53,1.07,6.38-2.03,2.82-4.28,3.87-7.16,2.16-4.55-2.7-9.12-5.48-13.24-8.78-3.43-2.75-3.59-6.69-1.26-10.39,2.4-3.8,3.32-7.6,2.69-12.24-1.22-8.99,2.83-16.93,6.44-24.78,1.71-3.73,4.29-4.44,8.44-1.87,16.02,9.91,33.14,13.46,51.54,7.21,5.51-1.87,6.78-1.02,8.56,5.24-6.56,2.49-7.63,6.56-2.2,12.08,3.88,3.94,3.6,7.3.44,10.81-2.97,3.31-6.43,6.19-9.74,9.18-1.42,1.28-3.01,2.37-5.56,4.36,7.97.25,6.42,5.06,5.99,8.97-.53,4.76-4.44,4.24-7.71,4.16-5.99-.15-11.98-.49-17.98-.79-3.9-.19-5.98-1.78-4.67-6.06,1.14-3.7-.27-4.64-4.11-5.08-4.73-.53-9.29-2.55-14.69-4.15ZM161.96,171.59c2.55-2.57,4.1-5.32,1.25-8.63-3.06-3.54-7.23-3.86-10.98-.86-3.23,2.59-4.4,5.87-2.27,9.6,2.12,3.7,5.31,3.87,10.33.98.43-.25.87-.48,1.3-.71.11-.13.24-.26.37-.38ZM121.99,172.15c5.71-.01,11.25-5.16,11.28-10.47.02-4.29-3.07-6.68-8.66-6.7-5.77-.02-10.65,4.35-10.73,9.61-.06,4.27,3.48,7.57,8.12,7.56Z"/><path class="cls-2" d="M170.82,42.74c-1.8,2.46-3.23,5.36-5.49,7.28-3.51,2.98-7.78,5.06-11.36,7.97-1.85,1.5-3.22,3.82-4.23,6.04-.64,1.39-.21,3.27-.27,4.93,1.7-.4,3.89-.28,4.99-1.32,2.36-2.24,4.54-4.86,6.12-7.7,4.19-7.5,19.54-14.32,27.7-11.98,6.44,1.85,9.45,9.47,6.11,15.82-3.6,6.85-10.08,10.4-16.52,13.93-1.53.84-3.17,1.49-5.24,2.45,1.09.86,1.53,1.41,2.09,1.61,11.03,4.07,15.57,12.78,12.65,24.15-2.17,8.45-7.08,15.61-14.06,19.95-4.17,2.59-11,2.56-16.14,1.44-5.09-1.1-9.69-4.86-14.22-7.87-1.51-1-2.15-3.3-3.19-5.01,1.9-.61,3.81-1.23,6.84-2.21-2.49,5.61.42,7.53,3.63,9.54,6.19,3.89,12.49,5.85,19.83,3.32,6.22-2.14,8.11-4.6,7.42-11-1.14-10.42-8.06-16.94-16.37-21.28-8.32-4.35-17.62-6.82-26.5-10.1-5.28-1.95-10.68-3.63-15.79-5.96-1.56-.71-2.32-3.19-3.44-4.85,1.58-.85,3.26-1.56,4.72-2.58,2-1.38,4.76-2.62,5.54-4.58,1.46-3.68,3.3-4.03,6.5-2.72,2.22.91,5.63,2.72,6.7,1.87,2.99-2.4,6.59-5.74,7.1-9.14.85-5.71,4.27-8.07,8.57-9.77,4.75-1.88,9.8-3.01,14.72-4.46.53.74,1.06,1.49,1.59,2.23ZM182.36,97.24c-.65.08-1.29.15-1.94.23.2,3.73.39,7.46.59,11.19.45-.03.9-.06,1.35-.1v-11.32Z"/><path class="cls-2" d="M165.01,261.33c6.82,0,13.52-.24,20.21.08,5.24.25,10.92,1.24,12.76,6.95,1.73,5.4-2.54,9.31-5.76,13.03-4.41,5.08-10.74,7.02-16.73,5.58-10.92-2.63-21.67-6.26-32.15-10.33-6.23-2.42-8.01-8.81-4.61-13.42,1.19-1.61,3.51-2.78,5.53-3.27,2.27-.56,4.77-.13,7.32-1.14-1.94-.67-4.05-1.08-5.77-2.12-1.07-.65-1.95-2.18-2.18-3.45-.13-.75,1.12-2.43,1.84-2.49,1.22-.1,2.83.44,3.72,1.29,4.89,4.64,8.37,5.69,14.51,4.39.24-2.48.44-4.63.65-6.78,3.14,1.37,6.29,2.74,9.43,4.1-.7,1.42-1.05,3.32-2.18,4.17-2.01,1.51-4.5,2.39-6.59,3.43Z"/><path class="cls-2" d="M113.66,257.69c1.96.72,3.9,1.96,5.89,2.06,5.04.25,6.5,3.69,7.02,7.59.56,4.25-2.9,5.6-6.1,5.62-9.4.05-18.84-.02-28.2-.75-7.26-.57-14.51-1.86-21.61-3.49-6.8-1.56-7.88-3.55-7.83-10.63.11-13.85,1.09-14.63,14.49-12.19,3.55.65,6.67,1.46,8.54,5.1.65,1.25,2.73,1.76,3.51,2.22,0-2.72-1-6.16.19-7.29,3.3-3.13,7.64-3.33,11.32-1.55,0,2.45-.79,5.23.15,6.06,3.08,2.74,6.9,3.85,10.09,1.03.98-1.75,1.6-4.55,3.02-5.04,2.99-1.04,7.86,2.73,7.61,5.49-.1,1.08-1.39,2.46-2.48,2.95-1.7.76-3.68.87-5.54,1.25l-.06,1.59Z"/><path class="cls-2" d="M183.57,147.51c1.25-2.4,2.76-5.32,4.27-8.23,2.08,2.08,4.84,3.81,6.09,6.3,2.59,5.14,4.53,10.64,6.43,16.09,1.2,3.44-.93,5.26-4.02,6.18-2.77.83-5,1.11-6.06-2.71-.92-3.29-2.93-6.27-4.22-9.48-.92-2.27-1.45-4.7-2.49-8.16Z"/><path class="cls-1" d="M121.99,172.15c-4.64,0-8.18-3.29-8.12-7.56.08-5.26,4.96-9.63,10.73-9.61,5.6.02,8.68,2.41,8.66,6.7-.02,5.31-5.57,10.46-11.28,10.47ZM122.1,170.05c4.67-.08,9.08-3.54,8.84-6.7-.28-3.69-2.76-5.46-6.35-5.56-4.2-.12-8.1,3.48-7.81,7.26.28,3.74,2.81,4.91,5.33,5Z"/><path class="cls-2" d="M161.96,171.59c-.13.12-.25.25-.37.38-1.8.27-3.69.98-5.39.68-1.75-.31-4.16-1.25-4.73-2.59-.59-1.36.15-4.44,1.3-5.14,1.97-1.21,5.05-2.11,7.07-1.42,3.88,1.33,2.94,4.96,2.12,8.1Z"/><path class="cls-1" d="M161.96,171.59c.82-3.14,1.77-6.77-2.12-8.1-2.02-.69-5.1.21-7.07,1.42-1.15.7-1.88,3.78-1.3,5.14.57,1.33,2.98,2.28,4.73,2.59,1.7.3,3.59-.41,5.39-.68-.43.24-.87.47-1.3.71-5.02,2.89-8.22,2.71-10.33-.98-2.13-3.72-.96-7.01,2.27-9.6,3.74-3,7.92-2.68,10.98.86,2.85,3.3,1.3,6.06-1.25,8.63Z"/><path class="cls-1" d="M182.36,97.24v11.32c-.45.03-.9.06-1.35.1-.2-3.73-.39-7.46-.59-11.19.65-.08,1.29-.15,1.94-.23Z"/><path class="cls-2" d="M122.1,170.05c-2.51-.09-5.05-1.27-5.33-5-.28-3.78,3.62-7.38,7.81-7.26,3.59.1,6.08,1.87,6.35,5.56.24,3.16-4.17,6.62-8.84,6.7Z"/></svg>