<?xml version="1.0" encoding="UTF-8" standalone="no"?>
<!-- Created with Inkscape (http://www.inkscape.org/) -->

<svg
   version="1.1"
   id="svg1"
   width="793.59998"
   height="1122.1333"
   viewBox="0 0 793.59998 1122.1333"
   sodipodi:docname="Mikey - scared - 4.png"
   xmlns:inkscape="http://www.inkscape.org/namespaces/inkscape"
   xmlns:sodipodi="http://sodipodi.sourceforge.net/DTD/sodipodi-0.dtd"
   xmlns="http://www.w3.org/2000/svg"
   xmlns:svg="http://www.w3.org/2000/svg">
  <defs
     id="defs1" />
  <sodipodi:namedview
     id="namedview1"
     pagecolor="#ffffff"
     bordercolor="#000000"
     borderopacity="0.25"
     inkscape:showpageshadow="2"
     inkscape:pageopacity="0.0"
     inkscape:pagecheckerboard="0"
     inkscape:deskcolor="#d1d1d1" />
  <g
     inkscape:groupmode="layer"
     inkscape:label="Image"
     id="g1">
    <path
       style="fill:#000000"
       d="m 341.6658,711.58826 c -4.57182,-2.14055 -10.54228,-9.12992 -11.68368,-13.67761 -1.59868,-6.36968 4.93429,-13.57427 14.72562,-16.23949 3.7174,-1.01188 7.76703,-2.17138 8.99917,-2.57666 1.80445,-0.59353 2.82092,0.10101 5.22512,3.57029 3.27556,4.72663 3.07109,6.19686 -0.58936,4.23785 -7.07934,-3.78875 -17.27935,-2.99629 -21.98359,1.70794 -4.90002,4.90002 -2.3881,14.38354 5.32163,20.09132 2.55741,1.89334 4.32317,2.1947 11.65463,1.98908 17.27349,-0.48445 35.50371,-5.15043 41.56905,-10.63948 2.33487,-2.11303 2.45958,-7.57025 0.29157,-12.75902 -1.5564,-3.72498 -1.73829,-3.82097 -6.12559,-3.23251 l -4.52156,0.60647 2.65892,-2.04285 c 1.46241,-1.12356 3.03081,-2.05351 3.48533,-2.06656 1.63804,-0.047 2.94267,-5.43052 1.82301,-7.52262 -1.53319,-2.8648 -8.57853,-4.84693 -11.55878,-3.25195 -2.43608,1.30375 -3.02445,3.77143 -1.17217,4.9162 2.1852,1.35053 -1.33309,3.70132 -5.53957,3.70132 -3.38968,0 -5.04113,-0.8123 -8.91942,-4.38717 -3.19157,-2.9419 -5.3418,-4.16374 -6.52704,-3.70892 -1.48658,0.57045 -1.55107,0.41746 -0.40573,-0.96259 1.12772,-1.35882 0.78698,-3.09542 -1.98246,-10.10378 -2.32975,-5.89566 -3.34424,-10.25898 -3.34424,-14.38357 0,-7.38689 -2.30031,-10.1873 -8.36802,-10.1873 -5.28256,0 -6.99733,-1.97107 -9.22351,-10.60214 -2.90061,-11.2459 -5.58724,-12.94038 -14.23221,-8.97635 -1.95639,0.89707 -4.59918,1.36949 -5.87287,1.04982 -4.04387,-1.01495 -9.85897,-8.29558 -16.72335,-20.938 -13.79315,-25.40342 -15.16107,-37.80208 -5.12108,-46.41666 2.04054,-1.75083 7.41005,-5.72028 11.93224,-8.82099 4.5222,-3.10071 8.78979,-6.88342 9.48353,-8.40602 1.21069,-2.65718 0.8058,-3.20186 -10.08189,-13.56234 -9.82684,-9.351 -11.43218,-11.36437 -12.00849,-15.06065 -1.15221,-7.38993 -2.94732,-9.34725 -17.39139,-18.96283 -15.99841,-10.65032 -20.54176,-15.80568 -21.35094,-24.22703 -0.91155,-9.48665 4.89923,-16.45936 16.0535,-19.26357 4.33873,-1.09077 5.79951,-1.01217 9.83548,0.52918 3.86843,1.47737 5.6039,3.12005 9.43857,8.9339 2.58423,3.91802 5.47485,8.65325 6.4236,10.52271 2.31517,4.56196 3.32646,5.00858 6.55335,2.89425 5.58112,-3.6569 5.52952,-5.46599 -0.32763,-11.48649 -6.86898,-7.06053 -9.1544,-11.62469 -9.15011,-18.27345 0.006,-8.7458 6.18681,-17.83119 15.23815,-22.39775 11.53788,-5.82107 24.10521,5.90979 25.56501,23.86343 l 0.66139,8.13432 7.39913,0.73113 c 9.70833,0.95931 14.57606,2.92427 24.69862,9.97007 4.60839,3.20767 8.93018,5.83213 9.60396,5.83213 0.67379,0 1.92174,-2.52 2.77322,-5.6 1.79929,-6.50839 5.16592,-9.00942 9.77085,-7.25863 3.99222,1.51783 5.96254,5.28798 6.92002,13.24124 0.73139,6.07528 1.33718,7.51904 4.24369,10.11397 1.86478,1.66488 3.39051,3.98955 3.39051,5.16594 0,2.81151 -9.97098,14.22002 -14.52705,16.62143 -2.12323,1.11911 -3.85613,3.0068 -4.26849,4.64975 -0.9298,3.70463 2.33149,22.91434 4.07837,24.02247 0.76111,0.4828 3.18743,0.88518 5.39182,0.89416 2.80472,0.0114 7.68583,1.93772 16.25868,6.41633 6.73789,3.52 13.62731,6.4 15.30983,6.4 3.11147,0 8.59021,-3.19016 14.8007,-8.61815 5.23281,-4.57351 16.37148,-5.73079 18.73897,-1.94694 2.21604,3.5418 -0.0418,7.1519 -6.41978,10.26454 -3.34399,1.63197 -6.2321,3.48751 -6.41802,4.12341 -0.21333,0.72963 3.99997,1.6267 11.41983,2.43145 14.03986,1.52276 14.62194,1.71486 16.56164,5.46583 1.4094,2.72546 1.3272,3.10437 -1.1867,5.47074 -2.37611,2.23666 -3.99613,2.60661 -13.46897,3.07579 -11.50892,0.57003 -13.46568,1.639 -9.18108,5.01558 6.18724,4.87599 10.6578,9.96485 10.31778,11.74478 -0.21561,1.12866 -2.18391,2.53704 -4.82502,3.45246 -4.28693,1.48587 -4.66078,1.43255 -9.58835,-1.36733 -2.82012,-1.60242 -9.70125,-5.24925 -15.2914,-8.10407 -11.59302,-5.92041 -18.36983,-12.34398 -20.20229,-19.14922 -2.15362,-7.99792 -12.03416,-12.92553 -25.91745,-12.92553 -6.31987,0 -7.31592,0.24846 -6.76381,1.68724 0.3561,0.92798 0.64746,2.05968 0.64746,2.51489 0,0.45521 4.99031,4.96923 11.08958,10.03116 6.09928,5.06193 12.59077,11.46987 14.42553,14.23986 4.08303,6.16424 7.54615,16.98259 7.56728,23.6392 0.0228,7.17654 1.82336,9.83998 8.9677,13.26508 8.23108,3.94611 13.97631,5.04296 37.41657,7.14344 37.27093,3.33984 42.22476,4.29117 55.46666,10.65174 14.27738,6.85794 23.79922,18.0471 25.60494,30.08849 0.79361,5.29218 -0.0695,9.82119 -1.68173,8.82477 -0.54443,-0.33648 -0.99456,-2.86345 -1.00029,-5.61549 -0.0145,-6.94372 -4.08732,-15.10725 -10.97193,-21.99186 -12.41287,-12.41288 -26.50765,-16.27128 -68.48432,-18.74736 -12.09137,-0.71324 -23.85044,-2.02961 -29.15088,-3.26332 -4.88632,-1.13731 -9.29164,-2.06784 -9.7896,-2.06784 -0.49796,0 -0.6425,2.54707 -0.3212,5.66017 0.54026,5.23458 0.37406,5.79785 -2.2104,7.49126 -1.6823,1.10228 -2.79458,2.81345 -2.79458,4.29927 0,3.96674 14.12723,23.5237 18.48717,25.59263 2.03605,0.96616 4.1925,1.75666 4.79213,1.75666 0.59962,0 4.68027,1.93645 9.0681,4.30322 4.38783,2.36676 11.91255,5.73919 16.72159,7.49427 16.56629,6.04595 19.1868,8.71419 19.19368,19.54328 0.007,11.47964 -5.77774,16.6058 -19.72934,17.48228 -8.38695,0.5269 -17.57564,-1.96083 -25.33518,-6.85922 -5.98338,-3.77714 -14.50967,-11.90307 -16.47275,-15.69926 -3.0371,-5.8731 -5.87129,-18.07278 -5.26045,-22.64339 0.52042,-3.89402 -0.0121,-5.3494 -4.80951,-13.14497 -6.07234,-9.86723 -9.93666,-12.86628 -16.586,-12.87222 -5.69807,-0.005 -8.5435,-1.15962 -12.93527,-5.24847 -5.85617,-5.45224 -9.23541,-4.00415 -8.0274,3.43994 0.5347,3.295 0.1904,3.94705 -3.52375,6.67344 -9.31037,6.83431 -9.77926,9.81865 -3.49592,22.2504 5.87782,11.62939 7.47907,12.93412 16.83644,13.7186 4.17465,0.34999 8.91467,1.27083 10.53337,2.0463 2.60621,1.24857 2.95521,2.02072 3.04903,6.74571 0.0583,2.93467 1.13827,7.6695 2.4,10.52185 3.13691,7.0915 3.00077,11.82848 -0.43135,15.00926 -6.00361,5.56397 -23.56608,10.52665 -41.54126,11.73846 -8.19018,0.55214 -10.25608,0.34 -14.06752,-1.44453 z m 128.01825,-17.57657 c 5.7145,-2.38768 9.24994,-7.47119 9.24528,-13.29355 -0.007,-9.20301 -4.96673,-13.62606 -21.21697,-18.92249 -5.55165,-1.80944 -5.80521,-1.80586 -7.2,0.10162 -0.79514,1.08742 -1.44571,3.1072 -1.44571,4.4884 0,3.97435 -4.5349,7.75047 -9.28485,7.73131 -3.00667,-0.0121 -3.63675,-0.28242 -2.44848,-1.05033 0.88,-0.5687 2.64516,-1.04135 3.92258,-1.05034 2.81854,-0.0198 6.74409,-4.722 6.74409,-8.07834 0,-2.98036 -4.49186,-8.51473 -8.66039,-10.67036 -3.78706,-1.95836 -3.84695,-1.34006 -0.31831,3.28622 3.43896,4.50872 3.0681,7.32683 -1.02598,7.7961 -4.94241,0.56652 -7.77209,-0.62984 -13.47986,-5.69915 -2.96267,-2.63127 -5.85065,-4.78413 -6.41773,-4.78413 -0.56709,0 -1.03107,1.38414 -1.03107,3.07588 0,2.23534 1.16679,4.13 4.26974,6.93333 4.08398,3.68963 4.15359,3.85745 1.6,3.85745 -3.68054,0 -3.46646,2.6981 0.71498,9.01092 4.78178,7.21916 14.46619,13.92408 24.88195,17.22679 5.72295,1.81469 16.85369,1.83608 21.15073,0.0407 z M 362.69961,630.317 c 2.07146,-0.51703 4.67526,-1.6047 5.78622,-2.41706 1.95838,-1.432 1.93162,-1.6277 -0.87792,-6.42182 -1.59382,-2.71964 -3.47762,-5.0052 -4.18622,-5.07903 -0.7086,-0.0738 2.55163,-0.67777 7.24497,-1.3421 l 8.53333,-1.20789 1.78943,3.92991 c 0.98419,2.16145 2.75264,4.4454 3.92988,5.07544 5.03601,2.6952 13.88768,0.6927 24.19824,-5.47431 5.07969,-3.03829 5.81578,-3.9046 5.81578,-6.84453 0,-1.85127 -0.90361,-4.48187 -2.00803,-5.84577 -1.73952,-2.14822 -2.36412,-2.31756 -4.67104,-1.26646 l -2.66301,1.21335 1.47104,-4.8879 c 1.92589,-6.39924 1.87758,-19.85935 -0.0951,-26.50215 -1.6604,-5.59116 -5.43476,-11.43917 -8.99028,-13.92955 -1.99447,-1.39698 -2.70534,-0.94116 -9.92925,6.36666 -9.20971,9.3167 -15.96079,12.43692 -28.67162,13.25145 -9.45637,0.60598 -16.70147,-1.15868 -27.88982,-6.79304 -4.01933,-2.02411 -7.768,-3.39582 -8.33037,-3.04825 -1.5067,0.93119 -1.24445,7.73901 0.56587,14.68929 2.4092,9.24955 7.28058,17.9768 13.35376,23.92376 5.44423,5.33108 5.458,5.36155 2.73151,6.04585 -3.11128,0.78089 -3.38039,2.49377 -1.54004,9.80246 1.82698,7.25558 4.93032,9.15786 13.62709,8.35312 3.87162,-0.35826 8.73414,-1.0744 10.8056,-1.59143 z m 28.38233,-39.30021 c 1.84175,-1.12303 3.60385,-2.68124 3.91579,-3.46268 0.38515,-0.96483 0.5942,-0.83053 0.65138,0.41848 0.0463,1.0116 -1.33195,2.5716 -3.06282,3.46667 -4.45938,2.30603 -5.49983,2.01385 -1.50435,-0.42247 z m -48.76851,-5.25507 c 0.73461,-1.37263 2.25969,-2.29507 3.79447,-2.29507 3.51214,0 4.32922,1.75889 1.18381,2.54833 -1.40811,0.35342 -3.38063,0.9574 -4.38338,1.34219 -1.57685,0.6051 -1.65723,0.38953 -0.5949,-1.59545 z m 51.90498,-4.16033 c -0.35367,-1.11431 -2.1975,-2.79979 -4.0974,-3.7455 l -3.45436,-1.71947 3.33726,-0.0682 c 2.73972,-0.056 3.57713,0.51087 4.67691,3.16599 0.73681,1.77881 1.07887,3.49498 0.76014,3.81371 -0.31874,0.31874 -0.86888,-0.33219 -1.22255,-1.44651 z M 323.55496,560.1609 c 1.69132,-2.87837 1.78046,-3.86882 0.66099,-7.344 -2.64679,-8.21645 -4.15485,-8.44913 -11.56726,-1.78474 -5.91046,5.31402 -6.84137,8.4435 -3.42998,11.53077 5.25075,4.75186 10.66578,3.84458 14.33625,-2.40203 z m 38.69802,-22.00355 c 6.46706,-1.92051 13.57122,-7.79326 16.61937,-13.73864 2.43952,-4.75826 3.01017,-14.03264 1.15393,-18.75433 -0.84806,-2.15719 -1.23282,-0.97137 -2.24965,6.93334 -1.49364,11.6114 -4.3732,16.30922 -12.95281,21.13171 -5.05593,2.84188 -6.85164,3.27231 -13.33333,3.19603 -13.31682,-0.15672 -19.74481,-5.16764 -19.75318,-15.39854 -0.009,-11.21204 6.19127,-22.13577 15.16232,-26.71246 6.42288,-3.2767 18.01511,-5.31117 28.96264,-5.08301 10.66147,0.2222 12.91984,-0.48463 18.53772,-5.80204 3.65338,-3.45798 4.26062,-6.35317 2.25552,-10.75389 -1.61432,-3.54304 -3.62333,-4.15495 -7.33679,-2.23465 -4.66472,2.41222 -6.19336,1.96589 -8.24568,-2.40755 -2.68526,-5.72223 -5.27859,-5.61223 -17.78331,0.75431 -5.81081,2.95846 -10.92697,5.37902 -11.36924,5.37902 -0.44227,0 -5.23998,-3.6016 -10.66157,-8.00356 -10.89959,-8.84972 -15.28617,-10.62388 -24.39891,-9.86818 -5.34221,0.44302 -6.20223,0.90137 -10.40837,5.5472 -3.77483,4.16943 -4.58498,5.8093 -4.58498,9.28071 0,7.38033 3.45225,11.80226 15.46666,19.81098 3.52,2.3464 7.48,4.60603 8.8,5.0214 2.97448,0.93598 3.15021,2.74479 0.26667,2.74479 -1.17333,0 -3.15549,1.02215 -4.40478,2.27145 -2.08748,2.08747 -2.2282,3.09832 -1.73745,12.48055 0.49724,9.50629 0.72997,10.3596 3.38064,12.39522 1.56565,1.20236 4.67644,3.73776 6.91286,5.63422 8.86142,7.5144 19.93212,9.67112 31.70172,6.17592 z m -1.69679,-70.56578 c 2.33409,-1.54462 4.2438,-3.41006 4.2438,-4.14542 0,-0.73536 -2.28,-3.7455 -5.06667,-6.6892 -4.16866,-4.40357 -6.3627,-5.74844 -12.37902,-7.58791 -7.69341,-2.35222 -10.10158,-2.64948 -12.86707,-1.58826 -2.36689,0.90826 -2.09066,3.64193 0.71806,7.10599 2.43303,3.00073 18.77911,15.64333 20.28424,15.68852 0.45257,0.0136 2.73257,-1.23909 5.06666,-2.78372 z"
       id="path1" />
  </g>
</svg>
