<?xml version="1.0" encoding="UTF-8"?><svg id="Layer_1" xmlns="http://www.w3.org/2000/svg" viewBox="0 0 252 298"><defs><style>.cls-1,.cls-2{stroke-width:0px;}.cls-2{fill:#fff;}</style></defs><path class="cls-2" d="M252,298H0V0h252v298ZM149.85,180.04c4.1-3.34,4.83-7.24,1.97-10.56-2.68-3.12-8.2-3.32-11.73-.42-3.42,2.8-3.82,8.35-.85,11.6,2.86,3.13,6.96,2.84,10.77-.76l-.16.15ZM1.65,239.57c.58.03,1.17.06,1.75.09.24-.9.47-1.81.73-2.71,2.78-9.68,9.19-16.75,17.73-21.21,11.16-5.84,23.52-6.31,35.79-4.41,11.59,1.79,22.89,6.1,34.87,3.98,4.66-.82,5.2,1.7,4.76,5.11-.53,4.12-1.87,8.19-1.9,12.29-.04,4.57-.72,7.41-6.21,6.78-1.22-.14-2.56,1.42-3.95,1.85-2.09.65-4.38,1.66-6.39,1.33-4.4-.72-8.67-2.18-13-3.34-4.33-1.16-7.17.27-7.53,4.67-.49,5.92-.34,11.89-.25,17.84.06,4.13,2.57,6.53,6.52,6.96,17.47,1.9,34.94,3.71,52.43,5.42,3.58.35,7.37-.07,8.9-3.98,1.5-3.83.43-7.45-2.24-10.69-1.33-1.61-3.1-3.72-2.98-5.49.45-7.15-3.83-9.73-9.62-11.23-3.27-.85-5.18-2.51-4.98-6.29.34-6.32.22-12.66.5-18.99.23-5.2,1.45-6.09,6.46-5.18,1.47.27,2.9.74,4.32,1.21,7.61,2.56,10.31,1.27,13.9-5.74.78-1.51,3.2-2.7,5.02-2.95.98-.14,2.67,1.81,3.37,3.16,2.34,4.5,5.09,7.98,10.76,8.53,1.62.16,4.16,2.66,4.3,4.26.55,6.12.39,12.31.28,18.47-.05,2.82-1.72,3.96-4.64,3.88-6.99-.19-14.15,3.33-14.94,7.34-1.16,5.87-2.27,11.77-2.91,17.71-.16,1.5,1.26,3.53,2.52,4.72,1.78,1.67,3.91,3.31,6.19,4.05,11.49,3.74,23.12,7.05,34.6,10.83,3.38,1.11,5.99.57,8.12-1.86,4.36-4.99,8.52-10.17,12.73-15.29,2.48-3.02,1.66-5.76-.66-8.51-4.1-4.86-9.7-6.17-15.58-6.74-7.44-.73-10.09-7.88-15.44-11.41-.49-.32-.25-1.9-.18-2.88.55-7.41,1.26-14.81,1.65-22.23.13-2.45.62-3.6,3.18-4.69,5.86-2.47,11.73-5.22,16.93-8.82,4.35-3.01,7.55-3.24,11.51.2,5.83,5.07,13.08,7.15,20.45,8.64,3.74.76,7.52-.55,8.62-4.25.61-2.03-1.2-4.9-2.25-7.26-.74-1.68-2.02-3.13-3.5-5.33,3.4-1.07,6.21-1.38,8.3-2.77,2.28-1.51,3.9-4.02,5.81-6.09-2.36-1.13-4.62-2.76-7.1-3.27-3.86-.79-9.06.62-11.61-1.46-6.48-5.28-12.9-11.29-17.33-18.28-7.26-11.43-13.07-23.81-19.19-35.93-2.25-4.45-3.67-9.32-5.45-13.97,8.01-3.16,13.7-8.29,16.75-15.87,3.24-8.05,6.27-16.04,17.06-15.84.3,0,.65-.2.9-.41,5.4-4.41,11.28-8.36,16.06-13.36,8.23-8.6,8.59-21.8,1.64-29.02-3.79-3.93-8.22-5.26-13.12-2.76-7.46,3.8-14.44,8.43-18.91,15.76-2.38,3.9-4.79,4.18-7.94,1.35-1.31-1.18-2.41-2.59-3.79-4.09,1.15-1.1,1.87-2.03,2.81-2.64,9.39-6.11,13.41-14.52,12.55-25.86-.91-12.09-14.32-20.65-25.39-15.84-9.1,3.96-14.39,11.21-16.02,20.34-1.46,8.17-5.64,10.43-13.15,12.12-12,2.69-22.44,8.67-28,20.83-1.96,4.29-5.52,6.73-10.73,6.82-4.83.09-4.93-3.58-6.25-6.44-2.42-5.28-6.07-7.4-11.41-7.12-3.41.18-4.61,1.73-4.65,5.02-.08,6.52.6,12.54,6.54,16.77,1.51,1.08,2.3,3.16,3.45,4.77,2.28,3.18,3.89,7.65,6.99,9.27,7.25,3.8,15.28,6.1,22.86,9.31,2.08.88,3.7,2.83,5.53,4.29-1.4,1.65-2.52,4.26-4.25,4.76-5.59,1.6-4.81,5.42-4.25,9.48.24,1.71.81,3.8.13,5.15-4.4,8.71-11.06,15.3-19.9,19.53-2.72,1.3-3.74-.17-3.5-2.76.11-1.14.41-2.35.95-3.35,1.54-2.84,1.29-5.23-1.69-6.74-2.84-1.43-5.34-1.06-7.37,1.83-1.77,2.52-3.94,4.76-6.71,8.04-1.45-3.33-2.04-6.02-3.6-7.92-1.74-2.13-4.17-4.35-6.67-4.92-1.2-.27-4.03,2.9-4.72,4.98-1.07,3.21-1.2,6.82-1.27,10.27-.18,8.2-.43,8.46-8.48,8.28-2.45-.05-5,.26-7.34.95-5.42,1.58-6.56,5.56-2.9,10.01,4.1,4.99,9.21,6.47,15.63,4.82,8.45-2.17,12.28.82,12.85,9.28.24,3.59,4.26,8.69,6.33,7.53,2.18-1.23,3.77-4.11,4.83-6.6,1.86-4.37,2.89-9.11,4.82-13.44.49-1.1,3.06-1.28,4.68-1.89.48,1.31,1.32,2.61,1.38,3.95.18,4.39.07,8.79.07,13.18.53.09,1.07.18,1.6.27-1.34-10.63.76-20,8.85-26.94,22.24,15.34,45.13,13.51,68.64,3.52-1.51-4.51-7.96-7.02-4.62-14.6,2.35,2.47,4.71,4.15,5.96,6.43,3.1,5.66,5.96,11.48,8.39,17.46,1.7,4.19,4.59,8.69,1.76,13.34-2.94,4.83-6.52,9.28-10.34,14.63-2.08-4.11-.91-7.41.97-10.74,3.09-5.48,1.58-11.08.88-16.64-1.41,5.54-1.79,11.31-3.65,16.55-1.83,5.16-5.15,9.79-8,14.98,4.56.13,5.47,2.75,5.29,6.69-.2,4.28-1.7,6.99-6.16,7.64-5.43.79-10.84,1.76-16.29,2.45-4.78.6-7.34-2.23-7.75-6.53-.35-3.7-1.9-4.85-5.38-4.77-7.26.16-14.67,1.05-21.36-3.05-.19-.12-.76.39-2.49,1.34,4.05,1.89,7.27,3.25,10.34,4.9,1.28.69,2.23,2,3.33,3.03-1.38,1.26-2.6,3.27-4.17,3.59-2.13.43-4.69-.02-6.77-.85-4-1.61-7.83-3.65-11.64-5.7-4.29-2.31-10.33-3.59-6.32-11.45-5.83,3.97-5.78,5.02-2.41,9.42,1.5,1.96,2.99,5.4,2.23,7.22-.77,1.83-4.38,3.57-6.67,3.48-8.45-.33-17.12-.45-25.24-2.48-13.12-3.28-25.77-3.64-38.77.28-12.4,3.75-20.8,11.46-25.48,23.35-.64,1.61-.51,3.53-.74,5.31ZM112.05,177.2c5.08-.01,8.68-3.18,8.58-7.55-.11-5.06-3.81-8.83-8.74-8.92-5.22-.09-8.31,2.8-8.25,7.69.08,5.78,2.96,8.79,8.4,8.78ZM105.6,190.16c-2.02-3.6-3.56-6.35-5.11-9.1-.25.15-.5.3-.76.45v8.65h5.86Z"/><path class="cls-1" d="M1.65,239.57c.23-1.78.1-3.69.74-5.31,4.68-11.9,13.08-19.61,25.48-23.35,13-3.93,25.65-3.56,38.77-.28,8.13,2.03,16.79,2.15,25.24,2.48,2.29.09,5.9-1.64,6.67-3.48.76-1.82-.72-5.26-2.23-7.22-3.37-4.4-3.42-5.45,2.41-9.42-4.01,7.87,2.04,9.15,6.32,11.45,3.8,2.05,7.64,4.09,11.64,5.7,2.07.83,4.63,1.28,6.77.85,1.57-.31,2.79-2.33,4.17-3.59-1.1-1.03-2.05-2.34-3.33-3.03-3.06-1.65-6.28-3.01-10.34-4.9,1.73-.95,2.3-1.46,2.49-1.34,6.69,4.1,14.09,3.21,21.36,3.05,3.48-.08,5.03,1.07,5.38,4.77.41,4.3,2.97,7.13,7.75,6.53,5.45-.68,10.85-1.66,16.29-2.45,4.46-.65,5.96-3.36,6.16-7.64.18-3.94-.73-6.55-5.29-6.69,2.85-5.19,6.17-9.82,8-14.98,1.86-5.24,2.23-11.01,3.65-16.55.7,5.56,2.21,11.17-.88,16.64-1.88,3.33-3.05,6.63-.97,10.74,3.82-5.35,7.4-9.79,10.34-14.63,2.83-4.65-.06-9.14-1.76-13.34-2.43-5.97-5.29-11.8-8.39-17.46-1.25-2.28-3.61-3.96-5.96-6.43-3.34,7.58,3.11,10.09,4.62,14.6-23.51,10-46.4,11.82-68.64-3.52-8.1,6.94-10.19,16.3-8.85,26.94-.53-.09-1.07-.18-1.6-.27,0-4.39.11-8.79-.07-13.18-.05-1.33-.89-2.63-1.38-3.95-1.61.6-4.18.78-4.68,1.89-1.93,4.34-2.95,9.07-4.82,13.44-1.06,2.49-2.65,5.38-4.83,6.6-2.07,1.17-6.09-3.93-6.33-7.53-.57-8.46-4.39-11.45-12.85-9.28-6.42,1.65-11.53.17-15.63-4.82-3.66-4.45-2.51-8.43,2.9-10.01,2.35-.68,4.9-1,7.34-.95,8.05.17,8.3-.09,8.48-8.28.08-3.45.2-7.06,1.27-10.27.69-2.08,3.52-5.25,4.72-4.98,2.5.57,4.93,2.79,6.67,4.92,1.56,1.9,2.15,4.59,3.6,7.92,2.77-3.28,4.94-5.52,6.71-8.04,2.03-2.88,4.53-3.26,7.37-1.83,2.98,1.5,3.23,3.9,1.69,6.74-.54,1-.85,2.21-.95,3.35-.24,2.59.78,4.06,3.5,2.76,8.84-4.23,15.49-10.82,19.9-19.53.69-1.36.11-3.44-.13-5.15-.56-4.07-1.35-7.88,4.25-9.48,1.73-.5,2.85-3.11,4.25-4.76-1.83-1.46-3.45-3.41-5.53-4.29-7.58-3.21-15.61-5.51-22.86-9.31-3.1-1.62-4.72-6.09-6.99-9.27-1.15-1.6-1.93-3.69-3.45-4.77-5.95-4.23-6.63-10.25-6.54-16.77.04-3.29,1.25-4.84,4.65-5.02,5.34-.29,9,1.84,11.41,7.12,1.31,2.87,1.41,6.53,6.25,6.44,5.2-.1,8.77-2.53,10.73-6.82,5.56-12.16,16-18.14,28-20.83,7.52-1.68,11.7-3.95,13.15-12.12,1.63-9.13,6.91-16.38,16.02-20.34,11.07-4.81,24.48,3.75,25.39,15.84.86,11.34-3.16,19.75-12.55,25.86-.93.61-1.65,1.54-2.81,2.64,1.37,1.5,2.48,2.91,3.79,4.09,3.15,2.83,5.56,2.55,7.94-1.35,4.47-7.33,11.45-11.95,18.91-15.76,4.9-2.5,9.33-1.17,13.12,2.76,6.95,7.22,6.59,20.42-1.64,29.02-4.78,5-10.66,8.95-16.06,13.36-.25.2-.6.41-.9.41-10.79-.2-13.82,7.79-17.06,15.84-3.06,7.58-8.74,12.71-16.75,15.87,1.78,4.65,3.2,9.52,5.45,13.97,6.13,12.13,11.93,24.5,19.19,35.93,4.44,6.99,10.86,12.99,17.33,18.28,2.55,2.08,7.74.67,11.61,1.46,2.49.51,4.74,2.14,7.1,3.27-1.91,2.07-3.53,4.58-5.81,6.09-2.09,1.39-4.9,1.7-8.3,2.77,1.48,2.21,2.76,3.65,3.5,5.33,1.04,2.35,2.85,5.23,2.25,7.26-1.11,3.7-4.88,5-8.62,4.25-7.37-1.49-14.62-3.57-20.45-8.64-3.96-3.44-7.16-3.21-11.51-.2-5.2,3.6-11.08,6.35-16.93,8.82-2.56,1.08-3.06,2.24-3.18,4.69-.39,7.42-1.1,14.82-1.65,22.23-.07.98-.31,2.56.18,2.88,5.35,3.52,8,10.68,15.44,11.41,5.88.57,11.48,1.88,15.58,6.74,2.32,2.75,3.14,5.49.66,8.51-4.21,5.12-8.36,10.3-12.73,15.29-2.13,2.43-4.74,2.97-8.12,1.86-11.48-3.78-23.11-7.08-34.6-10.83-2.28-.74-4.41-2.38-6.19-4.05-1.26-1.19-2.68-3.22-2.52-4.72.63-5.94,1.74-11.84,2.91-17.71.8-4.01,7.95-7.52,14.94-7.34,2.93.08,4.6-1.06,4.64-3.88.1-6.16.26-12.36-.28-18.47-.14-1.6-2.68-4.1-4.3-4.26-5.67-.55-8.42-4.03-10.76-8.53-.7-1.35-2.39-3.3-3.37-3.16-1.82.26-4.25,1.44-5.02,2.95-3.59,7.01-6.29,8.3-13.9,5.74-1.42-.48-2.86-.95-4.32-1.21-5.01-.91-6.23-.02-6.46,5.18-.28,6.32-.17,12.67-.5,18.99-.2,3.79,1.71,5.45,4.98,6.29,5.79,1.5,10.07,4.08,9.62,11.23-.11,1.78,1.66,3.89,2.98,5.49,2.68,3.24,3.74,6.86,2.24,10.69-1.53,3.92-5.32,4.33-8.9,3.98-17.49-1.71-34.96-3.52-52.43-5.42-3.95-.43-6.46-2.82-6.52-6.96-.09-5.95-.24-11.93.25-17.84.36-4.4,3.19-5.83,7.53-4.67,4.32,1.16,8.6,2.62,13,3.34,2.01.33,4.3-.68,6.39-1.33,1.39-.43,2.72-2,3.95-1.85,5.49.64,6.17-2.21,6.21-6.78.03-4.1,1.37-8.17,1.9-12.29.44-3.41-.1-5.94-4.76-5.11-11.99,2.12-23.29-2.18-34.87-3.98-12.27-1.9-24.62-1.43-35.79,4.41-8.54,4.47-14.95,11.53-17.73,21.21-.26.9-.49,1.81-.73,2.71-.58-.03-1.17-.06-1.75-.09ZM122.5,74.21c4.03-4.2,7.62-8.28,11.63-11.91,1.14-1.04,3.45-.79,5.23-1.13.03,1.96.79,4.34-.06,5.78-1.92,3.26-4.39,6.3-7.09,8.97-4.2,4.14-8.32,4.06-12.42-.17-3.65-3.77-7.61-6.15-13.1-5.98-3.01.09-3.97,1.02-4.22,4-.19,2.2-1.01,5.12-2.59,6.25-3.28,2.34-2.88,4.26-.32,6.26,2.19,1.71,4.63,3.46,7.24,4.22,9.08,2.64,18.34,4.68,27.43,7.32,5.53,1.61,11.21,3.28,16.2,6.05,5.57,3.1,7.55,8.84,6.7,15.92,9.23-4.15,2.28-12.16,6.38-17.35.84,4.03,1.67,8.05,2.52,12.1,5.41-1.24,6.63-4.35,4.75-8.68-1.03-2.37-2.45-4.69-4.15-6.64-4.17-4.8-8.6-9.36-13.7-14.85,3.16-.56,5.21-1.06,7.28-1.26,7.13-.71,12.43-4.52,16.73-9.89,4.37-5.46,3.76-12.32-1.33-17.08-6.97-6.51-14.97-5.12-23.06-2.95-1.64.44-3.29.84-6.42,1.64,1.6-3.39,2.7-5.37,3.47-7.46.54-1.46.62-3.09.91-4.64-1.57-.25-3.31-1.05-4.69-.64-4.29,1.26-8.69,2.55-12.57,4.68-2.26,1.24-3.94,3.94-5.3,6.32-2.45,4.29-3.81,9.35-6.83,13.13-3.5,4.4-1.79,6.21,1.41,7.99ZM147.36,256.98c-.13.3-.25.61-.38.91-2.37.28-5.04-.05-7.04.95-6.55,3.27-6.55,11.29.39,14.54,7.47,3.51,15.45,6.04,23.36,8.49,17.57,5.43,17.61,5.29,28.68-9.18,4.97-6.5,2.74-12.57-5.49-13.5-5.98-.67-12.09-.13-18.88-.13.69-1.45,1.54-2.52,1.63-3.64.13-1.61.07-4.47-.58-4.68-2.2-.69-5.65-1.51-6.91-.38-4.76,4.29-8.62,4.85-14.58.57,1.34-1.15,2.62-2.24,3.97-3.4-3.67-2.07-8.27-1.64-10.56.89-1.73,1.91-2.13,3.8.47,5.32,1.94,1.13,3.94,2.16,5.91,3.23ZM91.13,252.3c-.18.41-.35.83-.53,1.24-1.99-.75-4.88-.92-5.82-2.36-4.54-6.91-12.16-6.11-18.67-7.92-1.05-.29-3.72,1.56-3.95,2.76-.73,3.73-.53,7.62-.92,11.43-.48,4.77,1.46,8.26,6.09,8.78,16.82,1.92,33.69,3.4,50.54,5.04.16.02.33-.06.49-.07,3.99-.37,5.49-2.6,4.91-6.47-.68-4.55-2.78-6.2-7.03-5.62-1.96.26-3.95.27-6.95.46,8.26-8.05,9.03-9.04,7.73-10.11-2.33-1.93-5.12-3.94-7.95-4.35-1.33-.19-3.19,3.23-5.79,6.11-2.03-1.88-4.34-4.4-7.03-6.38-1.65-1.21-4.02-2.41-5.85-2.14-1.61.24-3.87,2.43-4.05,3.97-.16,1.36,2.13,3.02,3.39,4.51.38.44.92.75,1.38,1.12ZM154.59,124.39c-.13-.61-.26-1.22-.39-1.84-1.22.21-2.49.29-3.67.67-7.26,2.3-13.41-.17-18.97-4.57-2.51-1.99-4.18-4.16-.43-7.18,1.65-1.34,1.9-4.42,2.78-6.71-2,2.08-2.97,5.02-4.88,5.9-5.01,2.3-5.94,5.51-1.76,9.29,5.07,4.58,11.16,6.4,17.87,5.97,3.17-.2,6.3-1,9.45-1.53Z"/><path class="cls-1" d="M112.05,177.2c-5.44.01-8.32-3-8.4-8.78-.07-4.89,3.03-7.78,8.25-7.69,4.93.08,8.63,3.86,8.74,8.92.09,4.37-3.5,7.54-8.58,7.55ZM112.47,163.89c-3.49.35-6.2,1.61-6.1,5.36.11,3.7,2.43,5.82,6.18,5.66,2.96-.12,5.82-1.04,5.63-4.82-.17-3.58-2.23-5.73-5.72-6.2Z"/><path class="cls-1" d="M150.01,179.89c-3.81,3.6-7.91,3.89-10.77.76-2.97-3.25-2.56-8.8.85-11.6,3.53-2.9,9.04-2.7,11.73.42,2.86,3.32,2.13,7.23-1.97,10.56.35-.93,1.13-1.94.97-2.77-.45-2.39-.6-5.57-2.16-6.79-1.24-.97-5.05-.23-6.48,1.09-1.45,1.34-2.57,5.11-1.71,6.39,1.09,1.62,4.29,1.94,6.65,2.54.85.22,1.91-.39,2.88-.61Z"/><path class="cls-1" d="M105.6,190.16h-5.86v-8.65c.25-.15.5-.3.76-.45,1.54,2.75,3.09,5.5,5.11,9.1Z"/><path class="cls-2" d="M122.5,74.21c-3.2-1.78-4.91-3.6-1.41-7.99,3.01-3.78,4.38-8.84,6.83-13.13,1.36-2.38,3.04-5.08,5.3-6.32,3.88-2.14,8.28-3.42,12.57-4.68,1.38-.41,3.12.39,4.69.64-.29,1.55-.37,3.18-.91,4.64-.77,2.1-1.87,4.07-3.47,7.46,3.13-.8,4.78-1.2,6.42-1.64,8.09-2.17,16.1-3.56,23.06,2.95,5.09,4.76,5.7,11.62,1.33,17.08-4.3,5.37-9.6,9.18-16.73,9.89-2.07.21-4.12.7-7.28,1.26,5.1,5.49,9.53,10.06,13.7,14.85,1.7,1.95,3.12,4.26,4.15,6.64,1.88,4.32.66,7.44-4.75,8.68-.84-4.04-1.68-8.07-2.52-12.1-4.11,5.2,2.85,13.21-6.38,17.35.85-7.08-1.13-12.82-6.7-15.92-4.98-2.77-10.66-4.45-16.2-6.05-9.09-2.64-18.35-4.67-27.43-7.32-2.61-.76-5.05-2.51-7.24-4.22-2.56-1.99-2.96-3.92.32-6.26,1.59-1.13,2.41-4.05,2.59-6.25.26-2.98,1.21-3.9,4.22-4,5.48-.17,9.45,2.21,13.1,5.98,4.1,4.23,8.23,4.32,12.42.17,2.7-2.67,5.17-5.71,7.09-8.97.85-1.44.09-3.82.06-5.78-1.77.34-4.08.09-5.23,1.13-4,3.64-7.6,7.71-11.63,11.91Z"/><path class="cls-2" d="M147.36,256.98c-1.97-1.07-3.98-2.1-5.91-3.23-2.6-1.52-2.2-3.42-.47-5.32,2.29-2.52,6.89-2.96,10.56-.89-1.35,1.16-2.62,2.25-3.97,3.4,5.96,4.28,9.82,3.71,14.58-.57,1.26-1.13,4.71-.31,6.91.38.65.2.7,3.07.58,4.68-.09,1.12-.94,2.18-1.63,3.64,6.79,0,12.91-.54,18.88.13,8.23.93,10.47,7,5.49,13.5-11.07,14.47-11.11,14.6-28.68,9.18-7.92-2.44-15.89-4.98-23.36-8.49-6.94-3.26-6.93-11.28-.39-14.54,2.01-1,4.68-.67,7.04-.95.13-.3.25-.61.38-.91Z"/><path class="cls-2" d="M91.13,252.3c-.47-.37-1.01-.67-1.38-1.12-1.26-1.49-3.55-3.16-3.39-4.51.18-1.54,2.44-3.72,4.05-3.97,1.83-.28,4.2.92,5.85,2.14,2.7,1.98,5,4.49,7.03,6.38,2.61-2.88,4.47-6.31,5.79-6.11,2.83.41,5.62,2.42,7.95,4.35,1.3,1.07.53,2.06-7.73,10.11,3.01-.19,5-.19,6.95-.46,4.25-.57,6.34,1.07,7.03,5.62.58,3.87-.92,6.1-4.91,6.47-.17.02-.33.09-.49.07-16.85-1.64-33.72-3.12-50.54-5.04-4.63-.53-6.58-4.02-6.09-8.78.39-3.81.19-7.7.92-11.43.23-1.19,2.91-3.05,3.95-2.76,6.51,1.81,14.13,1.01,18.67,7.92.95,1.44,3.83,1.61,5.82,2.36.18-.41.35-.83.53-1.24Z"/><path class="cls-2" d="M154.59,124.39c-3.15.53-6.28,1.33-9.45,1.53-6.71.43-12.8-1.39-17.87-5.97-4.18-3.77-3.25-6.98,1.76-9.29,1.91-.88,2.88-3.82,4.88-5.9-.88,2.29-1.13,5.37-2.78,6.71-3.74,3.03-2.08,5.19.43,7.18,5.56,4.4,11.71,6.87,18.97,4.57,1.17-.37,2.44-.45,3.67-.67.13.61.26,1.22.39,1.84Z"/><path class="cls-2" d="M112.47,163.89c3.49.48,5.55,2.62,5.72,6.2.18,3.77-2.67,4.69-5.63,4.82-3.75.15-6.07-1.96-6.18-5.66-.11-3.75,2.61-5.01,6.1-5.36Z"/><path class="cls-2" d="M150.01,179.89c-.97.23-2.03.83-2.88.61-2.36-.6-5.56-.92-6.65-2.54-.86-1.28.25-5.05,1.71-6.39,1.43-1.32,5.24-2.06,6.48-1.09,1.56,1.22,1.71,4.4,2.16,6.79.16.83-.62,1.84-.97,2.77,0,0,.16-.15.16-.15Z"/></svg>