<?xml version="1.0" encoding="UTF-8"?><svg id="Layer_1" xmlns="http://www.w3.org/2000/svg" viewBox="0 0 238 274"><defs><style>.cls-1,.cls-2{stroke-width:0px;}.cls-2{fill:#fff;}</style></defs><path class="cls-2" d="M0,0c79.33,0,158.67,0,238,0,0,91.33,0,182.67,0,274-79.33,0-158.67,0-238,0C0,182.67,0,91.33,0,0ZM1.51,219.54c.35.36.7.73,1.06,1.09,1.21-.73,2.63-1.25,3.6-2.23,7.52-7.53,17.52-10.35,27.21-11.2,15.7-1.37,31.6-.6,47.41-.48,4.26.03,9.85,8.33,8.8,12.51-.21.82-1.17,1.49-1.86,2.14-6.06,5.77-13.16,4.66-20.19,2.73-3.59-.98-6.49-.92-8.96,2.16-7,8.74-1.56,24.29,9.39,26.45,14.69,2.9,29.47,4.8,44.51,4.01,8.13-.42,11.82-6.67,8.04-13.82-1.06-2.02-2.26-4.26-2.35-6.45-.28-7-1.17-8.5-7.72-10.55-8.11-2.53-13.21-9.59-13.23-18.83,3.02-.34,6.35-.07,9.14-1.16,7.35-2.89,14.57-6.18,21.66-9.67,5.29-2.61,7.93-3.54,10.73,1.87,1.83,3.54,4.96,4.71,8.79,4.38,1.82-.16,3.66-.19,5.48-.39,3.78-.43,5.48,1.51,6.07,5,1.17,6.96-6.97,18.39-13.61,20.43-3.88,1.2-7.88,3.6-10.59,6.58-2.48,2.73-3.79,6.85-4.65,10.58-.57,2.49-.35,6.07,1.11,7.92,2.58,3.28,5.95,6.56,9.71,8.18,9.28,3.98,18.81,7.59,28.55,10.19,4.46,1.19,10.09,1.25,13.85-3.22,3.2-3.8,6.31-7.67,9.34-11.6,5.81-7.54,4.22-11.16-3.93-16.37-1.5-.96-3.41-1.81-5.13-1.82-5.18-.02-8.81-2.23-12.47-5.89-5.35-5.35-6.2-5.63-2.11-11.91,4-6.15,3.81-12.03,1.3-18.45-3.09-7.9-1.73-9.79,6.8-11.19,9.62-1.58,19.29-3.07,28.73-5.41,12.16-3.01,22.57-8.69,27.86-21.17,2.71-6.39-.03-11.54-6.92-10.5-4.86.73-9.6,3.25-14.01,5.68-4.33,2.39-7.98,5.99-12.27,8.47-6.08,3.52-11.8,1.49-14.98-4.81-3.86-7.67-7.99-15.22-11.47-23.05-3.84-8.64-7.39-17.44-10.4-26.39-.95-2.81-.76-6.9.65-9.44,3.11-5.59,7.39-10.52,11.06-15.81,1.79-2.59,3.99-5.2,4.74-8.13.99-3.85,3.03-3.99,5.85-2.97,7.56,2.72,14.98,1.3,21.94-1.54,14.12-5.75,17.17-19.17,6.56-29.21-10.21-9.66-23.4-10.28-33.79-.89-2.93,2.64-5.06,2.31-7.68-.14-4.79-4.49-4.84-5.89.74-9.47,11.88-7.61,12.63-21.61-.01-29.55-16.14-10.13-38.08-5.11-40.36,18.17-.12,1.19-1.47,2.87-2.61,3.25-6.46,2.14-13.04,3.89-19.53,5.94-1.08.34-2.03,1.4-2.81,2.33-1.37,1.62-2.56,3.39-3.81,5.1-3.43,4.67-7.15,9.16-10.19,14.07-2.83,4.58-6.23,5.84-10.55,2.62-1.98-1.47-3.67-3.39-5.27-5.3-2.08-2.48-8.46-4.64-9.89-2.56-1.27,1.85-1.23,5.3-.48,7.64.85,2.67,3.1,4.89,4.78,7.29,2.03,2.9,5.34,5.56,5.88,8.71.83,4.87,2.82,8.62,6.53,11.28,4.42,3.18,9.34,5.66,13.96,8.56,1.91,1.19,4.9,2.47,5.19,4.09.92,5.27,2.26,10.67-1.29,15.89-4.75,6.97-9.31,14.12-13.28,21.56-2.72,5.1-5.86,6.33-10.66,2.68-2.25-1.71-4.76-3.19-6.65-5.24-6.78-7.32-14.18-5.63-21.85-1.94-4.16,2-5.09,5.45-1.91,8.8,3.31,3.49,7.11,6.52,10.63,9.83,1.5,1.41,2.82,3,4.22,4.5-1.93,1.05-3.84,2.14-5.8,3.13-.73.37-1.91.25-2.32.78-2.07,2.69-4.75,5.3-5.55,8.38-.41,1.55,2.34,4.52,4.3,6,6.41,4.82,11.83.36,17.45-2.33,2.13-1.02,4.52-1.76,6.86-2.03,2.84-.33,5.78.24,8.63-.06,4.47-.47,6.75,1.41,6.18,5.93-.22,1.75-1.4,3.37-1.79,5.12-.36,1.6-.85,3.56-.27,4.93,3.72,8.66-4.45,20.71-13.94,20.48-11.16-.27-22.33-.17-33.48-.6-12.74-.48-24.14,4.17-35.39,9.08-2.92,1.27-4.88,4.76-7.28,7.24Z"/><path class="cls-1" d="M1.51,219.54c2.4-2.47,4.36-5.96,7.28-7.24,11.25-4.91,22.65-9.56,35.39-9.08,11.15.42,22.32.33,33.48.6,9.5.23,17.66-11.82,13.94-20.48-.59-1.37-.1-3.33.27-4.93.4-1.76,1.57-3.37,1.79-5.12.57-4.52-1.71-6.4-6.18-5.93-2.85.3-5.79-.27-8.63.06-2.34.27-4.73,1.01-6.86,2.03-5.62,2.7-11.03,7.16-17.45,2.33-1.96-1.48-4.71-4.44-4.3-6,.8-3.08,3.49-5.7,5.55-8.38.41-.54,1.59-.41,2.32-.78,1.96-.99,3.87-2.08,5.8-3.13-1.4-1.51-2.73-3.1-4.22-4.5-3.52-3.31-7.31-6.34-10.63-9.83-3.18-3.36-2.25-6.8,1.91-8.8,7.67-3.69,15.07-5.39,21.85,1.94,1.89,2.05,4.41,3.53,6.65,5.24,4.8,3.66,7.94,2.43,10.66-2.68,3.97-7.44,8.53-14.59,13.28-21.56,3.56-5.21,2.21-10.62,1.29-15.89-.28-1.62-3.28-2.9-5.19-4.09-4.63-2.9-9.54-5.39-13.96-8.56-3.71-2.66-5.7-6.41-6.53-11.28-.54-3.15-3.84-5.81-5.88-8.71-1.68-2.39-3.93-4.62-4.78-7.29-.75-2.34-.78-5.78.48-7.64,1.42-2.08,7.81.08,9.89,2.56,1.6,1.9,3.29,3.82,5.27,5.3,4.33,3.22,7.72,1.97,10.55-2.62,3.04-4.91,6.76-9.4,10.19-14.07,1.26-1.71,2.45-3.48,3.81-5.1.78-.92,1.73-1.99,2.81-2.33,6.49-2.05,13.07-3.8,19.53-5.94,1.14-.38,2.49-2.06,2.61-3.25,2.29-23.28,24.23-28.3,40.36-18.17,12.64,7.94,11.89,21.94.01,29.55-5.59,3.58-5.54,4.98-.74,9.47,2.62,2.45,4.75,2.78,7.68.14,10.39-9.39,23.58-8.77,33.79.89,10.61,10.04,7.57,23.47-6.56,29.21-6.96,2.83-14.38,4.26-21.94,1.54-2.82-1.02-4.86-.88-5.85,2.97-.75,2.93-2.95,5.54-4.74,8.13-3.67,5.29-7.95,10.22-11.06,15.81-1.41,2.54-1.6,6.62-.65,9.44,3.01,8.95,6.56,17.75,10.4,26.39,3.48,7.84,7.61,15.39,11.47,23.05,3.17,6.29,8.9,8.33,14.98,4.81,4.29-2.48,7.94-6.09,12.27-8.47,4.41-2.43,9.15-4.95,14.01-5.68,6.89-1.04,9.63,4.11,6.92,10.5-5.29,12.48-15.7,18.17-27.86,21.17-9.45,2.34-19.12,3.83-28.73,5.41-8.52,1.4-9.89,3.3-6.8,11.19,2.51,6.41,2.71,12.3-1.3,18.45-4.09,6.28-3.24,6.55,2.11,11.91,3.66,3.66,7.29,5.87,12.47,5.89,1.72,0,3.63.86,5.13,1.82,8.15,5.21,9.75,8.83,3.93,16.37-3.03,3.93-6.14,7.8-9.34,11.6-3.76,4.47-9.4,4.41-13.85,3.22-9.74-2.6-19.27-6.2-28.55-10.19-3.76-1.61-7.13-4.89-9.71-8.18-1.45-1.85-1.68-5.43-1.11-7.92.86-3.73,2.18-7.85,4.65-10.58,2.71-2.98,6.7-5.39,10.59-6.58,6.63-2.04,14.77-13.47,13.61-20.43-.59-3.5-2.28-5.43-6.07-5-1.82.2-3.66.23-5.48.39-3.84.34-6.97-.84-8.79-4.38-2.8-5.42-5.44-4.48-10.73-1.87-7.09,3.49-14.31,6.79-21.66,9.67-2.79,1.09-6.12.82-9.14,1.16.02,9.24,5.12,16.3,13.23,18.83,6.55,2.05,7.44,3.55,7.72,10.55.09,2.18,1.28,4.43,2.35,6.45,3.77,7.15.09,13.4-8.04,13.82-15.04.78-29.82-1.12-44.51-4.01-10.94-2.16-16.38-17.7-9.39-26.45,2.47-3.08,5.37-3.14,8.96-2.16,7.03,1.93,14.13,3.05,20.19-2.73.69-.66,1.65-1.32,1.86-2.14,1.05-4.18-4.54-12.47-8.8-12.51-15.81-.12-31.71-.89-47.41.48-9.69.85-19.7,3.66-27.21,11.2-.97.97-2.39,1.49-3.6,2.23-.35-.36-.7-.73-1.06-1.09ZM134.01,108.76c8.72.28,16.89-1.6,24.68-5.33,3.38-1.62,4.37-3.85,1.37-6.43-5.5-4.72-11.25-9.15-16.94-13.65-1.32-1.05-2.81-1.88-3.4-2.27,7.35-6.01,14.44-11.63,21.31-17.5,5.46-4.67,6.43-10.92,2.87-16.03-7.56-10.88-26.52-8.43-32.89-.03-5.11,6.75-10.18,13.53-15.61,20.02-1.11,1.32-3.68,1.42-5.58,2.08-.15-1.86-.55-3.75-.36-5.58.15-1.43.67-3.13,1.63-4.11,5.54-5.64,10.97-11.46,17.02-16.51,3.93-3.29,7.38-6.41,8.43-11.63-6.15-1.56-19.13,2.1-21.59,5.92-5.1,7.94-10.14,15.92-15.39,24.17,1.13,1.42,2.57,3.23,4.26,5.37-4.29-1.37-7.9-2.51-11.75-3.74-.98,4.19-.47,8.49-5.52,8.52-4.33.03-4.66,2.97-2.83,5.2,3.49,4.25,7.17,9.39,11.93,11.36,11.92,4.95,24.5,8.29,36.78,12.39,2.22.74,4.26,2.03,6.38,3.06-1.54,1.51-3.08,3.02-4.82,4.72ZM116.28,186.37c5.34,1.41,10.19,3.18,15.18,3.86,4.72.64,9.6.14,14.42.14-1.6,2.09-3.26,3.49-3.73,5.21-.22.81,1.63,2.82,2.91,3.29,5.04,1.85,19.24-2.92,22.8-7.46-.43-.45-.82-1-1.33-1.37-.53-.39-1.2-.58-1.77-.92-5.48-3.26-5.66-7.4-.48-11.28,6.18-4.63,9.14-11.75,6.76-16.19-2.82-5.25-5.79-10.43-8.37-15.8-1.45-3.02-3.12-3.17-5.96-2.06-4.48,1.76-9.02,3.71-13.72,4.49-14.63,2.43-28.79,1.56-41.34-7.75-.67-.5-3.11,0-3.51.71-3.43,6.15-6.87,12.59-4.45,19.84,1.62,4.86,4.49,9.3,6.84,14.01.16-.11-.09.16-.39.24-.48.13-1.02.04-1.48.21-3.34,1.24-6.45,6.17-4.75,8,5.25,5.64,11.06,10.86,18.98,12.07,2.13.33,4.64-1.83,6.98-2.84-1.07-1.6-2.15-3.2-3.19-4.82-.16-.25-.17-.6-.43-1.57ZM162.01,237.51c-5.14.95-11.03.63-15.94-3.48-2.66-2.23-4.71-2.45-6.64.28-2.09,2.97-.41,5,2.32,6.35,2.04,1.01,4.17,1.82,6.27,2.71-.15.42-.3.84-.45,1.26-2.23-.41-4.49-1.26-6.68-1.1-2.07.15-5.12.82-5.84,2.23-1.01,1.98-1.08,5.26-.07,7.23,1.1,2.14,3.64,4.07,5.98,4.96,9.61,3.65,19.3,7.12,29.12,10.15,5.18,1.6,9.77-.15,13.16-4.72,2.28-3.06,4.87-5.89,7.32-8.83,4.63-5.57,3.62-10.83-3.42-12.37-5.41-1.19-11.4-.55-16.99.24-3.74.53-7.24,2.73-10.84,4.19,2.62-3.11,5.93-5.05,8.53-7.68,1.14-1.16,1.61-4.13.92-5.58-.53-1.12-3.35-1.15-5.15-1.67-.47,1.7-.93,3.4-1.59,5.82ZM89.92,235.12c-.15.34-.29.69-.44,1.03-2.12-1.09-4.97-1.66-6.19-3.38-2.29-3.23-5.15-4.32-8.76-4.86-13.87-2.06-14.6-1.28-14.03,12.89.21,5.27,2.6,8.02,7.44,9.05,4.23.9,8.45,2.04,12.74,2.43,10.43.94,20.88,1.85,31.34,2.08,5.23.12,7.5-2.85,7.05-6.99-.62-5.68-3.31-7.81-8.89-7.17-1.47.17-2.98.03-4.48.03,1.87-1.86,4.04-2.37,5.68-3.59,1.42-1.06,3.41-3.94,3.11-4.3-1.47-1.74-3.62-2.9-5.53-4.27-.33.42-.66.84-.99,1.26.84,1.41,1.68,2.82,2.58,4.33-7.25,1.82-12.18-.15-15.34-6.12-1.43-2.7-3.53-4.72-6.26-3.09-1.73,1.03-3.24,3.96-3.17,5.97.06,1.61,2.66,3.12,4.14,4.68ZM128.01,109.53c-6-.99-11.29-2.78-13.45-9.32-.28-.84-2.56-1.45-3.84-1.32-.61.06-1.65,2.24-1.4,3.18.47,1.78,1.36,3.76,2.71,4.94,4.65,4.08,10.18,4.1,15.98,2.53ZM102.69,204.94c2.69-2.09,5.01-3.89,7.33-5.69-2.22-1.14-4.37-3.07-6.66-3.25-3.29-.26-5.75,2.06-5.67,5.51.02.96,2.61,1.85,5,3.43Z"/><path class="cls-2" d="M134.01,108.76c1.74-1.7,3.28-3.21,4.82-4.72-2.12-1.04-4.16-2.32-6.38-3.06-12.28-4.1-24.86-7.45-36.78-12.39-4.76-1.98-8.44-7.11-11.93-11.36-1.83-2.23-1.51-5.17,2.83-5.2,5.05-.03,4.53-4.33,5.52-8.52,3.86,1.23,7.47,2.38,11.75,3.74-1.7-2.14-3.14-3.95-4.26-5.37,5.25-8.26,10.29-16.24,15.39-24.17,2.46-3.82,15.44-7.48,21.59-5.92-1.04,5.22-4.49,8.34-8.43,11.63-6.05,5.06-11.48,10.87-17.02,16.51-.96.98-1.49,2.69-1.63,4.11-.19,1.83.21,3.71.36,5.58,1.9-.66,4.48-.75,5.58-2.08,5.42-6.49,10.5-13.27,15.61-20.02,6.36-8.4,25.33-10.85,32.89.03,3.55,5.11,2.58,11.36-2.87,16.03-6.87,5.88-13.96,11.49-21.31,17.5.59.39,2.08,1.23,3.4,2.27,5.69,4.5,11.44,8.93,16.94,13.65,3,2.58,2,4.82-1.37,6.43-7.8,3.73-15.97,5.62-24.68,5.33Z"/><path class="cls-2" d="M116.28,186.37c.26.97.27,1.32.43,1.57,1.05,1.62,2.12,3.22,3.19,4.82-2.34,1.02-4.85,3.17-6.98,2.84-7.92-1.22-13.73-6.43-18.98-12.07-1.71-1.83,1.41-6.76,4.75-8,.45-.17,1-.08,1.48-.21.3-.08.54-.34.39-.24-2.35-4.72-5.22-9.16-6.84-14.01-2.42-7.24,1.03-13.69,4.45-19.84.4-.71,2.83-1.21,3.51-.71,12.55,9.31,26.71,10.19,41.34,7.75,4.7-.78,9.24-2.73,13.72-4.49,2.83-1.12,4.51-.96,5.96,2.06,2.58,5.37,5.55,10.55,8.37,15.8,2.38,4.44-.58,11.56-6.76,16.19-5.17,3.88-5,8.02.48,11.28.57.34,1.24.53,1.77.92.51.38.9.92,1.33,1.37-3.57,4.54-17.76,9.3-22.8,7.46-1.28-.47-3.13-2.48-2.91-3.29.47-1.72,2.13-3.12,3.73-5.21-4.82,0-9.7.5-14.42-.14-5-.68-9.85-2.45-15.18-3.86ZM104.02,146.69c-4.43.01-7.43,3.25-7.54,8.11-.09,4.2,3.23,7.53,7.51,7.52,4.65-.01,8.11-3.45,8.19-8.15.08-4.21-3.51-7.49-8.16-7.47ZM139.6,152.38c-5.04-.19-8.77,3.4-8.91,8.59-.15,5.33,2.59,8.81,7.15,9.08,4.93.29,9.66-3.75,9.94-8.51.32-5.4-2.85-8.96-8.19-9.16Z"/><path class="cls-2" d="M162.01,237.51c.66-2.42,1.13-4.12,1.59-5.82,1.8.52,4.61.55,5.15,1.67.69,1.45.23,4.42-.92,5.58-2.6,2.64-5.91,4.57-8.53,7.68,3.61-1.46,7.1-3.66,10.84-4.19,5.6-.79,11.58-1.43,16.99-.24,7.04,1.55,8.05,6.8,3.42,12.37-2.44,2.94-5.04,5.77-7.32,8.83-3.39,4.57-7.98,6.31-13.16,4.72-9.82-3.03-19.52-6.5-29.12-10.15-2.34-.89-4.88-2.82-5.98-4.96-1.01-1.97-.95-5.26.07-7.23.72-1.41,3.77-2.08,5.84-2.23,2.19-.16,4.45.69,6.68,1.1.15-.42.3-.84.45-1.26-2.09-.9-4.23-1.71-6.27-2.71-2.73-1.35-4.41-3.38-2.32-6.35,1.92-2.73,3.98-2.51,6.64-.28,4.91,4.11,10.8,4.43,15.94,3.48Z"/><path class="cls-2" d="M89.92,235.12c-1.47-1.56-4.08-3.07-4.14-4.68-.07-2.01,1.44-4.94,3.17-5.97,2.73-1.63,4.82.38,6.26,3.09,3.16,5.97,8.09,7.93,15.34,6.12-.9-1.51-1.74-2.92-2.58-4.33.33-.42.66-.84.99-1.26,1.91,1.37,4.06,2.53,5.53,4.27.3.35-1.69,3.23-3.11,4.3-1.64,1.23-3.81,1.73-5.68,3.59,1.49,0,3,.14,4.48-.03,5.58-.64,8.27,1.48,8.89,7.17.45,4.14-1.82,7.1-7.05,6.99-10.46-.23-20.91-1.14-31.34-2.08-4.29-.39-8.51-1.53-12.74-2.43-4.84-1.03-7.23-3.78-7.44-9.05-.57-14.18.15-14.96,14.03-12.89,3.61.54,6.47,1.62,8.76,4.86,1.22,1.73,4.08,2.29,6.19,3.38.15-.34.29-.69.44-1.03Z"/><path class="cls-2" d="M128.01,109.53c-5.8,1.56-11.33,1.55-15.98-2.53-1.35-1.18-2.24-3.16-2.71-4.94-.25-.93.79-3.12,1.4-3.18,1.28-.12,3.56.49,3.84,1.32,2.16,6.54,7.45,8.33,13.45,9.32Z"/><path class="cls-2" d="M102.69,204.94c-2.4-1.57-4.98-2.47-5-3.43-.09-3.45,2.38-5.77,5.67-5.51,2.29.18,4.45,2.1,6.66,3.25-2.32,1.8-4.64,3.6-7.33,5.69Z"/><path class="cls-1" d="M104.02,146.69c4.66-.01,8.24,3.27,8.16,7.47-.09,4.7-3.54,8.14-8.19,8.15-4.28.01-7.6-3.31-7.51-7.52.11-4.86,3.11-8.1,7.54-8.11ZM98.51,155.29c3.03,2.08,4.94,4.39,6.29,4.09,1.87-.41,3.31-2.77,4.94-4.3-1.69-1.67-3.17-4.18-5.16-4.69-1.21-.31-3.21,2.47-6.07,4.89Z"/><path class="cls-1" d="M139.6,152.38c5.33.2,8.51,3.75,8.19,9.16-.28,4.75-5.01,8.8-9.94,8.51-4.57-.27-7.3-3.74-7.15-9.08.15-5.19,3.87-8.78,8.91-8.59ZM141.47,155.18c-5.64-.07-8.51,2.46-8.59,6.43-.09,4.09,2.33,6.5,6.49,6.46,4.18-.04,6.83-2.47,6.7-6.35-.12-3.77-1.8-6.28-4.6-6.55Z"/><path class="cls-2" d="M98.51,155.29c2.86-2.42,4.86-5.21,6.07-4.89,1.99.51,3.47,3.02,5.16,4.69-1.63,1.53-3.07,3.89-4.94,4.3-1.35.29-3.27-2.01-6.29-4.09Z"/><path class="cls-2" d="M141.47,155.18c2.8.26,4.48,2.78,4.6,6.55.13,3.88-2.52,6.31-6.7,6.35-4.16.04-6.58-2.37-6.49-6.46.08-3.97,2.95-6.51,8.59-6.43Z"/></svg>