<?xml version="1.0" encoding="UTF-8" standalone="no"?>
<!-- Created with Inkscape (http://www.inkscape.org/) -->

<svg
   version="1.1"
   id="svg1"
   width="793.59998"
   height="1122.1333"
   viewBox="0 0 793.59998 1122.1333"
   sodipodi:docname="Mikey - scared - 2.png"
   xmlns:inkscape="http://www.inkscape.org/namespaces/inkscape"
   xmlns:sodipodi="http://sodipodi.sourceforge.net/DTD/sodipodi-0.dtd"
   xmlns="http://www.w3.org/2000/svg"
   xmlns:svg="http://www.w3.org/2000/svg">
  <defs
     id="defs1" />
  <sodipodi:namedview
     id="namedview1"
     pagecolor="#ffffff"
     bordercolor="#000000"
     borderopacity="0.25"
     inkscape:showpageshadow="2"
     inkscape:pageopacity="0.0"
     inkscape:pagecheckerboard="0"
     inkscape:deskcolor="#d1d1d1" />
  <g
     inkscape:groupmode="layer"
     inkscape:label="Image"
     id="g1">
    <path
       style="fill:#000000"
       d="m 328.82373,712.90146 c -0.72027,-0.29155 -4.92027,-4.85753 -9.33333,-10.14661 -5.29928,-6.35123 -8.02374,-10.52509 -8.02374,-12.29236 0,-5.55099 9.77244,-12.03805 18.16266,-12.05656 3.20067,-0.007 6.34056,-1.97671 12.58878,-7.89693 l 4.61811,-4.37569 -0.73938,-13.86666 c -0.40666,-7.62667 -1.20545,-14.75106 -1.7751,-15.83198 -0.56964,-1.08092 -3.51507,-3.06241 -6.54539,-4.40331 -3.03033,-1.34091 -8.38968,-4.17528 -11.90968,-6.29862 -3.52,-2.12333 -7.32654,-3.86184 -8.45897,-3.86335 -1.13243,-0.002 -4.97243,1.87707 -8.53333,4.17462 -7.09244,4.57615 -15.8119,7.55597 -22.11005,7.55597 -3.16012,0 -4.43867,-0.59551 -5.8267,-2.71392 -1.70907,-2.60837 -1.65117,-2.96029 1.48894,-9.04883 l 3.26717,-6.33492 -3.95098,-1.06389 c -2.17304,-0.58514 -5.52231,-2.68509 -7.44283,-4.66657 l -3.49186,-3.60268 3.69051,-1.75126 c 2.02978,-0.96319 6.11305,-1.75126 9.07393,-1.75126 4.90922,0 5.95973,-0.47962 11.92622,-5.44498 9.27676,-7.7202 15.64454,-16.90692 26.53959,-38.28835 7.45409,-14.62857 13.95561,-28.86243 13.96115,-30.56531 3e-4,-0.0909 -2.03946,-1.3681 -4.53279,-2.83817 -6.5323,-3.85146 -9.72581,-7.67153 -14.02508,-16.77682 -4.57316,-9.68536 -8.4345,-13.67382 -14.07508,-14.53847 -2.96619,-0.45468 -6.59249,-2.59412 -12.58749,-7.42632 -9.76411,-7.87026 -13.79134,-12.91609 -15.55668,-19.49142 -2.93794,-10.94292 4.15572,-23.56349 13.24437,-23.56349 5.11637,0 13.72466,5.3842 21.53075,13.46678 4.17861,4.3266 8.2888,7.86655 9.13377,7.86655 0.84497,0 2.8744,-1.39666 4.50984,-3.10369 l 2.97352,-3.10369 -6.87954,-6.76298 c -5.78385,-5.68585 -7.09425,-7.66412 -8.22763,-12.42109 -1.42531,-5.98226 -1.01046,-15.62045 0.81758,-18.99424 2.87494,-5.30597 11.93468,-11.08097 17.38365,-11.08097 5.42856,0 11.29699,2.82224 16.58825,7.97761 4.60847,4.49011 5.85836,6.58109 7.73333,12.93739 1.23004,4.16991 2.23972,8.00991 2.24372,8.53333 0.0144,1.87704 7.05153,5.63182 13.78322,7.35426 13.12921,3.35937 23.20586,10.62707 28.02021,20.20934 3.09026,6.1507 4.92364,7.92074 8.99538,8.6846 5.50222,1.03222 8.65765,-0.17419 9.40955,-3.59755 1.97696,-9.00108 14.99089,-14.16233 17.70565,-7.02197 0.99484,2.61664 -0.25283,11.71841 -2.06785,15.08503 -0.54499,1.01087 -2.27241,3.0368 -3.8387,4.50205 -1.5663,1.46526 -4.50047,5.38467 -6.52038,8.70981 -3.89144,6.40598 -5.23898,7.19899 -24.96103,14.68916 -3.22667,1.22545 -7.03533,3.13152 -8.46369,4.23571 -2.51816,1.94666 -2.54171,2.09205 -0.77541,4.78776 1.00189,1.52907 2.29055,2.78013 2.86369,2.78013 0.57314,0 1.98185,0.93978 3.13047,2.0884 1.71211,1.7121 1.9777,3.02312 1.47401,7.27599 -0.72717,6.13982 0.9087,9.92401 7.27638,16.83213 5.40209,5.86057 14.2063,11.578 16.48333,10.70422 1.70748,-0.65522 1.67731,-3.16171 -0.10522,-8.74173 -0.4609,-1.44281 -0.0894,-2.86749 1.04314,-3.99999 3.1268,-3.1268 6.11103,-2.13545 11.33019,3.76385 l 4.92355,5.56517 2.17667,-4.92072 c 2.32048,-5.24583 6.3792,-8.70595 9.52377,-8.11917 3.0802,0.57478 5.64894,7.06678 5.65079,14.28131 0.002,8.59651 1.06741,9.71505 9.86806,10.36213 12.61526,0.92756 16.17731,6.15338 8.8833,13.03252 -4.44196,4.18931 -8.57527,5.13866 -15.71048,3.60843 -3.9429,-0.8456 -6.12785,-0.83971 -8.01825,0.0216 -2.63162,1.19905 -5.68764,6.8951 -5.68764,10.60107 0,2.54695 -3.93375,7.64478 -5.89912,7.64478 -1.96934,0 -6.2394,-7.58021 -8.63584,-15.33034 -1.37271,-4.43937 -2.66702,-6.59639 -4.44398,-7.40602 -3.53904,-1.6125 -4.42184,0.28773 -4.61622,9.93636 l -0.16117,8 -0.79259,-7.46667 c -0.90967,-8.56964 -2.73891,-13.52348 -6.75007,-18.28014 l -2.82227,-3.3468 -6.8045,3.6132 c -19.74029,10.48214 -37.12286,11.14279 -61.73826,2.34643 l -6.1307,-2.19082 3.19737,-4.34774 c 3.18844,-4.3356 3.92407,-7.53145 2.31644,-10.06343 -2.78541,-4.38695 -20.36892,29.09802 -18.86809,35.93125 0.6688,3.04503 10.57496,17.38409 12.48101,18.06614 1.5484,0.55407 0.49021,-7.80783 -1.72792,-13.65424 -1.26617,-3.33728 -1.56596,-6.00169 -1.02013,-9.06667 l 0.77297,-4.34051 1.42421,6.93333 c 1.68637,8.20957 2.9631,11.59029 6.96651,18.44694 3.55682,6.09179 3.63037,6.73566 0.85236,7.46213 -1.77005,0.46288 -2.13334,1.45495 -2.13334,5.82575 0,3.67758 0.56352,5.7658 1.86667,6.91726 1.05037,0.92811 6.75173,2.41326 13.03761,3.39619 10.74143,1.67964 11.27367,1.6701 13.84284,-0.24806 1.46955,-1.09718 2.99469,-3.57312 3.38921,-5.50209 0.39451,-1.92897 1.36523,-3.91782 2.15715,-4.41967 0.79192,-0.50184 5.66369,-0.9198 10.82616,-0.92878 6.45383,-0.0112 10.40779,-0.54457 12.65589,-1.70711 1.95063,-1.0087 3.65897,-1.3014 4.23481,-0.72555 0.57585,0.57584 -1.19457,1.97681 -4.38869,3.47285 -7.24645,3.39406 -8.86048,5.2383 -6.91077,7.89646 2.17818,2.96966 9.94275,1.67713 19.15579,-3.18877 9.73626,-5.14225 11.2,-6.50578 11.2,-10.43324 v -3.27172 l 2.24927,2.24927 2.24926,2.24927 -2.7826,4.74815 c -3.40019,5.80198 -3.47908,7.68525 -0.41193,9.83357 3.04176,2.13053 16.42052,2.15906 27.496,0.0586 18.54969,-3.51788 25.43322,-4.07809 34.5089,-2.80847 18.70923,2.61729 30.41809,9.72484 36.87689,22.38513 2.56246,5.02285 3.75744,10.82519 2.22942,10.82519 -0.59504,0 -1.08657,-0.6 -1.0923,-1.33333 -0.0204,-2.60519 -5.09509,-12.19962 -8.50966,-16.0886 -4.84493,-5.51808 -15.44753,-11.14615 -24.71512,-13.11929 -9.60524,-2.04503 -18.61352,-1.48523 -37.69813,2.34268 -10.43257,2.09252 -15.61831,2.62768 -20.93968,2.16095 -9.47668,-0.83118 -10.00305,-0.1555 -8.39507,10.77643 2.12936,14.47651 1.58124,13.70306 12.04009,16.98971 6.13267,1.92717 6.23404,1.92335 15.90439,-0.59965 l 9.73238,-2.53917 1.96228,2.42331 c 1.63676,2.02131 1.96227,4.35011 1.96227,14.03847 0,10.19294 -0.26121,11.87638 -2.13333,13.74849 -1.17333,1.17334 -2.49333,2.14165 -2.93333,2.15182 -0.44,0.0102 -5.36,0.50433 -10.93334,1.09815 -54.05329,5.75913 -53.99584,5.75805 -56.50888,1.06238 -1.84864,-3.45421 -1.22685,-6.99101 2.08947,-11.88517 1.74933,-2.58161 3.18933,-5.90704 3.2,-7.38984 0.0301,-4.18012 2.98812,-7.45244 9.23327,-10.21434 3.67222,-1.62403 5.75305,-3.20241 5.81326,-4.40955 0.46777,-9.37808 -0.33974,-26.49122 -1.30491,-27.65418 -1.53256,-1.84662 -4.10909,-1.79943 -10.99144,0.20133 -6.95742,2.02257 -9.5631,1.16749 -13.31192,-4.36846 -3.80302,-5.61598 -7.35694,-6.08305 -10.16141,-1.33546 -2.69162,4.55656 -6.83817,8.34332 -9.13601,8.34332 -1.00855,0 -3.09846,0.99484 -4.64424,2.21076 -2.7306,2.14788 -2.81052,2.54295 -2.81052,13.89306 0,11.55873 0.029,11.69332 2.73611,12.72258 1.50486,0.57215 4.12857,1.04027 5.83048,1.04027 4.15985,0 10.16704,2.98074 11.58787,5.74985 0.635,1.23758 1.88297,6.52991 2.77326,11.76073 2.50283,14.70521 2.15157,15.01677 -27.18768,24.11474 -20.56255,6.37636 -21.80268,6.66664 -24.24963,5.67616 z m 19.49967,-6.27443 c 15.87245,-4.81116 24.77927,-8.4385 27.88519,-11.35635 2.41069,-2.26473 3.15282,-6.35239 1.79547,-9.88958 -0.88013,-2.2936 -5.96712,-4.84532 -9.68443,-4.85788 -2.86937,-0.01 -2.80879,-0.11648 1.54703,-2.72712 2.49333,-1.49437 4.53333,-3.33544 4.53333,-4.09126 0,-2.48512 -4.2804,-5.33153 -8.0175,-5.33153 -4.61869,0 -5.89525,1.24163 -3.25869,3.16953 2.24689,1.64297 2.21221,1.74562 -1.18702,3.51266 -3.40652,1.77082 -6.90959,1.44572 -9.93679,-0.92219 -2.82665,-2.21103 -7.01852,-2.72212 -9.49022,-1.15708 -1.02513,0.64909 -1.3017,2.10531 -0.88618,4.66587 l 0.60405,3.7223 -10.9245,0.40439 c -13.06176,0.48351 -16.63884,2.11567 -16.6325,7.58911 0.005,4.26864 2.67021,8.73032 9.36327,15.67426 6.37358,6.61248 7.49336,6.686 24.28949,1.59487 z m 76.62222,-13.8851 c 35.33581,-3.45654 34.93211,-3.22048 33.19807,-19.4127 -0.99081,-9.252 -1.49497,-9.44308 -16.16755,-6.12778 -1.25978,0.28465 -4.30519,2.20077 -6.76759,4.25804 -2.46239,2.05727 -5.51166,3.72452 -6.77615,3.705 -2.28254,-0.0352 -2.28096,-0.0506 0.21909,-2.13333 1.38499,-1.15382 2.12899,-2.09785 1.65333,-2.09785 -0.47566,0 -0.29539,-0.56944 0.4006,-1.26543 1.70473,-1.70473 -1.35291,-5.13457 -4.57738,-5.13457 -2.29785,0 -10.24668,5.06976 -11.7418,7.48892 -0.50917,0.82385 -1.91238,0.11296 -4.25081,-2.15354 -3.37372,-3.26994 -3.59579,-3.32904 -6.62412,-1.76304 -5.70206,2.94865 -6.18741,4.39175 -2.91847,8.67755 1.59932,2.09681 3.68019,4.30745 4.62417,4.91251 1.24268,0.79654 0.1799,0.92618 -3.85125,0.46976 -4.68964,-0.53096 -5.90908,-0.28885 -7.73334,1.53541 -2.57959,2.5796 -2.83042,7.74873 -0.48957,10.08958 2.06877,2.06877 -1.14975,2.17489 31.80277,-1.04853 z M 383.85537,535.15665 c 2.47308,-1.63717 5.03706,-4.16305 5.69774,-5.61308 1.09496,-2.40318 0.76091,-3.05831 -3.77595,-7.40539 -5.04172,-4.83082 -6.82297,-4.23911 -2.76578,0.91877 2.9991,3.81274 2.33795,5.86915 -3.11743,9.69624 -4.23362,2.97 -5.34709,3.24242 -13.06107,3.19547 -4.63809,-0.0282 -8.43289,0.29657 -8.43289,0.72179 0,1.37605 3.55435,1.85274 12.34611,1.6558 7.45855,-0.16708 9.21536,-0.59184 13.10927,-3.1696 z m -25.89416,-15.4086 c 3.28308,-4.5374 11.93759,-8.1247 33.98483,-14.08675 25.43226,-6.87742 31.46388,-10.85407 25.14148,-16.57577 -1.16186,-1.05147 -2.41772,-3.53887 -2.7908,-5.52756 -1.3365,-7.12415 -8.82698,-7.06802 -17.44329,0.1307 -5.33101,4.45394 -7.49171,5.20819 -11.04726,3.85637 -3.57971,-1.361 -11.40618,-11.30023 -11.40618,-14.48528 0,-5.56409 4.68167,-3.86583 12.26666,4.44967 3.95042,4.33089 5.81736,5.65883 7.2,5.12132 2.45425,-0.9541 2.39876,-5.27411 -0.11387,-8.8661 -1.08929,-1.55723 -3.5028,-6.04827 -5.36336,-9.98008 -1.86055,-3.93181 -4.68931,-8.05228 -6.28613,-9.1566 -4.36556,-3.01912 -11.55375,-5.56132 -15.72489,-5.56132 -4.31048,0 -4.77105,1.79991 -2.09774,8.19804 0.8877,2.12457 1.48374,3.99311 1.32453,4.15232 -0.1592,0.1592 -3.1655,-0.387 -6.68067,-1.21379 -8.86561,-2.08524 -14.02106,-1.90606 -19.34753,0.67245 -7.79653,3.77423 -10.98724,12.01396 -7.36482,19.01895 1.95069,3.77222 8.4933,9.56239 12.77691,11.30748 1.80267,0.73439 5.55758,1.66375 8.34424,2.06526 2.78667,0.4015 5.06667,0.98317 5.06667,1.29258 0,0.30941 -3.36725,4.24 -7.48277,8.73464 -7.96379,8.69739 -12.26321,15.97144 -11.27691,19.07901 0.33138,1.04409 1.6322,2.5414 2.89071,3.32735 2.83868,1.77278 3.7635,0.6148 4.75732,-5.95673 0.93761,-6.1998 2.57832,-4.63944 2.57832,2.45206 0,4.59644 0.49924,6.30295 2.4,8.20371 l 2.4,2.4 0.58073,-5.05193 c 0.3194,-2.77856 1.54062,-6.37856 2.71382,-8 z m 53.77211,87.67611 c 0,-1.00144 4.2866,-9.02418 4.82168,-9.02418 0.28141,0 0.51165,2.16 0.51165,4.8 0,4.40889 -0.21728,4.8 -2.66666,4.8 -1.46667,0 -2.66667,-0.25912 -2.66667,-0.57582 z m -45.86666,-8.80359 c 0,-0.46535 1.56,-1.30535 3.46666,-1.86667 6.64233,-1.9555 3.971,-10.72486 -3.01591,-9.90054 -2.40898,0.28422 -3.15367,1.11479 -4.13628,4.61329 -0.94536,3.36583 -1.35842,3.85413 -1.95642,2.31276 -3.2472,-8.36977 7.16383,-14.22118 13.69043,-7.69458 5.08702,5.08703 2.37476,13.38182 -4.37564,13.38182 -2.02006,0 -3.67284,-0.38074 -3.67284,-0.84608 z m 33.40306,-5.5117 c -8.45984,-3.58886 -4.61843,-16.04222 4.94845,-16.04222 6.14253,0 9.02292,3.07224 8.25414,8.80393 -0.31645,2.35927 -1.24542,4.95964 -2.06438,5.7786 -1.91649,1.91649 -8.13912,2.73198 -11.13821,1.45969 z m 8.01953,-2.81135 c 5.98751,-4.19382 -0.67715,-13.57859 -6.79582,-9.56948 -3.85575,2.52638 -4.60574,6.8869 -1.60274,9.31858 2.96558,2.40138 5.23167,2.46907 8.39856,0.2509 z"
       id="path1" />
  </g>
</svg>
