<?xml version="1.0" encoding="UTF-8"?><svg id="Layer_1" xmlns="http://www.w3.org/2000/svg" viewBox="0 0 323 440"><defs><style>.cls-1,.cls-2{stroke-width:0px;}.cls-2{fill:#fff;}</style></defs><path class="cls-2" d="M0,440C0,293.33,0,146.67,0,0c107.67,0,215.33,0,323,0,0,146.67,0,293.33,0,440-107.67,0-215.33,0-323,0ZM240.68,256.49c.37-5.57,4.06-7.23,6.63-9.82,4.39-4.43,9.16-8.72,12.46-13.9,2.96-4.65,1.2-6.96-4.2-6.53-3.16.25-6.66,1.16-9.25,2.9-6.75,4.53-13.08,9.69-19.58,14.59-2.63,1.99-5.68,4.2-8.05.27-4.08-6.81-8.27-13.68-11.21-21.01-5.67-14.13-10.54-28.58-15.68-42.91-2.81-7.83-6.18-15.62-4.92-24.19.3-2.03,1.91-4.88,3.61-5.52,12.13-4.61,20.71-12.96,27-24.03,2.84-5,3.91-5.08,8.17-1.12,8.81,8.2,23.52,9.52,33.04,2.2,5.22-4.01,10.17-8.75,14.1-14.02,10.57-14.18,8.19-34.93-4.89-44-8.89-6.16-24.45-9.04-34.76,2.03-2.83,3.04-5.67,6.11-8.08,9.47-2.04,2.85-3.83,2.52-5.4.08-3.57-5.57-7.09-11.2-10.24-17.01-2.74-5.05-2.13-6.43,2.82-9,9.95-5.18,15.99-13.38,18.23-24.25,2.17-10.54-2.15-18.48-11.81-23.35-10.32-5.2-21.24-4.2-31.74-2.17-10.56,2.04-19.8,15.43-19.79,25.94,0,7.03-.03,7.5-6.97,6.94-21.17-1.69-37.88,6.8-51.53,22.17-3.36,3.78-5.83,8.39-8.52,12.73-1.85,2.98-3.49,5-7.82,4.48-5.62-.68-11.57-.71-17.08.41-5.08,1.03-8.8.41-12.94-2.68-3.19-2.38-7.31-3.68-11.2-4.82-.96-.28-3.69,1.82-3.86,3.06-1.23,9.37,1.77,17.56,8.81,23.76,3.75,3.31,8.15,5.62,7.81,11.68-.07,1.33,1.52,2.88,2.59,4.13,9.33,10.97,21.66,15.64,35.64,16.28,8.45.39,8.44.12,9.48,8.11.17,1.31.58,2.6.98,3.86,1.51,4.74.64,8.69-3.15,12.21-2.15,2-4.01,4.53-5.36,7.15-5.85,11.33-15.08,19.76-23.97,28.5-2.81,2.77-4.72,2.85-5.6-1.69-.74-3.78-3.42-5.77-7.3-5.2-2.2.33-4.63.97-6.38,2.26-7.1,5.22-11.19,12.6-13.54,20.9-.94,3.33-2.72,4.78-5.93,4.84-3.54.06-2.5-2.78-2.89-4.69-.57-2.77-.86-5.63-1.75-8.29-1.25-3.72-2.57-9.08-6.99-8.27-2.56.47-5.58,5.76-5.95,9.16-.68,6.16.15,12.57.93,18.8.94,7.47,1.03,14.21-4.39,20.6-3.75,4.42-6.28,10.08-8.42,15.55-.77,1.98.45,6.04,2.15,7.31,1.72,1.28,5.28.8,7.77.12,1.91-.52,3.69-2.33,5.03-3.97,4.33-5.31,9.66-6.53,16.5-7.01,11.46-.8,23.99-1.35,29.56-14.85.98-2.37,2.65-2.08,4.09.03,2.91,4.28,3.03,8.88.9,13.3-5.29,11.03-6.99,12.97,5.88,21.26,2.49,1.6,5.26,5.18,5.23,7.81-.09,6.73-1.79,13.42-2.63,20.16-.47,3.77-1.02,7.64-.65,11.37.71,7.07,2.04,14.09,3.17,21.12.45,2.78-.59,3.6-3.31,4.81-7.04,3.11-13.21.91-19.74-1.22-8.95-2.92-20.92,1-26.45,8.44-1.57,2.11-2.36,4.84-4.08,6.77-2.39,2.69-3,5.73-.9,8.14,5.94,6.82,11.88,13.79,18.73,19.63,5.94,5.06,13.97,3.79,21.22,3.39,6.72-.37,11.81,1.12,16.8,6.23,5.72,5.86,12.79,10.49,19.62,15.14,2.43,1.66,5.88,2.57,8.85,2.53,5.78-.09,11.52-1.45,17.31-1.64,11.82-.4,23.71.23,35.47-.76,6.75-.57,13.44-3.1,19.89-5.47,3.4-1.25,5.67-4.1,2.89-8.35-.8-1.23-.79-3.19-.66-4.78.48-6.08-1.73-11.02-5.8-15.38-1.46-1.56-3.36-3.29-3.71-5.19-1.66-9.12-7.98-11.49-15.97-11.83-4.08-.17-6.74-1.88-7.98-6.11-5.06-17.2-8.19-34.47-4.41-52.46.63-3.01,1.59-4.19,4.39-3.78,5.11.75,8.36-1.87,11.62-5.38,1.55-1.67,4.39-2.74,6.75-2.96,5.05-.48,9.31,1.52,12.75,5.47,2.73,3.13,5.64,6.22,8.92,8.74,7.1,5.45,14.04,11.37,21.86,15.58,19.55,10.51,39.86,19.64,59.28,30.36,15.77,8.7,24.68,22.07,21.73,41.16-.08.49.05,1.04-.11,1.49-1.82,4.93-2.78,10.48-5.71,14.64-6.59,9.37-14.58,17.03-25.37,22.42-16.43,8.21-33.01,13.89-51.53,12.93-1.85-.1-3.72.22-5.58.35l-.19,1.66c1.75.49,3.49,1.31,5.26,1.4,13.05.69,25.88-.07,38.1-5.46,14.48-6.39,29.08-12.61,39.33-25.42,8.61-10.76,15.72-22.11,10.71-36.87-1.38-4.08-3.15-8.03-4.45-12.13-2.23-7.03-6.59-12.11-13.11-15.47-8.71-4.49-17.37-9.07-26.06-13.61-8.07-4.22-15.85-9.2-24.28-12.52-17.19-6.77-32.34-16.11-43.94-30.69-1.03-1.29-1.4-3.1-2.35-5.28,5.89-.51,10.5.77,14.01,4.21,4.23,4.16,7.62,9.18,11.89,13.3,2.42,2.34,5.7,4.29,8.92,5.11,2.04.52,5.26-.79,6.87-2.37.98-.96.55-4.4-.42-6.04-1.56-2.63-3.92-4.88-6.26-6.94-2.1-1.86-5.57-3.33-3.68-6.56,1.29-2.21,4.16-4.17,6.7-4.85,8.47-2.27,17.17-3.68,25.65-5.89,6.07-1.58,9.75-6.17,11.91-11.88,1.73-4.56-1.55-8.56-6.32-7.71-2.44.43-4.8,1.37-7.15,2.19-5.06,1.76-10.1,3.59-16.03,5.7Z"/><path class="cls-1" d="M240.68,256.49c5.92-2.11,10.96-3.94,16.03-5.7,2.36-.82,4.71-1.75,7.15-2.19,4.77-.85,8.05,3.15,6.32,7.71-2.16,5.71-5.85,10.29-11.91,11.88-8.49,2.21-17.18,3.62-25.65,5.89-2.54.68-5.41,2.64-6.7,4.85-1.89,3.23,1.58,4.7,3.68,6.56,2.33,2.06,4.7,4.31,6.26,6.94.97,1.63,1.4,5.08.42,6.04-1.61,1.58-4.83,2.89-6.87,2.37-3.22-.82-6.5-2.77-8.92-5.11-4.27-4.12-7.66-9.14-11.89-13.3-3.5-3.45-8.11-4.72-14.01-4.21.94,2.18,1.32,3.99,2.35,5.28,11.6,14.58,26.75,23.92,43.94,30.69,8.43,3.32,16.2,8.3,24.28,12.52,8.68,4.54,17.35,9.12,26.06,13.61,6.52,3.36,10.88,8.44,13.11,15.47,1.3,4.1,3.07,8.06,4.45,12.13,5,14.76-2.1,26.11-10.71,36.87-10.25,12.81-24.85,19.03-39.33,25.42-12.22,5.39-25.05,6.15-38.1,5.46-1.77-.09-3.51-.92-5.26-1.4l.19-1.66c1.86-.13,3.73-.44,5.58-.35,18.52.96,35.11-4.72,51.53-12.93,10.79-5.39,18.78-13.05,25.37-22.42,2.93-4.16,3.89-9.71,5.71-14.64.17-.45.04-1,.11-1.49,2.95-19.1-5.96-32.46-21.73-41.16-19.43-10.72-39.73-19.84-59.28-30.36-7.82-4.21-14.76-10.13-21.86-15.58-3.28-2.52-6.19-5.6-8.92-8.74-3.44-3.95-7.69-5.95-12.75-5.47-2.36.22-5.19,1.29-6.75,2.96-3.26,3.5-6.51,6.12-11.62,5.38-2.8-.41-3.75.77-4.39,3.78-3.78,17.98-.65,35.26,4.41,52.46,1.24,4.23,3.9,5.94,7.98,6.11,7.99.34,14.3,2.71,15.97,11.83.35,1.9,2.26,3.63,3.71,5.19,4.07,4.36,6.28,9.3,5.8,15.38-.13,1.59-.14,3.56.66,4.78,2.78,4.25.51,7.1-2.89,8.35-6.45,2.37-13.14,4.9-19.89,5.47-11.76.99-23.65.36-35.47.76-5.78.19-11.53,1.55-17.31,1.64-2.97.04-6.42-.87-8.85-2.53-6.83-4.66-13.9-9.28-19.62-15.14-4.99-5.11-10.08-6.6-16.8-6.23-7.24.4-15.28,1.66-21.22-3.39-6.85-5.84-12.79-12.81-18.73-19.63-2.1-2.41-1.49-5.45.9-8.14,1.72-1.93,2.52-4.67,4.08-6.77,5.52-7.43,17.5-11.36,26.45-8.44,6.53,2.13,12.7,4.33,19.74,1.22,2.72-1.2,3.76-2.03,3.31-4.81-1.13-7.03-2.46-14.05-3.17-21.12-.38-3.73.18-7.6.65-11.37.84-6.74,2.54-13.43,2.63-20.16.03-2.63-2.74-6.21-5.23-7.81-12.87-8.29-11.17-10.23-5.88-21.26,2.12-4.43,2-9.02-.9-13.3-1.44-2.12-3.11-2.4-4.09-.03-5.58,13.5-18.1,14.05-29.56,14.85-6.84.48-12.17,1.7-16.5,7.01-1.34,1.64-3.12,3.44-5.03,3.97-2.49.68-6.05,1.16-7.77-.12-1.69-1.27-2.92-5.33-2.15-7.31,2.13-5.47,4.67-11.13,8.42-15.55,5.42-6.39,5.33-13.13,4.39-20.6-.78-6.23-1.61-12.63-.93-18.8.37-3.39,3.39-8.69,5.95-9.16,4.42-.81,5.75,4.55,6.99,8.27.89,2.66,1.18,5.52,1.75,8.29.39,1.92-.65,4.76,2.89,4.69,3.21-.06,4.99-1.5,5.93-4.84,2.35-8.29,6.44-15.68,13.54-20.9,1.75-1.29,4.17-1.93,6.38-2.26,3.88-.57,6.56,1.41,7.3,5.2.89,4.54,2.79,4.46,5.6,1.69,8.89-8.74,18.12-17.17,23.97-28.5,1.35-2.62,3.2-5.15,5.36-7.15,3.79-3.52,4.66-7.47,3.15-12.21-.4-1.26-.81-2.55-.98-3.86-1.04-8-1.03-7.72-9.48-8.11-13.99-.65-26.31-5.31-35.64-16.28-1.06-1.25-2.66-2.8-2.59-4.13.34-6.06-4.06-8.37-7.81-11.68-7.04-6.21-10.04-14.39-8.81-23.76.16-1.24,2.89-3.34,3.86-3.06,3.9,1.13,8.02,2.44,11.2,4.82,4.14,3.09,7.86,3.71,12.94,2.68,5.52-1.12,11.46-1.09,17.08-.41,4.33.52,5.97-1.5,7.82-4.48,2.69-4.34,5.16-8.95,8.52-12.73,13.66-15.37,30.36-23.86,51.53-22.17,6.94.56,6.98.09,6.97-6.94-.01-10.5,9.23-23.89,19.79-25.94,10.5-2.03,21.42-3.03,31.74,2.17,9.65,4.86,13.98,12.81,11.81,23.35-2.24,10.87-8.27,19.07-18.23,24.25-4.95,2.57-5.56,3.95-2.82,9,3.16,5.81,6.67,11.44,10.24,17.01,1.57,2.44,3.35,2.78,5.4-.08,2.41-3.36,5.25-6.43,8.08-9.47,10.3-11.06,25.87-8.19,34.76-2.03,13.08,9.07,15.46,29.82,4.89,44-3.93,5.27-8.87,10-14.1,14.02-9.52,7.32-24.23,6-33.04-2.2-4.26-3.97-5.33-3.89-8.17,1.12-6.3,11.07-14.87,19.42-27,24.03-1.7.65-3.31,3.5-3.61,5.52-1.26,8.57,2.11,16.36,4.92,24.19,5.15,14.34,10.01,28.79,15.68,42.91,2.94,7.33,7.13,14.2,11.21,21.01,2.36,3.94,5.41,1.72,8.05-.27,6.5-4.9,12.83-10.06,19.58-14.59,2.59-1.74,6.08-2.64,9.25-2.9,5.4-.43,7.16,1.88,4.2,6.53-3.3,5.18-8.07,9.47-12.46,13.9-2.57,2.59-6.26,4.25-6.63,9.82ZM136.98,45.99l-.94-1.39c-5.42,3.37-11.12,6.39-16.14,10.28-2.51,1.95-3.75,5.52-5.6,8.33-4.69,7.16-9.15,14.49-14.23,21.36-1.91,2.59-4.92,3.54-6.68-1.16-.53-1.42-2.91-2.9-4.53-2.99-3.61-.22-7.28.32-10.91.73-4.11.47-5.16,2.5-3.78,6.58,3.12,9.2,2.67,10.53-5.16,15.67-3.09,2.03-2.95,4.23-1.35,6.7,1.16,1.79,2.68,3.44,4.33,4.79,8.26,6.74,17.72,10.41,28.42,10.89,19.67.87,37.67-4.83,53.88-15.37,8.18-5.32,16.69-11.18,19.21-22.02.74-3.2,3.6-3.21,5.03-.47,2.6,4.97,5.55,10.05,6.66,15.44,4,19.42-3.15,35.25-17.23,48.4-16.23,15.17-39.02,13.29-49.11-10.88-1.29-3.08-1.95-6.43-2.89-9.66-.24,4.21.2,8.29,1.11,12.27,2.86,12.6,11.05,20.51,23.24,23.46,4.44,1.07,10.01.01,14.36-1.78,5.45-2.25,10.25-6.15,15.19-9.52,5.35-3.66,9.61-7.74,17.05-9.21,23.43-4.64,35.41-32.27,32.46-51.92-.89-5.95-2.39-12.52-5.79-17.22-6.23-8.59-15.86-9.83-25.74-7.13-11.92,3.26-21.78,10.47-31.7,17.49-1.38.98-2.95,1.68-4.44,2.51l-.95-1.38c1.38-1.55,2.61-3.27,4.16-4.62,8.11-7.06,14.87-15.2,20.15-24.59,4.78-8.51,3.68-12.06-5.41-15.6-1.96-.76-4.26-1.22-6.32-1.02-10,.98-19.03,4.44-26.64,11.2-1.53,1.36-3.19,2.57-4.79,3.85-.52-.39-1.05-.78-1.57-1.17,2.21-3.62,4.43-7.23,6.64-10.85ZM82.17,244.73c-2.03,4.52-3.95,8.37-5.41,12.38-.39,1.07.19,3.2,1.07,3.93,8.79,7.31,18.36,13.28,30.04,14.47,6.66.68,10.93-3.29,11.6-9.89q-12.48-3.71-13.63-6.24c7.44,1.18,14.66,2.33,22.4,3.55-1.12,2.73-2.04,4.65-2.71,6.66-1.07,3.23-.68,6.4,3.02,7.25,11.46,2.64,22.93,5.49,34.56,7.06,5.82.78,8.09-4.91,4.57-9.76-1.98-2.73-3.17-5.94.14-7.78,3.42-1.9,4.99-4.16,5.44-7.84.17-1.38,1.35-2.63,2.08-3.94,4.75-8.56,9.7-17.02,14.13-25.75,1.07-2.11,1.12-5.3.44-7.64-2.55-8.79-5.57-17.45-8.51-26.12-.55-1.61-1.56-3.06-1.99-3.87-7.03,3.65-13.13,8.33-19.97,9.98-9.26,2.23-19.13,3.14-28.66,2.79-15.37-.57-30.17-3.63-38.62-20.66-3.33,5.03-6.29,9.52-10.07,15.24,6.14-.95,11-3.39,13.55,2.93,2.26,5.61,1.25,13.9-2.61,17.87-4.88,5.01-9.65,3.64-14.62-1.42-1.62,14.91,6.54,24.16,15.63,33-.58.43-1.17.86-1.75,1.3-3.18-2.36-6.35-4.71-10.12-7.5ZM190.44,392.46c-.78-3.37-2.19-5.79-1.52-7.24,2.84-6.18,1.1-11.35-2.57-16.28-1.96-2.64-4.13-3.83-7.64-1.77-2.75,1.62-6.19,2.54-9.25-.09,2.3-1.14,5.25-.94,6.83-2.31,1.7-1.47,3.03-4.47,2.88-6.7-.22-3.33-7.71-5.03-13.33-2.09,1.97.52,3.94,1.04,6.8,1.8-3.55,4.66-8.29,4.94-13.17,5.05-5.21.11-7.77-1.85-9.41-6.79-.47-1.42-2.47-3.7-3.01-3.5-2.52.93-5.08,2.27-6.94,4.15-.59.59.43,4.16,1.6,4.85,3.29,1.93,7.05,3.06,10.64,4.52-5.44,1.25-10.56,1.04-15.19-3.37-2.21-2.11-5.05-4.37-7.89-4.85-7.82-1.32-15.78-2.23-23.7-2.32-5.5-.06-9.05,3.87-10.7,9.07-1.54,4.87-1.53,9.64,2.59,13.38,4.06,3.69,8.24,7.25,12.51,10.69,4.71,3.79,10.19,5.72,16.24,5.31,12.09-.82,24.17-1.81,36.25-2.79,2.19-.18,4.36-.61,6.55-.93l.55,2.06c-5.06,1.54-10.13,3.08-15.19,4.61.13.48.25.96.38,1.44,12.26-2.07,25.46,1.36,35.68-5.9ZM102.01,304.76c1.25,9.01,2.35,16.88,3.44,24.74.65,4.67,2.62,6.93,8.04,6.85,9.37-.13,13.68,3.99,15.12,12.63.94,5.66,5.17,7.24,9.64,3.64,1.29-1.04,2.56-2.36,4.07-2.83,4.56-1.42,4.91-4.2,3.4-8.14-4.44-11.61-6.62-23.67-6.23-36.08.17-5.6,1.29-11.18,1.97-16.77.38-3.1-.47-4.54-4.06-5.3-4.74-1-9.31-3.18-13.67-5.38-3.01-1.52-14.53-.31-16.42,2.37-.18.26-.28.6-.35.92-1.71,8.06-3.41,16.12-4.94,23.34ZM92.27,347.69c-.22.5-.44,1.01-.67,1.51-2.31-1.02-4.65-1.99-6.93-3.08-5.84-2.79-11.54-5.92-17.51-8.38-7.85-3.24-15.4-1.72-22.24,2.99-4.73,3.25-5.7,8.55-2.73,13.63,5.16,8.83,13.11,13.49,23.1,14.64,6.77.78,13.63.91,20.38,1.82,3.88.52,5.09-.81,5.91-4.44,2.44-10.8,6.83-14.32,17.95-15.19,2.65-.21,5.52.41,7.93-.41,2.58-.88,4.73-3.01,7.07-4.6-1.83-1.68-3.41-3.86-5.55-4.89-2.23-1.08-5-1.05-7.64-1.52-.51,3.31,1.8,6.75-3.03,7.83-8.34,1.88-13.04.02-17.55-7.24-.71-1.14-2.88-1.37-4.37-2.02.1,1.56-.37,3.55.42,4.6,1.42,1.89,3.6,3.21,5.46,4.76ZM152.55,140.6c-.41-.18-.82-.35-1.23-.53.11-2.53.25-5.05.33-7.58.16-5.63-1.71-7.65-7.32-7.4-9.25.41-15.77,5.56-20.76,12.82-.84,1.22-.89,3.66-.26,5.08,5.43,12.36,22.02,17.86,34.06,11.33,9.5-5.16,16.13-13.13,21.41-22.38,1.57-2.75.45-4.87-1.98-5.54-2.38-.65-5.69-1.01-7.56.16-4.71,2.95-8.87,6.8-13.18,10.37-1.29,1.07-2.34,2.44-3.5,3.67ZM193.65,232.04c-.96.62-1.75.84-1.99,1.33-3.85,7.82-9.33,15.22-6.62,24.8,1.22,4.29,4.04,5.14,7.39,2.17,2.73-2.42,5.2-5.16,8.13-7.3,2.94-2.14,3.12-4.31,1.5-7.24-1.92-3.48-3.56-7.11-5.5-10.57-.67-1.19-1.88-2.08-2.92-3.19ZM93.46,209.61c-.28-.17-.56-.34-.84-.51-.06-.83.14-1.81-.24-2.45-.95-1.58-2.17-2.99-3.28-4.47-1.47,1.13-3.02,2.16-4.36,3.42-.53.51-.83,1.53-.81,2.31.09,3.04.16,6.11.72,9.07.09.48,3.43,1.17,3.85.64,1.93-2.46,3.35-5.31,4.96-8.02ZM85.66,376.24c.05-.56.1-1.12.15-1.68-4.39-.43-8.79-.84-13.18-1.31-4.29-.46-8.69-.58-12.84-1.63-3.99-1.01-7.73-3.01-12.39-4.91,11.17,13.32,25.14,9.46,38.26,9.54ZM125.13,398.9c-15.34-1.13-23.66-13.46-34.69-22.35-1.27,4.98,1.8,6.55,4.23,8.36,4.65,3.45,9.88,6.27,13.97,10.28,4.97,4.86,10.45,4.59,16.49,3.72Z"/><path class="cls-2" d="M136.98,45.99c-2.21,3.62-4.43,7.23-6.64,10.85.52.39,1.05.78,1.57,1.17,1.6-1.28,3.26-2.5,4.79-3.85,7.62-6.76,16.64-10.23,26.64-11.2,2.06-.2,4.36.26,6.32,1.02,9.09,3.53,10.19,7.08,5.41,15.6-5.28,9.39-12.03,17.53-20.15,24.59-1.55,1.35-2.78,3.07-4.16,4.62l.95,1.38c1.48-.83,3.06-1.53,4.44-2.51,9.92-7.02,19.77-14.22,31.7-17.49,9.87-2.7,19.51-1.46,25.74,7.13,3.41,4.7,4.9,11.27,5.79,17.22,2.95,19.65-9.03,47.29-32.46,51.92-7.44,1.47-11.7,5.55-17.05,9.21-4.95,3.38-9.74,7.28-15.19,9.52-4.35,1.79-9.93,2.86-14.36,1.78-12.19-2.95-20.38-10.86-23.24-23.46-.9-3.98-1.35-8.06-1.11-12.27.95,3.23,1.61,6.57,2.89,9.66,10.09,24.17,32.88,26.04,49.11,10.88,14.07-13.15,21.22-28.98,17.23-48.4-1.11-5.39-4.06-10.47-6.66-15.44-1.44-2.74-4.29-2.73-5.03.47-2.51,10.85-11.03,16.71-19.21,22.02-16.21,10.54-34.2,16.24-53.88,15.37-10.69-.47-20.16-4.15-28.42-10.89-1.65-1.35-3.18-3-4.33-4.79-1.6-2.48-1.74-4.68,1.35-6.7,7.84-5.14,8.29-6.47,5.16-15.67-1.39-4.08-.34-6.11,3.78-6.58,3.63-.42,7.3-.95,10.91-.73,1.61.1,3.99,1.58,4.53,2.99,1.76,4.7,4.77,3.75,6.68,1.16,5.08-6.87,9.54-14.21,14.23-21.36,1.85-2.82,3.09-6.39,5.6-8.33,5.02-3.89,10.72-6.9,16.14-10.28l.94,1.39ZM108.9,86.31c.48.84,1.18,2.84,1.65,2.78,2.01-.23,4.81-.45,5.77-1.78,4.61-6.4,8.82-13.1,12.9-19.86.67-1.11-.01-3.03-.07-4.58-1.71.22-3.73-.08-5.07.74-8.3,5.1-11.87,13.48-15.18,22.71ZM167.76,87.04c4.11-2.08,8.02-5.01,12.38-6.02,4.5-1.04,9.43-.23,13.9-.23-5.52-7.22-23-3.04-26.28,6.25Z"/><path class="cls-2" d="M82.17,244.73c3.76,2.79,6.94,5.15,10.12,7.5.58-.43,1.17-.86,1.75-1.3-9.09-8.84-17.25-18.09-15.63-33,4.97,5.06,9.75,6.44,14.62,1.42,3.86-3.97,4.88-12.26,2.61-17.87-2.55-6.32-7.41-3.88-13.55-2.93,3.78-5.72,6.74-10.21,10.07-15.24,8.45,17.03,23.25,20.09,38.62,20.66,9.54.35,19.4-.56,28.66-2.79,6.83-1.64,12.93-6.33,19.97-9.98.43.81,1.44,2.26,1.99,3.87,2.94,8.67,5.95,17.33,8.51,26.12.68,2.34.63,5.53-.44,7.64-4.43,8.73-9.37,17.19-14.13,25.75-.73,1.31-1.91,2.56-2.08,3.94-.45,3.68-2.02,5.94-5.44,7.84-3.3,1.83-2.12,5.04-.14,7.78,3.52,4.85,1.25,10.54-4.57,9.76-11.63-1.57-23.1-4.42-34.56-7.06-3.69-.85-4.09-4.02-3.02-7.25.67-2.01,1.59-3.94,2.71-6.66-7.74-1.23-14.96-2.37-22.4-3.55q1.15,2.53,13.63,6.24c-.67,6.6-4.95,10.57-11.6,9.89-11.68-1.19-21.25-7.16-30.04-14.47-.89-.74-1.46-2.86-1.07-3.93,1.46-4.01,3.39-7.86,5.41-12.38ZM102.89,223.72c.1,4.28,1.39,7.92,5.69,9.67,4.08,1.66,8.17,1.2,10.99-2.12,2.52-2.98,4.74-6.54,6-10.22,2.23-6.52-1.64-11.58-8.54-12.13-7.53-.6-14.24,6.42-14.14,14.8Z"/><path class="cls-2" d="M190.44,392.46c-10.23,7.26-23.42,3.84-35.68,5.9-.13-.48-.25-.96-.38-1.44,5.06-1.54,10.13-3.08,15.19-4.61l-.55-2.06c-2.18.32-4.35.75-6.55.93-12.08.98-24.16,1.98-36.25,2.79-6.06.41-11.53-1.52-16.24-5.31-4.27-3.44-8.45-7-12.51-10.69-4.12-3.74-4.13-8.52-2.59-13.38,1.65-5.21,5.21-9.14,10.7-9.07,7.92.09,15.88,1.01,23.7,2.32,2.84.48,5.67,2.74,7.89,4.85,4.64,4.41,9.76,4.62,15.19,3.37-3.6-1.46-7.35-2.59-10.64-4.52-1.17-.69-2.19-4.26-1.6-4.85,1.87-1.87,4.42-3.22,6.94-4.15.53-.2,2.54,2.08,3.01,3.5,1.64,4.94,4.19,6.9,9.41,6.79,4.88-.11,9.62-.39,13.17-5.05-2.86-.76-4.83-1.28-6.8-1.8,5.62-2.94,13.11-1.23,13.33,2.09.14,2.23-1.19,5.23-2.88,6.7-1.59,1.37-4.53,1.17-6.83,2.31,3.06,2.63,6.5,1.7,9.25.09,3.51-2.07,5.68-.87,7.64,1.77,3.67,4.93,5.41,10.1,2.57,16.28-.67,1.45.74,3.87,1.52,7.24Z"/><path class="cls-2" d="M102.01,304.76c1.53-7.22,3.23-15.28,4.94-23.34.07-.32.17-.66.35-.92,1.89-2.68,13.42-3.89,16.42-2.37,4.37,2.21,8.94,4.38,13.67,5.38,3.59.76,4.44,2.2,4.06,5.3-.68,5.59-1.8,11.16-1.97,16.77-.39,12.41,1.79,24.47,6.23,36.08,1.51,3.94,1.17,6.72-3.4,8.14-1.5.47-2.77,1.79-4.07,2.83-4.47,3.6-8.7,2.02-9.64-3.64-1.44-8.65-5.75-12.76-15.12-12.63-5.42.07-7.39-2.18-8.04-6.85-1.09-7.86-2.19-15.72-3.44-24.74Z"/><path class="cls-2" d="M92.27,347.69c-1.86-1.56-4.03-2.88-5.46-4.76-.79-1.04-.32-3.03-.42-4.6,1.49.65,3.66.88,4.37,2.02,4.51,7.26,9.21,9.11,17.55,7.24,4.83-1.09,2.52-4.52,3.03-7.83,2.65.47,5.41.44,7.64,1.52,2.14,1.03,3.72,3.22,5.55,4.89-2.34,1.59-4.49,3.72-7.07,4.6-2.41.82-5.28.21-7.93.41-11.13.87-15.51,4.4-17.95,15.19-.82,3.63-2.03,4.96-5.91,4.44-6.75-.9-13.61-1.04-20.38-1.82-9.99-1.15-17.94-5.82-23.1-14.64-2.97-5.08-1.99-10.37,2.73-13.63,6.84-4.71,14.39-6.23,22.24-2.99,5.97,2.47,11.67,5.59,17.51,8.38,2.28,1.09,4.62,2.06,6.93,3.08.22-.5.44-1.01.67-1.51Z"/><path class="cls-2" d="M152.55,140.6c1.16-1.23,2.21-2.6,3.5-3.67,4.31-3.58,8.47-7.42,13.18-10.37,1.86-1.17,5.17-.81,7.56-.16,2.43.67,3.55,2.78,1.98,5.54-5.28,9.25-11.92,17.23-21.41,22.38-12.03,6.53-28.63,1.04-34.06-11.33-.62-1.42-.57-3.87.26-5.08,4.99-7.26,11.52-12.41,20.76-12.82,5.61-.25,7.48,1.77,7.32,7.4-.07,2.53-.22,5.05-.33,7.58.41.18.82.35,1.23.53Z"/><path class="cls-2" d="M193.65,232.04c1.04,1.11,2.25,2,2.92,3.19,1.94,3.46,3.59,7.09,5.5,10.57,1.61,2.93,1.44,5.1-1.5,7.24-2.93,2.13-5.41,4.88-8.13,7.3-3.35,2.97-6.18,2.13-7.39-2.17-2.71-9.57,2.77-16.98,6.62-24.8.24-.49,1.03-.71,1.99-1.33Z"/><path class="cls-2" d="M93.46,209.61c-1.61,2.71-3.03,5.56-4.96,8.02-.41.53-3.76-.16-3.85-.64-.56-2.97-.63-6.03-.72-9.07-.02-.78.27-1.8.81-2.31,1.33-1.26,2.89-2.3,4.36-3.42,1.11,1.48,2.33,2.89,3.28,4.47.38.63.18,1.62.24,2.45.28.17.56.34.84.51Z"/><path class="cls-2" d="M85.66,376.24c-13.13-.08-27.09,3.79-38.26-9.54,4.66,1.9,8.4,3.91,12.39,4.91,4.15,1.05,8.54,1.16,12.84,1.63,4.39.48,8.79.88,13.18,1.31-.05.56-.1,1.12-.15,1.68Z"/><path class="cls-2" d="M125.13,398.9c-6.04.88-11.52,1.15-16.49-3.72-4.09-4-9.32-6.82-13.97-10.28-2.43-1.81-5.5-3.37-4.23-8.36,11.02,8.89,19.35,21.22,34.69,22.35Z"/><path class="cls-1" d="M108.9,86.31c3.32-9.23,6.88-17.61,15.18-22.71,1.34-.82,3.36-.52,5.07-.74.06,1.55.74,3.47.07,4.58-4.08,6.76-8.29,13.46-12.9,19.86-.96,1.34-3.76,1.55-5.77,1.78-.47.05-1.17-1.94-1.65-2.78Z"/><path class="cls-1" d="M167.76,87.04c3.27-9.29,20.76-13.47,26.28-6.25-4.47,0-9.4-.81-13.9.23-4.36,1.01-8.27,3.93-12.38,6.02Z"/><path class="cls-1" d="M102.89,223.72c-.1-8.38,6.6-15.4,14.13-14.8,6.9.55,10.76,5.61,8.54,12.13-1.26,3.68-3.47,7.23-6,10.22-2.81,3.32-6.91,3.78-10.99,2.12-4.3-1.75-5.59-5.39-5.69-9.67ZM116.45,212.1c-4.83-.15-10.32,5.91-10.42,11.5-.08,4.5,2.48,7.43,6.73,7.69,4.4.27,9.6-6.08,9.82-12,.14-3.66-2.78-7.09-6.13-7.19Z"/><path class="cls-2" d="M116.45,212.1c3.35.11,6.27,3.53,6.13,7.19-.22,5.92-5.42,12.27-9.82,12-4.24-.26-6.81-3.19-6.73-7.69.1-5.6,5.59-11.66,10.42-11.5Z"/></svg>