<?xml version="1.0" encoding="UTF-8"?><svg id="Layer_1" xmlns="http://www.w3.org/2000/svg" viewBox="0 0 323 440"><defs><style>.cls-1,.cls-2{stroke-width:0px;}.cls-2{fill:#fff;}</style></defs><path class="cls-2" d="M323,440H0V0h323v440ZM80.34,141.9c-2.91,7.6-1.53,14.62,4.93,20,3.92,3.27,3.54,6.58,1.49,10.57-3.57,6.92-6.81,14.02-10.46,20.9-1.03,1.94-3.01,3.37-4.56,5.03-1.71-1.85-3.55-3.61-5.05-5.61-.63-.85-.31-2.35-.83-3.35-3.18-6.12-6.03-12.49-9.99-18.07-1.16-1.64-5.89-1.95-8.4-1.12-3.1,1.02-3.59,4.35-2.35,7.65.99,2.64,1.65,5.41,2.45,8.12.88,2.98,1.69,6.12-2.05,7.69-3.85,1.61-7.57,5.68-12.06.78-2.91-3.18-6.05-6.24-9.46-8.86-4.4-3.38-9.62-3.21-12.27-.17-2.73,3.13-2.57,9.32,1.36,12.65,4.73,4.02,10.07,7.42,15.45,10.55,2.67,1.55,4.03,3.2,3.99,6.18-.03,2-.04,4.01.14,6,.25,2.78-.65,4.39-3.26,5.95-4.54,2.71-8.82,5.96-12.76,9.49-3.2,2.87-3.51,6.76-1.02,10.43,2.43,3.58,6.04,5.1,10.01,3.39,4.38-1.89,8.99-3.93,12.45-7.07,4.74-4.29,8.93-8.03,15.7-4.53.93.48,2.37.41,3.45.13,6.49-1.68,10.09,1.3,12.02,7.19.31.94.63,1.93,1.18,2.74,3.3,4.87,3.04,9.81-.07,14.5-2.46,3.7-1.64,6.58,1.36,9.21,1.87,1.64,4.2,2.82,5.82,4.65,1.29,1.45,2.72,3.67,2.53,5.38-.49,4.42-1.06,9.13-2.99,13.04-4.83,9.77-1.32,19.15.16,28.69.49,3.14,2.58,6.28-.81,9.22-3.62,3.14-7.07,5.18-12.11,2.73-3.85-1.88-8.07-3.18-12.26-4.15-6.74-1.55-13.3-1.58-18,4.86-2.62,3.59-4.96,7.46-8.01,10.64-4.66,4.84-5.17,6.62-.3,11.54,4.07,4.12,9.08,7.33,13.09,11.5,9.63,10,21.62,10.11,34.12,9.2,2.32-.17,5.26.67,7.03,2.12,4.23,3.48,7.73,7.83,11.9,11.4,3.24,2.77,6.75,5.7,10.66,7.12,11.23,4.06,23,2.89,34.6,1.99,11.21-.88,22.38-2.29,33.58-3.39,2.15-.21,4.34.06,6.49-.13,8.33-.73,11.54-5.04,9.75-12.74-.29-1.26-.38-2.73-.04-3.96,2.16-7.69-1.87-12.69-7.17-17.25-1.75-1.5-4.11-2.91-4.85-4.86-2.72-7.16-8.69-9.16-15.19-10.55-2.59-.56-5.22-.98-7.85-1.35-3.98-.56-6.04-3.08-7.2-6.67-3.99-12.46-7.23-24.89-2.8-38.06,1.3-3.88,2.6-6.05,7.1-6.83,14.1-2.45,18.63-8.17,20.68-20.93.29-1.78,1.27-3.45,1.92-5.17,1.45.97,3.06,1.77,4.31,2.94,11.66,10.9,23.45,21.59,37.79,29.06,24.59,12.82,49.05,25.98,70.43,43.86,5.53,4.63,11.88,10.73,13.42,17.21,3.7,15.56,1.64,30.93-11.38,42.59-13.17,11.8-28.83,18.72-45.72,23.45-8.37,2.35-16.63,4.47-25.4,4.01-.88-.05-1.82,1.05-2.73,1.61.69.75,1.27,1.95,2.11,2.17,2.4.63,5.07,1.63,7.33,1.11,10.62-2.42,21.14-5.32,31.71-8,10.06-2.55,17.77-9.42,26.63-14.16,10.27-5.5,16.04-14.26,20.64-24.1,2.29-4.88,4.5-10.31,4.68-15.56.38-11.14-5.43-20.04-13.33-27.4-18.01-16.78-39.17-29.02-60.68-40.54-16.17-8.66-30.85-18.99-42.63-33.12-2.43-2.92-5.26-5.92-4.17-11.56,2.33,1.52,4.12,2.5,5.69,3.74,5.47,4.33,11.32,7.6,18.59,7.21,5.88-.31,8.82-5.48,5.9-10.6-.88-1.55-2.12-3.5-3.62-3.99-8.86-2.93-9.15-8.84-7.65-16.85.95-5.06,2.74-7.88,7.08-10.27,4.59-2.53,8.8-5.88,12.81-9.3,1.2-1.02,2.09-3.92,1.49-5.17-.77-1.59-3.12-3.16-4.93-3.36-4.95-.54-9.9-.46-14.2,3.1-2.02,1.66-4.76,2.44-8.04,4.04,0-3.59-.2-5.89.03-8.14,2.04-19.4-3.3-36.07-17.93-49.43-3.44-3.14-6.93-6.33-9.77-9.99-1.2-1.55-1.83-5-.93-6.49,4.54-7.49,9.82-14.52,14.52-21.92,2.3-3.63,4.9-4.28,8.82-3.07,15.44,4.75,33.4-2.49,42.3-15.85,5.01-7.52,5.61-15.46,5.11-23.82-.98-16.3-17.55-30.16-35-22.31-6.08,2.73-11.43,7.32-16.67,11.6-3.45,2.82-5.86,2.53-8.39-.67-1.75-2.21-3.23-4.67-5.15-6.71-5.39-5.71-5.3-6.55,1.85-10.2,12.03-6.15,18.93-21.92,13.66-32.84-3.81-7.89-10.89-12.52-18.73-16.43-20.06-10.01-36.56-1.98-50.07,10.09-.86.77-1.23,2.32-1.43,3.57-1.22,7.84-2.68,15.73,1.98,23.1.28.45.04,1.23.04,1.37-7.28,1.62-14.29,2.75-21.03,4.78-11.73,3.54-21.89,9.76-28,20.78-4.08,7.36-7.41,15.15-10.74,22.9-1.22,2.83-2.84,4.21-5.66,3.37-8.4-2.53-16.29-1.29-24.1,2.33-1.2.56-4.01.11-4.54-.79-3.08-5.17-7.85-6.23-13.2-6.25-6.8-.03-10.19,5.35-6.85,11.42,3.67,6.67,8.61,12.12,16.1,14.95,2.43.92,5.38,2.71,6.34,4.88,3.78,8.56,10.64,12.54,19.2,14.16,9.9,1.87,19.88,3.33,30.87,5.14Z"/><path class="cls-1" d="M80.34,141.9c-10.99-1.81-20.97-3.27-30.87-5.14-8.56-1.61-15.42-5.6-19.2-14.16-.96-2.17-3.91-3.96-6.34-4.88-7.49-2.83-12.43-8.27-16.1-14.95-3.34-6.07.05-11.45,6.85-11.42,5.35.02,10.12,1.08,13.2,6.25.53.9,3.34,1.34,4.54.79,7.81-3.62,15.7-4.87,24.1-2.33,2.81.85,4.44-.54,5.66-3.37,3.33-7.74,6.66-15.54,10.74-22.9,6.11-11.02,16.26-17.24,28-20.78,6.74-2.03,13.76-3.16,21.03-4.78,0-.14.25-.92-.04-1.37-4.66-7.37-3.21-15.25-1.98-23.1.19-1.25.57-2.8,1.43-3.57,13.51-12.07,30.01-20.1,50.07-10.09,7.84,3.91,14.92,8.54,18.73,16.43,5.27,10.92-1.64,26.7-13.66,32.84-7.14,3.65-7.23,4.49-1.85,10.2,1.93,2.04,3.4,4.5,5.15,6.71,2.54,3.2,4.95,3.49,8.39.67,5.24-4.28,10.59-8.87,16.67-11.6,17.44-7.84,34.02,6.02,35,22.31.5,8.36-.1,16.3-5.11,23.82-8.9,13.36-26.87,20.6-42.3,15.85-3.93-1.21-6.52-.56-8.82,3.07-4.7,7.4-9.99,14.43-14.52,21.92-.91,1.5-.28,4.94.93,6.49,2.84,3.66,6.33,6.84,9.77,9.99,14.63,13.36,19.97,30.03,17.93,49.43-.24,2.25-.03,4.55-.03,8.14,3.28-1.6,6.02-2.38,8.04-4.04,4.3-3.55,9.24-3.64,14.2-3.1,1.82.2,4.16,1.77,4.93,3.36.6,1.25-.29,4.15-1.49,5.17-4.01,3.42-8.21,6.77-12.81,9.3-4.34,2.39-6.13,5.21-7.08,10.27-1.5,8.02-1.21,13.92,7.65,16.85,1.5.5,2.73,2.44,3.62,3.99,2.92,5.11-.02,10.28-5.9,10.6-7.28.39-13.12-2.88-18.59-7.21-1.57-1.25-3.36-2.22-5.69-3.74-1.09,5.64,1.74,8.64,4.17,11.56,11.79,14.14,26.47,24.46,42.63,33.12,21.51,11.52,42.66,23.76,60.68,40.54,7.89,7.35,13.7,16.26,13.33,27.4-.18,5.25-2.39,10.67-4.68,15.56-4.61,9.84-10.37,18.6-20.64,24.1-8.86,4.74-16.57,11.61-26.63,14.16-10.57,2.68-21.08,5.58-31.71,8-2.25.51-4.93-.49-7.33-1.11-.83-.22-1.41-1.42-2.11-2.17.91-.56,1.85-1.66,2.73-1.61,8.77.46,17.03-1.66,25.4-4.01,16.89-4.73,32.55-11.65,45.72-23.45,13.02-11.66,15.07-27.03,11.38-42.59-1.54-6.48-7.88-12.58-13.42-17.21-21.38-17.88-45.84-31.04-70.43-43.86-14.34-7.48-26.12-18.16-37.79-29.06-1.26-1.17-2.87-1.97-4.31-2.94-.66,1.72-1.64,3.39-1.92,5.17-2.05,12.76-6.58,18.48-20.68,20.93-4.5.78-5.8,2.96-7.1,6.83-4.43,13.18-1.19,25.61,2.8,38.06,1.15,3.59,3.22,6.11,7.2,6.67,2.63.37,5.26.79,7.85,1.35,6.51,1.39,12.48,3.39,15.19,10.55.74,1.96,3.1,3.36,4.85,4.86,5.3,4.56,9.33,9.56,7.17,17.25-.34,1.23-.26,2.7.04,3.96,1.79,7.7-1.43,12.01-9.75,12.74-2.15.19-4.35-.08-6.49.13-11.2,1.1-22.37,2.51-33.58,3.39-11.6.91-23.37,2.07-34.6-1.99-3.91-1.41-7.42-4.35-10.66-7.12-4.17-3.56-7.67-7.91-11.9-11.4-1.77-1.45-4.71-2.29-7.03-2.12-12.5.91-24.49.81-34.12-9.2-4.01-4.17-9.02-7.38-13.09-11.5-4.86-4.92-4.35-6.7.3-11.54,3.06-3.17,5.39-7.05,8.01-10.64,4.7-6.44,11.26-6.41,18-4.86,4.19.96,8.41,2.27,12.26,4.15,5.04,2.46,8.49.41,12.11-2.73,3.39-2.94,1.3-6.08.81-9.22-1.48-9.54-5-18.92-.16-28.69,1.93-3.91,2.5-8.62,2.99-13.04.19-1.71-1.24-3.92-2.53-5.38-1.63-1.83-3.95-3.01-5.82-4.65-3-2.63-3.82-5.52-1.36-9.21,3.11-4.68,3.37-9.63.07-14.5-.55-.81-.87-1.8-1.18-2.74-1.93-5.89-5.52-8.87-12.02-7.19-1.08.28-2.52.36-3.45-.13-6.77-3.5-10.96.24-15.7,4.53-3.46,3.13-8.08,5.18-12.45,7.07-3.97,1.71-7.59.19-10.01-3.39-2.49-3.67-2.19-7.56,1.02-10.43,3.94-3.53,8.23-6.78,12.76-9.49,2.61-1.56,3.51-3.17,3.26-5.95-.18-1.99-.17-4-.14-6,.04-2.98-1.32-4.63-3.99-6.18-5.39-3.13-10.72-6.53-15.45-10.55-3.92-3.34-4.09-9.52-1.36-12.65,2.65-3.04,7.87-3.21,12.27.17,3.41,2.62,6.55,5.68,9.46,8.86,4.49,4.9,8.21.83,12.06-.78,3.74-1.57,2.93-4.71,2.05-7.69-.8-2.71-1.45-5.48-2.45-8.12-1.24-3.29-.75-6.63,2.35-7.65,2.52-.83,7.24-.52,8.4,1.12,3.96,5.58,6.82,11.95,9.99,18.07.52,1,.2,2.5.83,3.35,1.5,2.01,3.35,3.76,5.05,5.61,1.55-1.66,3.53-3.09,4.56-5.03,3.65-6.88,6.89-13.98,10.46-20.9,2.06-3.99,2.43-7.3-1.49-10.57-6.46-5.39-7.84-12.4-4.93-20ZM86.16,142.49c-5.32,9.15-.93,18.94,8.41,20.06,8.09.97,16-.31,23.06-4.47,3.68-2.17,5.39-1.97,5.5,3.86,7.35-2.53,13.93-4.79,20.7-7.12.22,1.26.43,2.49.69,4.05,2.03-.42,3.96-.44,5.54-1.2,9.42-4.54,17.86-10.23,23.25-19.64,5.5-9.6,5.28-11.58-1.03-20.16-7.37-10.02-17.5-14.91-29.34-16.97-10.27-1.79-19.66,1.82-29.13,4.96-1.82.6-3.8.73-5.71,1.08-.24-.5-.47-1.01-.71-1.51,1.16-1.46,2.2-3.05,3.51-4.36,11.47-11.56,17.34-25.37,17.03-41.73-.12-6.61-2.89-9.51-9.48-9.45-13.48.13-25.74,3.1-33.88,15.2-.27.41-.62.89-1.04,1.05-9.03,3.45-11.01,11.77-13.64,19.64-2.09,6.25-4.16,12.51-6.4,19.24-1.4-.73-2.56-1.03-3.27-1.77-6-6.22-12.58-7.81-20.26-4.78-5.81,2.29-6.91,4.3-5.41,10.36,1.03,4.19,2.44,8.22.07,12.58-.55,1.01.54,3.97,1.71,4.7,5.29,3.27,10.56,7.38,16.41,8.8,22.06,5.36,43.89,3.96,65.05-4.78,4.81-1.98,9.69-3.8,14.95-5.86.18,1.64.42,2.45.32,3.22-1.81,14.13-16.39,29.8-30.25,32.57-10.67,2.13-17.21-3.5-16.66-14.31.05-1.07,0-2.15,0-3.23ZM168.57,260.28c-1.5,1.36-2.73,2.63-4.11,3.71-5.06,3.98-9.76,8.67-15.36,11.64-6.54,3.47-11.1-.51-9.95-7.9.27-1.73.96-3.69,2.12-4.92,4.86-5.15,9.77-10.29,15.06-14.99,4.33-3.86,4.51-5.65,0-8.54-2.64-1.69-5.22-3.61-7.41-5.83-3.16-3.21-4.56-7.55-2.27-11.45,2.3-3.92,6.49-1.87,9.99-1.15.16.03.34.05.48.13,5.43,2.83,9.77,2.67,14.96-1.88,6.04-5.3,6.72-4.57,3.25-12.26-.68-1.52-1.48-2.99-2.16-4.51-1.45-3.21-2.77-4.17-5.56-.79-3.58,4.32-7.15,9.29-11.87,11.89-13.37,7.34-28.19,9.11-43.11,6.77-13.07-2.04-25.51-6.26-34.49-18.05-1.78,3.06-3.21,5.53-4.69,8.08,10.21,3.94,13.73,8.06,13.21,15.56-.71,10.19-7.97,11.85-16.9,11.45.64,2.35.87,3.98,1.52,5.42,7.64,17.15,22.43,25.14,39.28,30.31,3.42,1.05,6.66.39,7.96-3.83.2-.66,1.22-1.08,3.01-2.56-1.04,4.59-1.59,7.83-2.51,10.97-2.01,6.87-1.57,9.36,5.23,11.59,7.16,2.35,14.86,4.29,22.31,4.23,13.79-.1,17.94-4.79,19.6-15.89.34-2.3.39-4.64.72-6.94.45-3.12,1.03-6.23,1.71-10.25ZM139.72,365.57c-.32.59-.64,1.18-.97,1.76-2.12-1.04-4.21-2.15-6.37-3.1-6.65-2.93-13.18-6.26-20.05-8.51-4.33-1.42-9.19-1.42-13.82-1.63-10.56-.48-14.58,3.34-13.36,13.94.52,4.49,2.72,9.25,5.47,12.91,5.27,7,13.32,10.04,21.71,10.96,18.58,2.04,37.18,1.99,55.73-.92,5.32-.84,9.69-2.72,12.97-7.29,2.84-3.97,3.39-7.87,1.25-12.11-2.18-4.31-5.57-6.37-10.6-5.45-2.6.47-5.31.63-7.95.55-1.31-.04-2.62-.88-3.89-1.44-2.32-1.02-4.53-2.71-6.93-3.04-6.73-.93-13.08-2.16-17.51-8.13-.65-.87-3.34-1.29-4.19-.67-.92.67-1.53,3.24-.96,4.18,1.15,1.88,3.12,3.3,4.88,4.76,1.43,1.19,3.05,2.17,4.58,3.25ZM132.41,348.42c-.73-2.11-1.2-3.67-1.8-5.18-5.76-14.42-9.88-28.9-3.6-44.38.49-1.2-1.37-4-2.83-5.19-2.39-1.94-5.31-3.23-8.08-4.66-1.73-.89-3.55-2.04-5.4-2.19-4.47-.35-9.04-.6-13.46-.02-1.91.25-4.7,2.41-5.08,4.14-2.26,10.25-3.53,20.53-.88,31.09,3.07,12.24,2.72,12.32,15.27,13.23,6.52.47,11.79,4.31,12.77,9.3,1.43,7.3,2.35,7.81,9.2,5.19,1.06-.41,2.15-.73,3.9-1.33ZM84.7,351.45c-5.95,1.54-11.53-1.06-14.1-4.92-1.72-2.59-4.11-5.22-6.83-6.56-4.28-2.11-9-3.52-13.69-4.58-7.43-1.68-12.26.64-15.56,6.73-2.85,5.26-1.79,10.48,3.43,15.68,1.99,1.98,4.26,3.71,6.53,5.39,9.53,7.05,20.78,6.06,31.69,6.75,3.57.23,4.8-1.1,5.31-4.69,1.72-12.01,4.79-14.53,16.96-15.02,1.16-.05,2.43-.3,3.48.06,4.93,1.64,8.08-1.23,11.27-4.16,1.94-1.78,1.94-3.91-.35-4.82-3.82-1.52-7.93-2.33-12.85-3.7,3.02,6.88,2.53,7.37-3.65,7.77-5.47.35-9.63-1.36-13.02-5.75-1.01-1.31-4.17-2.69-4.92-2.13-1.82,1.35-3.28,3.69-3.91,5.91-.33,1.14,1.09,3.36,2.33,4.24,2.08,1.48,4.64,2.29,7.89,3.79ZM105.39,284.84c2.76-1.46,5.29-2.33,7.21-3.93,2.24-1.86,1.81-4.14-1.22-4.62-12.12-1.95-21.77-8.7-31.39-15.61-.88-.63-2.62-1.05-3.42-.6-3.73,2.07-4.04,8.42-.53,11.03,2.93,2.18,5.96,4.4,9.27,5.86,6.5,2.87,13.23,5.22,20.09,7.87ZM100.64,155.86c8.72-1.79,17.26-6.44,23.34-15.02.64-.9.89-2.83.35-3.59-.56-.79-2.62-1.37-3.48-.95-5.13,2.53-10.08,5.4-15.13,8.1-1.24.66-2.58,1.12-3.88,1.67-.42-1.14-1.22-2.29-1.19-3.42.1-3.65-1.95-3.79-4.56-3.06-3.83,1.06-6.78,5.72-6.25,9.67.52,3.87,4.38,6.62,10.79,6.6ZM70.42,226.03c.3,2.84-.09,6.75,4.98,6.97,4.28.19,7.32-2.96,7.36-7.48.03-4.31-3.34-8.91-6.76-9.22-3.04-.28-5.42,3.63-5.58,9.73ZM76.08,374.82c-9.8-1.84-19.16-2.95-28.13-5.47-9.32-2.61-14.68-10.81-20.91-17.7,3.26,9.69,11.57,14.97,19.05,20.08,8.66,5.92,19.19,6.18,29.99,3.09ZM175.11,184.04c-4.1,5.95-1.37,18.85,4.43,21.54.67.31,2.64-.55,2.91-1.28,1.97-5.27-2.06-16.36-7.34-20.26ZM98.12,393.4c13.79,8.88,28.86,4.86,45.06,4.36-15.94-1.54-30.4-2.94-45.06-4.36ZM154.21,354.07c.31.71.43,1.65.96,2.09,2.99,2.47,5.87,5.22,9.24,7.03,1.35.72,4.14-.28,5.69-1.35.65-.44.33-3.5-.51-4.68-2.77-3.88-10.55-5.32-15.38-3.09ZM171.85,394.71c10.04.42,13.65-1.52,11.6-6.15-3.75,1.99-7.49,3.98-11.6,6.15Z"/><path class="cls-2" d="M86.16,142.49c0,1.08.05,2.16,0,3.23-.55,10.81,5.99,16.44,16.66,14.31,13.86-2.76,28.44-18.44,30.25-32.57.1-.77-.15-1.58-.32-3.22-5.27,2.06-10.14,3.88-14.95,5.86-21.17,8.73-43,10.14-65.05,4.78-5.85-1.42-11.12-5.52-16.41-8.8-1.17-.72-2.26-3.68-1.71-4.7,2.37-4.36.96-8.39-.07-12.58-1.5-6.06-.4-8.07,5.41-10.36,7.69-3.03,14.27-1.43,20.26,4.78.71.74,1.88,1.04,3.27,1.77,2.24-6.73,4.31-12.99,6.4-19.24,2.63-7.87,4.61-16.2,13.64-19.64.42-.16.77-.64,1.04-1.05,8.14-12.1,20.4-15.06,33.88-15.2,6.59-.06,9.35,2.84,9.48,9.45.31,16.36-5.57,30.17-17.03,41.73-1.31,1.32-2.35,2.9-3.51,4.36.24.5.47,1.01.71,1.51,1.91-.35,3.89-.48,5.71-1.08,9.47-3.14,18.86-6.75,29.13-4.96,11.83,2.06,21.97,6.95,29.34,16.97,6.32,8.59,6.53,10.57,1.03,20.16-5.39,9.42-13.83,15.11-23.25,19.64-1.58.76-3.51.78-5.54,1.2-.27-1.55-.48-2.78-.69-4.05-6.77,2.33-13.35,4.59-20.7,7.12-.11-5.83-1.81-6.03-5.5-3.86-7.06,4.16-14.98,5.44-23.06,4.47-9.34-1.13-13.73-10.91-8.41-20.06ZM66.8,101.62c1.27,2.46,1.97,3.81,2.67,5.16,1.37-.72,3.56-1.13,3.97-2.22,3.04-8.01,5.84-16.12,8.4-24.3.35-1.13-1.03-2.81-1.62-4.24-1.35.73-3.44,1.14-3.92,2.24-3.4,7.81-6.46,15.77-9.5,23.34Z"/><path class="cls-2" d="M168.57,260.28c-.68,4.02-1.26,7.12-1.71,10.25-.33,2.3-.38,4.64-.72,6.94-1.66,11.11-5.81,15.79-19.6,15.89-7.45.06-15.15-1.88-22.31-4.23-6.8-2.24-7.24-4.72-5.23-11.59.92-3.14,1.47-6.38,2.51-10.97-1.79,1.48-2.81,1.89-3.01,2.56-1.3,4.22-4.54,4.88-7.96,3.83-16.85-5.17-31.64-13.17-39.28-30.31-.64-1.45-.87-3.07-1.52-5.42,8.93.4,16.19-1.26,16.9-11.45.52-7.5-3-11.63-13.21-15.56,1.48-2.54,2.91-5.02,4.69-8.08,8.99,11.79,21.43,16.01,34.49,18.05,14.92,2.33,29.74.57,43.11-6.77,4.72-2.59,8.29-7.57,11.87-11.89,2.79-3.37,4.11-2.42,5.56.79.68,1.52,1.48,2.99,2.16,4.51,3.47,7.69,2.79,6.96-3.25,12.26-5.19,4.55-9.53,4.71-14.96,1.88-.14-.08-.32-.09-.48-.13-3.5-.72-7.69-2.77-9.99,1.15-2.29,3.9-.89,8.24,2.27,11.45,2.19,2.23,4.77,4.15,7.41,5.83,4.52,2.89,4.34,4.68,0,8.54-5.28,4.7-10.2,9.84-15.06,14.99-1.16,1.23-1.85,3.2-2.12,4.92-1.14,7.39,3.42,11.37,9.95,7.9,5.6-2.97,10.3-7.66,15.36-11.64,1.38-1.08,2.61-2.35,4.11-3.71ZM93.73,238.72c-.06,7.6,3.63,12.14,10.01,12.29,7.36.18,12.96-4.97,13.12-12.06.18-7.96-3.85-12.1-11.76-12.07-6.69.02-11.31,4.84-11.36,11.84Z"/><path class="cls-2" d="M139.72,365.57c-1.53-1.07-3.15-2.05-4.58-3.25-1.76-1.46-3.73-2.88-4.88-4.76-.57-.94.04-3.51.96-4.18.84-.61,3.54-.2,4.19.67,4.42,5.98,10.77,7.2,17.51,8.13,2.4.33,4.61,2.02,6.93,3.04,1.27.56,2.58,1.4,3.89,1.44,2.65.08,5.35-.08,7.95-.55,5.03-.92,8.43,1.14,10.6,5.45,2.14,4.24,1.59,8.14-1.25,12.11-3.27,4.58-7.64,6.46-12.97,7.29-18.54,2.92-37.15,2.96-55.73.92-8.39-.92-16.45-3.96-21.71-10.96-2.75-3.65-4.95-8.42-5.47-12.91-1.23-10.6,2.8-14.42,13.36-13.94,4.64.21,9.5.22,13.82,1.63,6.88,2.25,13.4,5.59,20.05,8.51,2.16.95,4.25,2.06,6.37,3.1.32-.59.64-1.18.97-1.76Z"/><path class="cls-2" d="M132.41,348.42c-1.75.59-2.84.92-3.9,1.33-6.85,2.63-7.76,2.12-9.2-5.19-.98-5-6.24-8.83-12.77-9.3-12.56-.91-12.21-1-15.27-13.23-2.65-10.56-1.38-20.84.88-31.09.38-1.73,3.18-3.89,5.08-4.14,4.41-.58,8.98-.33,13.46.02,1.85.14,3.67,1.3,5.4,2.19,2.77,1.43,5.7,2.72,8.08,4.66,1.47,1.19,3.32,3.99,2.83,5.19-6.29,15.48-2.16,29.97,3.6,44.38.6,1.51,1.07,3.07,1.8,5.18Z"/><path class="cls-2" d="M84.7,351.45c-3.25-1.5-5.81-2.31-7.89-3.79-1.24-.88-2.65-3.1-2.33-4.24.63-2.22,2.09-4.56,3.91-5.91.76-.56,3.91.82,4.92,2.13,3.39,4.39,7.56,6.1,13.02,5.75,6.19-.4,6.67-.89,3.65-7.77,4.92,1.37,9.03,2.18,12.85,3.7,2.3.91,2.3,3.04.35,4.82-3.19,2.92-6.34,5.8-11.27,4.16-1.05-.35-2.32-.1-3.48-.06-12.17.49-15.24,3.01-16.96,15.02-.51,3.59-1.74,4.91-5.31,4.69-10.91-.69-22.16.3-31.69-6.75-2.27-1.68-4.54-3.41-6.53-5.39-5.22-5.2-6.28-10.42-3.43-15.68,3.3-6.1,8.13-8.41,15.56-6.73,4.68,1.06,9.41,2.46,13.69,4.58,2.72,1.34,5.11,3.97,6.83,6.56,2.56,3.86,8.15,6.45,14.1,4.92Z"/><path class="cls-2" d="M105.39,284.84c-6.86-2.65-13.59-5-20.09-7.87-3.31-1.46-6.33-3.68-9.27-5.86-3.51-2.61-3.2-8.97.53-11.03.81-.45,2.55-.03,3.42.6,9.63,6.91,19.27,13.66,31.39,15.61,3.03.49,3.46,2.76,1.22,4.62-1.92,1.6-4.46,2.47-7.21,3.93Z"/><path class="cls-2" d="M100.64,155.86c-6.41.02-10.27-2.73-10.79-6.6-.53-3.95,2.42-8.61,6.25-9.67,2.61-.73,4.67-.58,4.56,3.06-.03,1.13.77,2.28,1.19,3.42,1.3-.55,2.64-1.01,3.88-1.67,5.04-2.7,10-5.57,15.13-8.1.86-.43,2.92.16,3.48.95.54.76.29,2.69-.35,3.59-6.08,8.59-14.62,13.23-23.34,15.02Z"/><path class="cls-2" d="M70.42,226.03c.16-6.1,2.54-10,5.58-9.73,3.42.31,6.79,4.91,6.76,9.22-.03,4.52-3.08,7.67-7.36,7.48-5.08-.22-4.68-4.14-4.98-6.97Z"/><path class="cls-2" d="M76.08,374.82c-10.8,3.08-21.33,2.83-29.99-3.09-7.47-5.11-15.79-10.39-19.05-20.08,6.22,6.89,11.58,15.09,20.91,17.7,8.97,2.52,18.34,3.63,28.13,5.47Z"/><path class="cls-2" d="M175.11,184.04c5.28,3.9,9.31,14.99,7.34,20.26-.27.73-2.24,1.59-2.91,1.28-5.8-2.69-8.52-15.59-4.43-21.54Z"/><path class="cls-2" d="M98.12,393.4c14.66,1.42,29.12,2.82,45.06,4.36-16.2.5-31.27,4.52-45.06-4.36Z"/><path class="cls-2" d="M154.21,354.07c4.83-2.23,12.6-.79,15.38,3.09.84,1.18,1.16,4.23.51,4.68-1.55,1.07-4.34,2.07-5.69,1.35-3.37-1.81-6.25-4.56-9.24-7.03-.53-.44-.65-1.38-.96-2.09Z"/><path class="cls-2" d="M171.85,394.71c4.1-2.18,7.85-4.17,11.6-6.15,2.05,4.63-1.56,6.57-11.6,6.15Z"/><path class="cls-1" d="M66.8,101.62c3.03-7.57,6.1-15.53,9.5-23.34.48-1.11,2.58-1.51,3.92-2.24.58,1.43,1.97,3.1,1.62,4.24-2.56,8.18-5.36,16.29-8.4,24.3-.41,1.08-2.6,1.49-3.97,2.22-.7-1.35-1.4-2.7-2.67-5.16Z"/><path class="cls-1" d="M93.73,238.72c.06-7,4.68-11.82,11.36-11.84,7.91-.03,11.94,4.11,11.76,12.07-.16,7.09-5.76,12.23-13.12,12.06-6.37-.15-10.07-4.69-10.01-12.29ZM105.16,230.39c-5.17.03-8.22,3.61-8.21,9.65,0,5.3,2.67,8.07,7.82,8.12,5.16.05,9.2-3.94,9.14-9.03-.06-5.15-3.67-8.77-8.75-8.74Z"/><path class="cls-2" d="M105.16,230.39c5.08-.03,8.69,3.59,8.75,8.74.06,5.09-3.98,9.08-9.14,9.03-5.15-.05-7.81-2.82-7.82-8.12,0-6.03,3.05-9.62,8.21-9.65Z"/></svg>