<?xml version="1.0" encoding="UTF-8" standalone="no"?>
<!-- Created with Inkscape (http://www.inkscape.org/) -->

<svg
   version="1.1"
   id="svg1"
   width="793.59998"
   height="1122.1333"
   viewBox="0 0 793.59998 1122.1333"
   sodipodi:docname="Mikey - happy - 2.png"
   xmlns:inkscape="http://www.inkscape.org/namespaces/inkscape"
   xmlns:sodipodi="http://sodipodi.sourceforge.net/DTD/sodipodi-0.dtd"
   xmlns="http://www.w3.org/2000/svg"
   xmlns:svg="http://www.w3.org/2000/svg">
  <defs
     id="defs1" />
  <sodipodi:namedview
     id="namedview1"
     pagecolor="#ffffff"
     bordercolor="#000000"
     borderopacity="0.25"
     inkscape:showpageshadow="2"
     inkscape:pageopacity="0.0"
     inkscape:pagecheckerboard="0"
     inkscape:deskcolor="#d1d1d1" />
  <g
     inkscape:groupmode="layer"
     inkscape:label="Image"
     id="g1">
    <path
       style="fill:#000000"
       d="m 339.02085,710.386 c -11.51188,-3.08898 -17.99636,-5.81013 -23.82086,-9.9962 -1.76,-1.26492 -4.56654,-2.99611 -6.23675,-3.84709 -6.08265,-3.09915 -14.03149,-16.09868 -15.24137,-24.92572 -1.78899,-13.05215 11.7125,-26.05116 49.00386,-47.18006 20.63569,-11.69196 34.87426,-24.09799 34.87426,-30.38584 0,-1.61001 -0.91423,-1.34495 -6.07058,1.76004 -8.62129,5.19148 -15.26275,4.91488 -15.26275,-0.63564 0,-2.2213 1.10352,-3.87025 4.26666,-6.37551 3.4566,-2.73767 4.26667,-4.05787 4.26667,-6.95352 0,-5.93554 -1.68724,-8.5973 -8.46201,-13.34954 -7.10773,-4.98578 -8.23334,-7.87982 -3.73063,-9.59175 3.2065,-1.21911 7.01506,-0.43735 11.89427,2.44145 1.9241,1.13525 3.54205,1.89667 3.59543,1.69206 0.0534,-0.20462 0.19892,-4.93203 0.32342,-10.50536 0.2898,-12.97359 2.96614,-19.16567 12.78041,-29.56932 3.88618,-4.11955 7.06577,-8.39698 7.06577,-9.50541 0,-1.10842 -2.5696,-5.85005 -5.71024,-10.53696 l -5.71024,-8.52164 h -10.09799 c -9.37431,0 -10.47247,-0.23114 -15.32343,-3.22524 -2.874,-1.77388 -6.68029,-5.29523 -8.45844,-7.82522 -2.97344,-4.23069 -3.23299,-5.3142 -3.23299,-13.49654 0,-7.35607 0.38639,-9.41803 2.23141,-11.90812 7.58944,-10.24284 18.23767,-10.39918 30.71526,-0.45097 2.28067,1.81835 4.73646,3.30609 5.45731,3.30609 1.32959,0 9.06269,-9.22775 9.06269,-10.81433 0,-0.47532 -1.36875,-1.57203 -3.04166,-2.43713 -6.96882,-3.60371 -13.0167,-14.12087 -11.52893,-20.04861 1.27573,-5.08292 5.57733,-9.7677 12.43725,-13.54514 5.95947,-3.2816 7.90721,-3.81666 13.86667,-3.80934 7.59,0.009 13.74903,2.37081 20.04967,7.6874 3.1934,2.69465 3.53526,3.5549 3.72248,9.36715 0.11339,3.52 -0.184,7.65227 -0.66086,9.18283 -0.85727,2.75157 -0.76128,2.80925 8.54418,5.13367 16.38049,4.09171 21.21181,8.1746 28.78987,24.32994 l 4.61871,9.84644 4.86863,-0.66732 c 2.76424,-0.37888 7.33617,-0.0754 10.57743,0.7022 5.33786,1.28053 5.8973,1.22124 8.60986,-0.91246 3.40961,-2.68199 10.23067,-3.07097 12.20187,-0.69582 2.88304,3.47386 -2.30295,11.7637 -9.7293,15.55234 -2.27651,1.16139 -5.21613,3.75805 -6.53249,5.77035 -3.54208,5.41474 -8.49039,7.61606 -21.89806,9.74166 l -12.03801,1.90846 0.63183,2.87669 c 0.71123,3.23822 -1.45767,9.28379 -4.12391,11.49496 -0.97088,0.80516 -1.76523,2.37475 -1.76523,3.48798 0,2.48858 9.27699,21.18141 10.51205,21.18141 1.59658,0 4.11259,-3.58973 8.08189,-11.53084 3.73131,-7.46501 4.04338,-7.7834 7.31845,-7.46667 3.75302,0.36296 4.0014,1.52641 2.35166,11.01554 -0.7191,4.1362 -0.61218,4.348 3.08499,6.11106 l 3.82991,1.82636 5.37946,-4.77773 c 6.38933,-5.67463 10.99606,-6.4412 12.94909,-2.15475 1.64757,3.616 -0.61447,6.81448 -8.70489,12.30858 -6.1501,4.17646 -6.40261,4.52788 -6.40261,8.91035 0,4.35497 0.27886,4.75385 6.13333,8.7728 6.44327,4.42316 7.76266,7.07766 5.56183,11.18995 -1.7975,3.35866 -8.1045,2.24245 -14.89515,-2.63614 -4.61254,-3.31378 -6.0992,-3.81699 -10.9358,-3.70158 -8.20026,0.19568 -9.1419,0.64498 -11.47583,5.47565 -2.45709,5.08559 -2.60919,7.29121 -0.84018,12.18333 1.22684,3.39276 1.10398,3.72588 -2.87832,7.80412 l -4.15986,4.26009 1.42943,5.60494 c 1.63065,6.39396 2.06172,19.71743 0.82604,25.53123 -0.70846,3.33324 -0.46678,4.27093 1.6,6.20789 2.64139,2.47547 3.41038,2.4402 14.18396,-0.65055 3.78999,-1.08728 7.59984,-1.54358 9.30818,-1.11481 3.47037,0.87101 13.79565,13.90371 12.88842,16.26792 -0.32735,0.85304 -4.19728,4.63679 -8.59986,8.40833 -6.59491,5.64963 -9.0456,7.07343 -13.91498,8.08431 -3.25066,0.67483 -7.57506,0.95682 -9.60978,0.62663 -4.58361,-0.74382 -7.94847,0.93921 -13.55477,6.77978 -9.02495,9.4021 -14.38074,10.33995 -44.22888,7.74488 -24.35027,-2.11707 -24.40735,-2.14437 -24.37893,-11.66054 0.0195,-6.52689 0.9059,-8.63039 5.85654,-13.89796 1.65987,-1.76613 4.02782,-4.44318 5.26211,-5.94899 1.6285,-1.98674 4.02945,-3.08908 8.75167,-4.01812 3.57912,-0.70415 7.20251,-2.0621 8.05197,-3.01767 4.32847,-4.86913 6.3834,-22.38054 3.45014,-29.40082 -1.27378,-3.04858 -2.39787,-3.85534 -7.39668,-5.30853 -6.79296,-1.97477 -9.48736,-4.80149 -11.25032,-11.80284 -0.66825,-2.65386 -1.83828,-4.8252 -2.60008,-4.8252 -0.76179,0 -2.79488,1.47694 -4.51797,3.2821 -6.0928,6.38299 -18.24621,14.8091 -32.99956,22.87902 -31.14393,17.03539 -47.14258,29.57794 -49.62595,38.90554 -1.82585,6.85792 -0.73355,16.11659 2.5655,21.74599 3.28724,5.60925 10.83832,12.11868 18.60193,16.03585 8.07477,4.07417 23.40574,8.89628 31.02439,9.75823 6.43328,0.72785 8.0806,1.75879 4.81355,3.01247 -2.59396,0.9954 -4.37612,0.72028 -16.62523,-2.56652 z m 94.57914,-26.15268 c 2.9482,-1.41616 2.40265,-1.48604 -6.93334,-0.88807 -17.55089,1.12412 -21.4191,2.25936 -8,2.34783 8.16319,0.0538 12.70701,-0.39036 14.93334,-1.45976 z m -47.46667,-1.00595 c 0,-0.69834 -6.03701,-3.76072 -7.41369,-3.76072 -2.04259,0 -1.1586,2.18642 1.28036,3.16676 2.62697,1.05591 6.13333,1.39547 6.13333,0.59396 z m 38.24911,-1.60198 c 11.30241,-1.29946 17.14618,-4.46765 20.3151,-11.01377 2.6876,-5.55183 2.87667,-11.06882 0.47047,-13.72765 -1.3731,-1.51726 -3.32828,-1.94776 -8.8,-1.93763 -5.73118,0.0106 -8.61588,0.71562 -15.56801,3.80479 -12.18276,5.41337 -12.06161,5.39304 -8.39762,1.40915 5.22161,-5.67753 2.89036,-8.58077 -2.94647,-3.66941 -1.71529,1.44332 -4.90458,2.94747 -7.08731,3.34256 -2.18273,0.39508 -5.32997,1.4079 -6.99386,2.25071 -1.6639,0.8428 -4.7839,1.41628 -6.93334,1.27441 -5.61119,-0.37038 -8.30098,0.8168 -9.74406,4.3007 -1.61999,3.91102 0.71472,8.90155 5.2653,11.25475 6.20011,3.2062 25.09299,4.47355 40.4198,2.71139 z m 46.55089,-12.72134 c 4.97812,-2.31298 12.8269,-8.88232 14.57387,-12.19817 0.68555,-1.30122 -1.11764,-0.13715 -4.13862,2.67173 -5.60711,5.21345 -8.74005,6.48829 -21.02207,8.55421 -5.28513,0.88899 -6.80257,1.47141 -5.33334,2.04703 3.74226,1.46615 11.59196,0.9362 15.92016,-1.0748 z m -4.8,-3.87789 c 5.05912,-0.88321 12.18137,-5.1614 14.86363,-8.92829 2.90529,-4.0801 2.78396,-7.83696 -0.37155,-11.50507 -2.16317,-2.51457 -3.32804,-2.96432 -7.28958,-2.81446 -6.4131,0.2426 -12.39013,2.90026 -16.48145,7.32842 -2.07713,2.24814 -4.37264,3.66497 -5.86667,3.62103 l -2.45438,-0.0722 2.33777,-1.12971 c 2.96855,-1.43453 3.82355,-3.64892 2.42087,-6.26985 -1.45275,-2.7145 -2.74455,-2.59413 -6.55317,0.61061 -2.2336,1.87945 -4.43867,2.66666 -7.46961,2.66666 -4.09,0 -4.26666,-0.13467 -3.60981,-2.75177 0.73808,-2.94076 0.42271,-2.95665 -6.59272,-0.33219 -5.99952,2.2444 -0.52317,7.35063 7.88344,7.35063 3.04814,0 6.31909,0.29817 7.26877,0.66259 2.06913,0.794 4.84779,5.85601 4.84779,8.83144 0,1.17331 0.77698,2.56812 1.72663,3.09956 1.75208,0.98052 8.55181,0.81766 15.34004,-0.36741 z m -70.67712,-6.48262 c 4.36624,-3.33029 3.34998,-5.29068 -2.20269,-4.24899 -4.21628,0.79098 -6.58285,3.05416 -5.673,5.42518 0.91712,2.38997 3.75608,1.96599 7.87569,-1.17619 z m 27.54362,-9.86537 c 1.7068,-4.26571 5.01999,-6.54486 9.51425,-6.54486 6.73916,0 8.91277,-2.64467 10.75474,-13.08551 0.804,-4.55735 -0.24972,-16.61832 -1.6498,-18.88371 -0.52241,-0.84528 -3.54734,-1.78932 -6.92453,-2.16105 -5.27322,-0.58042 -6.61794,-0.30538 -11.14348,2.27926 -5.81913,3.32345 -6.87456,5.08579 -5.38776,8.99638 1.88904,4.96856 1.14865,15.47747 -1.64777,23.38797 -3.15011,8.91103 -3.13938,8.78204 -0.78215,9.39805 4.55582,1.19056 5.63666,0.68684 7.2665,-3.38653 z m -5.39983,-38.40787 5.33333,-1.73698 -0.23942,-6.93334 c -0.17782,-5.14941 0.0417,-6.45304 0.853,-5.06666 1.42948,2.44259 4.94713,2.3591 11.87974,-0.28199 8.25796,-3.146 15.2522,-8.75113 18.9366,-15.17564 1.7692,-3.08497 3.22123,-5.91562 3.22674,-6.29033 0.005,-0.37471 -1.69677,-1.00148 -3.78282,-1.39283 -2.08606,-0.39134 -4.72606,-1.64476 -5.86667,-2.78538 -4.15458,-4.15457 -1.67522,-12.43574 4.29008,-14.32905 2.48729,-0.78943 2.69279,-1.86901 0.90172,-4.73697 -1.20508,-1.92964 -1.4775,-1.85032 -5.51536,1.60594 -7.14817,6.11857 -14.35124,8.28009 -27.88361,8.36739 -13.94158,0.09 -19.36134,-1.82927 -27.3646,-9.69022 -2.73052,-2.68198 -5.47729,-4.55946 -6.10393,-4.17218 -1.60856,0.99415 -3.74891,8.65489 -2.9788,10.66174 0.3533,0.92069 2.14733,2.5892 3.98674,3.70782 2.6172,1.59161 4.07303,1.82487 6.69545,1.07277 4.4574,-1.27837 8.94714,-1.21795 9.78123,0.13162 1.57822,2.55363 -0.82542,7.59302 -4.91137,10.29697 -2.29426,1.51827 -4.17139,3.31057 -4.17139,3.9829 0,0.67232 3.13923,4.32853 6.97605,8.12492 6.25543,6.1895 6.94409,7.28816 6.66667,10.63585 -0.25716,3.10315 -0.76612,3.7866 -3.01518,4.04889 -2.53967,0.29619 -4.28749,-0.73719 -13.94305,-8.24367 l -2.78218,-2.16294 1.39177,8.69215 c 0.9215,5.75519 2.08841,9.3888 3.45355,10.75394 4.1403,4.1403 13.22752,4.48419 24.18571,0.91528 z m 12.64746,-27.86134 c -2.98043,-1.20275 -5.71413,-5.17107 -5.71413,-8.2948 0,-3.31203 4.56525,-7.71418 8,-7.71418 3.83947,0 8,4.4379 8,8.53334 0,2.07826 -0.9678,4.26476 -2.61818,5.91515 -2.78207,2.78206 -4.01756,3.0335 -7.66769,1.56049 z m 6.87254,-2.35564 c 3.13396,-3.13396 0.23574,-11.52 -3.98132,-11.52 -5.44587,0 -8.38791,6.78164 -4.7067,10.84934 2.00473,2.2152 6.77523,2.58345 8.68802,0.67066 z m 1.14645,24.69989 c 12.70913,-4.83045 17.5359,-8.5725 16.44386,-12.74845 -0.89773,-3.43292 -2.98644,-3.15157 -9.78851,1.31854 -3.62766,2.38398 -9.07259,5.14195 -12.09985,6.12883 -6.52964,2.12865 -7.3498,3.5679 -3.28796,5.76983 1.64964,0.89427 2.99934,1.64492 2.99934,1.66811 0,0.0232 2.5799,-0.93839 5.73312,-2.13686 z m 18.35324,-36.51679 c 1.35135,-2.9659 -0.26495,-7.9626 -2.90316,-8.97498 -2.07384,-0.79581 -5.71653,3.10007 -5.71653,6.11386 0,4.86908 6.69263,7.09055 8.61969,2.86112 z m -73.15062,-19.2904 c 1.95591,-2.9851 2.42965,-9.87399 0.79165,-11.51198 -1.52763,-1.52763 -5.59405,6.31591 -5.59405,10.79012 0,3.97593 2.43084,4.34131 4.8024,0.72186 z m 42.35155,-29.47126 c 5.58944,2.53679 15.39084,2.81201 18.65758,0.5239 2.73674,-1.91689 4.10763,-7.17105 2.56337,-9.8246 -0.99998,-1.7183 -1.11325,-1.66251 -1.14247,0.56272 -0.0362,2.75683 -1.86733,6.71735 -3.65879,7.91354 -2.06286,1.37741 -9.16688,0.87304 -12.69328,-0.9012 -7.70509,-3.87665 -15.68037,-14.08392 -15.68037,-20.06873 v -2.67126 l 4.92351,2.11046 c 21.4678,9.20218 45.58202,9.91746 57.71596,1.712 l 4.97595,-3.36494 0.2913,-8.25702 0.29131,-8.25702 -3.33079,-1.72242 c -4.18718,-2.16528 -9.86074,-1.37185 -13.30099,1.8601 -1.52974,1.43712 -2.89102,1.98025 -3.44767,1.37557 -0.5059,-0.54956 -2.46244,-5.68916 -4.34786,-11.42131 -2.46384,-7.49071 -4.17127,-10.94093 -6.07048,-12.26667 -1.45334,-1.01451 -4.33631,-3.61079 -6.40658,-5.76952 -4.31603,-4.50042 -9.1638,-6.69621 -17.18881,-7.78564 -8.30743,-1.12777 -10.90485,0.8591 -10.90485,8.34159 0,8.52276 2.6796,15.90182 8.62872,23.7617 6.09595,8.05387 6.36546,7.90042 -7.37085,4.19657 -11.43654,-3.08374 -22.53586,0.27656 -30.62259,9.27096 -5.84141,6.49705 -6.17761,10.04683 -1.60533,16.94971 5.07932,7.66838 18.23067,15.75034 19.64255,12.07104 0.46369,-1.20837 1.81744,-1.01412 7.28188,1.04485 6.4548,2.43214 6.74121,2.45259 7.46625,0.53321 0.73409,-1.94336 0.87463,-1.94119 5.33333,0.0824 z m 28.2614,-40.73427 c -3.58515,-8.60575 -5.23205,-14.95048 -4.15917,-16.02335 0.60019,-0.6002 1.52765,-0.82157 2.06102,-0.49193 1.49977,0.92691 6.89365,15.36035 6.49962,17.39228 -0.62226,3.20888 -2.88731,2.75757 -4.40147,-0.877 z m -11.78369,36.32255 c 1.89774,-1.57498 1.81494,-4.17927 -0.22548,-7.09238 -1.54923,-2.21183 -5.78609,-3.35476 -5.82252,-1.57067 -0.009,0.44 -0.4229,1.4414 -0.91981,2.22533 -0.71499,1.12797 -2.12043,0.73853 -6.73658,-1.86667 -8.85532,-4.99763 -11.69989,-4.19306 -7.25333,2.05156 2.96654,4.16613 12.4448,8.80591 16.42439,8.04004 1.70409,-0.32795 3.74409,-1.13219 4.53333,-1.78721 z"
       id="path1" />
  </g>
</svg>
