<?xml version="1.0" encoding="UTF-8" standalone="no"?>
<!-- Created with Inkscape (http://www.inkscape.org/) -->

<svg
   version="1.1"
   id="svg1"
   width="793.59998"
   height="1122.1333"
   viewBox="0 0 793.59998 1122.1333"
   sodipodi:docname="Mikey - happy - 1.png"
   xmlns:inkscape="http://www.inkscape.org/namespaces/inkscape"
   xmlns:sodipodi="http://sodipodi.sourceforge.net/DTD/sodipodi-0.dtd"
   xmlns="http://www.w3.org/2000/svg"
   xmlns:svg="http://www.w3.org/2000/svg">
  <defs
     id="defs1" />
  <sodipodi:namedview
     id="namedview1"
     pagecolor="#ffffff"
     bordercolor="#000000"
     borderopacity="0.25"
     inkscape:showpageshadow="2"
     inkscape:pageopacity="0.0"
     inkscape:pagecheckerboard="0"
     inkscape:deskcolor="#d1d1d1" />
  <g
     inkscape:groupmode="layer"
     inkscape:label="Image"
     id="g1">
    <path
       style="fill:#000000"
       d="m 340.79999,712.43296 c -10.13242,-1.20241 -23.37972,-4.70207 -29.98604,-7.92169 -8.08164,-3.93862 -18.92599,-14.36347 -22.48889,-21.61894 -2.47039,-5.03069 -2.99174,-7.48643 -2.99174,-14.09235 0,-16.89737 8.52207,-26.35842 41.06667,-45.5915 27.56607,-16.29089 31.09672,-18.76533 36.29951,-25.44036 4.52941,-5.81109 5.13108,-8.40644 2.71181,-11.6976 -1.22819,-1.67083 -2.82402,-2.07054 -8.26666,-2.07054 -6.14165,0 -6.77458,-0.2103 -7.07926,-2.35227 -0.18717,-1.3158 0.51783,-3.0457 1.6,-3.92601 9.08004,-7.3863 8.66869,-6.78008 9.43102,-13.89866 0.67778,-6.32901 0.45708,-7.39087 -3.23632,-15.57094 -4.33711,-9.60572 -4.51047,-14.00507 -0.75504,-19.16044 2.58574,-3.54964 16.65479,-10.96145 27.82961,-14.6611 4.91407,-1.62691 9.16134,-3.54869 9.43838,-4.27062 0.5778,-1.50575 -6.40871,-14.46228 -9.42482,-17.47839 -1.68188,-1.68188 -3.64566,-2.01785 -11.88156,-2.03277 -8.62592,-0.0156 -10.60125,-0.38772 -15.70816,-2.95902 -7.71137,-3.88262 -10.69184,-8.31507 -10.69184,-15.90049 0,-13.12689 9.50811,-22.07086 23.54693,-22.14983 6.29719,-0.0354 7.68692,0.37615 13.60547,4.02928 l 6.59187,4.06874 3.19453,-2.2747 c 1.75699,-1.25109 3.19453,-2.86007 3.19453,-3.5755 0,-0.71544 -2.41219,-3.67672 -5.36041,-6.58061 -12.66933,-12.47882 -8.16757,-27.53555 10.03029,-33.54766 8.44785,-2.79096 15.03068,-2.51284 21.75816,0.91926 10.31216,5.26088 16.3637,18.18235 12.59999,26.90402 -0.58667,1.35951 0.65508,2.22635 5.98248,4.17621 20.66624,7.56401 28.55171,15.30588 32.668,32.0731 l 1.93985,7.90174 6.13843,0.66762 c 3.37614,0.36718 6.67801,1.20718 7.33749,1.86666 1.77711,1.77712 4.45661,1.4684 9.33789,-1.07587 3.54409,-1.84728 4.84806,-2.05461 6.93675,-1.10294 3.86684,1.76184 4.52418,6.09055 1.4282,9.40493 -3.09352,3.31174 -7.52295,5.70627 -10.55554,5.70627 -1.29076,0 -3.90473,1.82728 -6.07952,4.24984 -5.49196,6.11769 -13.01882,8.7134 -26.96206,9.2981 -14.61818,0.613 -14.68321,0.64036 -11.24199,4.73002 3.58171,4.25662 6.76916,10.50727 8.73681,17.13309 1.67132,5.62792 3.37865,6.83932 13.17184,9.34572 12.25061,3.13534 13.31892,3.65201 13.6609,6.60675 0.22894,1.97807 -0.40454,3.34299 -2.10401,4.53334 -2.9891,2.09365 -6.32035,2.13623 -12.8196,0.16386 -4.20613,-1.27646 -5.18625,-1.28698 -6.19911,-0.0666 -1.91153,2.30326 -1.46699,9.16017 0.95631,14.75077 1.71848,3.96453 1.96985,5.63127 1.09565,7.26473 -1.89752,3.54554 -5.42123,2.0179 -9.44018,-4.09262 -2.00752,-3.05229 -4.04752,-5.30396 -4.53333,-5.00372 -0.48581,0.30025 -0.88329,2.46914 -0.88329,4.81975 0,5.4958 -1.21645,7.65959 -5.95114,10.5858 -3.52149,2.17639 -3.79638,2.70017 -3.26904,6.22867 1.34182,8.97832 1.34434,8.96496 -2.14319,11.34177 l -3.36337,2.29218 5.25335,6.15627 c 2.88934,3.38594 5.76679,7.11565 6.39434,8.28823 1.66754,3.11584 0.27467,8.58282 -3.34821,13.14163 -6.07823,7.64846 -4.00171,8.94305 10.23344,6.37995 13.01837,-2.34401 15.20982,-1.59486 19.04803,6.51155 1.51018,3.18955 2.74579,6.79051 2.74579,8.00213 0,1.28164 -2.78809,4.98479 -6.66667,8.8547 -7.69006,7.67286 -13.56377,10.21208 -23.65668,10.22685 -6.25183,0.009 -6.69881,0.20012 -12.87665,5.50143 -11.18949,9.60188 -12.04702,9.79484 -39.54438,8.89828 -20.43907,-0.66643 -24.19485,-1.05151 -27.02157,-2.77054 -1.9466,-1.1838 -3.18856,-2.76497 -3.05095,-3.88426 0.12764,-1.03824 -0.15676,-3.91727 -0.63201,-6.39783 -0.82803,-4.32189 -0.61321,-4.86611 5.14732,-13.04034 6.28636,-8.92038 6.42834,-9.01145 17.61826,-11.30156 2.61884,-0.53597 5.87232,-2.91629 11.01448,-8.05845 8.09512,-8.09512 8.10715,-8.16137 3.0132,-16.59476 -3.20038,-5.29845 -3.97389,-5.6653 -13.03986,-6.1845 -8.39257,-0.48064 -11.4087,-2.66608 -13.93444,-10.09668 -1.99272,-5.86249 -3.6821,-8.6136 -5.28937,-8.6136 -0.50862,0 -3.60957,2.43138 -6.89101,5.40306 -8.01222,7.2559 -14.65662,11.33336 -29.23259,17.93907 -23.57629,10.6846 -41.63651,25.18961 -45.37393,36.44195 -2.57112,7.7409 -2.34027,16.67402 0.58012,22.44933 5.04888,9.98455 22.35181,23.16928 34.72629,26.46123 2.39592,0.63738 9.35592,1.66759 15.46666,2.28935 6.11075,0.62176 11.71115,1.72257 12.44534,2.44624 1.70068,1.67629 -1.57061,1.84058 -12.00156,0.60275 z m 87.51868,-32.65587 c 6.02313,-3.86682 11.8644,-9.54959 10.85426,-10.55972 -0.36934,-0.36935 -3.21435,1.5617 -6.32224,4.2912 -6.78421,5.95824 -12.16474,7.73036 -27.52643,9.06607 l -11.19094,0.97306 14.42686,-0.17386 c 14.2909,-0.17222 14.47711,-0.20612 19.75849,-3.59675 z m -49.91868,0.5724 c -0.19621,-0.92006 5.22946,-1.27546 20.53333,-1.34502 23.93557,-0.10878 26.01856,-0.6465 34.4,-8.88024 6.38784,-6.27528 6.70601,-9.7409 1.45176,-15.8132 -3.46998,-4.01023 -3.85644,-4.16942 -9.64015,-3.97086 -3.8285,0.13144 -8.19654,1.2009 -11.98066,2.93333 -7.13905,3.26837 -6.76428,3.2355 -6.76428,0.59315 0,-2.68812 -1.14941,-2.67865 -6.50502,0.0536 -5.57423,2.84376 -15.54386,2.6316 -15.04822,-0.32024 0.39766,-2.36833 -2.70231,-2.47588 -5.94275,-0.20618 -3.67046,2.57089 -2.94995,4.62167 1.89599,5.39657 6.21237,0.9934 5.21969,2.39056 -1.69849,2.39056 -4.0392,0 -6.59116,0.56653 -7.90407,1.7547 -2.90443,2.62847 -3.57292,6.73243 -1.58966,9.75925 0.95994,1.46506 1.41499,3.51646 1.04124,4.69402 -0.48911,1.54107 -0.0126,2.35283 1.81022,3.08377 3.49823,1.40276 6.25398,1.34562 5.94076,-0.12318 z m 85.87619,-15.04896 c 2.20524,-1.23059 4.67045,-3.24612 5.47824,-4.47896 1.40688,-2.14718 1.24407,-2.13036 -3.86796,0.39956 -3.99666,1.97792 -7.59276,2.7595 -14.32177,3.11268 -5.85506,0.30731 -8.8495,0.87844 -8.59583,1.63946 1.13508,3.40523 14.77101,2.9747 21.30732,-0.67274 z m -0.7422,-5.34573 c 1.72297,-0.90171 4.80408,-3.37822 6.84691,-5.50335 3.03501,-3.1573 3.694,-4.63551 3.60359,-8.08339 -0.16322,-6.22481 -1.68031,-7.43475 -9.32214,-7.43475 -8.52796,0 -12.75222,1.28883 -17.29376,5.27636 -2.04022,1.79134 -4.77279,3.22449 -6.07238,3.18479 l -2.36288,-0.0722 2.33777,-1.12971 c 2.74547,-1.32672 3.66201,-3.18462 2.49919,-5.06609 -0.95913,-1.55191 -3.539,-0.48997 -9.35707,3.85157 l -3.45344,2.57701 3.58866,3.1509 c 1.97377,1.73299 4.22057,4.7131 4.99289,6.62247 0.77232,1.90936 1.91147,3.85906 2.53144,4.33265 1.80911,1.38197 18.02349,0.0928 21.46122,-1.70626 z m -42.20066,-15.24236 c 0,-2.58713 -0.0436,-2.59976 -2.78084,-0.80623 -2.58406,1.69314 -2.64842,1.91892 -0.90953,3.19042 2.40371,1.75764 3.69037,0.92639 3.69037,-2.38419 z m 4.07456,-5.78378 c 5.89058,-2.67324 9.31218,-5.38712 13.10103,-10.39122 4.50666,-5.95213 4.13173,-9.81391 -1.52608,-15.71873 -4.13015,-4.31047 -5.1146,-4.81521 -9.33333,-4.78537 -2.79394,0.0198 -6.88996,1.10268 -10.04951,2.65691 -2.93334,1.44296 -5.9484,2.62795 -6.70015,2.63331 -2.97879,0.0213 -2.47493,3.50138 1.33851,9.24484 4.04774,6.09633 4.44427,9.05395 2.15832,16.09825 -0.7043,2.17032 -0.43516,2.39776 2.81224,2.37657 1.97509,-0.0129 5.66463,-0.96444 8.19897,-2.11456 z m -25.40789,-25.11812 c 16.51146,-3.86886 16.53466,-3.88653 13.30594,-10.13019 -1.62417,-3.1408 -1.62117,-3.14703 1.51276,-3.14703 1.72708,0 4.01941,-0.27056 5.09406,-0.60123 1.07465,-0.33068 0.6339,0.16465 -0.97943,1.10073 -3.57521,2.07439 -3.79549,4.5768 -0.47622,5.40988 3.33877,0.83798 22.30025,-5.34363 24.77329,-8.07632 1.91618,-2.11735 1.91172,-2.23168 -0.16834,-4.31174 -2.09324,-2.09324 -2.18954,-2.09616 -4.73272,-0.14392 -5.68024,4.36038 -6.37889,3.18632 -1.16059,-1.95032 5.07163,-4.99226 9.76458,-12.12992 9.76458,-14.85126 0,-0.61003 -1.18311,-1.10916 -2.62914,-1.10916 -3.24843,0 -4.83753,-2.7547 -4.83753,-8.3859 0,-3.50978 0.59112,-4.72209 3.35848,-6.88788 2.2325,-1.7472 3.13776,-3.20356 2.70014,-4.34397 -0.96884,-2.52475 -3.40546,-2.10552 -8.2782,1.42428 -7.06699,5.1193 -13.81089,6.84349 -23.8109,6.08766 -4.7499,-0.35901 -10.00391,-0.96715 -11.67558,-1.35142 -2.58302,-0.59377 -2.98343,-0.39668 -2.66667,1.31261 0.3703,1.99816 12.43702,8.72683 15.91371,8.87383 0.92087,0.0389 2.74352,-1.1589 4.05033,-2.66187 3.63078,-4.17577 7.84297,-3.27797 9.13359,1.94675 1.44226,5.8386 -2.07428,14.21058 -5.84375,13.91249 -10.42684,-0.82456 -15.48136,-2.99384 -21.17779,-9.08901 l -3.25701,-3.48499 -4.82317,2.63476 c -2.65275,1.44913 -4.82318,2.77434 -4.82318,2.94491 0,0.17058 1.2,3.26336 2.66667,6.87285 3.51047,8.63932 3.47467,11.2848 -0.16509,12.19832 -4.08139,1.02436 -5.47834,-0.28091 -10.76791,-10.06125 -4.92281,-9.1022 -8.11145,-11.52702 -11.48085,-8.73067 -2.42457,2.01222 -1.95821,3.96885 2.70638,11.35471 2.3609,3.73821 5.04875,9.79008 5.97302,13.4486 2.96092,11.7202 7.06434,13.48309 22.80112,9.79575 z m 25.67404,-33.99617 c 1.72481,-3.89923 1.86994,-5.19625 0.83547,-7.46667 -1.66622,-3.65696 -3.68192,-3.46865 -5.75357,0.53749 -1.49298,2.8871 -1.88438,8.52551 -0.75305,10.84813 1.06631,2.18911 3.80704,0.29518 5.67115,-3.91895 z m 20.19262,-11.76722 c 0,-4.09838 -0.89652,-5.24959 -2.83519,-3.64064 -1.46696,1.21747 -1.98974,7.47965 -0.72962,8.73977 1.38282,1.38282 3.56481,-1.73833 3.56481,-5.09913 z m -65.86487,-18.27118 c 0.34321,-0.34321 0.12454,-2.0568 -0.48593,-3.80799 l -1.10994,-3.18398 -3.06963,2.94089 c -1.68829,1.61749 -3.06962,3.33108 -3.06962,3.80799 0,0.98502 6.78012,1.19809 7.73512,0.24309 z m -2.29598,-9.77599 c 4.31308,-4.20336 6.51084,-7.26172 6.98433,-9.71927 l 0.6909,-3.58595 -3.62385,0.78279 c -7.9805,1.72385 -15.89052,7.25903 -15.89052,11.11966 0,3.56524 2.00918,7.53611 3.81312,7.53611 0.95293,0 4.56464,-2.76 8.02602,-6.13334 z m 68.16085,-9.31301 c 0,-1.60494 -4.90556,-3.47031 -6.06834,-2.30753 -1.05076,1.05076 1.91588,3.88721 4.06562,3.88721 1.1015,0 2.00272,-0.71085 2.00272,-1.57968 z m 3.6461,-5.46777 c 0.92798,-0.3561 1.68724,-1.49137 1.68724,-2.52282 0,-2.55178 -4.02976,-7.49639 -6.10941,-7.49639 -1.5112,0 -1.5031,0.2042 0.0774,1.95065 2.29222,2.53288 2.24868,4.44748 -0.10135,4.45655 -2.3355,0.009 -21.6,-8.6444 -21.6,-9.7025 0,-0.42766 11.64,-0.97733 25.86667,-1.22148 27.25274,-0.46771 30.22626,-0.93783 36.8,-5.81815 3.2302,-2.39809 3.46666,-3.00394 3.46666,-8.88183 0,-7.48805 -0.9242,-8.27705 -10.99702,-9.3882 -6.54262,-0.72172 -6.62503,-0.77278 -9.01549,-5.5862 -1.32688,-2.6718 -2.92885,-7.7118 -3.55993,-11.2 -2.01975,-11.16386 -3.58344,-13.25191 -13.73588,-18.34218 -9.14593,-4.58561 -13.4092,-5.43746 -17.1618,-3.42913 -4.1077,2.19837 -2.62143,6.20949 8.14255,21.97504 6.13568,8.98667 10.16126,17.7093 8.80086,19.0697 -0.29436,0.29435 -4.44763,1.02577 -9.2295,1.62536 -15.62844,1.95964 -37.66447,9.59507 -42.0695,14.57697 -1.04081,1.17712 -1.61126,2.87281 -1.26766,3.76822 1.1176,2.91241 13.51124,8.22731 28.20416,12.09511 7.9076,2.08161 14.5876,3.9949 14.84445,4.25174 0.68233,0.68233 5.00104,0.57031 6.95753,-0.18046 z"
       id="path1" />
  </g>
</svg>
