<?xml version="1.0" encoding="UTF-8"?><svg id="Layer_1" xmlns="http://www.w3.org/2000/svg" viewBox="0 0 323 440"><defs><style>.cls-1,.cls-2{stroke-width:0px;}.cls-2{fill:#fff;}</style></defs><path class="cls-2" d="M0,440C0,293.33,0,146.67,0,0c107.67,0,215.33,0,323,0,0,146.67,0,293.33,0,440-107.67,0-215.33,0-323,0ZM97.11,265.78c-1.11,1.82-1.84,3.43-2.93,4.75-4.12,5-8.61,9.72-12.41,14.94-1.31,1.8-1.67,4.87-1.34,7.2.91,6.3,4.28,11.37,8.93,15.75,1.2,1.13,2.27,3.98,1.66,5.04-.73,1.26-3.41,2.17-5.1,1.97-5.57-.68-11.1-1.84-16.61-2.97-13.09-2.69-19.97-2.02-24.12,11.6-.24.78-.77,1.47-1.13,2.22-3.5,7.23-3.39,7.94,2.15,13.79,1.03,1.09,2.28,2,3.17,3.19,9.99,13.25,23.23,18.02,39.48,15.73,1.86-.26,4.32,1.13,5.97,2.42,5.23,4.09,9.84,9.08,15.4,12.6,4.63,2.93,10.27,5.99,15.47,5.99,20.4-.02,40.81-1.15,61.21-2.04,4.89-.21,10.76-4.31,10.19-7.24-.88-4.5.55-8.03,2.47-11.78.56-1.08.3-3.16-.41-4.22-4.87-7.25-9.85-14.45-15.09-21.44-1.08-1.44-3.31-2.22-5.17-2.83-2.5-.82-5.13-1.47-7.75-1.7-9.83-.85-15.36-8.13-21.47-14.34-7.01-7.14-10.14-8.42-2.87-18.44.87-1.2,1.48-2.59,2.2-3.9,2.55-4.66,6.14-7.19,11.77-6.4,2.61.37,5.33.14,7.99.04,7.15-.27,12.45-3.32,14.97-10.3,1.24-3.44,2.29-6.94,3.5-10.39,2.15-6.1,4.54-6.63,9.11-2.04,10.06,10.13,21.34,18.51,34.48,24.22,15.08,6.56,30.05,13.28,43.52,22.92,13.4,9.59,26.72,18.86,31,36.52,2.76,11.38,1.61,21.89-5.27,30.78-16.37,21.17-37.74,33.62-65.14,34.4-5.11.15-10.23.97-15.28,1.86-1.68.3-3.15,1.78-4.71,2.72.24.44.47.88.71,1.32,1.8,0,3.63.16,5.41-.03,7.58-.82,15.22-1.33,22.69-2.75,8.25-1.57,16.6-3.3,24.43-6.23,13.22-4.95,23.5-14.63,32.66-24.84,4.69-5.23,7.76-12.95,9.06-20.01,3.36-18.3-5.59-32.75-18.05-44.74-6.83-6.57-15.35-11.52-23.52-16.54-15.26-9.38-30.74-18.41-46.28-27.32-9.18-5.26-16.44-12.37-22.31-21.03-2.62-3.86-2.43-7.88.08-11.73,2.47-3.77,5.95-2.56,9.45-1.88,2.56.5,5.35.93,7.82.38,1.83-.41,4.19-2.17,4.68-3.81.45-1.52-.8-4.21-2.15-5.46-2.78-2.56-6.01-4.71-9.29-6.62-3.27-1.91-4.62-4.37-4.44-8.16.16-3.44-.53-6.91-.48-10.36.04-2.48.21-5.16,1.14-7.4,2.43-5.8,5.82-11.22,7.9-17.12,2.64-7.48-1.31-18.28-8.03-22.32-6.53-3.93-13.32-7.56-20.33-10.53-7.76-3.3-15.88-5.72-23.86-8.5-2.25-.78-4.21-1.57-2.47-4.54,4.08-7,7.94-14.14,12.3-20.97.98-1.53,3.56-2.73,5.48-2.84,4.97-.3,9.99-.08,14.98.25,9.9.66,18.05-3.89,25.96-8.79,2.38-1.47,4.76-4.13,5.56-6.74,2.72-8.83,2.88-17.94-1.96-26.1-10.25-17.27-34.29-21.22-49.99-8.57-6.35,5.12-6.22,4.95-12.87-.06-3.56-2.69-3.25-4.93-.42-7.7,3.69-3.61,7.44-7.18,10.9-11.01,1.51-1.67,3.02-3.83,3.37-5.95,2.02-11.99-.14-22.62-11.5-29.37-3.1-1.85-6.63-3-9.99-4.4-8.61-3.56-17.69-4.53-26.3-1.27-8.24,3.12-15.92,7.37-20.03,16.46-3.55,7.84-7.44,15.04-1.59,23.28.42.59.39,1.51.44,1.74-8.07,2.98-16.01,5.36-23.48,8.76-19.09,8.69-29.69,23.83-32.18,44.6-.49,4.09-2.39,5.96-6.5,5.69-5.79-.37-11.24.22-15.84,4.47-.82.76-3.32.37-4.68-.28-2.82-1.34-5.22-3.71-8.12-4.74-4.32-1.53-8.29-.34-10.81,3.81-2.42,3.98-.98,7.42,2.05,10.29,4.31,4.08,9.14,7.03,15.39,7.3,1.69.07,4.12,1.16,4.86,2.52,4.19,7.71,11.3,11.01,19.1,13.35,10.33,3.09,20.96,3.34,31.63,3.15,2.19-.04,4.39.4,8.06.77-3.69,4.77-6.94,8.13-9.19,12.06-2.66,4.65-5.47,9.62-6.38,14.77-1.36,7.66-4.8,11.53-12.66,12.8-6.83,1.1-13.53,3.1-20.21,5-4.15,1.18-6.18,5.13-5.03,8.49.88,2.57,4.72,5.45,7.5,5.76,4.45.48,9.37-.36,13.65-1.9,7.66-2.75,9.38-2.55,10.73,7.12.38,2.73-.9,5.81-1.86,8.58-1.18,3.43-3.23,6.61-4.06,10.09-.44,1.84.34,5.31,1.58,5.9,2.01.95,5.66,1.11,7.17-.14,2.81-2.33,4.64-5.88,6.78-8.99,1.22-1.78,2.23-3.69,3.34-5.55.62.15,1.24.29,1.86.44.14,2.49.54,5,.38,7.47-.43,6.73,2.8,11,8.56,13.88,5.92,2.97,7.1,7.41,3.65,13.12-3.17,5.25-2.12,8.72,3.47,11.35,1.16.55,2.39.96,4.22,1.69Z"/><path class="cls-1" d="M97.11,265.78c-1.83-.73-3.06-1.14-4.22-1.69-5.59-2.63-6.63-6.1-3.47-11.35,3.45-5.71,2.27-10.15-3.65-13.12-5.76-2.89-8.99-7.16-8.56-13.88.16-2.47-.24-4.98-.38-7.47-.62-.15-1.24-.29-1.86-.44-1.11,1.85-2.12,3.77-3.34,5.55-2.13,3.11-3.96,6.66-6.78,8.99-1.51,1.25-5.17,1.1-7.17.14-1.24-.59-2.02-4.06-1.58-5.9.83-3.49,2.88-6.66,4.06-10.09.95-2.77,2.24-5.85,1.86-8.58-1.35-9.67-3.07-9.87-10.73-7.12-4.27,1.53-9.2,2.38-13.65,1.9-2.79-.3-6.62-3.18-7.5-5.76-1.15-3.36.88-7.31,5.03-8.49,6.68-1.9,13.38-3.9,20.21-5,7.86-1.27,11.3-5.14,12.66-12.8.91-5.15,3.72-10.12,6.38-14.77,2.25-3.93,5.49-7.3,9.19-12.06-3.66-.37-5.86-.81-8.06-.77-10.68.19-21.3-.05-31.63-3.15-7.8-2.34-14.91-5.63-19.1-13.35-.74-1.36-3.16-2.44-4.86-2.52-6.25-.27-11.08-3.22-15.39-7.3-3.04-2.87-4.47-6.31-2.05-10.29,2.52-4.15,6.49-5.34,10.81-3.81,2.9,1.03,5.29,3.4,8.12,4.74,1.35.64,3.86,1.03,4.68.28,4.61-4.26,10.06-4.85,15.84-4.47,4.11.27,6.01-1.6,6.5-5.69,2.49-20.77,13.09-35.91,32.18-44.6,7.47-3.4,15.41-5.79,23.48-8.76-.05-.23-.02-1.15-.44-1.74-5.85-8.25-1.96-15.44,1.59-23.28,4.11-9.09,11.79-13.34,20.03-16.46,8.61-3.26,17.69-2.29,26.3,1.27,3.36,1.39,6.89,2.55,9.99,4.4,11.36,6.75,13.51,17.37,11.5,29.37-.36,2.13-1.87,4.29-3.37,5.95-3.46,3.83-7.21,7.39-10.9,11.01-2.83,2.77-3.14,5.01.42,7.7,6.65,5.02,6.52,5.18,12.87.06,15.69-12.65,39.74-8.7,49.99,8.57,4.84,8.16,4.68,17.27,1.96,26.1-.8,2.6-3.18,5.26-5.56,6.74-7.91,4.9-16.05,9.46-25.96,8.79-4.98-.33-10-.55-14.98-.25-1.92.11-4.51,1.31-5.48,2.84-4.35,6.83-8.21,13.97-12.3,20.97-1.73,2.97.23,3.76,2.47,4.54,7.98,2.77,16.11,5.2,23.86,8.5,7.01,2.98,13.8,6.61,20.33,10.53,6.73,4.04,10.67,14.84,8.03,22.32-2.08,5.9-5.47,11.33-7.9,17.12-.94,2.24-1.11,4.91-1.14,7.4-.05,3.45.65,6.92.48,10.36-.18,3.8,1.16,6.26,4.44,8.16,3.28,1.91,6.51,4.06,9.29,6.62,1.36,1.24,2.6,3.93,2.15,5.46-.48,1.64-2.84,3.4-4.68,3.81-2.46.55-5.26.12-7.82-.38-3.5-.68-6.98-1.89-9.45,1.88-2.52,3.84-2.7,7.86-.08,11.73,5.86,8.66,13.13,15.77,22.31,21.03,15.54,8.91,31.02,17.94,46.28,27.32,8.17,5.02,16.69,9.96,23.52,16.54,12.45,11.99,21.4,26.44,18.05,44.74-1.3,7.06-4.36,14.78-9.06,20.01-9.16,10.21-19.44,19.89-32.66,24.84-7.83,2.93-16.18,4.66-24.43,6.23-7.47,1.42-15.11,1.93-22.69,2.75-1.78.19-3.6.03-5.41.03-.24-.44-.47-.88-.71-1.32,1.56-.94,3.03-2.42,4.71-2.72,5.05-.89,10.17-1.71,15.28-1.86,27.4-.79,48.78-13.23,65.14-34.4,6.87-8.89,8.03-19.4,5.27-30.78-4.28-17.66-17.6-26.93-31-36.52-13.47-9.64-28.44-16.36-43.52-22.92-13.14-5.71-24.42-14.1-34.48-24.22-4.57-4.6-6.96-4.06-9.11,2.04-1.21,3.45-2.26,6.95-3.5,10.39-2.52,6.98-7.82,10.04-14.97,10.3-2.66.1-5.38.33-7.99-.04-5.63-.79-9.22,1.75-11.77,6.4-.72,1.31-1.33,2.7-2.2,3.9-7.27,10.02-4.14,11.3,2.87,18.44,6.11,6.21,11.64,13.5,21.47,14.34,2.62.23,5.25.87,7.75,1.7,1.86.61,4.09,1.39,5.17,2.83,5.24,6.99,10.22,14.19,15.09,21.44.71,1.06.97,3.14.41,4.22-1.92,3.75-3.35,7.28-2.47,11.78.57,2.92-5.3,7.02-10.19,7.24-20.4.89-40.8,2.02-61.21,2.04-5.19,0-10.83-3.06-15.47-5.99-5.56-3.51-10.17-8.51-15.4-12.6-1.66-1.29-4.11-2.69-5.97-2.42-16.25,2.29-29.49-2.48-39.48-15.73-.89-1.19-2.14-2.1-3.17-3.19-5.54-5.85-5.65-6.56-2.15-13.79.36-.75.89-1.44,1.13-2.22,4.15-13.62,11.03-14.29,24.12-11.6,5.51,1.13,11.03,2.29,16.61,2.97,1.68.2,4.37-.7,5.1-1.97.61-1.06-.46-3.91-1.66-5.04-4.65-4.38-8.01-9.45-8.93-15.75-.34-2.33.02-5.39,1.34-7.2,3.8-5.22,8.29-9.94,12.41-14.94,1.09-1.32,1.82-2.93,2.93-4.75ZM93.81,144.97c-5.49.59-9.41,3.65-11.44,8.63-1.31,3.2.06,5.75,3.68,6.09,2.61.24,5.4.17,7.92-.49,9.62-2.54,19.04-6.03,28.77-7.91,10.09-1.94,18.93-6.18,27.48-11.43,3.91-2.4,4.22-5.54.59-8.21-3.2-2.35-6.47-4.93-10.13-6.29-16.38-6.1-32.71-12.45-50.5-13.41-3.76-.2-7.48-1.32-11.05-1.98,3.6-13.36,10.83-23.45,18.44-33.39,3-3.92,5.23-8.48,7.47-12.92,1.38-2.73,3.11-5.73.23-8.76-2.94-3.1-6.69-4.35-10.46-2.83-7.99,3.22-16.12,6.42-23.42,10.89-3.7,2.27-7.99,7.26-8.03,11.07-.11,9.05-2.97,16.95-6.35,24.88-3.18,7.48-4.88,7.79-12.95,7.68-4.42-.06-9.21,1.31-13.15,3.35-1.53.79-1.3,5.18-1.67,7.96-1.2,9.06.84,12.22,9.02,16.35,10.91,5.51,22.67,5,34.26,5.22,13.32.25,26.65-.32,39.97-.35,2.74,0,5.48.79,9.01,1.34-1.25,1.43-1.5,1.95-1.9,2.13-7.85,3.59-15.72,7.15-23.58,10.71-1.36.62-2.72,1.62-4.12,1.68-1.79.08-3.61-.61-5.42-.97.65-1.58.96-3.45,2.02-4.67,1.48-1.71,3.52-2.94,5.32-4.38ZM153.46,209.46c-1.4.37-2.35.6-3.29.87-20.06,5.68-38.81,4.62-55.03-10.38-.75-.69-3.53-.35-4.36.5-1.22,1.25-1.54,3.39-2.3,5.3,7.24.75,11.28,6.55,10.15,14.75-.4,2.89-1.82,6.23-3.91,8.09-1.4,1.24-4.8.24-7.53.24,3.14,11.78,10.95,20.55,20.93,28.24-3.95.74-3.9.68-9.37-3.82-1.13-.93-3.63-2.04-4.08-1.6-1.58,1.54-2.97,3.6-3.54,5.7-.24.9,1.46,2.83,2.71,3.53,3.03,1.7,6.21,3.24,9.51,4.32,6.6,2.17,13.25,4.29,20.01,5.83,3.33.76,6.59-.38,7.39-4.86-2.89-1.24-5.59-2.4-8.29-3.55.12-.33.23-.67.35-1,4.25.35,8.5.7,13.46,1.11-1.23,2.47-2.45,4.91-3.66,7.37-1.42,2.88-1.17,5.51,2.23,6.35,9.83,2.41,19.64,5.43,29.64,6.5,12.86,1.37,15.95-1.84,18.52-14.57.75-3.71,1.6-7.58,3.34-10.88,3.15-5.95,7.19-11.42,10.51-17.29,2.02-3.56.43-6.54-3.42-7.52-4.46-1.14-7.97,1.54-9.83,5.68-2.91,6.46-6.26,12.81-10.24,18.65-2.46,3.61-6.93,3.98-10.83,1.72-4.25-2.46-2.23-6.02-.96-9.24,2.17-5.51,4.42-11,6.63-16.5-3.34-1.91-6.45-3.5-9.35-5.4-2.83-1.84-4.58-1.28-6.65,1.39-5.71,7.4-12.69,12.68-22.77,12.25-1.31-.06-2.78.89-4,1.65-3.5,2.17-6.49,1.5-8.65-1.76-3.85-5.82-5.03-12.36-3.52-19.12,1.3-5.8,7.28-7.26,11.48-3.04,1.17,1.17,2.24,2.5,3.06,3.92,1.38,2.41,2.79,2.55,5.29,1.3,4.71-2.37,9.57-4.57,14.58-6.19,4.13-1.34,6.1-3.58,5.77-8.52ZM143.16,339.27c-4.09-1.84-8.84-4.33-13.84-6.1-3.39-1.2-7.16-1.27-10.72-2.03-6.29-1.34-11.17.97-14.84,5.86-3.49,4.65-6.81,10.07-2.73,15.51,5.84,7.79,13.49,14.26,23.15,16.23,17.39,3.54,35.01,3.55,52.57.38,3.11-.56,7.07-1.77,5.26,4.84,3.34-.52,6.33-.7,9.1-1.57.91-.29,2.11-2.83,1.72-3.52-1.61-2.86-1.05-4.86,1.12-7.09.91-.93,1.41-2.68,1.38-4.04-.24-8.54-5.19-12.83-13.58-12.03-2.48.24-4.97.52-7.45.55-.91.01-1.83-.63-2.75-.98.01-.38.03-.76.04-1.15,4.56-1,9.13-1.99,13.69-2.99-1.41-5.23-5.74-7.98-12.75-8.57,2.78,5.11,1.74,6.73-4.23,7.04-6.49.34-12.46-.48-17.86-4.73-1.73-1.36-4.8-1.02-7.26-1.45v5.82ZM133.48,318.75c-.56-1.97-.69-3.71-1.5-5.05-4.36-7.24-2.69-13.57,2.41-19.66,2.12-2.53,4.15-5.27,5.53-8.24.57-1.21-.53-4.66-1.12-4.72-7.18-.77-12.27-6.17-19.53-7.75-10.2-2.22-14.88,2.27-19.94,8.72-1.23,1.57-2.81,3.04-3.48,4.83-.75,1.99-1.4,4.56-.79,6.44,4.56,13.93,22.71,26.1,38.42,25.42ZM109.98,327.73c-4.23-3.14-7.82-6.03-11.65-8.54-1.51-.99-3.58-1.55-5.36-1.48-.7.03-2.17,2.8-1.79,3.51.91,1.69,2.52,3.24,4.22,4.21,1.67.95,3.78,1.12,6.73,1.91-6.07,2.02-10.04.34-13.81-3.49-2.66-2.7-6.04-5.41-9.57-6.37-5.72-1.55-11.84-1.62-17.77-2.41-4.02-.53-7.97.39-9.22,4.2-1.2,3.68-2.21,8.83-.54,11.76,4.43,7.8,11.3,13.81,20.52,15.38,6.68,1.14,13.59,1.1,20.4,1.15,1.4,0,3.66-1.7,4.07-3.06,2.31-7.54,6.38-13.49,13.78-16.77ZM173.96,162.17c-.53.37-1.07.74-1.6,1.11,1.18,3.25,1.64,7.08,3.7,9.62,3.6,4.45,8.16,8.11,12.34,12.08,4.49,4.27,8.35,3.48,9.79-2.53.67-2.81.64-6.97-.98-8.94-5.95-7.23-14.54-9.65-23.25-11.34ZM94.11,353c-.05-.71-.1-1.43-.14-2.15-18.88,1.1-36.7-.36-47.79-18.65,2.74,4.58,6.43,8.04,9.42,12.03,8.84,11.8,21.21,12.3,34.14,11.08,1.52-.14,2.92-1.51,4.38-2.32ZM114.36,226.95c1.67,4.49,2.94,8.56,4.79,12.36.48,1,2.73,1.23,4.23,1.54.2.04.93-1.5,1.09-2.36.54-2.94,1.68-6.05,1.17-8.83-.54-2.94-2.54-5.68-4.26-8.27-.47-.7-2.95-1.08-3.31-.64-1.44,1.78-2.41,3.94-3.7,6.21ZM158.85,377.22c.04-.73.07-1.46.11-2.18-6.56,0-13.17.53-19.67-.14-7.5-.77-15.52-1.26-22.15-4.35-6.69-3.11-11.94-9.28-17.86-14.07-.63-.51-1.49-.74-2.24-1.1,3.24,7.3,9.61,11.13,15.5,15.43,14.38,10.48,30.81,4.79,46.31,6.43ZM91.47,211.87c-3.99,3.54-3.39,10.42,1.24,14.24,3.72-4.71,3.23-10.34-1.24-14.24ZM178.87,193.2h11.68c-3.27-3.51-5.61-6.02-8.37-8.98-1.3,3.51-2.25,6.09-3.32,8.98ZM98.88,162.33c-3.55.94-6.39,1.48-9,2.55-.54.22-.79,3.26-.24,3.63,3.17,2.14,8.18-.69,9.25-6.19ZM123.26,320.23c-.33.46-.66.92-.99,1.37.51,2,1.03,4.01,1.94,7.58,2.32-1.73,4-2.99,5.68-4.25-2.21-1.57-4.43-3.13-6.64-4.7Z"/><path class="cls-2" d="M93.81,144.97c-1.8,1.44-3.84,2.67-5.32,4.38-1.06,1.22-1.37,3.09-2.02,4.67,1.81.36,3.63,1.05,5.42.97,1.4-.06,2.76-1.07,4.12-1.68,7.87-3.56,15.73-7.12,23.58-10.71.4-.18.64-.7,1.9-2.13-3.53-.55-6.27-1.34-9.01-1.34-13.32.03-26.65.6-39.97.35-11.59-.22-23.35.29-34.26-5.22-8.18-4.13-10.23-7.29-9.02-16.35.37-2.78.14-7.17,1.67-7.96,3.95-2.04,8.73-3.41,13.15-3.35,8.07.11,9.77-.2,12.95-7.68,3.38-7.93,6.24-15.84,6.35-24.88.05-3.81,4.33-8.8,8.03-11.07,7.3-4.47,15.43-7.67,23.42-10.89,3.77-1.52,7.52-.27,10.46,2.83,2.87,3.03,1.15,6.03-.23,8.76-2.24,4.44-4.47,9-7.47,12.92-7.61,9.95-14.84,20.04-18.44,33.39,3.57.66,7.29,1.78,11.05,1.98,17.78.96,34.12,7.31,50.5,13.41,3.66,1.36,6.93,3.94,10.13,6.29,3.63,2.67,3.32,5.8-.59,8.21-8.55,5.25-17.39,9.49-27.48,11.43-9.74,1.87-19.15,5.37-28.77,7.91-2.52.66-5.31.74-7.92.49-3.61-.34-4.98-2.89-3.68-6.09,2.03-4.98,5.95-8.04,11.44-8.63Z"/><path class="cls-2" d="M153.46,209.46c.33,4.94-1.63,7.18-5.77,8.52-5.01,1.62-9.87,3.82-14.58,6.19-2.49,1.26-3.91,1.11-5.29-1.3-.82-1.43-1.9-2.75-3.06-3.92-4.21-4.22-10.19-2.76-11.48,3.04-1.51,6.76-.33,13.3,3.52,19.12,2.16,3.26,5.15,3.93,8.65,1.76,1.22-.76,2.69-1.7,4-1.65,10.07.44,17.05-4.85,22.77-12.25,2.06-2.67,3.82-3.23,6.65-1.39,2.91,1.89,6.01,3.49,9.35,5.4-2.22,5.51-4.46,10.99-6.63,16.5-1.27,3.23-3.29,6.78.96,9.24,3.9,2.26,8.37,1.89,10.83-1.72,3.98-5.84,7.34-12.19,10.24-18.65,1.86-4.14,5.38-6.82,9.83-5.68,3.85.98,5.44,3.96,3.42,7.52-3.33,5.87-7.36,11.34-10.51,17.29-1.75,3.3-2.59,7.17-3.34,10.88-2.57,12.73-5.67,15.94-18.52,14.57-10-1.07-19.81-4.09-29.64-6.5-3.4-.83-3.65-3.47-2.23-6.35,1.21-2.45,2.43-4.9,3.66-7.37-4.96-.41-9.21-.76-13.46-1.11-.12.33-.23.67-.35,1,2.7,1.16,5.4,2.31,8.29,3.55-.8,4.48-4.07,5.61-7.39,4.86-6.77-1.54-13.41-3.66-20.01-5.83-3.29-1.08-6.48-2.62-9.51-4.32-1.25-.7-2.96-2.63-2.71-3.53.57-2.1,1.96-4.16,3.54-5.7.45-.43,2.95.68,4.08,1.6,5.48,4.5,5.42,4.56,9.37,3.82-9.98-7.69-17.79-16.46-20.93-28.24,2.73,0,6.13,1.01,7.53-.24,2.09-1.86,3.52-5.2,3.91-8.09,1.13-8.2-2.91-14-10.15-14.75.76-1.91,1.08-4.05,2.3-5.3.82-.85,3.61-1.19,4.36-.5,16.22,15,34.96,16.06,55.03,10.38.94-.27,1.89-.5,3.29-.87Z"/><path class="cls-2" d="M143.16,339.27v-5.82c2.46.44,5.53.09,7.26,1.45,5.4,4.25,11.37,5.07,17.86,4.73,5.97-.32,7.01-1.93,4.23-7.04,7.01.59,11.34,3.34,12.75,8.57-4.57,1-9.13,2-13.69,2.99-.01.38-.03.76-.04,1.15.92.35,1.84.99,2.75.98,2.49-.03,4.97-.32,7.45-.55,8.4-.8,13.34,3.49,13.58,12.03.04,1.36-.47,3.1-1.38,4.04-2.16,2.23-2.72,4.24-1.12,7.09.39.69-.81,3.24-1.72,3.52-2.77.87-5.76,1.05-9.1,1.57,1.81-6.61-2.15-5.4-5.26-4.84-17.55,3.17-35.18,3.16-52.57-.38-9.67-1.97-17.32-8.44-23.15-16.23-4.08-5.44-.76-10.87,2.73-15.51,3.68-4.89,8.56-7.2,14.84-5.86,3.56.76,7.33.83,10.72,2.03,5,1.77,9.75,4.26,13.84,6.1Z"/><path class="cls-2" d="M133.48,318.75c-15.71.68-33.86-11.49-38.42-25.42-.62-1.88.04-4.45.79-6.44.67-1.79,2.25-3.26,3.48-4.83,5.06-6.46,9.75-10.94,19.94-8.72,7.25,1.58,12.35,6.98,19.53,7.75.59.06,1.69,3.51,1.12,4.72-1.39,2.96-3.41,5.7-5.53,8.24-5.1,6.09-6.77,12.42-2.41,19.66.8,1.34.94,3.08,1.5,5.05Z"/><path class="cls-2" d="M109.98,327.73c-7.39,3.27-11.46,9.23-13.78,16.77-.42,1.36-2.68,3.07-4.07,3.06-6.81-.04-13.72,0-20.4-1.15-9.22-1.57-16.08-7.58-20.52-15.38-1.67-2.93-.67-8.09.54-11.76,1.25-3.81,5.2-4.73,9.22-4.2,5.94.78,12.05.85,17.77,2.41,3.53.96,6.91,3.67,9.57,6.37,3.77,3.83,7.73,5.52,13.81,3.49-2.94-.79-5.06-.95-6.73-1.91-1.69-.97-3.31-2.52-4.22-4.21-.38-.71,1.08-3.48,1.79-3.51,1.78-.08,3.85.49,5.36,1.48,3.83,2.51,7.42,5.4,11.65,8.54Z"/><path class="cls-2" d="M173.96,162.17c8.72,1.69,17.3,4.11,23.25,11.34,1.62,1.97,1.65,6.13.98,8.94-1.44,6.01-5.3,6.8-9.79,2.53-4.18-3.97-8.74-7.64-12.34-12.08-2.06-2.54-2.52-6.37-3.7-9.62.53-.37,1.07-.74,1.6-1.11Z"/><path class="cls-2" d="M94.11,353c-1.46.8-2.86,2.17-4.38,2.32-12.93,1.22-25.3.72-34.14-11.08-2.99-3.99-6.67-7.46-9.42-12.03,11.1,18.29,28.91,19.75,47.79,18.65.05.72.1,1.43.14,2.15Z"/><path class="cls-2" d="M114.36,226.95c1.29-2.27,2.26-4.43,3.7-6.21.36-.44,2.84-.06,3.31.64,1.73,2.59,3.73,5.34,4.26,8.27.51,2.78-.63,5.89-1.17,8.83-.16.87-.88,2.4-1.09,2.36-1.5-.31-3.75-.54-4.23-1.54-1.84-3.8-3.11-7.87-4.79-12.36Z"/><path class="cls-2" d="M158.85,377.22c-15.5-1.64-31.92,4.05-46.31-6.43-5.89-4.29-12.26-8.13-15.5-15.43.75.36,1.61.59,2.24,1.1,5.92,4.79,11.17,10.96,17.86,14.07,6.64,3.09,14.65,3.58,22.15,4.35,6.49.67,13.11.14,19.67.14-.04.73-.07,1.46-.11,2.18Z"/><path class="cls-2" d="M91.47,211.87c4.47,3.89,4.96,9.52,1.24,14.24-4.63-3.81-5.23-10.7-1.24-14.24Z"/><path class="cls-2" d="M178.87,193.2c1.07-2.88,2.02-5.47,3.32-8.98,2.75,2.95,5.1,5.47,8.37,8.98h-11.68Z"/><path class="cls-2" d="M98.88,162.33c-1.07,5.49-6.08,8.33-9.25,6.19-.55-.37-.29-3.41.24-3.63,2.61-1.08,5.45-1.61,9-2.55Z"/><path class="cls-2" d="M123.26,320.23c2.21,1.57,4.43,3.13,6.64,4.7-1.68,1.26-3.36,2.51-5.68,4.25-.91-3.57-1.43-5.57-1.94-7.58.33-.46.66-.92.99-1.37Z"/></svg>