<?xml version="1.0" encoding="UTF-8" standalone="no"?>
<!-- Created with Inkscape (http://www.inkscape.org/) -->

<svg
   version="1.1"
   id="svg1"
   width="793.59998"
   height="1122.1333"
   viewBox="0 0 793.59998 1122.1333"
   sodipodi:docname="Mikey - happy - 3.png"
   xmlns:inkscape="http://www.inkscape.org/namespaces/inkscape"
   xmlns:sodipodi="http://sodipodi.sourceforge.net/DTD/sodipodi-0.dtd"
   xmlns="http://www.w3.org/2000/svg"
   xmlns:svg="http://www.w3.org/2000/svg">
  <defs
     id="defs1" />
  <sodipodi:namedview
     id="namedview1"
     pagecolor="#ffffff"
     bordercolor="#000000"
     borderopacity="0.25"
     inkscape:showpageshadow="2"
     inkscape:pageopacity="0.0"
     inkscape:pagecheckerboard="0"
     inkscape:deskcolor="#d1d1d1" />
  <g
     inkscape:groupmode="layer"
     inkscape:label="Image"
     id="g1">
    <path
       style="fill:#000000"
       d="m 338.50078,712.48927 c -6.50218,-1.28644 -19.64712,-6.99846 -26.91388,-11.6952 -6.18034,-3.99454 -13.40822,-11.92708 -16.92119,-18.57087 -2.74218,-5.18607 -2.31891,-13.8658 1.10225,-22.60316 1.63239,-4.16896 4.03239,-8.54149 5.33334,-9.71672 2.77881,-2.51029 33.86055,-19.21138 42.36536,-22.76411 8.42439,-3.51913 18.93782,-10.49989 24.8,-16.46683 5.55562,-5.65491 6.34914,-8.02593 2.66666,-7.96793 -3.5792,0.0564 -6.4119,2.01054 -12.06913,8.32608 -5.38192,6.00818 -9.04472,8.10345 -12.33842,7.05807 -3.14953,-0.99962 -2.37046,-5.03708 1.74089,-9.02195 2.05333,-1.99017 3.73333,-4.23326 3.73333,-4.98466 0,-2.35025 -4.46041,-4.42406 -14.14917,-6.57849 -10.52893,-2.34125 -13.88611,-4.13066 -16.22108,-8.64599 -3.54173,-6.84895 0.9709,-8.19349 12.69213,-3.78163 9.036,3.40114 9.00079,2.01136 -0.18855,-7.44293 -7.75778,-7.98146 -8.63862,-11.23297 -3.04304,-11.23297 2.78533,0 5.80821,1.61011 13.06667,6.95986 5.19367,3.82792 10.15089,6.82369 11.01604,6.65726 3.71787,-0.71521 22.55984,-46.74144 24.22889,-59.18516 0.6686,-4.98478 -0.49502,-6.45998 -9.76641,-12.38157 -4.69383,-2.99793 -9.48525,-8.22725 -12.8961,-14.07473 -1.06074,-1.81851 -1.37556,-1.76328 -5.33333,0.93573 -9.90379,6.7539 -17.54843,5.9415 -26.9084,-2.85957 -7.01243,-6.5937 -9.77591,-12.11145 -9.80756,-19.58237 -0.0392,-9.25357 3.07592,-14.57753 10.86742,-18.57325 8.25746,-4.23467 17.23179,-1.946 23.79994,6.06957 2.11863,2.5855 4.4543,4.7009 5.1904,4.7009 0.7361,0 3.44517,-3.68223 6.02016,-8.18273 l 4.6818,-8.18273 -3.15276,-2.21727 c -9.66711,-6.79868 -15.39438,-16.85422 -13.64633,-23.95928 2.10101,-8.53967 8.82966,-12.38146 21.68261,-12.37989 10.39347,0.001 14.84451,1.87529 18.96041,7.98288 2.43816,3.61797 2.77933,4.64844 3.94009,11.90063 l 0.62342,3.89494 9.3047,0.38843 c 7.26536,0.3033 10.63148,1.00674 15.3582,3.2095 7.32326,3.4128 14.69211,10.01173 20.14279,18.03821 l 4.04884,5.96218 10.47744,0.11255 c 9.20987,0.0989 11.15544,-0.21819 16.08156,-2.62129 4.56094,-2.22495 5.90119,-2.4873 7.2,-1.40937 3.3532,2.78291 0.73723,11.88899 -4.98282,17.34493 -2.31516,2.20826 -4.86454,5.56826 -5.66529,7.46667 -3.34836,7.93817 -13.10221,13.9327 -24.80473,15.24451 -3.65679,0.40991 -7.07624,1.28421 -7.59877,1.94288 -0.52254,0.65867 -1.27728,3.45931 -1.67722,6.22364 -0.72232,4.99264 0.0375,7.73439 2.951,10.64785 0.79214,0.79214 2.79245,3.58957 4.44512,6.21651 3.86844,6.1489 16.52489,19.30444 17.80872,18.51099 0.54164,-0.33475 1.42331,-1.76201 1.95927,-3.17169 0.72478,-1.90631 1.7802,-2.56305 4.11903,-2.56305 4.58468,0 9.59324,4.78463 13.09654,12.51099 4.0417,8.91379 6.61261,9.16736 8.34488,0.82306 1.15286,-5.5533 3.23986,-9.06738 5.38509,-9.06738 0.53123,0 1.7615,1.21426 2.73392,2.69836 1.49917,2.28803 1.65349,4.40824 1.01482,13.94271 l -0.75322,11.24434 4.27709,7.12396 c 5.09291,8.48279 6.24528,12.37819 4.34071,14.67305 -1.83847,2.21523 -5.78947,1.14789 -10.25075,-2.76916 -3.42141,-3.00404 -4.86588,-3.44477 -15.81417,-4.82523 -7.34511,-0.92614 -11.82991,-3.26286 -14.47429,-7.54157 -2.40334,-3.88868 -3.75439,-3.83734 -5.28977,0.20102 -0.70284,1.84861 -0.32606,4.31828 1.38381,9.0705 l 2.34962,6.53024 -5.77819,5.0677 -5.77818,5.0677 1.45238,10.97335 c 1.18437,8.94844 1.2082,12.66219 0.12913,20.12543 -1.64342,11.36642 -0.81526,12.48042 8.40549,11.30664 11.90333,-1.51526 17.77295,-1.17602 20.98991,1.21313 3.2111,2.3848 8.78245,9.78499 8.84132,11.74356 0.054,1.79774 -12.62225,15.22588 -16.04349,16.99508 -1.84832,0.9558 -6.07049,1.55918 -10.91036,1.55918 -8.61304,0 -7.26891,-0.64038 -21.65094,10.31519 -3.98206,3.03336 -8.22704,5.69986 -9.43328,5.92556 -1.20624,0.22571 -6.03316,0.058 -10.7265,-0.37263 -4.69333,-0.43065 -13.64277,-0.81715 -19.88764,-0.85889 -8.18036,-0.0547 -13.29286,-0.67465 -18.28919,-2.21786 -7.19166,-2.22128 -8.96731,-4.0745 -7.15267,-7.46518 0.58456,-1.09227 1.06284,-3.66067 1.06284,-5.70756 0,-2.36594 0.92696,-4.82324 2.54471,-6.74583 1.39959,-1.66332 3.29465,-4.81907 4.21124,-7.01279 1.71927,-4.1148 3.52869,-5.25194 10.84405,-6.81501 3.9862,-0.85173 4.38645,-1.28563 6.08896,-6.60076 3.88837,-12.13928 4.79856,-32.19991 1.64144,-36.17757 -0.58206,-0.73333 -2.25022,-1.33333 -3.70703,-1.33333 -1.45681,0 -4.07487,-1.2 -5.8179,-2.66667 -5.16528,-4.3463 -9.52914,-3.6677 -16.13599,2.50923 -9.89195,9.24824 -20.07731,15.71147 -42.13369,26.73635 -23.11466,11.55387 -29.92438,16.46399 -33.40671,24.08775 -4.32227,9.46265 -1.29476,23.00338 7.27415,32.53407 8.81345,9.80268 31.91938,19.07937 48.00733,19.27424 4.44431,0.0538 5.58794,0.33344 4.05611,0.99169 -2.66463,1.14503 -13.48018,1.12043 -19.36588,-0.044 z m 99.90442,-30.4878 c 4.48453,-3.36476 8.15454,-6.95437 8.35864,-8.17553 0.27707,-1.65772 -1.24957,-0.77106 -6.4,3.71708 -6.97242,6.07584 -9.9937,8.01696 -14.70156,9.44552 -2.51964,0.76456 -2.44221,0.83511 1.00958,0.91976 2.95971,0.0726 5.40407,-1.15797 11.73334,-5.90683 z m -36.71862,4.00529 c -0.31495,-0.50961 -2.47574,-1.23088 -4.80174,-1.60282 -2.326,-0.37194 -4.56824,-1.225 -4.98274,-1.89568 -0.52167,-0.84408 0.0435,-1.01935 1.83609,-0.56943 4.2011,1.05441 31.30727,2.16493 34.3293,1.40645 3.96171,-0.99432 15.51721,-10.91508 16.28723,-13.98309 0.89604,-3.57012 -1.39748,-9.93163 -4.10261,-11.37938 -1.47825,-0.79113 -5.34098,-0.96271 -11.32246,-0.50294 -7.55267,0.58054 -9.91119,1.23202 -14.03093,3.87565 -2.72369,1.74779 -6.11014,3.13864 -7.52545,3.09078 -2.38844,-0.0808 -2.33388,-0.19199 0.75947,-1.54841 4.36078,-1.9122 5.19921,-4.271 2.2519,-6.33539 -3.18186,-2.22865 -3.69021,-2.09264 -5.53872,1.48199 -1.81831,3.51622 -5.81096,4.82929 -10.64309,3.50022 -3.42386,-0.94173 -5.03737,-3.4114 -2.22878,-3.4114 0.96351,0 1.45518,-0.48 1.0926,-1.06666 -0.95011,-1.53732 -5.12399,-1.31158 -7.4702,0.40401 -1.91723,1.40192 -1.92561,1.60144 -0.17928,4.26667 1.0076,1.53779 2.63693,2.79598 3.62074,2.79598 1.2936,0 1.46613,0.32262 0.62326,1.16549 -0.84287,0.84286 -1.7683,0.84286 -3.34321,0 -5.75808,-3.08163 -9.24788,1.17769 -9.25799,11.29942 -0.007,7.11292 0.44605,7.67188 7.47335,9.2182 4.02174,0.88496 17.72625,0.71745 17.15326,-0.20966 z m 71.16951,-17.06178 c 5.05733,-3.14413 4.36137,-4.17047 -1.29365,-1.90778 -2.34266,0.93735 -8.12258,2.02645 -12.84425,2.42022 -11.67754,0.97387 -11.08654,2.85475 0.74846,2.38203 7.5371,-0.30106 10.11395,-0.85811 13.38944,-2.89447 z m -10.15642,-2.20528 c 9.10305,-1.05483 15.36378,-4.57654 18.01329,-10.13263 2.44325,-5.12355 1.22493,-8.65259 -3.88755,-11.26078 -6.04693,-3.08492 -9.74763,-2.69151 -20.03641,2.12997 -8.91598,4.17817 -11.5547,4.86166 -8.28146,2.14511 1.8829,-1.56266 2.17128,-4.28806 0.45374,-4.28806 -0.64463,0 -2.51721,1.44 -4.16129,3.2 -4.56634,4.88828 -12.8,4.16006 -12.8,-1.13208 0,-2.34938 -4.51332,-1.542 -7.05018,1.2612 -1.7512,1.93505 -1.74382,2.11176 0.14596,3.4936 1.09475,0.80051 4.62781,1.72766 7.85125,2.06035 7.23708,0.74693 10.74131,3.24863 12.6746,9.0485 1.39305,4.17916 1.74267,4.4654 5.40059,4.42159 2.15111,-0.0258 7.40597,-0.45181 11.67746,-0.94677 z M 420.7257,651.22081 c 0.82543,-4.39993 3.5494,-6.45011 9.93536,-7.4778 2.49026,-0.40076 4.78109,-1.13857 5.09073,-1.63958 0.30964,-0.50101 1.18352,-5.3945 1.94195,-10.87442 1.19815,-8.65704 1.15574,-11.00802 -0.3234,-17.92959 -0.9363,-4.38136 -2.05018,-8.52434 -2.47528,-9.20662 -1.77193,-2.84392 -8.55401,-2.61803 -16.22841,0.54051 -6.97174,2.86936 -7.44975,3.27722 -7.21157,6.1532 1.0046,12.13039 0.55432,22.86306 -1.22565,29.21347 -3.3353,11.89937 -3.42689,11.12451 1.67083,14.13503 5.5469,3.27579 7.80401,2.53048 8.82544,-2.9142 z m -12.93083,-46.53393 c 14.42319,-2.98026 15.00964,-3.3289 14.19275,-8.43746 -0.71942,-4.49903 -0.82307,-4.43546 9.47903,-5.81413 l 4.26667,-0.57098 -3.2,1.55306 c -1.76,0.85418 -3.8,1.57471 -4.53333,1.60117 -1.89772,0.0685 -1.64963,3.26396 0.43198,5.56412 3.59961,3.97752 15.48054,1.28043 24.83926,-5.63877 3.69419,-2.73123 4.01927,-5.22397 1.33685,-10.25107 l -1.83581,-3.44049 -3.18614,2.10013 c -4.9886,3.28821 -5.57714,2.4879 -1.38682,-1.88581 4.91848,-5.13373 7.26734,-9.857 7.26734,-14.6137 0,-3.63946 -1.28698,-4.95201 -2.66666,-2.71963 -1.09627,1.77379 -5.4165,1.19875 -7.39175,-0.98388 -2.34232,-2.58823 -3.35461,-9.74425 -1.79157,-12.66482 0.79077,-1.47758 2.4549,-2.33384 4.96322,-2.55377 l 3.77357,-0.33087 -2.94841,-4.53333 c -1.62162,-2.49333 -3.20115,-4.53005 -3.51007,-4.52604 -0.30891,0.004 -1.69835,1.67644 -3.08763,3.71651 -1.50494,2.20991 -4.86814,4.85514 -8.32036,6.54415 -11.31825,5.53751 -33.17056,4.38567 -44.67206,-2.35466 -2.57647,-1.50991 -5.152,-2.45634 -5.72342,-2.10319 -1.09442,0.67639 -7.55819,20.38015 -7.55819,23.03992 0,0.85264 2.63722,6.32334 5.86049,12.15712 3.22327,5.83377 6.11552,11.41041 6.42723,12.39252 0.31171,0.98211 1.51449,2.64335 2.67285,3.69165 2.25491,2.04066 2.78567,5.29612 1.03943,6.37535 -2.54959,1.57574 -0.27656,6.93334 2.94155,6.93334 0.79652,0 6.34052,-1.0109 12.32,-2.24644 z m 20.33935,-33.7699 c -2.18536,-1.42823 -5.72619,-8.20701 -5.73025,-10.97033 -0.005,-3.74144 1.86626,-5.28 6.42342,-5.28 5.36429,0 8.99078,3.93831 8.99078,9.76384 0,3.01805 -0.61347,4.75883 -2.0463,5.80654 -2.21558,1.62007 -5.72157,1.9322 -7.63765,0.67995 z m 7.23795,-3.9356 c 2.50177,-5.49079 -3.81212,-12.80026 -8.76647,-10.14877 -2.7592,1.47667 -2.69134,6.35946 0.13837,9.95686 2.87446,3.65427 7.00865,3.74623 8.6281,0.19191 z m -54.57218,18.41907 c 0,-5.00063 -3.9326,-14.7338 -5.95306,-14.7338 -1.72841,0 -6.84856,8.45052 -6.84283,11.29371 0.002,1.13665 2.19476,3.81236 4.9523,6.04383 5.81998,4.70969 7.84359,4.03794 7.84359,-2.60374 z m 70.80808,-28.77421 c 0.4772,-2.38601 0.15554,-3.94746 -1.09865,-5.33333 -2.31066,-2.55325 -2.94037,-2.47388 -4.57279,0.57632 -1.14568,2.14072 -1.07154,2.97184 0.47577,5.33333 2.45208,3.74235 4.37458,3.5291 5.19567,-0.57632 z m -35.85505,-33.47716 c 7.63702,-3.19095 13.02494,-10.9202 12.97672,-18.61576 l -0.0234,-3.73333 -1.42823,4.00216 c -3.19535,8.95396 -11.43785,15.66546 -19.27813,15.69732 -8.36052,0.034 -18.88455,-8.21309 -24.7492,-19.39452 -2.53331,-4.82996 -2.95092,-6.86168 -2.91291,-14.17163 0.0371,-7.13967 0.51695,-9.44792 2.93788,-14.13333 1.59142,-3.08 3.12295,-5.6 3.4034,-5.6 0.28044,0 1.53377,2.17818 2.78516,4.8404 2.6224,5.57893 8.15121,10.42168 18.00233,15.76845 9.96944,5.41099 18.09875,7.50587 29.33334,7.55903 10.92487,0.0517 17.62366,-2.25293 23.73333,-8.1651 4.30211,-4.16304 4.3286,-5.43502 0.17714,-8.50418 -3.13888,-2.32056 -3.25808,-2.68371 -2.60272,-7.92946 0.37775,-3.02364 0.29804,-5.72827 -0.17714,-6.01029 -0.47517,-0.28202 -2.84452,-0.84029 -5.26523,-1.24059 -3.80425,-0.6291 -4.80206,-0.3564 -7.35576,2.01029 -1.62496,1.50596 -3.13245,2.73811 -3.34997,2.73811 -0.21752,0 -3.789,-5.16 -7.93662,-11.46666 -5.9657,-9.07116 -8.68994,-12.19627 -13.04016,-14.95909 -5.77644,-3.66859 -7.47213,-3.10427 -4.46459,1.48581 2.63766,4.02558 1.23314,4.25656 -3.38092,0.556 -9.44244,-7.57301 -23.53672,-8.76144 -27.00696,-2.27725 -1.81598,3.3932 2.20115,10.66682 11.01661,19.94721 4.08758,4.30315 7.21989,8.03597 6.9607,8.29516 -0.25919,0.25919 -3.32946,-1.45697 -6.82282,-3.81368 -9.94849,-6.71153 -16.31728,-9.63767 -22.32634,-10.25786 -11.50291,-1.1872 -17.63872,5.42912 -18.45929,19.90488 -0.94645,16.69644 6.82421,29.19635 21.15965,34.03751 3.68446,1.24426 10.17722,4.66677 14.42837,7.60559 4.25114,2.93881 8.85061,5.79266 10.22103,6.34189 3.78931,1.51865 9.05744,1.31604 13.44472,-0.51708 z m 12.79427,-55.68243 c -0.9075,-1.02666 -3.14189,-4.24064 -4.96532,-7.14216 -5.49306,-8.74083 -3.68112,-12.3825 2.81509,-5.65784 3.50186,3.62502 7.9691,12.36031 7.06729,13.81946 -0.88011,1.42406 -3.17835,0.94756 -4.91706,-1.01946 z m -40.71718,-2.03245 c -1.70677,-0.9242 -5.48549,-1.68037 -8.39715,-1.68037 -3.41014,0 -4.77304,-0.32995 -3.83011,-0.92725 3.09426,-1.96008 10.29645,-1.06115 13.40432,1.67303 3.46547,3.04878 3.16617,3.28643 -1.17706,0.93459 z m 27.88163,50.28433 c 4.78467,-1.9212 9.31881,-7.93819 8.32987,-11.05407 -1.0443,-3.29029 -7.5851,-8.48216 -11.64563,-9.24392 -6.3955,-1.1998 -7.5384,-0.48074 -8.12933,5.11465 l -0.53333,5.05002 -4.8,-4.09408 c -6.80321,-5.80269 -8.92389,-6.76207 -12.19683,-5.5177 -3.11289,1.18352 -3.19316,1.42876 -1.51549,4.63001 2.57887,4.92091 7.94011,10.77499 12.53862,13.69128 5.51605,3.49818 11.58685,3.97966 17.95212,1.42381 z"
       id="path1" />
  </g>
</svg>
