<?xml version="1.0" encoding="UTF-8" standalone="no"?>
<!-- Created with Inkscape (http://www.inkscape.org/) -->

<svg
   width="210mm"
   height="297mm"
   viewBox="0 0 210 297"
   version="1.1"
   id="svg1"
   xml:space="preserve"
   inkscape:version="1.3 (0e150ed6c4, 2023-07-21)"
   sodipodi:docname="Mikey Frame 3.svg"
   xmlns:inkscape="http://www.inkscape.org/namespaces/inkscape"
   xmlns:sodipodi="http://sodipodi.sourceforge.net/DTD/sodipodi-0.dtd"
   xmlns="http://www.w3.org/2000/svg"
   xmlns:svg="http://www.w3.org/2000/svg"><sodipodi:namedview
     id="namedview1"
     pagecolor="#ffffff"
     bordercolor="#000000"
     borderopacity="0.25"
     inkscape:showpageshadow="2"
     inkscape:pageopacity="0.0"
     inkscape:pagecheckerboard="0"
     inkscape:deskcolor="#d1d1d1"
     inkscape:document-units="mm"
     inkscape:zoom="0.70110129"
     inkscape:cx="397.23219"
     inkscape:cy="560.54668"
     inkscape:window-width="1450"
     inkscape:window-height="1030"
     inkscape:window-x="113"
     inkscape:window-y="4"
     inkscape:window-maximized="0"
     inkscape:current-layer="layer1" /><defs
     id="defs1" /><g
     inkscape:label="Layer 1"
     inkscape:groupmode="layer"
     id="layer1"><path
       style="fill:#000000"
       d="m 32.545446,229.4948 c -1.754941,-0.82349 -2.233509,-1.60311 -2.232776,-3.63738 0.0011,-3.17076 2.049667,-5.22497 5.211655,-5.22612 1.27189,-4.6e-4 1.559045,-0.13471 1.833772,-0.85729 0.21186,-0.55724 0.65543,-0.89639 1.268831,-0.97014 0.851872,-0.10243 1.053001,-0.43757 2.079295,-3.46478 0.624909,-1.84327 1.410974,-3.88187 1.746812,-4.53022 l 0.610613,-1.17883 -1.436874,-1.22991 c -1.520713,-1.30168 -1.69995,-1.82159 -1.009257,-2.92757 0.23519,-0.37659 0.31952,-0.79282 0.187399,-0.92494 -0.669401,-0.6694 -5.00916,3.55188 -7.478419,7.27425 -3.111519,4.69057 -5.367268,7.57329 -7.321275,9.35618 -3.625939,3.30841 -8.80189,5.8027 -12.041295,5.8027 -1.614377,0 -4.818473,-1.18836 -4.818473,-1.78712 0,-0.3584 1.492533,-0.10823 2.534447,0.42481 0.905946,0.46348 3.79549,0.35595 5.662999,-0.21074 3.889577,-1.18028 8.841031,-4.81646 11.548904,-8.48111 2.394815,-3.24099 4.595313,-6.48289 4.595748,-6.77074 4.2e-4,-0.27698 0.50513,-0.93331 2.900301,-3.77161 0.635917,-0.75357 1.283789,-1.58812 1.439715,-1.85456 0.155926,-0.26645 0.909988,-0.80406 1.675694,-1.19469 1.572933,-0.80245 1.616599,-0.96666 0.815099,-3.06536 -0.754569,-1.97581 -1.399701,-1.93795 -1.628912,0.0956 -0.158135,1.40298 -0.915267,2.57102 -1.695318,2.61541 -0.74345,0.0423 -1.402882,-1.05312 -1.479813,-2.45822 l -0.08692,-1.5875 -2.998887,0.0833 c -2.699458,0.075 -3.104341,-7.3e-4 -4.055053,-0.7588 -1.045042,-0.83328 -1.049108,-0.84996 -0.386021,-1.58266 0.4413,-0.48763 1.103235,-0.74235 1.938387,-0.7459 0.697533,-0.003 1.442913,-0.12204 1.656401,-0.26459 0.732745,-0.48926 1.27014,-1.93365 1.077604,-2.89633 -0.153552,-0.76776 0.05194,-1.20686 1.011654,-2.16177 0.662391,-0.65906 1.211697,-1.43643 1.220682,-1.72747 0.05771,-1.86955 2.709171,-6.86408 3.825453,-7.20597 0.903373,-0.27668 5.28274,-0.88873 7.593886,-1.06131 1.135564,-0.0848 2.120302,-0.20981 2.188308,-0.27782 0.068,-0.068 -0.345154,-1.05305 -0.918133,-2.18898 -0.864514,-1.71391 -1.04178,-2.49509 -1.04178,-4.59091 0,-2.72571 -0.32558,-3.37223 -1.698218,-3.37223 -1.408343,0 -3.609533,-1.47075 -4.337859,-2.89838 -1.029017,-2.01704 -1.040516,-5.76211 -0.02275,-7.40889 1.096648,-1.77441 3.224885,-2.74551 6.01701,-2.74551 3.273083,0 4.95423,1.09597 5.734442,3.73839 0.396257,1.34204 0.580184,1.54349 1.355298,1.48443 0.890353,-0.0678 0.896795,-0.0915 0.893198,-3.28744 -0.0033,-2.96583 0.07965,-3.35329 1.054712,-4.92453 1.577682,-2.54232 2.609098,-3.17017 5.220619,-3.17795 1.203243,-0.004 2.663964,0.1952 3.246048,0.44174 1.243147,0.52652 2.635625,2.42314 2.971814,4.04776 0.342468,1.65496 -0.284125,4.35163 -1.254403,5.39858 -1.070284,1.15486 -1.055977,1.57069 0.05404,1.57069 1.125318,0 3.421027,1.50504 4.498441,2.94912 1.675952,2.24633 2.151341,3.76752 2.137707,6.84046 -0.01272,2.86772 -5.7e-5,2.91042 0.863382,2.91042 0.481961,0 1.404022,0.32615 2.049023,0.72479 1.123137,0.69413 1.243552,0.70074 2.847522,0.15617 1.705979,-0.57919 3.249172,-0.45765 3.72701,0.29354 0.144493,0.22715 0.265146,0.92335 0.268117,1.54711 0.0064,1.33839 -0.456431,1.65124 -3.489413,2.35878 -1.459048,0.34038 -2.468824,0.82897 -3.177191,1.53734 -0.571112,0.57111 -1.962611,1.37929 -3.092218,1.79596 -2.198724,0.81101 -3.956573,0.94601 -7.381138,0.56685 -1.837423,-0.20343 -2.185968,-0.15057 -2.382395,0.36131 -0.334144,0.87076 0.02661,1.24148 1.208121,1.24148 0.62034,0 1.860164,0.54692 3.065986,1.35249 2.8273,1.88883 4.781846,2.52807 7.729834,2.52807 1.918077,0 2.697025,0.15406 3.316945,0.65604 l 0.810183,0.65605 -0.931454,0.93145 c -0.80132,0.80132 -1.229415,0.93146 -3.064156,0.93146 -1.172987,0 -2.132703,0.14775 -2.132703,0.32832 0,0.18058 0.805059,1.0934 1.78902,2.02848 2.035794,1.93466 2.668218,3.12195 2.055923,3.85972 -0.995229,1.19918 -4.22126,-0.013 -4.919041,-1.84827 -0.46459,-1.22196 -1.310247,-1.09324 -1.124668,0.17119 0.302877,2.06363 -1.570291,4.20878 -3.296775,3.77546 -0.993412,-0.24933 -1.385433,-1.43569 -1.085385,-3.28466 0.21254,-1.30974 -0.196686,-2.20802 -1.005895,-2.20802 -0.294876,0 -0.494345,0.74341 -0.5916,2.20486 -0.09694,1.45672 -0.465468,2.83413 -1.086096,4.05938 l -0.939369,1.85452 0.729451,1.23633 c 0.943166,1.59854 0.670169,2.65249 -0.968791,3.74015 l -1.283622,0.85184 0.06251,4.22428 c 0.04864,3.28719 0.176678,4.28817 0.577166,4.51229 0.28306,0.15841 0.831952,0.6286 1.21976,1.04486 0.650131,0.69783 0.828882,0.72373 2.292709,0.33222 2.450064,-0.65529 4.491612,-0.54371 5.391515,0.29468 0.642685,0.59875 0.772076,1.10713 0.772076,3.03349 0,3.02864 -0.707863,4.5345 -2.413517,5.13437 -1.442272,0.50724 -11.015176,0.64424 -13.157362,0.1883 -0.705858,-0.15023 -1.714541,-0.70431 -2.241517,-1.23129 -0.857109,-0.85711 -0.941689,-1.15648 -0.802146,-2.83919 0.121434,-1.46434 0.364006,-2.07393 1.094989,-2.75173 0.516448,-0.47888 0.938997,-1.15716 0.938997,-1.50729 0,-0.82592 1.091578,-1.80429 2.013055,-1.80429 1.112443,0 1.423344,-0.65603 1.693295,-3.57298 0.349923,-3.7811 0.224019,-4.03898 -1.900267,-3.89205 -1.709085,0.11821 -1.735762,0.10398 -2.148464,-1.14653 -0.395785,-1.19924 -0.500425,-1.26622 -1.978033,-1.26622 -1.38832,0 -1.560142,0.0885 -1.560142,0.80345 0,0.4419 -0.256968,1.17032 -0.57104,1.61872 -0.487951,0.69665 -0.80877,0.79454 -2.204861,0.67279 -0.898602,-0.0784 -1.861717,-0.21148 -2.140257,-0.29581 -0.369352,-0.11182 -0.822353,0.80159 -1.673543,3.37446 -1.420988,4.29518 -1.451041,4.7625 -0.306265,4.7625 0.571345,0 1.483125,0.61798 2.684887,1.81974 1.809445,1.80945 1.818853,1.83045 1.662822,3.71197 -0.298311,3.59724 -3.084046,5.0243 -10.328132,5.29084 -3.310138,0.12179 -4.096761,0.0413 -5.351398,-0.54739 z m 10.214717,-0.97353 c 4.097252,-0.9319 6.057976,-3.62584 4.138526,-5.68613 -0.55078,-0.59119 -0.963396,-0.70805 -1.940277,-0.54953 -1.315869,0.21354 -1.621464,-0.19416 -0.711568,-0.9493 0.291042,-0.24155 0.529167,-0.57848 0.529167,-0.74875 0,-0.50759 -1.42016,-0.35093 -1.990675,0.21958 -0.722883,0.72288 -1.623487,0.66387 -2.691699,-0.17639 -0.829221,-0.65226 -2.020404,-0.95693 -2.020404,-0.51675 0,0.10384 0.256383,0.58009 0.56974,1.05833 l 0.569739,0.86953 H 36.21261 c -3.847919,0 -4.529937,0.45975 -4.753898,3.20459 -0.135685,1.66294 -0.04859,2.00995 0.671671,2.67619 1.354948,1.25332 6.481862,1.54205 10.62978,0.59863 z m 26.355728,-1.77197 c 1.162908,-0.68694 1.401395,-1.34771 1.408082,-3.90127 0.004,-1.5272 -0.124697,-1.90899 -0.757675,-2.24775 -0.729821,-0.39059 -3.495333,-0.28095 -6.645842,0.26348 -0.679097,0.11735 -1.121245,0.0921 -0.982551,-0.0562 0.319437,-0.34148 -0.329169,-1.58792 -0.826301,-1.58792 -0.205104,0 -0.776553,0.3175 -1.269885,0.70556 -1.073361,0.8443 -2.408237,0.9192 -2.702776,0.15164 -0.245921,-0.64086 -1.672424,-0.55736 -1.892446,0.11077 -0.07948,0.24134 0.265277,0.5946 0.766117,0.78502 1.344764,0.51128 1.106133,1.06923 -0.457296,1.06923 -1.637961,0 -2.210054,0.58464 -2.292758,2.34303 -0.09324,1.9824 0.622472,2.58755 3.486783,2.94814 3.823044,0.48129 10.941804,0.13975 12.166548,-0.58373 z M 49.644344,209.97686 c 0.462362,-0.46236 0.585097,-2.0453 0.15875,-2.04743 -0.445705,-0.002 -2.648004,-1.43702 -2.473523,-1.6115 0.09003,-0.09 0.606702,0.0662 1.148162,0.34707 0.541461,0.28091 2.589143,0.62468 4.550404,0.76393 2.820349,0.20024 3.399969,0.32732 2.77218,0.6078 -0.977038,0.43651 -1.038797,1.53259 -0.103088,1.82957 1.442133,0.45772 7.422193,-2.29163 7.422868,-3.41268 1.98e-4,-0.32735 -0.44796,-1.03703 -0.995905,-1.57705 l -0.996265,-0.98186 1.066489,-1.51304 c 1.36691,-1.93925 1.876042,-5.61422 1.028136,-7.42119 -0.297367,-0.63372 -0.674162,-1.23473 -0.837322,-1.33556 -0.16316,-0.10084 -1.13295,0.24044 -2.15509,0.75839 -4.503042,2.28187 -11.973596,1.11561 -14.865005,-2.32064 -0.492993,-0.58589 -1.025663,-1.06497 -1.18371,-1.06462 -0.35575,7.8e-4 -2.227636,2.92162 -2.227636,3.47594 0,0.23489 0.579948,0.40398 1.385506,0.40398 1.076602,0 1.548522,0.20724 2.116667,0.92952 0.402138,0.51124 0.73116,1.11941 0.73116,1.3515 0,0.81475 -1.656275,1.34306 -3.683526,1.17494 -2.262593,-0.18763 -2.276284,-0.12935 -0.705824,3.0045 l 0.850893,1.69796 -0.920769,1.81705 -0.920768,1.81705 1.190691,0.99667 c 0.654881,0.54817 1.587567,1.09406 2.072636,1.21309 0.48507,0.11904 1.260541,0.50972 1.72327,0.86819 0.950741,0.73652 3.208583,0.87046 3.850619,0.22842 z m 15.592779,-19.21187 c 0,-0.37522 -3.471961,-3.64813 -3.870001,-3.64813 -0.955431,0 0.0998,2.50586 1.393723,3.30966 0.893758,0.55522 2.476278,0.77152 2.476278,0.33847 z m -24.313212,-2.62062 c 1.448582,-1.56909 2.541037,-1.73177 2.730108,-0.40654 0.062,0.43458 0.322715,0.79014 0.579362,0.79014 0.510665,0 4.423186,-4.07102 4.423186,-4.60237 0,-0.30716 -5.578559,-0.14268 -7.231945,0.21323 -0.388056,0.0835 -1.221493,0.98529 -1.852083,2.0039 -2.061719,3.33036 -1.138175,4.69831 1.351372,2.00164 z m 19.958143,-2.27744 c 0.304127,-0.79254 -0.0054,-0.93505 -1.114876,-0.51324 -1.568435,0.59632 -3.163776,-0.13282 -4.481669,-2.04831 -1.543868,-2.24393 -1.752291,-4.89288 -0.607004,-7.71469 0.802637,-1.97757 1.428289,-2.10799 0.747778,-0.15587 -0.307543,0.88222 -0.194594,1.20664 0.938242,2.69489 2.671558,3.50973 5.448883,4.77292 10.636487,4.83773 4.917243,0.0614 8.094623,-1.33494 8.800781,-3.8677 0.285054,-1.0224 0.207095,-1.23067 -0.767668,-2.05088 -0.810491,-0.68198 -1.401796,-0.88562 -2.337518,-0.805 -1.214992,0.10468 -1.268347,0.0571 -1.778168,-1.58453 -0.430064,-1.38484 -0.449119,-1.97836 -0.104842,-3.26557 0.597161,-2.23272 0.535469,-2.80641 -0.473692,-4.40502 -0.992744,-1.57261 -2.732686,-2.7991 -3.973773,-2.80111 -2.619186,-0.004 -4.647235,3.04183 -4.653341,6.98923 -0.0036,2.32013 0.297568,3.22822 1.513243,4.56292 0.397631,0.43656 0.559143,0.79375 0.358915,0.79375 -0.200228,0 -1.530978,-1.19062 -2.957222,-2.64583 -2.44381,-2.49344 -3.528664,-3.11016 -4.03366,-2.29306 -0.119916,0.19403 -0.645222,0.35376 -1.167348,0.35495 -0.522125,0.001 -1.404028,0.23932 -1.959783,0.52917 -1.294667,0.67521 -2.561712,0.67424 -2.821276,-0.002 -0.111684,-0.29105 -0.463153,-0.52917 -0.781043,-0.52917 -0.366186,0 -0.504329,0.19193 -0.376986,0.52378 0.118147,0.30789 -0.08441,0.67654 -0.491423,0.89436 -0.523831,0.28035 -0.692419,0.74125 -0.692419,1.89302 0,2.86723 0.992804,4.7565 3.000058,5.709 0.603359,0.28632 1.706158,1.2493 2.450665,2.13997 2.101212,2.51372 6.559484,4.23971 7.127542,2.75938 z m -1.000256,-2.58286 c 0.062,-0.41432 -0.06061,-0.75332 -0.272466,-0.75332 -0.211858,0 -1.088341,-0.64813 -1.94774,-1.4403 -1.165154,-1.074 -1.746325,-1.38197 -2.285174,-1.21095 -1.374921,0.43638 -0.596521,2.51686 1.525558,4.07746 1.259103,0.92595 1.493777,0.98737 2.140612,0.5602 0.399564,-0.26387 0.777208,-0.81876 0.83921,-1.23309 z"
       id="path1" /></g></svg>
