<?xml version="1.0" encoding="UTF-8" standalone="no"?>
<!-- Created with Inkscape (http://www.inkscape.org/) -->

<svg
   width="210mm"
   height="297mm"
   viewBox="0 0 210 297"
   version="1.1"
   id="svg1"
   xml:space="preserve"
   inkscape:version="1.3 (0e150ed6c4, 2023-07-21)"
   sodipodi:docname="Mikey Frame 2.svg"
   xmlns:inkscape="http://www.inkscape.org/namespaces/inkscape"
   xmlns:sodipodi="http://sodipodi.sourceforge.net/DTD/sodipodi-0.dtd"
   xmlns="http://www.w3.org/2000/svg"
   xmlns:svg="http://www.w3.org/2000/svg"><sodipodi:namedview
     id="namedview1"
     pagecolor="#ffffff"
     bordercolor="#000000"
     borderopacity="0.25"
     inkscape:showpageshadow="2"
     inkscape:pageopacity="0.0"
     inkscape:pagecheckerboard="0"
     inkscape:deskcolor="#d1d1d1"
     inkscape:document-units="mm"
     inkscape:zoom="0.70110129"
     inkscape:cx="396.51902"
     inkscape:cy="561.25984"
     inkscape:window-width="1920"
     inkscape:window-height="1001"
     inkscape:window-x="-9"
     inkscape:window-y="-9"
     inkscape:window-maximized="1"
     inkscape:current-layer="layer1" /><defs
     id="defs1" /><g
     inkscape:label="Layer 1"
     inkscape:groupmode="layer"
     id="layer1"><path
       style="fill:#000000"
       d="m 33.341754,230.34371 c -2.796762,-0.66031 -4.007502,-2.73086 -3.245259,-5.54989 0.650422,-2.40548 1.632126,-3.27013 3.986855,-3.51148 1.576311,-0.16156 2.135112,-0.38324 2.545685,-1.00985 0.289325,-0.44156 0.984384,-0.90351 1.544576,-1.02655 0.928474,-0.20393 1.118667,-0.52636 2.151044,-3.64663 0.622881,-1.88261 1.337084,-3.89917 1.587117,-4.48125 0.431821,-1.0053 0.386075,-1.13354 -0.912783,-2.55889 -1.336803,-1.46699 -1.355363,-1.5238 -0.829805,-2.54012 0.751916,-1.45405 0.68602,-1.55486 -0.542505,-0.82997 -2.008377,1.18505 -5.484115,5.2006 -8.540887,9.86736 -4.00301,6.11139 -5.861235,7.96029 -10.004758,9.95459 -5.046541,2.42891 -8.419465,2.73389 -11.9478813,1.08031 -2.1650786,-1.01466 -1.3257416,-1.38032 1.2411763,-0.54072 3.759857,1.22978 7.920683,0.36457 12.437971,-2.5864 3.299132,-2.15518 5.140892,-4.25923 8.283574,-9.46324 1.407968,-2.33147 3.359241,-5.23895 4.336163,-6.46106 l 1.77622,-2.22202 -0.950129,-0.75761 c -0.887532,-0.70769 -0.933836,-0.88042 -0.702827,-2.62185 l 0.247302,-1.86426 -3.486138,0.24952 c -3.393685,0.2429 -3.513432,0.22582 -4.515281,-0.64406 -0.978859,-0.84992 -0.999177,-0.92402 -0.415849,-1.51647 0.337311,-0.34259 1.363767,-0.70977 2.281015,-0.81595 l 1.667722,-0.19305 0.597673,-2.63676 c 0.456254,-2.01285 0.830725,-2.83721 1.582609,-3.48396 0.772903,-0.66482 0.988962,-1.16041 1.003639,-2.30213 0.0324,-2.52062 1.973819,-5.03816 4.510087,-5.84847 1.355167,-0.43296 4.552193,-0.97639 7.271378,-1.23598 0.844661,-0.0806 1.604992,-0.21585 1.689624,-0.30048 0.08463,-0.0846 -0.261804,-0.92813 -0.769859,-1.87444 -0.808648,-1.5062 -0.900449,-2.00625 -0.73682,-4.01362 0.102804,-1.26118 0.29211,-2.80899 0.420679,-3.43958 l 0.233763,-1.14653 -1.715734,-0.005 c -0.943654,-0.003 -2.11261,-0.2294 -2.597679,-0.50341 -0.48507,-0.27402 -1.376444,-0.75585 -1.980832,-1.07073 -0.604388,-0.31487 -1.427597,-0.87874 -1.829353,-1.25303 -0.895149,-0.83396 -1.405535,-3.69889 -0.824658,-4.62903 0.22083,-0.3536 0.401509,-0.88273 0.401509,-1.17585 0,-0.89032 2.550523,-3.42792 4.166199,-4.14509 1.243557,-0.55199 1.950078,-0.6301 3.880556,-0.42904 1.298104,0.1352 2.651442,0.39772 3.007417,0.58339 0.800453,0.41748 1.645829,2.36791 1.645829,3.79722 0,1.09973 0.588557,1.36316 1.911425,0.85553 0.619381,-0.23768 0.755897,-1.38582 0.205242,-1.72615 -0.860261,-0.53167 0.01138,-4.53578 1.535901,-7.05555 0.86232,-1.42527 1.96628,-2.19457 3.886102,-2.70804 3.172373,-0.84848 7.157936,1.33962 7.804829,4.28491 0.262309,1.19428 -0.311106,4.08312 -0.987712,4.97602 -0.231585,0.30562 -0.857627,0.83982 -1.391203,1.1871 -1.21265,0.78927 -1.238907,1.25584 -0.07068,1.25584 1.312955,0 2.613014,0.78685 4.264678,2.58116 1.916361,2.08186 2.715555,4.49036 2.537226,7.64634 l -0.136032,2.40743 1.307073,0.20901 c 0.819943,0.13111 1.577475,0.55277 2.032619,1.13139 0.720126,0.91549 0.736185,0.91813 2.149343,0.35269 1.855498,-0.74242 2.927806,-0.72024 3.647899,0.0754 0.715463,0.79058 0.759789,2.29745 0.08408,2.85824 -0.274871,0.22812 -1.584559,0.58297 -2.910417,0.78854 -2.018277,0.31293 -2.598949,0.56715 -3.567506,1.56185 -1.500512,1.54102 -4.31379,2.3792 -8.027549,2.3917 l -2.834405,0.01 -0.783695,1.78153 c -1.009132,2.294 -0.99025,2.49056 0.290204,3.02094 1.35496,0.56124 1.616681,0.30149 0.859932,-0.85345 -0.37805,-0.57698 -0.515004,-1.23367 -0.374245,-1.7945 0.324937,-1.29465 1.975059,-1.18082 4.228987,0.29174 2.859842,1.86842 4.32006,2.30872 6.955144,2.0972 2.555053,-0.20509 3.841093,0.22802 3.841093,1.2936 0,0.96806 -2.864123,2.27849 -4.425983,2.02503 -0.663043,-0.10759 -1.299013,-0.0444 -1.413265,0.14049 -0.114253,0.18486 0.676589,1.18581 1.757425,2.22432 2.615763,2.51332 2.666344,4.09588 0.130911,4.09588 -0.395013,0 -1.360301,-0.64209 -2.145084,-1.42688 -1.540458,-1.54045 -2.532713,-1.63463 -2.17424,-0.20636 0.253718,1.01089 -0.616481,2.86673 -1.588001,3.38667 -1.93626,1.03626 -3.372645,-0.28174 -2.84698,-2.61233 0.193342,-0.8572 0.182001,-1.633 -0.02965,-2.02847 -0.583147,-1.08962 -0.887594,-0.71489 -0.915376,1.12669 -0.01997,1.32383 -0.376011,2.45562 -1.419365,4.51191 l -1.392707,2.74481 0.999214,0.91552 c 1.598984,1.46505 1.286266,2.90314 -0.865816,3.98161 -0.686664,0.34411 -0.726271,0.62575 -0.646901,4.59989 l 0.08455,4.23333 1.327834,1.3031 1.327835,1.3031 1.561552,-0.54182 c 1.794318,-0.62259 4.371563,-0.46389 5.152748,0.31729 1.256396,1.2564 0.847738,5.36782 -0.714004,7.18346 -1.12197,1.30437 -2.971371,1.49997 -9.678837,1.02371 -7.090498,-0.50346 -7.485856,-0.69838 -7.485856,-3.69074 0,-1.70554 0.159283,-2.27076 0.881945,-3.1296 0.485069,-0.57647 0.881944,-1.2915 0.881944,-1.58896 0,-0.67321 1.6451,-2.00315 2.477845,-2.00315 0.881631,0 1.928561,-3.9662 1.609157,-6.09614 l -0.235216,-1.56853 -2.014087,0.04 c -1.945892,0.0386 -2.017865,0.007 -2.125632,-0.9293 -0.11918,-1.03564 -1.036559,-1.48423 -2.586602,-1.26482 -0.670604,0.0949 -0.808447,0.29911 -0.719116,1.06525 0.07098,0.60873 -0.159373,1.21771 -0.643888,1.70222 -0.636757,0.63676 -0.984078,0.71373 -2.227182,0.4936 -2.919072,-0.5169 -2.772423,-0.62624 -4.064034,3.02997 -1.598786,4.52574 -1.598471,4.73677 0.0073,4.87042 1.910108,0.15899 3.887352,2.64436 4.094912,5.14726 0.133943,1.61517 0.04365,1.91346 -0.849591,2.80671 -1.349073,1.34907 -2.325993,1.80444 -5.317101,2.47846 -2.664464,0.60041 -6.16403,0.69398 -8.177315,0.21864 z m 9.613583,-1.76579 c 2.916736,-0.91205 4.101428,-1.9608 4.101428,-3.63082 0,-1.71394 -1.089988,-2.63966 -2.487118,-2.1123 -0.926604,0.34975 -1.04066,0.31883 -1.04066,-0.28211 0,-0.43289 0.245549,-0.67491 0.684736,-0.67491 0.981883,0 1.218718,-0.60604 0.406671,-1.04064 -1.001437,-0.53595 -1.298847,-0.47148 -2.359467,0.51147 -0.523398,0.48507 -1.138905,0.88195 -1.367793,0.88195 -0.228887,0 -0.789003,-0.39688 -1.244702,-0.88195 -0.455699,-0.48507 -1.197747,-0.88194 -1.648995,-0.88194 -1.002785,0 -1.028936,0.26177 -0.122538,1.22658 l 0.697912,0.7429 -2.640349,0.0505 c -3.335816,0.0638 -3.931507,0.26089 -4.580177,1.51528 -0.570139,1.10252 -0.692481,3.41599 -0.220046,4.16103 1.027319,1.62009 7.266626,1.83911 11.821098,0.41496 z m 24.033373,-0.69261 c 2.101843,-0.48503 3.351389,-2.04894 3.351389,-4.19453 0,-2.47744 -0.722243,-3.02525 -3.603412,-2.73314 -3.318918,0.3365 -3.870422,0.27732 -4.587381,-0.49225 -0.794883,-0.85321 -1.433702,-0.8865 -2.581341,-0.13454 -0.478243,0.31336 -0.871964,0.43242 -0.874935,0.26458 -0.003,-0.16783 -0.145699,-0.0836 -0.317173,0.18723 -0.410201,0.64782 -1.455931,0.23348 -1.69234,-0.67055 -0.101223,-0.38708 -0.255338,-0.70378 -0.342477,-0.70378 -0.488037,0 -1.523163,0.79426 -1.523163,1.16874 0,0.50729 1.214147,1.6265 1.856116,1.71099 0.240316,0.0316 -0.436186,0.15069 -1.503339,0.26458 -1.878797,0.20052 -1.950258,0.24747 -2.255254,1.48159 -0.173237,0.70098 -0.212318,1.68354 -0.08685,2.18345 0.290076,1.15576 0.987578,1.26868 12.043491,1.9498 0.388055,0.0239 1.340555,-0.10307 2.116666,-0.28217 z M 49.807303,209.69707 c 0.09369,-0.95587 -0.06399,-1.15017 -1.499305,-1.8475 -0.882206,-0.42861 -1.604011,-0.9401 -1.604011,-1.13665 0,-0.52454 0.384962,-0.4378 1.153976,0.26 0.53108,0.4819 1.54345,0.65756 4.613889,0.80057 3.391356,0.15797 3.804531,0.24006 2.997654,0.5956 -1.133622,0.49953 -1.399307,0.87528 -1.035312,1.46424 0.216761,0.35072 0.900555,0.28583 3.215016,-0.3051 5.046199,-1.28841 5.833191,-2.08423 4.077424,-4.12314 l -0.852353,-0.98981 -0.846078,0.79375 c -1.529662,1.43505 -1.445509,0.82935 0.147037,-1.05834 1.493713,-1.77053 3.109304,-4.91164 3.109304,-6.04525 0,-0.87442 -0.704458,-3.88218 -1.033274,-4.41169 -0.252651,-0.40685 -0.477346,-0.37207 -1.311501,0.20299 -1.978439,1.36394 -3.37598,1.69958 -7.003837,1.68208 -4.149416,-0.02 -5.765014,-0.48903 -7.731429,-2.24451 -2.687968,-2.39964 -2.490743,-2.36749 -3.704144,-0.60387 -0.598421,0.86977 -1.088038,1.9226 -1.088038,2.33962 0,0.64858 0.144175,0.72656 0.997047,0.53923 1.315726,-0.28898 2.707129,0.27134 3.435955,1.38367 0.469966,0.71726 0.502253,1.0044 0.159391,1.41753 -0.624755,0.75278 -2.621807,1.0278 -4.324696,0.59556 -0.813808,-0.20657 -1.526546,-0.32868 -1.583861,-0.27137 -0.234871,0.23487 1.114541,2.94574 2.062726,4.14386 1.199875,1.51616 1.24342,1.7062 0.336617,1.46906 -0.524047,-0.13704 -0.855164,0.16395 -1.438723,1.30782 l -0.758014,1.48583 0.975558,1.01826 c 0.612998,0.63984 1.336615,1.01827 1.94707,1.01827 0.534332,0 1.079314,0.17442 1.211071,0.38761 0.436018,0.70549 2.426332,1.36715 3.859026,1.28288 1.290885,-0.0759 1.420031,-0.174 1.515815,-1.1512 z m -9.24033,-7.36662 c 0.223514,-0.58247 -0.778346,-2.67767 -1.280379,-2.67767 -0.189045,0 -0.343718,0.71437 -0.343718,1.5875 0,1.36049 0.102476,1.5875 0.716628,1.5875 0.394145,0 0.802506,-0.2238 0.907469,-0.49733 z m -0.350331,-12.9497 c 0.58576,-0.54652 1.145941,-0.67264 2.625992,-0.59121 1.673431,0.0921 1.928208,0.0117 2.304909,-0.72707 0.232933,-0.45682 1.075299,-1.49471 1.871924,-2.30641 2.409547,-2.45515 2.463767,-2.43654 -4.637007,-1.59134 l -3.439584,0.40941 -0.0077,1.27752 c -0.0043,0.70263 -0.321761,1.96954 -0.705555,2.81535 -0.383795,0.8458 -0.697808,1.61708 -0.697808,1.71394 0,0.39014 1.988794,-0.35073 2.684877,-1.00019 z m 19.912442,-2.43843 c 0.808967,-0.43295 1.867759,-2.34107 1.444261,-2.60281 -0.163625,-0.10113 -0.748369,0.28674 -1.29943,0.86192 -1.157827,1.20851 -1.541919,1.26223 -3.245442,0.45385 -1.966538,-0.93318 -3.151127,-3.14018 -3.440583,-6.41011 -0.238941,-2.69928 0.283782,-6.91869 0.904662,-7.30241 0.15678,-0.0969 0.278772,0.63483 0.271094,1.62607 -0.01097,1.41676 0.219695,2.17811 1.078469,3.55959 0.600835,0.96654 1.092428,1.89324 1.092428,2.05933 0,0.16609 0.814676,1.01464 1.810391,1.88567 1.497895,1.31032 2.205341,1.6582 4.098464,2.01541 4.248717,0.80168 8.883956,-0.0431 10.811285,-1.97048 0.731252,-0.73125 0.738783,-3.11459 0.01214,-3.84123 -0.669854,-0.66986 -2.069952,-1.05931 -2.800468,-0.77898 -1.077008,0.41328 -1.003861,0.53622 -1.44093,-2.42175 -0.129578,-0.87695 -0.0023,-2.0054 0.336165,-2.98107 0.52443,-1.51162 0.512668,-1.63367 -0.316533,-3.28457 -1.043532,-2.07763 -1.554947,-2.61596 -3.061342,-3.22245 -3.003443,-1.20922 -5.749601,1.72509 -5.961544,6.36999 -0.07994,1.75185 0.389542,2.87466 1.930666,4.6174 0.386056,0.43657 0.540102,0.79375 0.342324,0.79375 -0.469289,0 -1.258943,-0.93187 -2.092572,-2.46944 -0.368187,-0.6791 -0.766343,-1.3141 -0.884791,-1.41111 -0.118447,-0.097 -0.478939,-0.69083 -0.801091,-1.3196 -0.609763,-1.1901 -1.575136,-1.96013 -2.987126,-2.38266 -0.723586,-0.21653 -0.7988,-0.15413 -0.593588,0.49243 0.205248,0.64668 0.09214,0.74038 -0.893673,0.74038 -0.620763,0 -1.663336,0.33045 -2.316828,0.73433 -0.920987,0.5692 -1.188168,0.62116 -1.188168,0.23107 0,-0.66441 0.981385,-1.49325 2.293056,-1.93662 0.891692,-0.30141 0.959031,-0.39873 0.42767,-0.61805 -0.362881,-0.14978 -1.304989,-0.003 -2.218793,0.3462 -3.316114,1.26644 -4.595673,3.25368 -4.310352,6.69428 0.229302,2.76508 1.235593,4.42223 3.399747,5.59868 1.254369,0.68188 1.981476,1.35421 2.306933,2.13313 1.13123,2.70742 5.263481,4.82629 7.293502,3.73986 z m -0.707577,-2.29166 c 0.572448,-0.29602 1.038692,-0.73258 1.036099,-0.97014 -0.0026,-0.23755 -1.022819,-1.26535 -2.267168,-2.28399 -2.538606,-2.07815 -4.078117,-2.46408 -4.078117,-1.02231 0,1.11345 1.333218,3.0277 2.794593,4.01252 1.41336,0.95247 1.221944,0.93238 2.514593,0.26392 z"
       id="path1" /></g></svg>
