<?xml version="1.0" encoding="UTF-8" standalone="no"?>
<!-- Created with Inkscape (http://www.inkscape.org/) -->

<svg
   width="210mm"
   height="297mm"
   viewBox="0 0 210 297"
   version="1.1"
   id="svg1"
   xml:space="preserve"
   inkscape:version="1.3 (0e150ed6c4, 2023-07-21)"
   sodipodi:docname="Mikey Frame 1.svg"
   xmlns:inkscape="http://www.inkscape.org/namespaces/inkscape"
   xmlns:sodipodi="http://sodipodi.sourceforge.net/DTD/sodipodi-0.dtd"
   xmlns="http://www.w3.org/2000/svg"
   xmlns:svg="http://www.w3.org/2000/svg"><sodipodi:namedview
     id="namedview1"
     pagecolor="#ffffff"
     bordercolor="#000000"
     borderopacity="0.25"
     inkscape:showpageshadow="2"
     inkscape:pageopacity="0.0"
     inkscape:pagecheckerboard="0"
     inkscape:deskcolor="#d1d1d1"
     inkscape:document-units="mm"
     inkscape:zoom="0.70110129"
     inkscape:cx="397.23219"
     inkscape:cy="561.25984"
     inkscape:window-width="1920"
     inkscape:window-height="1001"
     inkscape:window-x="-9"
     inkscape:window-y="-9"
     inkscape:window-maximized="1"
     inkscape:current-layer="layer1" /><defs
     id="defs1" /><g
     inkscape:groupmode="layer"
     id="layer2"
     inkscape:label="Layer 2" /><g
     inkscape:label="Layer 1"
     inkscape:groupmode="layer"
     id="layer1"><path
       style="fill:#000000"
       d="m 32.063709,230.03983 c -0.776111,-0.35305 -1.588213,-0.8655 -1.80467,-1.13878 -0.480278,-0.60637 -0.54849,-4.90661 -0.07783,-4.90661 0.185152,0 0.250059,-0.14009 0.144238,-0.31131 -0.227896,-0.36874 1.105605,-2.15813 1.608298,-2.15813 0.191396,0 0.24988,0.15875 0.129964,0.35278 -0.119916,0.19403 -0.04991,0.35278 0.155569,0.35278 0.205479,0 0.373598,-0.23813 0.373598,-0.52917 0,-0.38992 0.407066,-0.52917 1.546927,-0.52917 1.245916,0 1.655465,-0.16565 2.104713,-0.85129 0.306782,-0.46821 1.018584,-0.95249 1.581781,-1.07619 0.948039,-0.20823 1.14612,-0.56374 2.670412,-4.79285 l 1.646418,-4.56794 -1.278641,-1.12266 c -1.301415,-1.14266 -1.399215,-1.67666 -0.658101,-3.5933 0.218608,-0.56536 0.159783,-0.60514 -0.416267,-0.2815 -0.807808,0.45385 -5.464745,4.9458 -5.96252,5.75127 -4.155957,6.72498 -7.969937,11.38796 -10.78641,13.18749 -2.22861,1.42392 -6.251224,2.94823 -8.431165,3.19486 -1.699491,0.19227 -2.609206,0.0823 -4.591869,-0.55524 -1.3598759,-0.43726 -2.4725013,-0.95187 -2.4725013,-1.14359 0,-0.38909 1.0076198,-0.23352 3.8805553,0.59911 1.778379,0.51541 2.155999,0.51487 4.525575,-0.006 2.484877,-0.5467 6.089876,-2.19797 8.19271,-3.75266 1.560328,-1.1536 4.241349,-4.67318 6.862824,-9.00935 1.317852,-2.17985 3.18696,-4.94482 4.153573,-6.14438 l 1.757479,-2.18101 -0.947922,-0.69051 c -0.892515,-0.65015 -0.933807,-0.80348 -0.70645,-2.62318 l 0.241471,-1.93267 -3.394685,0.25451 c -2.848792,0.21358 -3.536813,0.16138 -4.278519,-0.3246 -1.735039,-1.13684 -0.790255,-2.67364 1.650614,-2.68492 0.643346,-0.003 1.347071,-0.12203 1.563832,-0.26458 0.216762,-0.14255 0.507489,-1.33335 0.64606,-2.64621 0.227304,-2.15356 0.350465,-2.43798 1.259211,-2.90791 1.33199,-0.6888 1.468958,-0.9632 1.603013,-3.21145 0.111523,-1.87036 0.941563,-3.57173 2.258263,-4.62886 0.813124,-0.65283 2.949644,-1.17191 7.02569,-1.70693 2.016133,-0.26464 3.757746,-0.57321 3.870252,-0.68572 0.112505,-0.1125 0.0141,-0.47475 -0.218677,-0.80499 -0.232778,-0.33025 -0.647085,-1.09594 -0.920684,-1.70155 -0.677423,-1.49948 -0.357285,-5.61783 0.535658,-6.89085 0.361254,-0.51502 0.65674,-0.99127 0.656636,-1.05834 -1.04e-4,-0.0671 -1.239967,-0.12597 -2.755251,-0.13091 -2.617662,-0.009 -2.844195,-0.0744 -4.542307,-1.32095 -2.172474,-1.59474 -2.751925,-2.82052 -2.410283,-5.09875 0.674659,-4.49895 3.177287,-6.44771 8.280269,-6.44771 3.398457,0 4.10405,0.57467 4.463793,3.63552 0.131143,1.11582 0.367822,2.10873 0.525954,2.20646 0.158132,0.0977 0.850125,-0.0574 1.537763,-0.3447 1.273159,-0.53196 1.562765,-1.1631 0.857377,-1.86848 -0.243632,-0.24364 -0.342976,-1.38103 -0.261517,-2.99413 0.119802,-2.37244 0.252947,-2.7669 1.513605,-4.48426 2.055045,-2.79953 3.933833,-3.38228 7.494938,-2.32475 1.393377,0.41379 1.994462,0.83872 2.770555,1.95863 1.943801,2.8049 1.346989,7.07182 -1.107751,7.91988 -1.160498,0.40093 -1.593557,1.5732 -0.595615,1.6123 0.563112,0.0221 0.5551,0.0616 -0.07273,0.35859 -0.523737,0.24777 -0.296464,0.29515 0.881944,0.18385 0.873125,-0.0825 1.309688,-0.0734 0.970139,0.0201 -0.339549,0.0935 -0.617361,0.3171 -0.617361,0.4969 0,0.46249 0.838202,0.40593 1.334152,-0.09 0.320721,-0.32072 0.743533,-0.0736 1.832297,1.07093 2.292761,2.41019 2.884754,3.9683 2.850417,7.50221 l -0.02955,3.04092 1.373793,0.21968 c 0.92361,0.14769 1.563713,0.50953 1.953362,1.10421 0.670184,1.02283 1.214194,1.07759 3.342479,0.33642 1.415739,-0.49303 1.599492,-0.48804 2.204862,0.0598 0.860293,0.77855 0.887184,2.81363 0.04305,3.25769 -0.339548,0.17862 -1.623672,0.43955 -2.853609,0.57986 -1.843876,0.21034 -2.394891,0.43315 -3.140402,1.26986 -1.483211,1.66465 -4.322838,2.5668 -8.1171,2.5788 -3.067952,0.01 -3.263195,0.0543 -3.263195,0.7451 0,0.63377 0.171887,0.7147 1.250454,0.58878 0.961025,-0.11219 1.716321,0.1327 3.263195,1.05805 3.403131,2.03576 3.7636,2.14703 7.089891,2.18855 3.432473,0.0428 4.384938,0.44066 3.707946,1.54869 -0.583576,0.95513 -2.646108,1.84122 -4.28718,1.84182 -0.824618,3.1e-4 -1.499305,0.11501 -1.499305,0.25491 0,0.13989 0.893877,1.15765 1.986393,2.26169 1.647955,1.66533 1.949141,2.15576 1.767748,2.87849 -0.426164,1.69797 -2.809163,1.29841 -4.542606,-0.76167 -1.146868,-1.36297 -1.754396,-1.41206 -1.670186,-0.13495 0.101846,1.54457 0.03998,1.73761 -0.924098,2.88335 -1.842539,2.18973 -4.251601,1.014 -3.62614,-1.76971 0.204879,-0.91186 0.18584,-1.64934 -0.05416,-2.09778 -0.55215,-1.0317 -0.949787,-0.8356 -0.771319,0.38039 0.199772,1.36113 -0.595576,4.28406 -1.083641,3.98242 -0.201338,-0.12444 -0.257552,-0.0535 -0.126126,0.15915 0.130408,0.21101 -0.162563,1.09952 -0.651048,1.97448 -0.812272,1.45492 -1.204409,2.77085 -0.664932,2.23138 0.289951,-0.28996 1.372973,1.11906 1.621551,2.10964 0.199811,0.79624 -0.591709,1.76906 -2.048684,2.51795 -0.65473,0.33653 -0.707182,0.57689 -0.490779,2.24895 0.133264,1.02968 0.16379,2.86199 0.06783,4.07181 l -0.174465,2.19968 1.498847,1.45458 c 1.397643,1.35637 1.557817,1.42302 2.372225,0.98716 0.480359,-0.25708 1.825518,-0.47274 2.989243,-0.47925 1.805776,-0.0101 2.214798,0.11021 2.790935,0.82099 0.9832,1.21297 0.91478,4.36745 -0.134968,6.22273 -1.250955,2.21087 -2.371909,2.4457 -9.501122,1.99037 -6.350454,-0.40558 -7.80468,-0.814 -8.391196,-2.35666 -0.47129,-1.23958 0.13831,-4.07078 1.032385,-4.79476 0.405151,-0.32807 0.736638,-0.91671 0.736638,-1.30809 0,-0.81742 1.554977,-2.17392 2.491987,-2.17392 0.906918,0 1.881844,-3.4937 1.61306,-5.78048 -0.111419,-0.94794 -0.272,-1.79295 -0.356844,-1.8778 -0.08484,-0.0848 -0.685088,-0.0147 -1.333872,0.15587 -1.709735,0.44951 -2.413644,0.1857 -2.64937,-0.99293 -0.189884,-0.94941 -0.326216,-1.02966 -1.749336,-1.02966 -1.530493,0 -1.543403,0.0104 -1.543403,1.24229 0,1.68297 -1.095968,2.20887 -3.553954,1.70535 -1.232393,-0.25245 -1.841674,-0.24577 -2.05833,0.0226 -0.380151,0.47085 -2.501605,6.53609 -2.501605,7.1521 0,0.24617 0.436563,0.54474 0.970139,0.66348 0.533577,0.11874 1.22302,0.2833 1.532097,0.36569 0.680092,0.18127 2.603341,3.11258 2.923595,4.45597 0.372451,1.56234 -0.564187,3.25134 -2.399506,4.3269 -0.893156,0.52343 -1.868331,0.8579 -2.167056,0.74326 -0.310513,-0.11915 -0.450825,-0.0591 -0.327605,0.14032 0.118542,0.19181 -0.04133,0.34874 -0.355275,0.34874 -0.313943,0 -0.478505,-0.14935 -0.365692,-0.33188 0.1223,-0.19789 -0.332195,-0.24895 -1.125708,-0.12646 -1.753868,0.27073 -1.903157,0.4487 -0.41948,0.50008 l 1.205325,0.0417 -1.058334,0.2693 c -2.150482,0.54721 -6.975717,0.3736 -8.466667,-0.30461 z m 6.173611,-0.40094 c -0.756494,-0.24227 -0.673965,-0.28745 0.580202,-0.31761 2.115518,-0.0509 6.073073,-1.36471 7.048232,-2.33986 0.994455,-0.99446 1.116839,-2.79995 0.254391,-3.75295 -0.635087,-0.70176 -1.714389,-0.85479 -2.061991,-0.29236 -0.368695,0.59656 -0.881944,0.39126 -0.881944,-0.35278 0,-0.47037 0.235185,-0.70555 0.705555,-0.70555 0.391975,0 0.705556,-0.23519 0.705556,-0.52917 0,-0.79126 -1.883779,-0.66567 -2.645834,0.17639 -0.852543,0.94205 -1.644729,0.88924 -2.645833,-0.17639 -0.898566,-0.95648 -2.116667,-1.18122 -2.116667,-0.39052 0,0.27028 0.238125,0.5828 0.529167,0.69448 0.291041,0.11169 0.529166,0.40766 0.529166,0.65772 0,0.343 -0.678403,0.42386 -2.762287,0.32922 -2.497618,-0.11342 -2.850532,-0.0461 -3.683267,0.70294 -0.871757,0.78411 -1.186427,2.10825 -1.012089,4.25891 0.05932,0.73179 1.751729,1.66873 3.118597,1.72649 l 0.987657,0.0417 -1.058333,0.2693 c -0.720248,0.18327 -0.04408,0.2714 2.116667,0.27587 2.08035,0.004 2.870931,-0.0908 2.293055,-0.27587 z m 30.555534,-2.91958 c 1.023832,-1.1172 1.194468,-1.55495 1.194468,-3.06433 0,-2.31936 -0.948549,-3.0537 -3.446494,-2.66819 -0.917831,0.14165 -2.205873,0.25113 -2.862314,0.24329 -0.656441,-0.008 -1.429402,0.22162 -1.717692,0.50991 -0.288289,0.28829 -0.613742,0.43458 -0.723229,0.3251 -0.109488,-0.10949 -0.01121,-0.38693 0.218386,-0.61653 1.266235,-1.26623 -0.386063,-2.04741 -2.108897,-0.99705 -1.528313,0.93176 -2.774541,0.93803 -3.015877,0.0152 -0.196194,-0.75025 -0.417218,-0.83329 -1.308087,-0.49143 -0.883936,0.3392 -0.65418,1.06611 0.588509,1.86195 l 1.146528,0.73426 -1.835502,0.006 c -1.818903,0.006 -1.838824,0.0179 -2.202894,1.32886 -0.50583,1.82141 -0.473532,2.10266 0.334229,2.91042 0.493177,0.49317 1.209954,0.71614 2.38125,0.74072 1.160415,0.0243 1.425172,0.10571 0.860992,0.26458 -0.448086,0.12618 1.911592,0.22296 5.243727,0.21507 l 6.058429,-0.0143 z M 49.451142,209.70694 c 0.08956,-0.93545 -0.08452,-1.15618 -1.499305,-1.9011 -0.880345,-0.46353 -1.600627,-0.97946 -1.600627,-1.14653 0,-0.43954 0.202022,-0.38527 1.490779,0.40048 0.945297,0.57635 1.779679,0.70448 4.594638,0.70556 3.292269,0.001 4.432843,0.38109 2.557639,0.85174 -0.872205,0.21891 -1.188757,1.03498 -0.553708,1.42747 0.390062,0.24107 5.428722,-1.08909 6.815513,-1.79923 1.093913,-0.56016 1.228379,-1.36409 0.420969,-2.51683 -0.639291,-0.91272 -1.301387,-1.0006 -1.920274,-0.25489 -0.241543,0.29104 -0.69091,0.52917 -0.998592,0.52917 -0.368278,0 -0.05803,-0.51228 0.908005,-1.49931 0.807084,-0.82462 1.888451,-2.4518 2.403037,-3.61597 0.782462,-1.77019 0.89954,-2.4259 0.71525,-4.00585 -0.181693,-1.55767 -0.605484,-2.91682 -1.093848,-3.50811 -0.04798,-0.0581 -0.669502,0.2895 -1.381152,0.77244 -1.803363,1.22379 -4.736703,1.76117 -8.088067,1.4817 -3.327399,-0.27746 -4.436408,-0.70959 -6.745667,-2.62847 -0.966582,-0.80317 -1.878399,-1.46032 -2.02626,-1.46032 -0.457505,0 -2.42056,2.93335 -2.314117,3.45794 0.06349,0.31289 0.673851,0.53807 1.65519,0.61066 1.080903,0.0799 1.821586,0.38197 2.430761,0.99114 1.643027,1.64303 -0.05656,2.93175 -3.368013,2.55381 -1.018646,-0.11626 -1.852084,-0.13383 -1.852084,-0.0391 0,0.4574 1.16458,3.00883 1.373355,3.00883 0.231509,0 1.448868,1.87054 1.448868,2.22627 0,0.0974 -0.277813,0.10723 -0.617361,0.0218 -0.637084,-0.16027 -1.852084,1.51903 -1.852084,2.55985 0,0.7755 1.753036,2.24762 2.676527,2.24762 0.445286,0 0.917413,0.17442 1.04917,0.38761 0.436018,0.70549 2.426332,1.36715 3.859026,1.28288 1.288417,-0.0758 1.419921,-0.17501 1.512432,-1.14133 z m -9.147096,-7.13017 c 0.244429,-0.43677 0.127299,-0.97273 -0.423443,-1.93756 -0.418736,-0.73358 -0.880401,-1.335 -1.025921,-1.33649 -0.464707,-0.005 -0.29734,3.45304 0.176389,3.6442 0.751728,0.30333 0.924133,0.2532 1.272975,-0.37015 z M 39.70289,189.36438 c 0.580272,-0.40138 1.560442,-0.64771 2.577238,-0.64771 1.546699,0 1.770524,-0.12969 3.901396,-2.26057 2.879495,-2.87949 2.660158,-3.18469 -2.080656,-2.8952 -4.641311,0.28343 -4.84389,0.41249 -5.755771,3.66716 -0.991462,3.53871 -0.893191,3.69333 1.357793,2.13632 z m 23.581654,0.21995 c 0,-0.10487 -0.344908,-0.65719 -0.766463,-1.22737 -0.569212,-0.7699 -0.881573,-0.94117 -1.213753,-0.66548 -0.246009,0.20417 -0.355269,0.61102 -0.242799,0.90411 0.254615,0.66352 2.223015,1.53901 2.223015,0.98874 z m 6.960011,-0.0225 c -0.117225,-0.11722 -0.421495,-0.12975 -0.676157,-0.0279 -0.281422,0.11262 -0.197829,0.19621 0.213137,0.21314 0.371886,0.0153 0.580246,-0.0681 0.46302,-0.18529 z m -9.57212,-3.12471 c 0.213849,-0.29246 0.452494,-0.46806 0.530323,-0.39023 0.07783,0.0778 0.141508,-0.24214 0.141508,-0.71104 0,-1.07163 -0.194215,-1.06749 -1.377774,0.0294 -1.165734,1.08036 -1.755188,1.09408 -3.540393,0.0824 -2.702271,-1.5314 -3.885501,-5.96351 -2.973816,-11.13923 0.483733,-2.7462 1.231913,-3.13976 1.207144,-0.63499 -0.01496,1.51303 0.210209,2.18042 1.356967,4.0219 1.968183,3.16055 3.928682,4.8547 6.175579,5.33657 2.482439,0.53239 5.134887,0.49425 7.45341,-0.10716 1.060669,-0.27514 1.990407,-0.43833 2.066084,-0.36265 0.181688,0.18169 -1.60618,0.85521 -2.364472,0.89074 -0.406728,0.0191 -0.446989,0.0868 -0.127517,0.21442 0.674634,0.2696 3.769598,-0.97162 3.239559,-1.2992 -0.305251,-0.18866 -0.216327,-0.41134 0.312047,-0.78143 0.82804,-0.57998 1.289374,-2.2852 0.966393,-3.57206 -0.285296,-1.13671 -2.140575,-1.9388 -3.099442,-1.33998 -0.373677,0.23337 -0.813152,0.34165 -0.97661,0.24062 -0.637133,-0.39377 -0.76023,-3.87708 -0.202888,-5.7412 0.527396,-1.76396 0.518799,-1.90781 -0.197977,-3.31281 -1.24443,-2.43928 -2.594042,-3.48621 -4.494138,-3.48621 -2.210928,0 -4.141922,2.67691 -4.467249,6.19287 -0.170153,1.83894 -0.08327,2.20138 0.892046,3.72128 0.594308,0.92615 1.268745,1.75136 1.498748,1.83381 0.230003,0.0824 0.329235,0.24735 0.220515,0.36646 -0.431002,0.47221 -1.691331,-0.90908 -3.272236,-3.5863 -1.609642,-2.72588 -2.817418,-3.94201 -3.914941,-3.94201 -0.326625,0 -0.452468,0.20337 -0.327447,0.52917 0.155596,0.40547 -0.07376,0.52947 -0.98121,0.53048 -0.651349,7.3e-4 -1.718113,0.32678 -2.370585,0.72457 -0.652473,0.39778 -1.251522,0.65804 -1.331221,0.57834 -0.374913,-0.37491 0.434833,-1.3972 1.590364,-2.00781 1.272941,-0.67264 1.27456,-0.67643 0.295755,-0.69194 -1.318232,-0.0209 -3.4871,1.12398 -4.57211,2.41344 -1.198064,1.42382 -1.549447,4.24839 -0.794647,6.38773 0.670771,1.90116 1.884515,3.23865 3.669419,4.04353 0.935649,0.42192 1.451838,0.95115 1.760626,1.80508 1.04339,2.88545 6.606857,5.08262 8.010186,3.16345 z m -1.001654,-1.60104 c -0.01431,-0.097 0.09816,-0.46105 0.249949,-0.80896 0.151787,-0.34792 0.216678,-0.66757 0.144201,-0.71034 -0.07248,-0.0428 -1.035086,-0.90904 -2.139131,-1.92506 -2.30899,-2.12489 -3.813479,-2.49883 -3.813479,-0.94784 0,1.59574 1.680933,3.97005 3.175,4.48466 0.64367,0.22171 2.419653,0.15281 2.38346,-0.0925 z"
       id="path1" /></g></svg>
