<?xml version="1.0" encoding="UTF-8" standalone="no"?>
<!-- Created with Inkscape (http://www.inkscape.org/) -->

<svg
   version="1.1"
   id="svg1"
   width="793.59998"
   height="1122.1333"
   viewBox="0 0 793.59998 1122.1333"
   sodipodi:docname="Mikey Frame 3.png"
   xmlns:inkscape="http://www.inkscape.org/namespaces/inkscape"
   xmlns:sodipodi="http://sodipodi.sourceforge.net/DTD/sodipodi-0.dtd"
   xmlns="http://www.w3.org/2000/svg"
   xmlns:svg="http://www.w3.org/2000/svg">
  <defs
     id="defs1" />
  <sodipodi:namedview
     id="namedview1"
     pagecolor="#ffffff"
     bordercolor="#000000"
     borderopacity="0.25"
     inkscape:showpageshadow="2"
     inkscape:pageopacity="0.0"
     inkscape:pagecheckerboard="0"
     inkscape:deskcolor="#d1d1d1" />
  <g
     inkscape:groupmode="layer"
     inkscape:label="Image"
     id="g1">
    <path
       style="fill:#000000"
       d="m 347.01815,708.96145 c -3.03335,-1.45826 -6.03335,-3.61961 -6.66667,-4.80297 -0.63332,-1.18337 -1.15149,-5.23216 -1.15149,-8.9973 0,-5.35416 0.52845,-7.62988 2.42538,-10.44474 3.60168,-5.34453 8.31905,-8.04927 15.29444,-8.76919 5.19543,-0.53622 6.52796,-1.13305 8.68586,-3.89033 1.40192,-1.79132 3.41538,-3.25694 4.47435,-3.25694 2.72538,0 3.6042,-1.43765 7.4985,-12.26667 1.89878,-5.28 4.67733,-12.38539 6.17456,-15.78976 l 2.72222,-6.18975 -4.97099,-5.04688 c -5.08066,-5.15823 -5.82125,-7.25847 -3.85499,-10.93244 1.78525,-3.33577 0.17923,-4.42777 -3.41906,-2.32477 -4.63777,2.71052 -17.9204,16.89181 -23.32146,24.89934 -16.0817,23.84244 -27.29232,36.72524 -38.92,44.72529 -7.95345,5.47212 -22.27962,11.80696 -29.49725,13.04329 -6.03197,1.03323 -7.69758,0.90015 -14.46671,-1.15591 -7.32349,-2.22445 -9.81995,-3.78886 -8.36615,-5.24266 0.36978,-0.36978 3.26112,0.20764 6.42521,1.28314 7.31508,2.48648 18.78926,1.85657 27.61748,-1.51614 9.40489,-3.59301 23.8537,-13.80353 32.7534,-23.14579 4.36987,-4.58716 11.91152,-14.34029 16.75924,-21.67362 12.67232,-19.16993 24.42414,-33.71858 29.76461,-36.8483 2.4811,-1.45402 4.8109,-3.12877 5.17733,-3.72166 0.88989,-1.43987 -2.4085,-11.20244 -4.32118,-12.78982 -1.68574,-1.39905 -2.47718,-0.005 -4.69856,8.27571 -2.75186,10.25823 -10.73623,7.32737 -10.73623,-3.941 v -4.12468 l -12.24524,-0.35846 c -11.48565,-0.33622 -12.41466,-0.52805 -14.97637,-3.0924 -1.62828,-1.62996 -2.47469,-3.40221 -2.09608,-4.38885 0.83112,-2.16587 5.13052,-4.07721 9.17134,-4.07721 1.77096,0 4.09789,-0.46986 5.17094,-1.04415 2.31743,-1.24025 4.30874,-6.44669 4.30874,-11.26554 0,-2.44549 1.21308,-4.92601 4.1429,-8.4715 2.27859,-2.75741 4.40837,-6.64937 4.73283,-8.6488 0.7554,-4.65501 6.45715,-16.2587 10.14287,-20.64187 3.35566,-3.99065 5.92371,-4.69032 25.74396,-7.01393 7.89941,-0.92608 14.50366,-1.82487 14.67611,-1.99731 0.17244,-0.17245 -1.19301,-3.6293 -3.03435,-7.68188 -2.61053,-5.7455 -3.51251,-9.52813 -4.09533,-17.17457 -0.78469,-10.29495 -2.02126,-13.11181 -5.77293,-13.15054 -6.95051,-0.0717 -16.66036,-8.19711 -18.73859,-15.68075 -1.42036,-5.11471 -1.43827,-14.6127 -0.0371,-19.65747 1.34328,-4.83613 8.00556,-11.03641 13.49742,-12.56142 5.73955,-1.59378 17.90171,-1.41728 21.97642,0.31893 4.69134,1.99896 7.95432,5.79506 10.30568,11.98949 1.7306,4.5591 2.36165,5.21465 5.01975,5.21465 h 3.04031 l 0.55612,-12.27948 c 0.47288,-10.4416 0.93732,-12.91617 3.1031,-16.53334 3.34752,-5.59087 7.39432,-9.95583 10.95448,-11.81574 3.31615,-1.73244 14.62431,-1.99502 19.96414,-0.46358 13.42538,3.85035 17.6103,24.28513 7.58387,37.03167 -1.18894,1.51149 -2.16171,3.06388 -2.16171,3.44975 0,0.38588 2.04179,1.24769 4.53732,1.91514 8.91096,2.38332 18.00508,11.45114 21.54411,21.4818 0.80395,2.27865 1.80635,9.00392 2.22756,14.94505 0.63296,8.92803 1.06583,10.80387 2.49508,10.81248 0.9511,0.006 4.33433,1.22306 7.51829,2.70518 l 5.78904,2.69475 7.32153,-1.88607 c 6.60175,-1.70065 7.60559,-1.72736 10.21097,-0.27166 2.22029,1.24054 2.96754,2.5572 3.22672,5.68553 0.46621,5.62711 -1.54203,7.41583 -11.51376,10.25515 -5.51582,1.57056 -10.29385,3.80278 -13.83482,6.46342 -2.97498,2.23535 -8.16448,5.15377 -11.53222,6.48537 -5.46661,2.16149 -7.7603,2.40071 -21.3916,2.23107 l -15.26845,-0.19002 0.33511,2.8845 c 0.29064,2.50162 0.96012,2.99045 5.04384,3.68274 2.58979,0.43904 6.46238,1.95878 8.60576,3.3772 6.33474,4.19213 16.41189,8.98574 20.3514,9.68097 2.0171,0.35597 7.88579,1.05687 13.04153,1.55756 11.19828,1.08749 14.88881,3.23878 11.70122,6.82091 -2.85943,3.21336 -8.11546,5.01298 -14.64104,5.01298 -4.08652,0 -5.90093,0.42024 -5.90093,1.36672 0,0.7517 2.85501,4.19194 6.34445,7.64497 10.1224,10.01678 10.9479,15.52654 2.32495,15.51766 -4.95614,-0.005 -10.28743,-3.26738 -13.0831,-8.00568 -2.96622,-5.02737 -4.90197,-4.82421 -4.16239,0.43683 0.37688,2.68096 -3.28019,10.73798 -5.61682,12.37462 -3.31237,2.32008 -8.9485,2.0657 -10.30289,-0.465 -0.60731,-1.13476 -1.11154,-5.09476 -1.12053,-8.8 -0.0178,-7.3476 -1.04331,-10.04371 -3.46655,-9.11382 -1.02528,0.39343 -1.99193,3.48134 -2.80343,8.95543 -0.68121,4.59521 -2.57912,11.23494 -4.21757,14.75494 l -2.97901,6.4 2.61074,5.05086 c 2.28605,4.42271 2.44906,5.44118 1.31072,8.18937 -0.71501,1.72618 -3.22043,4.40938 -5.5676,5.96266 l -4.26758,2.82416 0.36497,15.37239 0.36498,15.37239 4.47826,4.47666 4.47826,4.47666 5.46978,-1.26258 c 3.00838,-0.69442 8.33498,-1.26258 11.83689,-1.26258 5.33792,0 6.79032,0.42321 8.98529,2.61819 2.34543,2.34542 2.61191,3.48443 2.55798,10.93333 -0.0716,9.89437 -1.59334,14.83101 -5.45367,17.69254 -6.19153,4.58957 -52.06956,4.64066 -58.19842,0.0648 -5.63413,-4.20649 -6.99305,-7.07757 -6.17279,-13.04161 0.42362,-3.08005 1.8603,-6.9545 3.3085,-8.92235 1.40785,-1.91303 3.33316,-5.14162 4.27846,-7.17464 2.04496,-4.39799 4.37206,-6.35681 7.60687,-6.40301 3.97991,-0.0568 5.7304,-4.27488 6.39465,-15.4088 0.74387,-12.4683 0.18492,-13.42512 -7.84264,-13.42512 -5.71781,0 -5.75278,-0.0202 -7.47229,-4.31769 -1.72539,-4.31217 -1.73436,-4.31728 -7.02905,-4 -5.10697,0.30603 -5.3534,0.46933 -6.71732,4.45124 -0.77873,2.27345 -1.95983,4.67345 -2.62468,5.33333 -0.68362,0.67851 -4.75096,1.19978 -9.36157,1.19978 h -8.15276 l -3.99261,11.2 c -2.19593,6.16 -4.01912,12.72278 -4.05154,14.58395 -0.0506,2.90842 0.43927,3.54836 3.48637,4.554 1.94992,0.64353 6.26992,3.89467 9.6,7.22475 5.45749,5.45749 6.0547,6.50071 6.0547,10.57656 0,15.37993 -10.40735,21.20452 -40,22.38645 -13.16996,0.52601 -14.14377,0.42062 -19.38184,-2.09757 z m 42.30692,-4.40474 c 7.08318,-2.24828 14.94158,-9.43678 14.94158,-13.66787 0,-1.49885 -1.24266,-4.20201 -2.76148,-6.00702 -2.31509,-2.75133 -3.52209,-3.28184 -7.46667,-3.28184 -5.33828,0 -5.63223,-0.4757 -2.41206,-3.90341 2.00489,-2.13411 2.07752,-2.52365 0.57782,-3.09913 -0.94341,-0.36203 -3.85895,0.41237 -6.47897,1.72087 l -4.76368,2.3791 -4.80409,-2.81538 c -7.04277,-4.12734 -10.10985,-3.67099 -6.59145,0.98075 0.86134,1.13879 1.58134,2.35838 1.59999,2.71019 0.0187,0.35182 -4.80716,0.95692 -10.72405,1.34467 -14.98488,0.98202 -16.17116,1.82614 -17.49446,12.44847 -0.88027,7.06618 0.79834,9.83377 7.45244,12.28711 5.95144,2.19428 30.75911,1.49545 38.92508,-1.09651 z m 92.91501,-4.74581 c 6.06057,-1.8248 7.6107,-4.32642 8.18027,-13.20142 0.74627,-11.62848 0.31828,-11.89715 -17.5842,-11.03857 -13.73779,0.65886 -14.1695,0.61379 -14.1695,-1.47916 0,-3.30177 -3.10169,-3.79581 -7.59509,-1.20974 -4.73434,2.72474 -8.66717,2.97247 -10.58096,0.6665 -1.69433,-2.04155 -5.68892,-1.60999 -6.12131,0.6613 -0.18178,0.95489 0.84657,2.20764 2.38911,2.91047 4.07038,1.85459 3.30536,2.91767 -2.89175,4.01838 -5.28146,0.93808 -5.6781,1.23385 -6.97302,5.19984 -2.70901,8.29697 0.37549,12.71783 10.10615,14.48463 6.7326,1.22244 40.31391,0.47108 45.2403,-1.01223 z m -70.72009,-64.29092 c 1.62368,-1.62368 1.68209,-8.32 0.0726,-8.32 -1.43462,0 -8.67044,-4.34435 -8.13224,-4.88255 0.2049,-0.2049 2.54332,0.28076 5.19649,1.07925 2.65317,0.79848 8.63078,1.76491 13.28356,2.14762 4.65279,0.3827 9.5935,0.93446 10.97935,1.22613 2.34413,0.49334 2.39988,0.66273 0.8,2.43058 -2.25989,2.49716 -2.1721,4.08181 0.29941,5.40453 3.53248,1.89052 20.62112,-4.43792 26.47295,-9.80374 2.66333,-2.44214 2.12439,-4.4384 -2.55444,-9.46173 l -2.60169,-2.79324 3.27868,-5.16994 c 4.13067,-6.51339 5.3719,-10.97602 5.37941,-19.34072 0.006,-6.92248 -2.50555,-14.16952 -4.91102,-14.16952 -0.72701,0 -4.83811,1.38472 -9.13577,3.07716 -10.1967,4.01552 -18.36543,4.82758 -29.32138,2.91489 -10.29664,-1.79759 -18.46286,-5.61158 -24.39959,-11.39572 -2.36887,-2.30798 -4.77657,-4.19633 -5.35043,-4.19633 -1.38313,0 -7.94253,10.07762 -7.94253,12.20262 0,1.16305 1.04371,1.66878 3.46667,1.67977 4.77482,0.0217 8.32008,2.03396 10.6689,6.05569 l 1.98568,3.39996 -2.83162,1.85535 c -2.06509,1.3531 -4.8168,1.81854 -10.16503,1.71937 -4.03338,-0.0748 -7.62888,0.34208 -7.98999,0.92639 -0.36112,0.5843 1.05161,4.65934 3.1394,9.05563 l 3.79599,7.99327 -3.435,7.00656 -3.435,7.00656 3.62239,2.81608 c 6.7855,5.27512 18.46351,10.55862 23.63094,10.69139 2.66934,0.0686 5.42934,-0.45131 6.13334,-1.15531 z m 58.4139,-72.42879 c 0.83542,-1.35174 -12.05679,-13.75787 -14.29692,-13.75787 -1.06808,0 -1.26874,0.79948 -0.73624,2.93333 1.13813,4.56069 5.62828,9.72502 9.40459,10.81665 4.65975,1.34702 4.80082,1.34721 5.62857,0.008 z m -91.26723,-10.02454 c 6.42009,-5.70196 8.94769,-6.07254 10.52658,-1.54334 0.93455,2.68085 1.47163,3.0764 3.03768,2.23716 2.84344,-1.52379 15.23573,-14.71029 15.23573,-16.21217 0,-0.98432 -3.27047,-1.17701 -13.37233,-0.78786 -12.75822,0.49149 -13.51098,0.64798 -16.39137,3.40757 -3.17085,3.03786 -8.63629,13.18334 -8.63629,16.03149 0,3.07236 4.13126,1.72416 9.6,-3.13285 z m 75.53406,-9.32498 c 0.31475,-1.65943 -0.34076,-1.78587 -6.12452,-1.18134 l -6.47699,0.67698 -5.22848,-5.22849 c -8.58049,-8.58049 -10.31801,-17.95035 -5.8591,-31.59629 2.21137,-6.76762 3.97983,-7.74288 3.13061,-1.72645 -0.75902,5.37741 0.60747,7.92623 8.62926,16.09561 8.75755,8.91867 19.23831,12.56725 36.00741,12.53497 15.24347,-0.0293 25.5651,-3.64567 30.25078,-10.59875 3.21588,-4.77204 3.02832,-7.58697 -0.7465,-11.20348 -2.34853,-2.25003 -4.51691,-3.14935 -8.52124,-3.53411 l -5.37111,-0.5161 -1.8002,-5.71088 c -1.51729,-4.8134 -1.603,-6.56514 -0.54542,-11.14682 2.30598,-9.99007 1.14435,-15.01615 -5.00034,-21.6351 -3.89823,-4.1991 -7.82468,-6.0381 -12.89192,-6.0381 -3.59503,0 -5.01384,0.6942 -8.45795,4.13831 -5.73356,5.73356 -7.91132,12.76592 -7.4352,24.00957 0.32796,7.74496 0.74438,9.30678 3.41456,12.80646 1.67258,2.19218 2.84687,4.17996 2.60953,4.4173 -0.23733,0.23733 -5.09036,-3.87419 -10.7845,-9.13673 -5.69414,-5.26253 -10.91435,-9.56824 -11.60047,-9.56824 -1.4869,0 -5.27059,1.07268 -15.09411,4.27922 l -7.29517,2.38125 -3.12768,-2.3124 c -3.02236,-2.23453 -5.21532,-2.2009 -5.21532,0.08 0,0.60617 -0.96,2.32258 -2.13333,3.81423 -4.24674,5.39886 -1.56045,19.09676 4.84863,24.724 2.06741,1.81521 4.10291,3.30039 4.52333,3.30039 0.42042,0 4.25697,3.32367 8.52567,7.38593 9.29378,8.84433 17.06767,13.09165 23.15983,12.65356 3.04845,-0.21921 4.35756,-0.83387 4.60994,-2.16447 z m -5.73922,-6.06232 c 1.02235,-1.12968 1.69674,-2.77002 1.49865,-3.6452 -0.51637,-2.28134 -13.57774,-12.43417 -15.99626,-12.43417 -5.12565,0 -3.52388,7.4043 2.942,13.59971 5.20301,4.98536 8.62369,5.71939 11.55561,2.47966 z"
       id="path1" />
  </g>
</svg>
