<?xml version="1.0" encoding="UTF-8" standalone="no"?>
<!-- Created with Inkscape (http://www.inkscape.org/) -->

<svg
   width="210mm"
   height="297mm"
   viewBox="0 0 210 297"
   version="1.1"
   id="svg1"
   xml:space="preserve"
   inkscape:version="1.3 (0e150ed6c4, 2023-07-21)"
   sodipodi:docname="Mikey Frame 6.svg"
   xmlns:inkscape="http://www.inkscape.org/namespaces/inkscape"
   xmlns:sodipodi="http://sodipodi.sourceforge.net/DTD/sodipodi-0.dtd"
   xmlns="http://www.w3.org/2000/svg"
   xmlns:svg="http://www.w3.org/2000/svg"><sodipodi:namedview
     id="namedview1"
     pagecolor="#ffffff"
     bordercolor="#000000"
     borderopacity="0.25"
     inkscape:showpageshadow="2"
     inkscape:pageopacity="0.0"
     inkscape:pagecheckerboard="0"
     inkscape:deskcolor="#d1d1d1"
     inkscape:document-units="mm"
     inkscape:zoom="0.70110129"
     inkscape:cx="397.23219"
     inkscape:cy="561.25984"
     inkscape:window-width="1920"
     inkscape:window-height="1001"
     inkscape:window-x="-9"
     inkscape:window-y="-9"
     inkscape:window-maximized="1"
     inkscape:current-layer="layer1" /><defs
     id="defs1" /><g
     inkscape:label="Layer 1"
     inkscape:groupmode="layer"
     id="layer1"><path
       style="fill:#000000"
       d="m 33.74824,230.37817 c -1.487674,-0.38415 -2.77057,-1.24274 -3.484143,-2.33179 -0.449737,-0.68639 -0.520498,-1.31107 -0.325396,-2.87262 0.137126,-1.09751 0.326413,-2.19638 0.420638,-2.44193 0.256031,-0.66721 2.758459,-1.55961 4.373378,-1.55961 1.042752,0 1.653358,-0.23335 2.298352,-0.87834 0.483089,-0.48309 1.256085,-0.97315 1.717768,-1.08903 0.869816,-0.21831 1.02593,-0.51239 2.326501,-4.38263 0.423812,-1.26118 1.011171,-2.81441 1.305241,-3.45162 l 0.534673,-1.15857 -1.610704,-1.58795 c -1.494401,-1.47329 -1.584568,-1.66293 -1.248735,-2.6263 0.637591,-1.82899 0.160298,-1.84192 -2.194314,-0.0594 -2.270071,1.71848 -4.309346,4.24749 -8.292532,10.28397 -2.925571,4.43368 -7.668628,8.65883 -11.616369,10.34796 -2.087223,0.89307 -4.697386,1.28185 -6.802904,1.0133 -2.920351,-0.37248 -2.3670156,-0.92073 1.158459,-1.14781 3.792141,-0.24425 5.240227,-0.67909 8.333771,-2.50251 3.221545,-1.89886 6.318098,-5.26114 10.015477,-10.87493 1.725184,-2.61937 3.302986,-4.94285 3.506226,-5.16329 0.20324,-0.22044 1.126831,-1.28076 2.052425,-2.35627 1.014073,-1.17832 2.161668,-2.11348 2.887578,-2.35305 l 1.204679,-0.39758 -0.502509,-1.65588 c -0.27638,-0.91073 -0.504227,-2.3422 -0.506328,-3.18104 -0.0054,-2.15783 -0.990157,-1.89893 -1.671387,0.4394 -0.976485,3.35181 -3.161605,5.13264 -4.010847,3.26876 -0.286745,-0.62934 -0.21022,-1.27484 0.335053,-2.82624 l 0.706675,-2.01062 -1.033045,-0.53421 c -0.931084,-0.48148 -1.143549,-0.47706 -2.152645,0.0448 -1.269861,0.65667 -3.429717,0.7308 -4.506241,0.15466 -1.672064,-0.89486 -0.229294,-2.68633 2.449653,-3.0417 1.935502,-0.25676 2.470632,-0.79435 2.470632,-2.48201 0,-0.57164 0.384078,-1.37491 0.929712,-1.94443 0.511341,-0.53373 1.194251,-1.73304 1.517579,-2.66514 0.323327,-0.9321 1.176122,-2.60173 1.895099,-3.7103 1.636855,-2.52381 2.655956,-2.86151 8.518295,-2.82277 2.319696,0.0153 4.330886,-0.0421 4.469311,-0.12767 0.138426,-0.0856 0.03908,-0.5907 -0.22076,-1.12255 -0.259844,-0.53184 -0.532989,-2.08215 -0.60699,-3.44512 -0.162675,-2.99621 -0.347978,-3.34172 -1.794593,-3.34615 -0.619139,-0.002 -1.945156,-0.38499 -2.946704,-0.85131 -2.213857,-1.03079 -2.869423,-2.23099 -3.006947,-5.50507 -0.177761,-4.23204 2.044999,-6.34018 6.684901,-6.34018 3.254642,0 5.761865,1.19676 6.679557,3.18832 0.511646,1.11036 0.825036,1.38137 1.605847,1.38869 0.533576,0.005 0.970139,-0.14965 0.970139,-0.34367 0,-0.19403 -0.166851,-0.35278 -0.370779,-0.35278 -0.755783,0 -1.474007,-2.54483 -1.232354,-4.36651 0.61437,-4.63134 3.462984,-7.26832 7.118134,-6.58931 2.180731,0.40512 3.621877,1.35058 4.735664,3.10684 0.831364,1.31093 1.038224,2.03165 1.038224,3.61729 0,1.19496 -0.205385,2.25171 -0.517947,2.66496 -0.779253,1.03026 -0.663548,1.34134 0.78253,2.10387 3.645211,1.92214 6.162822,5.42497 6.438195,8.95764 l 0.176389,2.26283 1.735715,0.11331 c 1.173331,0.0766 1.996033,0.35786 2.539145,0.86809 l 0.803429,0.75478 1.499104,-1.10245 c 0.824507,-0.60635 1.917254,-1.10245 2.428326,-1.10245 1.131798,0 1.925386,1.24336 1.507062,2.3612 -0.462612,1.23619 -2.776986,2.8277 -4.484377,3.08374 -0.858544,0.12874 -1.772407,0.49181 -2.030808,0.80682 -0.869696,1.0602 -4.498375,3.18951 -5.841154,3.42758 -2.438052,0.43225 -2.566165,0.52134 -2.566165,1.78451 0,1.55188 -0.791449,2.29448 -2.445405,2.29448 -0.735171,0 -2.050693,0.0979 -2.923381,0.21748 -1.532644,0.21008 -1.598707,0.26993 -1.938923,1.75668 -0.333475,1.45728 -0.29243,1.60639 0.771324,2.80208 1.002416,1.12675 1.173859,1.20227 1.590274,0.70052 0.39581,-0.47692 0.35141,-0.66982 -0.292189,-1.26942 -0.900732,-0.83916 -0.959808,-1.48661 -0.204557,-2.24186 0.753571,-0.75357 1.023527,-0.71215 3.106859,0.4767 0.993758,0.56709 2.641567,1.35903 3.6618,1.75988 1.735282,0.68178 1.94324,0.69349 3.223058,0.18141 0.75245,-0.30107 2.060839,-0.49771 2.907532,-0.43696 3.043414,0.21833 1.842218,2.37788 -2.106335,3.78684 -2.122751,0.75745 -2.401457,1.79326 -0.652671,2.42563 2.673335,0.96669 3.193642,3.17295 0.882927,3.74389 -1.509525,0.37297 -2.877233,-0.30412 -3.536336,-1.75069 -0.595447,-1.30687 -1.090069,-1.04395 -1.867588,0.99272 -0.572823,1.50047 -0.877152,1.8681 -1.617696,1.95419 -1.377164,0.16008 -1.934074,-0.72079 -1.450942,-2.29498 0.45847,-1.49383 0.374463,-1.69245 -1.021037,-2.41409 -1.099659,-0.56866 -1.731158,-0.43856 -1.731158,0.35663 0,0.26095 -0.555625,1.45746 -1.234722,2.65891 -0.679098,1.20144 -1.234723,2.27972 -1.234723,2.39617 0,0.11646 0.42142,0.81984 0.936487,1.56309 0.836049,1.20642 0.886828,1.44414 0.473465,2.21651 -0.254663,0.47585 -0.953894,1.20227 -1.553848,1.61427 l -1.090826,0.7491 -0.111714,4.1971 c -0.07764,2.91698 0.0082,4.19709 0.281428,4.19709 0.216228,0 0.788483,0.42658 1.271677,0.94796 0.834673,0.90062 0.94257,0.9248 2.16109,0.48417 0.705405,-0.25508 2.167797,-0.44626 3.249759,-0.42485 2.518595,0.0498 3.554705,1.04223 3.554705,3.40475 0,2.60254 -0.679212,5.07081 -1.529322,5.55759 -0.538166,0.30816 -2.862521,0.43732 -7.86987,0.43732 -6.510461,0 -7.168879,-0.0567 -7.854637,-0.67686 -1.519003,-1.37362 -1.565091,-4.6383 -0.08786,-6.22391 0.418625,-0.44935 0.761137,-1.16567 0.761137,-1.59184 0,-0.85683 1.173419,-1.78314 2.495316,-1.96982 0.770313,-0.10879 0.884612,-0.35061 1.140958,-2.41395 0.156687,-1.26119 0.185612,-2.82802 0.06428,-3.48186 -0.208066,-1.12122 -0.287718,-1.17792 -1.401056,-0.99725 -1.431681,0.23233 -2.21917,-0.28204 -2.594889,-1.69491 -0.260038,-0.97787 -0.416093,-1.06587 -2.062179,-1.16291 -1.729454,-0.10196 -1.786993,-0.0743 -1.993671,0.95911 -0.117051,0.58526 -0.525253,1.37653 -0.907116,1.7584 -0.593792,0.59379 -0.8809,0.64277 -1.983372,0.33836 -0.708992,-0.19576 -1.486273,-0.28026 -1.727292,-0.18777 -0.241018,0.0925 -0.712143,1.09612 -1.046943,2.2303 -0.334801,1.13417 -0.756167,2.33458 -0.93637,2.66758 -0.180203,0.33299 -0.467981,1.23004 -0.639507,1.99344 -0.302888,1.34806 -0.281882,1.39401 0.729714,1.59633 0.572869,0.11457 1.446987,0.52721 1.942485,0.91697 0.495497,0.38976 1.093017,0.70865 1.32782,0.70865 0.70724,0 1.586109,1.21983 1.722432,2.39066 0.298799,2.56629 -2.053354,5.36117 -5.083406,6.04022 -2.237156,0.50135 -8.756778,0.7735 -10.116839,0.42229 z m 9.989738,-1.62444 c 2.111878,-0.60346 3.472944,-1.58801 4.236488,-3.06454 0.687099,-1.3287 0.422065,-2.48324 -0.709011,-3.08857 -0.735721,-0.39375 -1.089248,-0.37665 -2.309714,0.11168 -2.318479,0.92767 -2.783445,0.69379 -1.092661,-0.54963 l 1.531422,-1.12622 -1.10238,-0.52208 c -1.00832,-0.47753 -1.164251,-0.46609 -1.827487,0.13413 -0.626927,0.56736 -0.882005,0.59948 -1.883895,0.23719 -2.046642,-0.74007 -3.050203,-0.38644 -1.814253,0.63931 0.291042,0.24154 0.529318,0.53879 0.529503,0.66056 1.85e-4,0.12176 -1.309503,0.20057 -2.910417,0.17512 -1.600914,-0.0254 -3.417278,0.0957 -4.036365,0.26925 -0.991812,0.27801 -1.153433,0.50104 -1.359665,1.8763 -0.423092,2.82137 0.526639,4.10571 3.543611,4.79208 1.603118,0.36471 7.1766,0.035 9.204824,-0.54458 z m 25.957828,-1.84148 c 1.103474,-1.10355 1.413857,-5.26834 0.445401,-5.9765 -0.878576,-0.64243 -2.946941,-0.57562 -6.503886,0.21007 -1.649236,0.36429 -3.065383,0.59801 -3.146993,0.51938 -0.08161,-0.0786 0.212835,-0.52748 0.654322,-0.99742 0.441486,-0.46994 0.701612,-1.01801 0.578056,-1.21792 -0.355695,-0.57553 -1.176195,-0.0722 -1.411657,0.86594 -0.313939,1.25083 -2.196302,1.2229 -2.676347,-0.0397 -0.302643,-0.79601 -0.429775,-0.8498 -1.137797,-0.48138 -1.199557,0.62419 -1.200318,0.63942 -0.07774,1.55684 l 1.044547,0.85364 -1.068032,0.0127 c -1.844262,0.0219 -2.636135,0.86657 -2.636135,2.81188 0,2.76715 0.304935,2.8677 8.368731,2.75969 6.481697,-0.0868 6.815961,-0.12556 7.567532,-0.87719 z M 49.909823,208.90508 c 0.160557,-0.78503 0.100238,-1.03119 -0.222348,-0.90741 -0.243472,0.0934 -0.529078,0.0301 -0.634681,-0.1408 -0.106854,-0.17289 1.168049,-0.26403 2.874733,-0.2055 1.686706,0.0578 3.169521,0.10745 3.295144,0.11023 0.125623,0.003 0.204998,0.49915 0.176389,1.10302 -0.03229,0.68158 0.170736,1.2423 0.535375,1.4786 0.906822,0.58764 4.422516,-0.72282 6.081822,-2.26697 l 1.377547,-1.28195 -0.805136,-1.13071 c -0.555545,-0.78019 -1.009921,-1.07715 -1.465741,-0.95795 -0.877084,0.22936 -0.854725,0.15122 0.53467,-1.86861 2.050975,-2.98159 2.539691,-7.10772 1.101795,-9.30223 l -0.626448,-0.95608 -1.099895,0.89335 c -2.68497,2.18077 -3.635797,2.47881 -7.802672,2.4458 -4.893704,-0.0388 -6.710872,-0.76651 -8.411852,-3.36885 -1.069396,-1.63607 -1.642315,-2.11152 -1.642315,-1.36291 0,0.19403 -0.180937,0.35278 -0.402082,0.35278 -0.410474,0 -1.330311,1.02112 -1.350588,1.4993 -0.0062,0.14553 0.509083,0.26459 1.145008,0.26459 1.381387,0 2.724328,0.85295 2.724328,1.73031 0,0.70605 -1.991615,1.71396 -3.704166,1.87459 l -1.058334,0.0993 v 2.31926 c 0,1.93963 0.158797,2.55914 0.970139,3.7848 1.158164,1.74958 1.15184,1.70364 0.266364,1.9352 -0.938387,0.24539 -1.243596,1.15522 -0.750539,2.23736 0.40397,0.88662 3.951336,2.7752 6.216814,3.30976 1.381614,0.32601 2.395499,-0.31347 2.676669,-1.68824 z M 39.648432,188.1875 c 0.541851,-0.65289 3.550862,-0.71775 4.178545,-0.0901 0.350282,0.35029 0.667823,0.17676 1.569861,-0.85786 0.621918,-0.71333 1.89516,-1.63398 2.829426,-2.04588 0.935225,-0.41233 1.636233,-0.93844 1.559753,-1.17061 -0.08201,-0.24895 -1.211389,-0.50967 -2.756999,-0.63647 -1.439947,-0.11813 -3.457062,-0.33934 -4.482476,-0.49157 -1.608588,-0.23881 -1.936951,-0.18514 -2.393246,0.39117 -1.311171,1.65604 -1.603434,2.27674 -1.790245,3.80212 -0.158371,1.29314 -0.0918,1.62834 0.323395,1.62834 0.287549,0 0.720443,-0.23813 0.961986,-0.52917 z m 29.210001,-1.30528 c 0.741626,-0.74162 0.478948,-0.82781 -2.134306,-0.70029 -2.551119,0.12449 -4.90581,-0.40124 -4.29078,-0.958 0.614414,-0.55621 2.814637,-1.14618 7.28358,-1.95305 3.55601,-0.64204 4.887248,-1.05053 6.388301,-1.96026 2.988021,-1.81093 3.881789,-3.96507 2.123218,-5.11733 -0.659116,-0.43187 -1.374973,-0.56005 -2.450651,-0.4388 -1.262923,0.14235 -1.649275,0.0332 -2.287667,-0.64635 -0.666386,-0.70933 -0.74654,-1.11213 -0.605211,-3.04135 0.09969,-1.3608 -0.0098,-2.63443 -0.282102,-3.28207 -0.532479,-1.26637 -3.120463,-3.49268 -4.443419,-3.82245 -0.821617,-0.20481 -1.123077,-0.0197 -2.293056,1.40812 l -1.347074,1.64392 v 3.38382 c 0,2.3977 0.168476,3.74364 0.578121,4.61854 1.160419,2.47836 1.146836,2.69659 -0.158363,2.54422 -1.472964,-0.17196 -6.103466,1.71796 -7.69872,3.1422 -0.626116,0.55899 -1.262965,1.01635 -1.41522,1.01635 -0.679953,0 -1.06498,1.47829 -0.647521,2.48613 0.558089,1.34734 2.060983,1.80307 5.600118,1.69812 1.564101,-0.0464 2.953213,0.0251 3.086915,0.15877 0.416982,0.41698 4.545629,0.26797 4.993837,-0.18024 z"
       id="path1" /></g></svg>
