<?xml version="1.0" encoding="UTF-8" standalone="no"?>
<!-- Created with Inkscape (http://www.inkscape.org/) -->

<svg
   width="210mm"
   height="297mm"
   viewBox="0 0 210 297"
   version="1.1"
   id="svg1"
   xml:space="preserve"
   inkscape:version="1.3 (0e150ed6c4, 2023-07-21)"
   sodipodi:docname="Mikey Frame 4.svg"
   xmlns:inkscape="http://www.inkscape.org/namespaces/inkscape"
   xmlns:sodipodi="http://sodipodi.sourceforge.net/DTD/sodipodi-0.dtd"
   xmlns="http://www.w3.org/2000/svg"
   xmlns:svg="http://www.w3.org/2000/svg"><sodipodi:namedview
     id="namedview1"
     pagecolor="#ffffff"
     bordercolor="#000000"
     borderopacity="0.25"
     inkscape:showpageshadow="2"
     inkscape:pageopacity="0.0"
     inkscape:pagecheckerboard="0"
     inkscape:deskcolor="#d1d1d1"
     inkscape:document-units="mm"
     inkscape:zoom="0.72693603"
     inkscape:cx="396.87124"
     inkscape:cy="561.25984"
     inkscape:window-width="1450"
     inkscape:window-height="1012"
     inkscape:window-x="88"
     inkscape:window-y="14"
     inkscape:window-maximized="0"
     inkscape:current-layer="layer1" /><defs
     id="defs1" /><g
     inkscape:label="Layer 1"
     inkscape:groupmode="layer"
     id="layer1"><path
       style="fill:#000000"
       d="m 33.826732,230.27287 c -0.727757,-0.19328 -1.79932,-0.79619 -2.38125,-1.3398 -0.913076,-0.85294 -1.058056,-1.23962 -1.058056,-2.82199 0,-1.69921 0.915097,-4.49413 1.334217,-4.07501 0.100936,0.10093 0.357966,-0.0484 0.571179,-0.33192 0.218147,-0.29005 1.311092,-0.62169 2.499464,-0.75843 1.592543,-0.18326 2.266529,-0.43971 2.741057,-1.04297 0.346089,-0.43998 0.969993,-0.85028 1.386454,-0.91177 0.623585,-0.0921 0.971193,-0.76545 1.969886,-3.81598 0.666976,-2.03729 1.463292,-3.9868 1.76959,-4.33225 0.516772,-0.58281 0.434775,-0.75207 -1.137803,-2.34865 -1.643624,-1.66872 -1.677466,-1.7452 -1.122709,-2.53723 0.314599,-0.44915 0.571999,-1.02503 0.571999,-1.27972 0,-1.38367 -4.269054,2.55059 -6.974645,6.42767 -5.266566,7.54692 -7.974436,10.49633 -12.205899,13.29464 -1.721035,1.13814 -4.005687,2.32416 -5.077004,2.6356 -2.185026,0.6352 -5.359576,0.52701 -6.251297,-0.21305 -0.9349825,-0.77597 -0.08693,-1.12423 1.740395,-0.71472 1.322673,0.29642 2.130162,0.26274 3.76932,-0.15719 2.297493,-0.58859 7.060959,-3.3317 9.369011,-5.39528 1.77506,-1.58704 4.982029,-5.49553 7.163452,-8.73046 2.707629,-4.01526 5.886796,-7.8034 7.198401,-8.57727 l 1.255025,-0.74048 -0.925301,-1.86789 c -0.508916,-1.02734 -0.990819,-1.94266 -1.070895,-2.03406 -0.31477,-0.35926 -0.802267,0.93924 -0.807384,2.15055 -0.0049,1.15172 -0.116301,1.301 -1.121198,1.50198 -1.451749,0.29035 -2.338912,-0.49661 -2.481112,-2.20086 l -0.107259,-1.2855 -2.939773,-0.001 c -2.500166,-0.001 -3.014514,-0.10347 -3.439584,-0.68479 -0.274895,-0.37594 -0.49981,-0.85325 -0.49981,-1.06068 0,-0.73058 1.801659,-2.31022 2.634912,-2.31022 1.058968,0 1.828288,-0.75396 2.118757,-2.07646 0.123867,-0.56396 0.549967,-1.31928 0.946889,-1.67849 0.955882,-0.86506 1.707776,-2.36111 1.707776,-3.39798 0,-0.46089 0.396875,-1.21082 0.881945,-1.66652 0.485069,-0.45569 0.881944,-0.95853 0.881944,-1.1174 0,-0.7082 1.270354,-3.1249 1.755897,-3.3404 0.295437,-0.13113 2.733677,-0.3114 5.41831,-0.40062 4.313587,-0.14334 4.859819,-0.22924 4.697683,-0.7387 -0.100908,-0.31707 -0.445068,-1.29086 -0.764799,-2.16399 -0.451254,-1.23228 -0.527538,-2.19549 -0.340927,-4.3047 l 0.240404,-2.7172 -1.715325,-0.22755 c -2.410792,-0.3198 -4.730832,-1.53183 -5.706352,-2.9811 -0.720218,-1.06998 -0.809769,-1.54577 -0.67118,-3.56596 0.21209,-3.09162 1.267532,-4.98548 3.314665,-5.94774 1.719239,-0.80814 4.800624,-0.94389 5.978606,-0.26338 1.65399,0.95548 4.197898,3.63954 4.334796,4.57361 0.05145,0.35108 0.211946,0.36009 1.474449,0.0828 0.589131,-0.1294 1.014679,-0.33987 0.945663,-0.46772 -1.669197,-3.09205 -1.634159,-4.87436 0.148031,-7.53007 1.990732,-2.96646 5.089332,-3.87944 8.267714,-2.43603 1.077529,0.48935 1.642173,1.05795 2.204862,2.2203 0.898859,1.8568 1.00609,4.90958 0.225053,6.40715 -0.71681,1.37442 -0.700371,1.42202 0.726113,2.10226 1.883472,0.89816 4.762221,3.74556 5.532597,5.47234 0.527546,1.18248 0.6568,2.14211 0.569684,4.22954 -0.102951,2.46687 -0.05222,2.70933 0.587494,2.80774 0.385096,0.0593 1.380652,0.35411 2.212346,0.65525 1.373256,0.49724 1.621212,0.49579 2.699148,-0.0157 1.523571,-0.72299 3.862959,-0.72886 4.580309,-0.0115 0.488194,0.48819 0.492717,0.6659 0.03927,1.54277 -0.281863,0.54506 -0.415061,1.08844 -0.295994,1.20751 0.346931,0.34693 -2.226688,1.28408 -3.526369,1.28408 -0.867859,0 -1.435035,0.27755 -2.105964,1.03055 -1.39122,1.56141 -3.788153,2.8131 -6.478478,3.38309 -1.331723,0.28215 -2.540376,0.51575 -2.685897,0.51912 -0.145521,0.003 -0.264584,0.36482 -0.264584,0.80321 0,0.4384 -0.327659,1.00172 -0.728131,1.25181 -1.218976,0.76127 -0.631579,1.47403 2.139243,2.59582 2.357319,0.95439 2.925929,1.05094 5.214461,0.88545 2.299676,-0.1663 2.664555,-0.10323 3.484787,0.6023 1.566979,1.34786 0.26623,3.03976 -2.336995,3.03976 -1.47644,0 -2.12892,0.33861 -2.12892,1.10481 0,0.41376 0.376822,0.81931 0.970139,1.04409 3.158799,1.19674 3.435566,4.19403 0.436908,4.73155 -1.096383,0.19654 -1.410672,0.0634 -2.734028,-1.15834 -1.145531,-1.05754 -1.495241,-1.23438 -1.495241,-0.7561 0,0.34337 -0.410987,1.11273 -0.913304,1.7097 -0.68051,0.80874 -1.210412,1.0854 -2.078924,1.0854 -1.36251,0 -1.593883,-0.40968 -1.593883,-2.82222 0,-2.13382 -0.257016,-2.82222 -1.053676,-2.82222 -0.508699,0 -0.653558,0.37855 -0.776235,2.02847 -0.09122,1.22689 -0.512898,2.74533 -1.067087,3.84255 l -0.916264,1.81408 0.70206,1.15444 c 0.88928,1.46231 0.523068,2.40374 -1.440505,3.70318 l -1.404893,0.92971 -0.01484,4.19989 c -0.0082,2.30995 0.129268,4.1999 0.305399,4.1999 0.176132,0 0.78098,0.38769 1.344107,0.86153 0.971351,0.81734 1.09488,0.83622 2.408317,0.36826 2.250944,-0.80199 4.162042,-0.66466 5.414327,0.38907 1.02889,0.86575 1.085401,1.04695 1.085401,3.4802 0,2.05175 -0.144818,2.75101 -0.721602,3.48427 -0.788843,1.00285 -2.597048,1.64219 -4.653197,1.64526 -0.724819,0.001 -2.032359,0.19307 -2.905644,0.42663 -1.826781,0.48859 -7.33734,-0.0377 -8.590791,-0.82053 -1.107045,-0.69136 -1.631011,-1.96315 -1.556851,-3.77884 0.05257,-1.28711 0.261372,-1.8029 0.957381,-2.36494 0.489581,-0.39534 0.890148,-1.05059 0.890148,-1.45611 0,-0.87818 0.764832,-1.57509 2.258472,-2.05791 1.056222,-0.34142 1.103174,-0.44472 1.39842,-3.07664 0.168027,-1.49786 0.212549,-3.09373 0.09894,-3.54639 -0.177546,-0.7074 -0.382224,-0.80252 -1.45689,-0.67706 -1.488965,0.17383 -2.139928,-0.28382 -2.423995,-1.70416 -0.199629,-0.99814 -0.298306,-1.05042 -1.982793,-1.05042 -1.494798,0 -1.772708,0.10315 -1.772708,0.65798 0,0.36189 -0.341092,1.09161 -0.757982,1.6216 -0.709328,0.90177 -0.878917,0.94851 -2.642046,0.72822 -2.149588,-0.26857 -1.930601,-0.53035 -3.259482,3.8964 -0.965348,3.21575 -0.955047,3.97097 0.05942,4.35667 0.444536,0.16901 1.039849,0.58655 1.322916,0.92786 0.283068,0.34131 1.04799,0.84349 1.699827,1.11596 l 1.185158,0.4954 -0.138641,2.4536 c -0.123589,2.18722 -0.258414,2.57337 -1.241882,3.55684 -0.876987,0.87699 -1.70657,1.23597 -4.045129,1.75046 -3.186881,0.70112 -6.750414,0.79761 -8.851192,0.23966 z m 10.671805,-1.81208 c 1.954165,-0.90856 2.398834,-1.40404 2.842967,-3.16786 0.538449,-2.13837 0.11593,-2.7096 -2.004218,-2.7096 -1.453657,0 -1.98372,-0.39234 -1.191526,-0.88194 1.127258,-0.69669 -0.254617,-1.34365 -1.702572,-0.7971 -0.85673,0.32338 -1.213946,0.28729 -1.953578,-0.19733 -1.461929,-0.95789 -2.628743,-0.66907 -1.570841,0.38883 0.697337,0.69733 0.04866,0.91859 -3.282157,1.11952 -3.763794,0.22704 -4.190853,0.5714 -4.190853,3.37938 0,1.92816 0.432169,2.60338 2.123921,3.31842 1.367698,0.57807 9.430372,0.24438 10.928857,-0.45232 z m 23.118376,-1.15589 c 0.58837,-0.10615 1.461495,-0.48849 1.940278,-0.84963 0.760897,-0.57395 0.870514,-0.93139 0.870514,-2.83862 0,-1.90783 -0.105674,-2.25215 -0.84108,-2.74044 -1.226254,-0.8142 -1.63284,-0.81789 -5.400369,-0.049 -4.017222,0.81984 -4.080812,0.82478 -3.530496,0.27447 0.502221,-0.50222 0.565922,-1.69334 0.09056,-1.69334 -0.183026,0 -0.540213,0.29473 -0.79375,0.65495 -0.253537,0.36022 -0.843124,0.77571 -1.310193,0.92332 -0.661579,0.20908 -0.982881,0.0912 -1.454164,-0.53362 -0.384773,-0.51011 -0.813972,-0.72179 -1.179256,-0.58162 -0.800068,0.30702 -0.718322,1.18091 0.131248,1.40308 1.114196,0.29137 0.824148,0.84455 -0.560645,1.06928 -1.746045,0.28334 -2.261578,0.81494 -2.261578,2.33205 0,1.72327 0.645678,2.52339 2.321873,2.87725 1.384905,0.29236 9.966693,0.11458 11.977058,-0.24812 z M 49.00834,210.32431 c 0.721999,-0.6301 1.462905,-2.80216 0.820381,-2.40506 -0.188398,0.11644 -0.442255,0.0504 -0.564127,-0.14683 -0.121872,-0.19719 -0.529716,-0.35853 -0.906321,-0.35853 -0.376604,0 -0.684735,-0.17574 -0.684735,-0.39052 0,-0.22902 0.255319,-0.29035 0.617361,-0.1483 1.00233,0.39326 4.375367,0.88735 6.072817,0.88955 1.456717,0.002 1.531684,0.0453 0.998997,0.57795 -0.457103,0.4571 -0.497403,0.7482 -0.195358,1.41111 0.209301,0.45937 0.657766,0.83521 0.996591,0.83521 0.917133,0 4.936924,-1.92773 6.14987,-2.94922 l 1.058333,-0.89129 -0.797885,-1.49219 c -0.787414,-1.47261 -0.789016,-1.50181 -0.122008,-2.22488 1.698821,-1.84164 1.679696,-5.4998 -0.04023,-7.69588 l -1.032811,-1.31873 -2.377849,1.23054 c -2.679471,1.38663 -3.633123,1.47369 -7.440824,0.67933 -3.082675,-0.64311 -4.501386,-1.43256 -6.019883,-3.34982 -0.605773,-0.76485 -1.207129,-1.38867 -1.336346,-1.38627 -0.367337,0.007 -1.822439,2.39359 -1.822439,2.98929 0,0.35181 0.34257,0.53412 1.003657,0.53412 0.55631,0 1.288834,0.31512 1.643473,0.70699 0.52599,0.58121 0.569232,0.8619 0.243063,1.57777 -0.469569,1.03059 -1.699563,1.41076 -3.587561,1.10886 l -1.369611,-0.21901 0.709091,2.38144 c 0.39,1.3098 0.78485,2.62347 0.877445,2.91927 0.09259,0.2958 -0.07795,1.01018 -0.378984,1.5875 -0.301036,0.57732 -0.548316,1.29779 -0.549511,1.60104 -0.0043,1.09672 3.068741,3.25717 5.995049,4.21469 1.259303,0.41206 1.261243,0.4118 2.040358,-0.26813 z m 15.757462,-18.05162 c 0.250216,-0.40485 -1.538792,-1.85309 -1.964284,-1.59012 -0.547085,0.33812 -0.333551,1.50433 0.306048,1.67147 1.051936,0.2749 1.450135,0.25537 1.658236,-0.0813 z m -18.99507,-4.52616 c 0.940874,-1.11566 1.868373,-2.13891 2.061109,-2.27388 0.562621,-0.39399 -0.02244,-0.71438 -1.464453,-0.80195 -0.736826,-0.0448 -2.229982,-0.20006 -3.318125,-0.34515 l -1.978441,-0.26379 -0.75486,1.22139 c -0.415173,0.67176 -0.854406,1.71912 -0.976073,2.32745 -0.217208,1.08604 -0.196467,1.10627 1.145801,1.11729 0.751858,0.006 1.675168,0.24429 2.051801,0.52916 1.072007,0.81083 1.407914,0.6539 3.233241,-1.51052 z m 14.955584,-1.49931 c 0,-0.19403 -0.128551,-0.35278 -0.285669,-0.35278 -0.157117,0 -1.149305,-0.72514 -2.204861,-1.61143 -1.055556,-0.88629 -2.236693,-1.87848 -2.624748,-2.20486 -0.693457,-0.58325 -0.688042,-0.59543 0.315786,-0.71 0.561738,-0.0641 1.672988,0.12837 2.469444,0.42773 5.730755,2.154 12.8722,2.28853 16.560408,0.31198 1.799952,-0.96462 3.203917,-2.82515 2.842528,-3.76692 -0.262742,-0.68469 -2.033358,-1.57474 -3.645568,-1.83255 -1.349205,-0.21574 -1.566724,-0.39271 -2.147184,-1.74687 -0.590031,-1.37648 -0.601542,-1.65416 -0.133095,-3.21069 0.282038,-0.93714 0.419086,-2.13056 0.30455,-2.65203 -0.252652,-1.15032 -2.93693,-3.70421 -4.236021,-4.03027 -1.377831,-0.34581 -3.151279,0.64784 -4.293667,2.4057 -0.905486,1.39333 -0.980588,1.77555 -0.968253,4.92781 0.01108,2.83257 0.126414,3.54224 0.673994,4.14731 1.005191,1.11072 0.360652,1.30169 -1.280403,0.37936 -3.258485,-1.83137 -10.475274,-0.71574 -11.787713,1.82224 -0.736293,1.42383 -0.398537,2.15035 1.72326,3.70678 4.143175,3.03919 8.717212,5.13253 8.717212,3.98949 z m 4.873628,-0.97014 c -0.145245,-0.76643 -2.709633,-1.08835 -3.138749,-0.39403 -0.458121,0.74126 -0.01389,1.01139 1.663197,1.01139 1.326096,0 1.572973,-0.10329 1.475552,-0.61736 z m 1.652761,0.26459 c 0.119916,-0.19403 0.04991,-0.35278 -0.155569,-0.35278 -0.205479,0 -0.373598,0.15875 -0.373598,0.35278 0,0.19402 0.07001,0.35277 0.155569,0.35277 0.08556,0 0.253682,-0.15875 0.373598,-0.35277 z"
       id="path1" /></g></svg>
