<?xml version="1.0" encoding="UTF-8" standalone="no"?>
<!-- Created with Inkscape (http://www.inkscape.org/) -->

<svg
   version="1.1"
   id="svg1"
   width="793.59998"
   height="1122.1333"
   viewBox="0 0 793.59998 1122.1333"
   sodipodi:docname="Mikey Frame 5.png"
   xmlns:inkscape="http://www.inkscape.org/namespaces/inkscape"
   xmlns:sodipodi="http://sodipodi.sourceforge.net/DTD/sodipodi-0.dtd"
   xmlns="http://www.w3.org/2000/svg"
   xmlns:svg="http://www.w3.org/2000/svg">
  <defs
     id="defs1" />
  <sodipodi:namedview
     id="namedview1"
     pagecolor="#ffffff"
     bordercolor="#000000"
     borderopacity="0.25"
     inkscape:showpageshadow="2"
     inkscape:pageopacity="0.0"
     inkscape:pagecheckerboard="0"
     inkscape:deskcolor="#d1d1d1" />
  <g
     inkscape:groupmode="layer"
     inkscape:label="Image"
     id="g1">
    <path
       style="fill:#000000"
       d="m 348.79999,709.71655 c -5.98656,-1.12728 -9.405,-2.72964 -12.32454,-5.77698 -2.65252,-2.76863 -3.13326,-4.21678 -3.48883,-10.50958 -0.72398,-12.81257 3.10294,-17.1976 16.3467,-18.7307 5.2268,-0.60505 7.08437,-1.38795 10.13334,-4.27082 2.05333,-1.94147 4.81384,-3.85463 6.13446,-4.25146 1.32062,-0.39683 2.88512,-1.62585 3.47667,-2.73117 1.44969,-2.70877 10.65553,-29.24364 10.65553,-30.71345 0,-0.64153 -2.21236,-3.34748 -4.91635,-6.01322 -4.02373,-3.9668 -4.7984,-5.33149 -4.26667,-7.51633 0.35733,-1.46824 0.94172,-3.86952 1.29866,-5.33619 0.91588,-3.76344 -0.57702,-3.36369 -7.84689,2.10117 -7.42578,5.58206 -17.28903,17.28788 -30.66875,36.39802 -15.16696,21.66285 -31.19406,36.03838 -47.94429,43.00372 -5.55463,2.30981 -8.11758,2.69004 -18.36219,2.72413 -11.1403,0.0371 -14.51361,-0.5625 -12.80089,-2.27523 0.39317,-0.39316 5.63317,-1.08096 11.64445,-1.52844 16.34789,-1.21692 27.44855,-5.77668 41.68994,-17.12473 8.33142,-6.63878 12.88412,-12.08199 28.74521,-34.36775 15.66729,-22.01346 21.98805,-29.6967 27.77833,-33.76615 7.31967,-5.14431 7.01751,-4.47225 5.34555,-11.88962 -2.10681,-9.34655 -3.57121,-13.67512 -4.62644,-13.67512 -0.49402,0 -1.67225,2.3304 -2.6183,5.17867 -2.50054,7.52843 -7.57283,15.088 -10.12368,15.088 -3.27695,0 -4.42445,-3.50998 -4.0958,-12.5282 l 0.30145,-8.2718 -4.8,0.0915 c -2.64,0.0503 -7.2,0.62185 -10.13334,1.27005 -4.6741,1.03287 -5.89367,0.91092 -9.86666,-0.98665 -2.49334,-1.19086 -4.53334,-2.6657 -4.53334,-3.27743 0,-2.07252 7.18004,-7.89817 12.00587,-9.74117 4.06823,-1.55367 5.07257,-2.54603 6.58511,-6.50655 0.98161,-2.57031 3.71794,-6.8695 6.08073,-9.55378 2.36279,-2.68427 4.77442,-6.61325 5.35918,-8.73107 1.48574,-5.3809 8.02445,-16.98946 11.56241,-20.52742 4.26641,-4.26641 9.96296,-5.57152 27.40289,-6.27814 l 15.45541,-0.62621 -0.62297,-2.76656 c -0.34263,-1.52161 -0.93431,-7.8916 -1.31483,-14.15554 -0.38053,-6.26394 -1.04146,-11.95463 -1.46875,-12.64599 -0.42728,-0.69136 -3.04462,-1.68068 -5.81632,-2.19849 -7.53826,-1.4083 -17.28901,-6.16465 -20.77336,-10.13311 -3.90159,-4.44367 -5.24483,-13.06112 -3.18349,-20.42348 1.6502,-5.89393 7.14837,-12.3485 13.18869,-15.48285 6.08278,-3.15638 17.43783,-3.18715 24.26015,-0.0657 5.41229,2.47628 14.74595,10.45831 14.74595,12.61055 0,2.57441 2.75192,3.84565 5.80887,2.6834 l 2.86837,-1.09055 -2.44233,-3.42993 c -4.93738,-6.93392 -2.39589,-23.85519 4.75052,-31.62892 6.13254,-6.67086 18.9744,-8.56492 27.51346,-4.05799 6.37406,3.36424 11.17876,9.91897 12.72289,17.35701 1.41511,6.81654 0.628,14.56125 -1.67406,16.47179 -2.65622,2.20447 -1.73605,3.92442 3.9818,7.44265 7.55612,4.64932 17.5962,14.92143 20.00617,20.4685 1.09411,2.51834 2.32644,8.54227 2.7385,13.38651 0.71543,8.41059 0.87643,8.835 3.57084,9.41302 1.5519,0.33292 5.94119,1.5099 9.75399,2.61551 l 6.93235,2.0102 5.72988,-2.62322 c 6.63442,-3.03734 12.39665,-3.44109 13.35796,-0.93598 2.8642,7.46398 -3.49811,14.99184 -14.80245,17.51418 -3.06463,0.68381 -7.5827,2.87808 -10.66667,5.18043 -9.36804,6.99376 -14.31198,9.46577 -23.75341,11.87692 -3.92293,1.00184 -4.89288,1.86156 -7.16991,6.35506 -2.43556,4.80634 -3.03988,5.28368 -8.04919,6.35799 -2.97876,0.63883 -7.76508,1.16151 -10.63627,1.16151 -6.2299,0 -8.54131,2.40235 -8.54131,8.87734 0,3.28145 0.7493,4.8853 3.62666,7.76266 6.07968,6.07967 9.56669,3.72973 4.90667,-3.30667 -2.8115,-4.24522 -2.69736,-5.07352 1.00006,-7.25765 3.49839,-2.06655 3.345,-2.10736 21.34061,5.67798 7.1423,3.08993 8.53649,3.35137 13.86667,2.60025 8.66001,-1.22035 15.75744,-0.999 17.62343,0.54963 4.14982,3.44404 0.35964,7.95856 -9.90634,11.79956 -6.15791,2.30397 -8.72443,3.86245 -8.72443,5.29779 0,0.44349 2.64683,2.84835 5.88184,5.34415 6.52349,5.03283 8.16424,8.57674 5.39006,11.64218 -4.44054,4.90673 -13.62055,2.61587 -17.19182,-4.2902 -0.88084,-1.70336 -1.94921,-3.09588 -2.37414,-3.09449 -0.42493,0.001 -2.11536,2.57246 -3.75651,5.71348 -3.09199,5.91783 -6.48238,8.63837 -9.94256,7.97817 -1.68913,-0.32228 -2.05683,-1.52229 -2.32244,-7.57933 -0.34049,-7.76451 -1.50847,-9.37423 -7.9511,-10.95825 -2.5884,-0.6364 -2.93333,-0.41876 -2.93333,1.85085 0,1.41463 -1.92,6.54238 -4.26667,11.39498 -2.34666,4.85261 -4.26666,9.25319 -4.26666,9.77906 0,0.52587 1.50269,3.08802 3.33932,5.69367 l 3.33932,4.73753 -2.31463,3.25059 c -1.27304,1.78783 -4.01878,4.6553 -6.10163,6.37216 l -3.78701,3.12157 -0.58717,14.83259 -0.58718,14.83258 5.01294,4.41257 5.01294,4.41257 5.3397,-1.58572 c 6.80013,-2.01942 14.6944,-2.20602 18.93944,-0.44766 4.26041,1.76472 5.8795,7.31398 5.20977,17.8559 -0.54166,8.52599 -2.48905,12.53821 -7.00493,14.4323 -1.75749,0.73715 -12.8421,1.37665 -28.47755,1.64295 l -25.6,0.43603 -3.66573,-3.8134 c -3.41985,-3.5576 -3.66142,-4.27209 -3.6014,-10.65175 0.0534,-5.6798 0.53895,-7.46062 2.86573,-10.51119 1.54077,-2.02005 2.8014,-4.36071 2.8014,-5.20146 0,-2.5877 2.94314,-5.90503 6.90832,-7.78663 5.77986,-2.74272 6.95028,-5.41943 7.69179,-17.59077 l 0.66021,-10.83676 -4.28802,0.68569 c -5.42117,0.86687 -8.56697,-0.76335 -10.52751,-5.45557 -1.73815,-4.15998 -4.27817,-5.81928 -8.908,-5.81928 -3.39237,0 -7.53679,3.14693 -7.53679,5.72281 0,0.80089 -1.01985,2.75268 -2.26633,4.33733 -2.15788,2.7433 -2.58147,2.84742 -8.85201,2.1759 -7.59963,-0.81385 -8.30384,-0.3313 -10.16299,6.96395 -0.67279,2.64 -2.4853,8.85148 -4.02781,13.80328 -2.23899,7.18767 -2.51216,9.10074 -1.35458,9.48659 0.79749,0.26583 5.32307,2.51808 10.05685,5.00499 10.56071,5.54812 12.10198,7.92021 10.32,15.88296 -3.23832,14.47034 -12.03794,18.96197 -39.57979,20.20293 -6.16,0.27755 -12.4,0.27867 -13.86667,0.002 z m 31.59609,-5.81739 c 11.78174,-2.0517 19.60391,-9.13882 19.60391,-17.76173 0,-5.11535 -3.15616,-7.09502 -10.02453,-6.28778 -3.18668,0.37453 -6.6748,0.95801 -7.75138,1.29663 -1.07659,0.33861 0.1272,-1.2723 2.67507,-3.57981 3.79113,-3.43348 4.30805,-4.31998 2.8461,-4.88098 -2.71772,-1.04289 -6.83232,-0.82101 -9.30381,0.50169 -1.72138,0.92125 -3.49055,0.75475 -7.8977,-0.74329 -6.22427,-2.11569 -8.01033,-1.54356 -5.87172,1.88089 1.95974,3.13805 0.13771,4.02796 -8.40536,4.10532 -8.81298,0.0798 -15.77186,1.41792 -17.77112,3.41718 -1.06421,1.06421 -1.56222,3.86453 -1.56222,8.78442 0,11.95398 3.78341,14.1115 25.11263,14.32071 6.40528,0.0628 14.66284,-0.41113 18.35013,-1.05325 z m 87.8445,-5.18368 c 10.63953,-0.88062 11.31545,-1.08325 14.13333,-4.237 2.66431,-2.98188 2.95941,-4.09173 2.95941,-11.13001 0,-10.85938 -1.1967,-11.86959 -13.0512,-11.01742 -4.84851,0.34853 -12.29409,1.538 -16.54575,2.64326 -4.25165,1.10526 -7.9459,1.79393 -8.20945,1.53038 -0.26355,-0.26355 0.54778,-1.86822 1.80295,-3.56594 1.76562,-2.38812 1.99456,-3.37433 1.01154,-4.35735 -0.98303,-0.98302 -2.06719,-0.49852 -4.79013,2.14066 -4.31697,4.18417 -7.36566,4.32702 -10.20014,0.47792 -1.78712,-2.42683 -2.49316,-2.72941 -4.08896,-1.75234 -2.92645,1.7918 -2.85671,4.16349 0.16288,5.53931 3.93859,1.79453 3.32999,3.04874 -1.81417,3.73872 -6.45044,0.86519 -8.63353,3.90076 -8.03096,11.167 0.25766,3.10698 1.01804,6.19862 1.68973,6.87032 2.75921,2.75921 24.05391,3.68375 44.97092,1.95249 z M 403.90743,634.1582 c 2.65759,-1.86145 4.15558,-6.78852 2.5516,-8.39251 -2.61421,-2.61421 -0.84412,-3.11721 8.49002,-2.41257 11.84842,0.89443 12.59358,1.16352 11.98841,4.32924 -0.55338,2.89483 2.9123,6.98429 5.91895,6.98429 1.0577,0 5.7377,-1.85629 10.4,-4.12509 8.56519,-4.16804 14.34358,-8.56855 14.34358,-10.9233 0,-2.04656 -5.28886,-8.41828 -6.98762,-8.41828 -2.10545,0 -1.96105,-0.65748 1.01129,-4.6045 3.82319,-5.07689 6.04926,-12.917 6.09388,-21.4623 0.0397,-7.60288 -2.43966,-16.59986 -4.57452,-16.59986 -0.56393,0 -3.16781,1.47407 -5.78641,3.27571 -11.5145,7.92218 -20.14761,9.60135 -35.60156,6.92464 -14.31928,-2.48019 -18.62403,-5.30129 -26.37164,-17.28255 -1.19911,-1.85435 -1.53585,-1.71828 -5.13568,2.07517 -2.11883,2.2328 -3.66489,4.62225 -3.43567,5.3099 0.22921,0.68764 2.47264,1.8455 4.98538,2.573 5.68896,1.64711 7.53588,3.14002 7.53588,6.09142 0,3.05423 -4.54442,5.64641 -11.52147,6.57195 l -5.54519,0.7356 v 5.70489 c 0,3.4807 1.03682,8.4595 2.65939,12.77025 l 2.65939,7.06536 -2.12606,2.70284 c -5.11446,6.50199 -1.99184,10.75119 13.60434,18.51252 9.09437,4.52574 11.48862,4.94418 14.84371,2.59418 z m -34.84077,-83.22488 c 4.13503,-3.05074 10.9981,-3.59628 14.48826,-1.15168 2.01489,1.41128 2.80322,0.90014 11.51585,-7.46667 l 9.3529,-8.98165 h -8.05871 c -4.43229,0 -11.40597,-0.57399 -15.49706,-1.27554 -9.23041,-1.58284 -10.27356,-0.84925 -15.02615,10.56698 -4.50908,10.8313 -3.54859,13.30589 3.22491,8.30856 z m 108.09814,-7.93815 c 0.54845,-0.54845 -1.67872,-1.20429 -5.31007,-1.56365 -17.52586,-1.73438 -23.65029,-3.43902 -21.13474,-5.88251 0.55733,-0.54137 6.77333,-1.53659 13.81333,-2.21161 32.27276,-3.09442 45.3656,-7.78309 49.8137,-17.83875 1.90968,-4.31716 1.94283,-4.90439 0.40896,-7.24537 -1.82548,-2.78602 -7.47832,-4.77138 -13.61191,-4.78068 -6.89909,-0.0105 -10.80568,-7.93095 -8.37112,-16.9722 1.67354,-6.21509 0.0919,-10.39142 -6.32,-16.68744 -8.86631,-8.70614 -12.64619,-9.77765 -18.15123,-5.14546 -8.91758,7.50365 -11.76074,26.54111 -6.01685,40.28816 0.94331,2.25767 1.71512,4.45509 1.71512,4.88316 0,0.42807 -3.8006,1.07138 -8.44578,1.42959 -10.26846,0.79185 -19.01077,3.72715 -26.54934,8.91415 -6.38142,4.39081 -9.36992,8.92474 -7.79572,11.82706 1.7655,3.25499 6.92447,7.55496 11.21409,9.34685 3.00014,1.25325 6.85811,1.66921 13.86666,1.49508 5.60578,-0.13927 10.83724,0.27794 12.37675,0.98704 2.95346,1.36038 16.93169,0.72304 18.49815,-0.84342 z"
       id="path1" />
  </g>
</svg>
