<?xml version="1.0" encoding="UTF-8" standalone="no"?>
<!-- Created with Inkscape (http://www.inkscape.org/) -->

<svg
   version="1.1"
   id="svg1"
   width="793.59998"
   height="1122.1333"
   viewBox="0 0 793.59998 1122.1333"
   sodipodi:docname="Mikey Frame 6.png"
   xmlns:inkscape="http://www.inkscape.org/namespaces/inkscape"
   xmlns:sodipodi="http://sodipodi.sourceforge.net/DTD/sodipodi-0.dtd"
   xmlns="http://www.w3.org/2000/svg"
   xmlns:svg="http://www.w3.org/2000/svg">
  <defs
     id="defs1" />
  <sodipodi:namedview
     id="namedview1"
     pagecolor="#ffffff"
     bordercolor="#000000"
     borderopacity="0.25"
     inkscape:showpageshadow="2"
     inkscape:pageopacity="0.0"
     inkscape:pagecheckerboard="0"
     inkscape:deskcolor="#d1d1d1" />
  <g
     inkscape:groupmode="layer"
     inkscape:label="Image"
     id="g1">
    <path
       style="fill:#000000"
       d="m 341.19577,707.19359 c -2.12899,-1.12498 -5.19,-3.61311 -6.80225,-5.52916 -2.75892,-3.27879 -2.89729,-3.93434 -2.35206,-11.14343 0.31861,-4.21284 1.08562,-8.60578 1.70446,-9.76209 1.41157,-2.63755 7.43575,-5.07263 15.05407,-6.08514 4.33132,-0.57565 7.73098,-2.01275 12.99035,-5.49126 6.01871,-3.98074 7.40813,-5.49263 8.95748,-9.74704 1.00858,-2.76952 3.66707,-9.8087 5.90776,-15.64263 l 4.07398,-10.60714 -5.79166,-6.07196 c -5.5208,-5.78798 -5.74365,-6.23942 -4.76479,-9.65248 0.56478,-1.96929 1.02688,-3.9437 1.02688,-4.38757 0,-3.90976 -13.29679,5.95477 -21.43243,15.90014 -3.28116,4.01105 -10.24116,13.53282 -15.46666,21.15948 -15.45006,22.54951 -35.15698,40.52036 -50.2659,45.83774 -8.87672,3.12404 -32.49377,3.52769 -29.46976,0.50368 0.53705,-0.53705 5.72971,-1.46934 11.53925,-2.07176 13.35826,-1.38518 17.52748,-2.51057 26.29834,-7.09866 15.21845,-7.96087 25.58566,-18.94417 45.54042,-48.24676 12.5523,-18.43245 22.93454,-30.11017 28.88754,-32.49209 l 4.18749,-1.6755 -1.455,-4.83462 c -0.80026,-2.65904 -1.78259,-7.73003 -2.18296,-11.26886 -0.40038,-3.53883 -1.17668,-6.71156 -1.72511,-7.05051 -1.42333,-0.87967 -3.69779,2.58118 -5.20176,7.91507 -1.58195,5.61046 -6.47849,12.58356 -9.51239,13.54649 -5.43245,1.72419 -6.79856,-4.49398 -3.25199,-14.80225 l 2.08908,-6.07202 -3.73156,-1.77946 c -3.2552,-1.55229 -4.16869,-1.59332 -7.15575,-0.3214 -5.47045,2.32938 -15.30362,2.67666 -18.3971,0.64973 -1.4449,-0.94673 -2.62708,-2.38759 -2.62708,-3.20192 0,-2.63059 6.22716,-6.84693 11.21757,-7.59528 6.54719,-0.98182 10.11576,-3.9424 10.11576,-8.39232 0,-2.15397 1.17168,-5.11333 3.0524,-7.7096 1.67883,-2.31755 5.2567,-8.80644 7.95083,-14.41976 9.30992,-19.39756 11.02138,-20.42394 34.86343,-20.90797 9.68,-0.19653 18.16196,-0.54245 18.84879,-0.76872 0.9393,-0.30944 0.90024,-1.56948 -0.15758,-5.08437 -0.7735,-2.57014 -1.75768,-8.42203 -2.18706,-13.0042 -0.90011,-9.60553 -2.7324,-12.32134 -8.31288,-12.32134 -5.02141,0 -14.6761,-5.19267 -17.45346,-9.38716 -4.14152,-6.25469 -4.58716,-20.76017 -0.85928,-27.9691 0.9062,-1.75239 3.60048,-4.4785 5.9873,-6.05802 3.69541,-2.44552 5.75327,-2.93944 13.86178,-3.32712 12.48252,-0.59679 18.12214,0.99737 23.78367,6.72299 2.39546,2.42258 5.2178,5.69778 6.27185,7.27822 1.90059,2.84971 5.37174,3.82152 6.59283,1.84577 0.34935,-0.56527 -0.31555,-1.9785 -1.47756,-3.14051 -4.45657,-4.45658 -4.32267,-18.44305 0.26322,-27.49286 5.22332,-10.30774 13.3855,-14.49929 23.9282,-12.28793 8.03213,1.68476 13.42641,5.4987 17.27938,12.2171 2.72966,4.7597 3.21228,6.72186 3.22079,13.09462 0.007,5.13718 -0.52341,8.25755 -1.68512,9.91614 -0.93233,1.33108 -1.45154,3.05495 -1.15381,3.83082 0.29773,0.77588 3.9652,3.68687 8.14993,6.46887 11.32122,7.52633 20.29901,20.92717 20.29901,30.29961 0,1.68038 0.2887,4.49874 0.64156,6.26303 0.6041,3.02049 1.00767,3.24922 6.91151,3.91716 4.40924,0.49885 7.20936,1.49984 9.43549,3.373 l 3.16554,2.66363 4.27951,-3.10006 c 7.08369,-5.1314 10.28145,-6.09129 13.42676,-4.03041 4.162,2.72705 3.69445,8.051 -1.07477,12.23843 -4.7097,4.13518 -8.56673,6.14259 -13.626,7.09171 -2.18168,0.40929 -5.73961,2.1531 -7.90653,3.87515 -7.10543,5.64669 -15.84449,10.40025 -22.12975,12.03735 -7.73457,2.0146 -9.12332,3.16834 -9.12332,7.57943 0,5.55242 -3.40689,7.49399 -14.52682,8.27873 -10.81637,0.76333 -12.14502,1.65574 -12.93788,8.68999 -0.51266,4.54826 -0.25573,5.28983 2.99454,8.64327 1.95543,2.01748 4.14116,3.66815 4.85718,3.66815 2.3867,0 2.25739,-2.63225 -0.27913,-5.68184 -1.37934,-1.65835 -2.50789,-3.69835 -2.50789,-4.53333 0,-1.73791 3.73453,-5.78483 5.33829,-5.78483 0.58939,0 5.74939,2.34223 11.46667,5.20495 14.95535,7.48835 17.21698,8.07961 23.17194,6.05785 9.95741,-3.38063 19.20305,-1.27472 16.50846,3.76018 -1.25736,2.34939 -7.19669,6.27022 -12.75203,8.4182 -4.4853,1.73425 -7.46666,4.12591 -7.46666,5.98977 0,0.75184 2.51152,2.71745 5.58115,4.36802 6.71434,3.61036 8.74261,7.54931 5.64808,10.96873 -1.36585,1.50925 -3.29267,2.16563 -6.35721,2.16563 -5.09184,0 -8.48088,-2.03388 -10.77217,-6.46475 -0.89172,-1.72439 -2.11106,-3.13525 -2.70965,-3.13525 -0.59859,0 -2.19117,2.38034 -3.53907,5.28965 -3.32549,7.17773 -4.66505,8.57702 -8.21088,8.57702 -4.1124,0 -5.37907,-2.63954 -4.06764,-8.47632 1.18422,-5.27058 -0.19761,-7.66992 -5.47725,-9.51042 -3.64326,-1.27004 -3.33355,-1.63835 -9.57191,11.38279 -5.19797,10.84957 -5.20083,9.69794 0.0446,18.01871 2.15006,3.4106 0.31283,7.58869 -5.04946,11.48312 l -4.45493,3.23545 -0.046,15.46667 -0.0459,15.46666 4.33715,3.60221 4.33714,3.60221 7.87608,-1.34724 c 10.14777,-1.73583 16.00489,-0.94994 19.57393,2.62638 2.54656,2.55177 2.7655,3.48533 2.70776,11.54634 -0.0829,11.57234 -2.83599,18.25653 -7.94001,19.27734 -1.90511,0.38102 -14.67627,0.69276 -28.38035,0.69276 h -24.9165 l -3.38088,-3.02081 c -2.82999,-2.5286 -3.45939,-3.96761 -3.86274,-8.83148 -0.47316,-5.70565 0.18006,-8.01767 4.56221,-16.14771 0.8696,-1.61333 2.19463,-4.24466 2.94451,-5.84741 0.87892,-1.87853 2.93854,-3.49591 5.79585,-4.5514 2.43782,-0.90052 4.73326,-1.93816 5.10096,-2.30586 1.27471,-1.27471 2.78437,-15.31758 2.13166,-19.82866 -0.65385,-4.51887 -0.6704,-4.53333 -5.18671,-4.53333 -5.3705,0 -7.85945,-1.59115 -10.17603,-6.50534 -1.50269,-3.18769 -2.31089,-3.69719 -6.65934,-4.19811 -6.46758,-0.74505 -7.06106,-0.47409 -8.97035,4.09547 -2.89271,6.92324 -4.33048,7.8261 -11.22133,7.04648 -7.23235,-0.81824 -6.70299,-1.45559 -12.18813,14.67434 -4.20004,12.3509 -4.57094,15.63554 -1.85667,16.4422 4.6095,1.36989 15.5798,7.61545 17.42821,9.92214 3.192,3.98339 2.73201,11.41153 -1.07877,17.42051 -6.14296,9.68645 -15.54055,12.58183 -40.6161,12.51377 -12.08675,-0.0328 -15.02183,-0.36767 -18.27089,-2.08452 z m 31.32414,-2.14565 c 18.23045,-2.08882 28.54674,-8.86854 28.54674,-18.76051 0,-6.41562 -5.79982,-8.44327 -14.93333,-5.22078 -5.23914,1.84847 -5.34165,1.86392 -5.30812,0.8 0.0139,-0.44 1.93387,-2.21208 4.26667,-3.93795 2.3328,-1.72587 4.24145,-3.46764 4.24145,-3.87059 0,-0.40296 -1.49344,-1.35125 -3.31877,-2.10732 -2.87537,-1.19102 -3.80182,-1.11454 -6.93437,0.57245 -3.08178,1.65965 -4.2243,1.76476 -7.73832,0.71194 -7.46774,-2.2374 -9.67701,-1.02215 -5.84322,3.21414 1.41283,1.56117 1.46608,1.96681 0.26667,2.03156 -18.51048,0.99923 -26.77665,1.8371 -27.7526,2.81305 -1.46524,1.46523 -2.66126,8.21895 -2.22652,12.57272 0.4866,4.87321 3.518,7.99803 9.89455,10.19948 6.57114,2.26863 13.4213,2.51922 26.83917,0.98181 z M 479.72228,697.818 c 3.73563,-2.10777 5.84901,-7.35361 6.00402,-14.90318 0.23626,-11.50699 -3.6084,-12.83101 -25.3057,-8.7148 -6.36867,1.20821 -11.81093,1.9652 -12.09393,1.6822 -0.283,-0.283 0.54426,-1.94664 1.83835,-3.69698 2.71732,-3.67538 2.06682,-6.14588 -1.1631,-4.41728 -1.13773,0.60889 -2.0686,1.78297 -2.0686,2.60907 0,2.18115 -4.05299,4.67911 -6.5377,4.02934 -1.17316,-0.30679 -2.87732,-1.69373 -3.78701,-3.08209 -1.92229,-2.9338 -3.39788,-3.14884 -6.27142,-0.91393 -2.0073,1.56119 -1.95775,1.70778 1.6225,4.8 l 3.69304,3.18963 h -3.81585 c -7.41567,0 -11.36131,6.1927 -9.56707,15.01555 1.17137,5.75995 4.24928,6.34695 31.59684,6.0259 16.4841,-0.19352 24.17751,-0.67657 25.85563,-1.62343 z M 405.2559,631.85613 c 2.70111,-3.4339 2.84766,-6.46662 0.34409,-7.12087 -1.02667,-0.26829 3.53333,-0.54349 10.13333,-0.61154 l 12,-0.12374 v 3.08183 c 0,1.69501 0.85771,4.14105 1.90601,5.43566 1.77236,2.18877 2.23943,2.26405 6.66067,1.07353 8.66643,-2.33363 21.23161,-10.31009 21.28076,-13.50918 0.0333,-2.17053 -5.41417,-7.81517 -7.54226,-7.81517 -2.71417,0 -2.64378,-0.29784 1.75428,-7.42326 4.77806,-7.74107 6.87387,-14.64861 6.87387,-22.65543 0,-6.31283 -3.07658,-14.72131 -5.38639,-14.72131 -0.592,0 -3.45539,1.88051 -6.3631,4.17892 -7.77893,6.1489 -11.23881,7.02322 -27.725,7.00623 -13.60065,-0.014 -14.74987,-0.1822 -20.51339,-3.00203 -4.74373,-2.32089 -7.09616,-4.39937 -10.54673,-9.31848 -2.44263,-3.48222 -4.64365,-6.33131 -4.89114,-6.33131 -0.24749,0 -2.16474,1.61777 -4.26054,3.59504 -4.24962,4.00928 -3.96086,6.00496 0.86888,6.00496 4.78603,0 9.48408,2.80577 9.48408,5.66408 0,3.0056 -4.21321,5.62279 -11.60298,7.20762 l -5.46368,1.17175 v 8.76944 c 0,7.91141 0.31309,9.26315 3.2,13.81532 3.833,6.04402 3.86087,6.30856 0.80623,7.65219 -2.64361,1.16283 -3.46184,3.62682 -2.4901,7.49855 0.70315,2.80158 6.79239,6.78288 16.44919,10.75491 8.1629,3.35755 12.22347,3.28249 15.02392,-0.27771 z m -35.71871,-82.0234 c 2.38768,-1.80595 11.4748,-2.09854 14.52224,-0.4676 1.6958,0.90757 2.84228,0.37208 6.59654,-3.08104 2.49921,-2.29873 6.9082,-5.56561 9.79777,-7.25972 9.26128,-5.42978 8.763,-5.73194 -13.69286,-8.30344 -6.98818,-0.80024 -13.36486,-1.20207 -14.17039,-0.89295 -3.31459,1.27192 -8.17728,10.25452 -8.65233,15.98299 -0.41405,4.99298 -0.23481,5.65171 1.52974,5.62176 1.09932,-0.0187 2.9305,-0.73866 4.06929,-1.6 z m 109.11772,-4.9966 c 2.66501,-2.17354 -0.0817,-2.96948 -10.24734,-2.96948 -7.36104,0 -11.00485,-0.44719 -12.47038,-1.53044 -1.9737,-1.45886 -1.88617,-1.60806 1.87149,-3.19009 2.16811,-0.91281 11.04811,-3.08328 19.73333,-4.82328 19.19858,-3.84623 21.20967,-4.43182 28.10079,-8.18244 7.39152,-4.02297 11.69052,-9.08039 11.69052,-13.75294 0,-5.08023 -3.73572,-7.41714 -11.91634,-7.45437 -9.5086,-0.0433 -10.87311,-1.93055 -11.56559,-15.99665 l -0.5486,-11.14338 -4.78474,-4.9179 c -4.7562,-4.88856 -11.27764,-9.00851 -14.25952,-9.00851 -0.85788,0 -3.757,2.51176 -6.44249,5.58168 l -4.88272,5.58168 V 485.988 c 0,11.20958 0.35857,13.91064 2.6575,20.01832 1.46163,3.88318 2.30163,7.08788 1.86667,7.12156 -11.46192,0.88741 -21.96894,4.95676 -33.16477,12.84465 -6.75675,4.76038 -7.62607,5.76308 -7.62607,8.79615 0,7.78373 5.07207,10.2453 21.33334,10.35349 5.57333,0.0371 11.98288,0.39976 14.24343,0.80595 5.23659,0.94094 14.69014,0.31192 16.41149,-1.09199 z"
       id="path1" />
  </g>
</svg>
