<?xml version="1.0" encoding="UTF-8" standalone="no"?>
<!-- Created with Inkscape (http://www.inkscape.org/) -->

<svg
   version="1.1"
   id="svg1"
   width="793.59998"
   height="1122.1333"
   viewBox="0 0 793.59998 1122.1333"
   sodipodi:docname="Mikey Frame 2.png"
   xmlns:inkscape="http://www.inkscape.org/namespaces/inkscape"
   xmlns:sodipodi="http://sodipodi.sourceforge.net/DTD/sodipodi-0.dtd"
   xmlns="http://www.w3.org/2000/svg"
   xmlns:svg="http://www.w3.org/2000/svg">
  <defs
     id="defs1" />
  <sodipodi:namedview
     id="namedview1"
     pagecolor="#ffffff"
     bordercolor="#000000"
     borderopacity="0.25"
     inkscape:showpageshadow="2"
     inkscape:pageopacity="0.0"
     inkscape:pagecheckerboard="0"
     inkscape:deskcolor="#d1d1d1" />
  <g
     inkscape:groupmode="layer"
     inkscape:label="Image"
     id="g1">
    <path
       style="fill:#000000"
       d="m 354.93267,711.02605 c -11.60453,-3.12201 -15.61155,-13.45991 -9.88624,-25.50595 2.4939,-5.24716 5.13835,-6.90698 13.29273,-8.34335 4.41066,-0.77692 7.57851,-2.0478 9.46698,-3.79798 1.56101,-1.44669 4.34485,-3.25986 6.18631,-4.02928 3.57949,-1.4956 3.43595,-1.20436 10.52172,-21.34951 4.36717,-12.41605 4.54288,-14.42173 1.50403,-17.16801 -1.23665,-1.11759 -3.1533,-3.30138 -4.25923,-4.85287 -1.85171,-2.59774 -1.88479,-3.12237 -0.41821,-6.6324 2.14345,-5.13 2.08116,-5.25417 -1.66416,-3.31738 -7.34028,3.7958 -19.78601,18.476 -37.5134,44.24844 -13.25108,19.26468 -21.50346,26.25805 -39.8619,33.78041 -12.57466,5.15246 -25.35263,6.0727 -34.81437,2.50727 -5.55019,-2.09146 -8.06538,-3.80924 -7.05579,-4.81883 0.20796,-0.20796 4.21603,0.56977 8.90681,1.72829 14.98161,3.70013 28.52334,0.97092 44.44425,-8.95732 7.73572,-4.82397 17.48029,-13.8275 22.78356,-21.05093 1.50751,-2.05334 7.01799,-10.45334 12.24553,-18.66667 5.22753,-8.21333 12.13067,-18.2858 15.34032,-22.38326 l 5.83571,-7.44993 -3.28941,-2.74612 c -3.21017,-2.67997 -3.27558,-2.9183 -2.71566,-9.89378 l 0.57375,-7.14766 -13.11897,0.70133 c -12.74981,0.6816 -13.20996,0.62937 -16.35232,-1.85629 -1.77834,-1.40669 -3.25991,-3.14656 -3.29237,-3.86636 -0.0981,-2.17642 4.6821,-4.5883 10.44704,-5.27107 3.72493,-0.44116 5.58959,-1.18777 5.90845,-2.36572 0.25624,-0.94663 1.05296,-4.36114 1.7705,-7.5878 1.55031,-6.97152 4.21071,-12.5701 7.30149,-15.36532 1.23576,-1.1176 2.24684,-3.31047 2.24684,-4.87307 0,-8.68252 6.16538,-18.99796 13.6497,-22.83761 3.55066,-1.82159 15.87521,-4.49255 27.94853,-6.05698 4.9857,-0.64603 9.27128,-1.38099 9.52353,-1.63323 0.25224,-0.25224 -0.90098,-3.30323 -2.56271,-6.77997 -2.90133,-6.07029 -2.99456,-6.75819 -2.34756,-17.32091 0.37057,-6.04977 0.98056,-12.07958 1.35554,-13.39958 0.65472,-2.30474 0.41842,-2.4 -5.95331,-2.4 -5.5388,0 -7.82802,-0.62686 -13.85503,-3.79396 -11.46694,-6.02571 -13.90678,-9.16867 -13.8765,-17.87548 0.0349,-10.04609 5.75233,-19.01853 15.98447,-25.08481 4.14348,-2.45652 5.85017,-2.81693 12.47801,-2.63509 15.15419,0.41578 18.56167,2.67399 20.90702,13.85553 1.32678,6.32547 2.40603,7.35217 6.61736,6.29519 2.08081,-0.52225 2.66428,-1.35124 2.66428,-3.78541 0,-1.7142 -0.48,-3.41339 -1.06667,-3.77597 -2.83129,-1.74983 1.18454,-17.85129 6.56942,-26.34005 7.57377,-11.93934 25.4117,-13.76717 36.79721,-3.77056 6.69632,5.87945 8.22897,12.15875 5.55736,22.76866 -0.91853,3.64783 -2.44138,5.86398 -6.33292,9.21607 -5.50203,4.73933 -5.75937,6.12588 -1.13695,6.12588 4.21112,0 12.09187,5.38235 17.03259,11.63284 6.01138,7.60497 8.05514,14.46397 7.87015,26.41283 l -0.15139,9.779 4.31686,0.72933 c 2.5149,0.42489 5.87305,2.09568 8.04491,4.0026 l 3.72804,3.27326 4.98569,-1.78687 c 6.56732,-2.35373 10.37977,-2.24891 12.98569,0.35701 2.47663,2.47663 2.87737,8.7213 0.67686,10.54755 -0.80106,0.66482 -5.36655,1.99301 -10.14555,2.95154 -7.23674,1.45148 -9.68795,2.51841 -14.66517,6.38331 -7.62358,5.91984 -14.01468,7.82374 -28.87902,8.60303 l -11.94623,0.6263 -2.92119,6.87331 c -3.24259,7.62951 -2.86761,9.58788 2.15651,11.26258 3.97049,1.3235 4.46217,0.4485 2.30382,-4.09988 -1.06701,-2.24856 -1.56246,-4.93813 -1.18598,-6.43814 1.09236,-4.35231 6.50383,-3.43066 19.3196,3.2904 l 11.1866,5.86667 h 10.0471 c 11.28452,0 15.51932,1.11194 15.51932,4.07494 0,4.24684 -8.41091,8.5916 -16.8,8.67824 -2.49333,0.0258 -4.53333,0.47842 -4.53333,1.00593 0,0.52751 2.87067,4.12678 6.37927,7.99839 8.6213,9.51326 9.60526,13.6517 3.52231,14.81453 -3.31965,0.63459 -7.30209,-1.1103 -10.43492,-4.57203 -2.56262,-2.83167 -7.47,-5.50778 -8.39809,-4.57968 -0.36772,0.36771 -0.66857,2.2924 -0.66857,4.27709 0,7.0067 -5.06157,13.10259 -10.87942,13.10259 -4.5884,0 -6.46297,-3.78502 -5.63406,-11.37594 0.51251,-4.69351 0.28713,-6.74835 -0.91651,-8.35611 -1.56781,-2.09418 -1.60595,-2.08471 -2.14756,0.53334 -0.30327,1.46595 -0.81572,4.96373 -1.13878,7.77283 -0.3364,2.92514 -2.58928,9.10017 -5.27261,14.45196 l -4.68523,9.3445 3.60375,3.93238 c 5.58243,6.09148 4.87032,9.0961 -3.80763,16.06567 -2.39573,1.9241 -2.44069,2.31735 -1.98737,17.38515 l 0.4638,15.41653 4.87552,4.87551 4.87552,4.87552 5.56364,-1.84795 c 7.77575,-2.58268 17.7203,-1.84127 20.44559,1.52431 2.96502,3.66165 2.7356,15.19445 -0.42532,21.3805 -3.67376,7.18971 -6.70297,8.85549 -17.09561,9.40096 -9.87878,0.5185 -36.2945,-1.38809 -42.90439,-3.0967 -5.8396,-1.50948 -6.93333,-3.34872 -6.93333,-11.65916 0,-6.12124 0.43934,-7.75065 3.18059,-11.79613 1.74932,-2.58161 3.18932,-5.20404 3.2,-5.82761 0.0272,-1.58822 5.31703,-6.22251 8.7774,-7.68967 3.95266,-1.67587 6.38305,-10.11409 5.95729,-20.68341 l -0.31528,-7.82649 -7.60884,-0.31088 c -7.49544,-0.30625 -7.61831,-0.35818 -8.24352,-3.48427 -0.74416,-3.72078 -4.40532,-5.53997 -9.21385,-4.57827 -2.75264,0.55053 -3.20046,1.11566 -3.20046,4.03896 0,2.00977 -0.94287,4.41092 -2.30702,5.87517 -2.13775,2.2946 -2.8802,2.42785 -10.11848,1.81599 -7.35655,-0.62186 -7.90606,-0.51592 -9.43595,1.81899 -2.45861,3.75231 -9.42317,24.90367 -8.76491,26.61904 0.31729,0.82686 2.47246,1.8065 4.78926,2.17697 8.04332,1.28618 15.14928,11.81082 15.16449,22.46013 0.005,3.47556 -0.70043,4.83711 -4.26051,8.22374 -8.68797,8.26467 -35.44151,13.06173 -50.40086,9.03717 z m 33.83759,-5.48449 c 14.97918,-4.0723 21.00784,-10.45277 17.61524,-18.64323 -1.50977,-3.64489 -4.10938,-4.696 -9.23572,-3.73429 -3.19323,0.59905 -3.67903,0.42811 -3.36833,-1.18526 0.19969,-1.03689 1.56055,-2.16795 3.02414,-2.51346 3.49444,-0.82492 3.40132,-3.4203 -0.16774,-4.67547 -2.37467,-0.83513 -3.56428,-0.45396 -7.41013,2.37431 -2.51974,1.85304 -4.90077,3.36915 -5.2912,3.36915 -0.39042,0 -2.52186,-1.44 -4.73653,-3.2 -2.21467,-1.76 -5.16068,-3.2 -6.54667,-3.2 -3.08083,0 -3.11237,0.43877 -0.31403,4.36868 l 2.20597,3.09799 -8.3393,0.006 c -15.30391,0.0109 -18.93058,2.45716 -20.23883,13.6514 -0.75405,6.45218 1.98697,10.28754 8.46607,11.84607 6.1535,1.48021 26.562,0.55192 34.33706,-1.56184 z m 98.87049,-5.58623 c 4.81274,-2.97444 7.29257,-8.03591 7.29257,-14.88457 0,-8.42755 -1.79824,-9.41338 -16.41986,-9.00172 -10.92951,0.30772 -12.09081,0.15196 -13.91764,-1.86667 -2.36293,-2.611 -5.92124,-2.81287 -10.23763,-0.58078 -1.72472,0.89189 -3.50088,1.673 -3.94703,1.73581 -0.44614,0.0628 -1.48594,0.37312 -2.31065,0.6896 -1.40467,0.53902 -4.77237,-2.59591 -5.66483,-5.27328 -0.28081,-0.84242 -1.09072,-0.76588 -2.7302,0.25799 -3.6433,2.27528 -3.70894,4.1267 -0.2605,7.34802 l 3.18857,2.97858 -5.70565,0.71287 c -4.68919,0.58588 -5.9214,1.18642 -6.91678,3.37103 -1.70495,3.74196 -1.50571,10.64415 0.36115,12.51101 2.52128,2.52127 25.26958,4.93401 43.24871,4.58705 8.43718,-0.16282 10.80799,-0.59995 14.01977,-2.58494 z m -71.992,-62.9157 c 0.68682,-0.43689 1.56298,-2.04627 1.94701,-3.57638 0.74472,-2.96719 -0.9142,-4.77809 -7.89072,-8.61366 -1.81778,-0.99938 -3.30505,-2.35853 -3.30505,-3.02033 0,-0.68696 1.57445,-0.23021 3.66927,1.06446 2.74838,1.69859 6.02776,2.40377 13.06666,2.80977 5.16857,0.29812 11.03884,0.79382 13.04505,1.10155 l 3.64765,0.55952 -3.01971,2.40783 c -4.1489,3.30821 -2.75071,5.34073 3.12035,4.53601 7.20044,-0.98693 21.90338,-6.00774 24.13856,-8.24292 2.7011,-2.7011 2.6465,-3.0767 -1.22379,-8.41948 l -3.28929,-4.54073 -3.09958,2.96959 c -4.86029,4.65645 -4.46765,2.66474 0.85586,-4.34154 6.19078,-8.1477 10.95731,-18.13775 10.94213,-22.93334 -0.0135,-4.26946 -2.61917,-14.79266 -4.00627,-16.17977 -0.52779,-0.52779 -3.95613,0.64858 -7.93633,2.7232 -8.56565,4.46472 -18.9588,5.76077 -32.34222,4.03314 -10.25227,-1.32343 -14.70879,-3.33204 -22.77254,-10.26386 -3.15564,-2.71267 -6.27564,-4.76332 -6.93333,-4.557 -2.05003,0.64312 -8.12914,10.48802 -8.12914,13.16484 0,2.35089 0.41713,2.54612 5.44,2.54612 4.76445,0 5.89037,0.45037 9.06667,3.62667 4.29099,4.29099 4.45394,5.3821 1.12911,7.56061 -2.97977,1.95242 -8.92449,2.41376 -15.9997,1.24165 -5.06331,-0.83881 -5.14921,-0.80717 -4.40879,1.62446 0.71436,2.34608 6.00041,11.37544 9.72589,16.61328 1.64288,2.30981 1.60362,2.4 -1.04478,2.4 -3.72899,0 -8.91624,8.35534 -7.18989,11.58107 1.41507,2.64408 7.65619,6.55226 10.46354,6.55226 1.17164,0 3.27498,0.88832 4.6741,1.97405 4.7831,3.71173 14.40066,5.67177 17.65928,3.59893 z m -33.46459,-33.6837 c -0.25895,-3.64974 -3.20257,-8.47649 -4.63103,-7.59365 -1.17634,0.72701 -1.39343,9.37519 -0.2637,10.50492 0.41586,0.41586 1.73586,0.61537 2.93333,0.44336 1.67276,-0.24028 2.12722,-1.01755 1.9614,-3.35463 z m -1.72756,-46.13338 c 3.33294,-1.91147 6.05769,-2.5559 10.80673,-2.5559 6.08856,0 6.47483,-0.16476 9.37774,-4 1.66519,-2.2 5.17812,-6.31237 7.80651,-9.13859 5.08877,-5.4718 4.80814,-7.45296 -0.93069,-6.57029 -1.4943,0.22983 -8.2369,0.9493 -14.98357,1.59881 -16.12754,1.55263 -16,1.50567 -16,5.89093 0,2.00041 -1.2,6.82521 -2.66666,10.72179 -1.46667,3.89657 -2.66667,7.29987 -2.66667,7.56289 0,0.8766 4.74639,-0.92299 9.25661,-3.50964 z m 78.2921,-12.07385 c 2.87893,-2.87893 4.27135,-7.54872 2.25085,-7.54872 -0.47691,0 -2.24671,1.44 -3.9329,3.2 -6.46481,6.74781 -17.20638,1.7375 -22.57253,-10.52877 -3.40848,-7.7913 -2.78498,-38.53789 0.78149,-38.53789 0.54507,0 0.99104,2.3772 0.99104,5.28266 0,10.62651 12.096,28.43653 22.74532,33.48996 9.40939,4.46505 30.29922,4.23859 41.19006,-0.44652 6.46796,-2.78244 8.50952,-4.95464 9.31359,-9.90952 1.30076,-8.01567 -3.6138,-12.99037 -12.09525,-12.24326 l -4.08705,0.36001 -0.98987,-6.24736 c -0.68057,-4.29535 -0.59725,-8.14817 0.26667,-12.33087 1.81261,-8.77579 1.59724,-10.65949 -1.91993,-16.79191 -9.44311,-16.46473 -25.8623,-13.90301 -31.38751,4.89708 -3.03303,10.32021 -1.78101,17.73571 4.19322,24.83568 2.56837,3.05233 2.9437,5.01181 0.69363,3.62119 -0.56048,-0.34639 -4.01592,-5.41754 -7.67876,-11.26921 -7.4951,-11.974 -8.57925,-13.1607 -14.14982,-15.48823 -3.92576,-1.64029 -3.96096,-1.63238 -3.96096,0.88966 0,2.15478 -0.67086,2.65192 -4.37864,3.24482 -2.40825,0.3851 -5.81286,1.44184 -7.56579,2.34831 -1.75294,0.90648 -3.44185,1.39345 -3.75314,1.08216 -1.39355,-1.39355 1.14314,-4.14555 5.66493,-6.14576 3.36365,-1.4879 4.57919,-2.52567 3.8327,-3.27216 -1.76938,-1.76939 -12.38108,2.1588 -17.37168,6.43056 -5.41249,4.6329 -7.36172,9.00214 -7.36172,16.50151 0,12.31411 4.07821,19.33595 15.22586,26.21588 2.21423,1.36653 4.7432,3.87179 5.61995,5.56723 4.54028,8.77993 14.91531,15.87976 23.23624,15.901 3.09788,0.008 4.83378,-0.74131 7.2,-3.10753 z m -4.61538,-6.47036 c 1.90667,-1.16252 3.46667,-2.82322 3.46667,-3.69046 0,-1.73177 -11.09795,-11.38628 -16.00636,-13.92452 -1.69824,-0.87819 -4.07154,-1.59671 -5.27401,-1.59671 -5.56329,0 -0.39306,11.73762 7.95026,18.04891 5.07572,3.83952 5.40885,3.8788 9.86344,1.16278 z"
       id="path1" />
  </g>
</svg>
