<?xml version="1.0" encoding="UTF-8" standalone="no"?>
<!-- Created with Inkscape (http://www.inkscape.org/) -->

<svg
   version="1.1"
   id="svg1"
   width="793.59998"
   height="1122.1333"
   viewBox="0 0 793.59998 1122.1333"
   sodipodi:docname="Mikey Frame 4.png"
   xmlns:inkscape="http://www.inkscape.org/namespaces/inkscape"
   xmlns:sodipodi="http://sodipodi.sourceforge.net/DTD/sodipodi-0.dtd"
   xmlns="http://www.w3.org/2000/svg"
   xmlns:svg="http://www.w3.org/2000/svg">
  <defs
     id="defs1" />
  <sodipodi:namedview
     id="namedview1"
     pagecolor="#ffffff"
     bordercolor="#000000"
     borderopacity="0.25"
     inkscape:showpageshadow="2"
     inkscape:pageopacity="0.0"
     inkscape:pagecheckerboard="0"
     inkscape:deskcolor="#d1d1d1" />
  <g
     inkscape:groupmode="layer"
     inkscape:label="Image"
     id="g1">
    <path
       style="fill:#000000"
       d="m 348.7347,709.01886 c -5.44959,-1.55338 -11.13017,-5.22076 -12.73688,-8.22294 -1.4129,-2.64002 -1.35146,-10.71161 0.12619,-16.57992 1.46419,-5.8148 5.13294,-8.36204 15.03246,-10.43715 3.83286,-0.80344 8.59064,-2.61357 10.57285,-4.02251 1.9822,-1.40894 4.564,-3.08332 5.73734,-3.72083 1.38351,-0.75171 3.63296,-5.26636 6.4,-12.84478 2.34666,-6.42712 5.1785,-13.70197 6.29298,-16.16634 l 2.02632,-4.48066 -5.49299,-5.80802 c -3.02114,-3.19442 -5.49298,-6.06047 -5.49298,-6.36902 0,-0.30855 0.80603,-2.25125 1.79117,-4.31712 0.98515,-2.06587 1.47384,-4.07347 1.08599,-4.46132 -1.20716,-1.20716 -9.31208,5.14053 -15.48371,12.12669 -3.24547,3.67381 -9.96106,12.32086 -14.92353,19.21568 -11.50382,15.98332 -21.06523,27.33766 -28.18485,33.47001 -19.4229,16.72957 -36.82724,24.02086 -50.54176,21.17374 -5.92472,-1.22997 -7.8008,-2.61023 -5.99812,-4.41291 0.6924,-0.6924 3.01506,-0.69027 6.78706,0.006 7.9589,1.46963 14.55395,0.0364 26.17771,-5.68896 19.48101,-9.59549 30.37046,-19.79574 49.16969,-46.0577 4.68921,-6.55068 10.68682,-14.71025 13.32802,-18.13236 5.15854,-6.68373 16.39883,-17.8242 18.78716,-18.62031 1.10203,-0.36734 0.4744,-2.42938 -2.57013,-8.44388 l -4.02824,-7.95784 -1.38345,3.2 c -0.7609,1.76 -1.40511,4.73167 -1.43157,6.60371 -0.0552,3.90365 -0.94965,4.70395 -5.39888,4.83045 -4.39743,0.12503 -7.09648,-2.69718 -7.93647,-8.29862 l -0.71014,-4.73554 h -9.4652 c -11.22406,0 -14.62625,-1.0555 -15.57402,-4.83169 -0.91214,-3.63427 3.50639,-8.38931 9.58314,-10.31296 3.66695,-1.16081 4.82438,-2.26385 7.05346,-6.72202 1.46667,-2.93333 4.23417,-7.4557 6.15,-10.04971 1.91583,-2.59401 3.78758,-6.61902 4.15943,-8.94446 0.37185,-2.32545 1.97723,-5.72308 3.5675,-7.55029 1.59027,-1.82721 3.55853,-5.19741 4.3739,-7.48934 0.81538,-2.29192 2.6997,-5.47263 4.18738,-7.06824 2.62904,-2.81976 3.13741,-2.9213 18.13333,-3.62175 17.12408,-0.79985 21.29513,-1.36028 21.29513,-2.86127 0,-0.55856 -1.01332,-4.00042 -2.25182,-7.64858 -1.93857,-5.71029 -2.15505,-8.06977 -1.55612,-16.96108 l 0.6957,-10.32806 -5.11055,-0.74446 c -12.66576,-1.84502 -22.60606,-8.32104 -24.76302,-16.13289 -1.46408,-5.30246 0.33991,-17.57443 3.40828,-23.18548 3.51344,-6.42492 11.50145,-10.21438 21.53146,-10.21438 5.25066,0 8.37976,0.53833 10.20873,1.75631 4.38968,2.92325 12.8395,11.38977 14.48175,14.51035 1.11238,2.11374 2.35564,2.92877 4.44965,2.917 5.57019,-0.0313 6.03291,-1.16885 3.40605,-8.37327 -2.70294,-7.41308 -2.43964,-11.69682 1.14677,-18.65693 4.28769,-8.32108 10.9604,-13.52016 19.37945,-15.09958 5.31128,-0.9964 14.58066,1.85064 18.14671,5.57367 7.2334,7.55181 8.67287,20.60654 3.57771,32.44673 -0.57133,1.32767 1.03186,2.92499 6.75331,6.72861 7.91874,5.26436 14.85996,12.51517 17.93072,18.73044 1.23233,2.49425 2.0305,7.43662 2.40487,14.8913 l 0.56034,11.15797 7.78579,2.43443 c 7.37482,2.30593 7.99416,2.34406 11.73334,0.72238 5.56086,-2.41173 15.63813,-2.50597 17.97599,-0.1681 1.5122,1.51219 1.60614,2.27835 0.56072,4.57281 -0.69071,1.51594 -1.25584,3.64155 -1.25584,4.72358 0,2.16113 -6.68808,5.39896 -11.15214,5.39896 -4.21031,0 -8.16885,1.97316 -13.12655,6.54301 -5.6274,5.18716 -13.38517,8.77465 -23.50324,10.86881 -8.88136,1.8382 -9.81806,2.3211 -9.81806,5.06157 0,1.14445 -0.96,2.9028 -2.13334,3.90744 -3.72608,3.19037 -2.63833,5.2708 4.53334,8.67048 9.58383,4.54314 14.36608,5.55232 24.79461,5.23228 8.95735,-0.27489 9.32019,-0.19174 11.82317,2.70922 3.08108,3.57101 3.13444,4.09675 0.71555,7.04949 -1.31374,1.60367 -3.92042,2.60335 -8.8,3.37486 -10.92321,1.72707 -12.25395,4.87939 -3.92507,9.29785 8.82476,4.68152 10.56153,12.758 3.38803,15.75528 -5.49923,2.29772 -7.21487,1.93001 -13.18926,-2.82688 -4.86704,-3.87519 -5.54812,-4.14039 -6.16375,-2.4 -1.66637,4.71086 -5.81978,8.81386 -9.64943,9.53231 -5.75497,1.07963 -7.79385,-1.87559 -7.79385,-11.29662 0,-5.08715 -0.46832,-7.60655 -1.58642,-8.53449 -2.91802,-2.42174 -4.48768,-0.46338 -5.26207,6.56512 -0.42864,3.89041 -2.14032,9.80729 -4.03473,13.94717 l -3.29026,7.19023 2.43133,4.58312 c 2.30407,4.3432 2.34183,4.75622 0.72131,7.88995 -0.94052,1.81876 -3.88473,4.68075 -6.54269,6.35998 l -4.83266,3.05315 0.0127,13.86667 c 0.007,7.62666 0.2832,14.82666 0.61386,16 0.33066,1.17333 2.70406,3.47788 5.27421,5.12122 4.65253,2.97479 4.69744,2.98063 10.2445,1.33333 6.8974,-2.04831 11.66,-2.09723 16.27914,-0.16723 5.79503,2.42132 7.03848,5.20112 7.03848,15.73484 0,8.3753 -0.26359,9.59408 -2.70157,12.49146 -1.48587,1.76585 -4.24587,3.71199 -6.13334,4.32475 -5.74035,1.86359 -23.16374,3.83539 -32.76509,3.708 -13.26755,-0.17602 -20.67171,-1.98546 -23.91977,-5.84555 -4.63682,-5.51056 -4.96447,-15.69664 -0.63103,-19.61834 1.14077,-1.03239 2.87215,-3.96665 3.84751,-6.52058 1.48515,-3.88882 2.62325,-5.02761 7.00257,-7.00682 6.24892,-2.82416 6.67416,-3.95896 6.72824,-17.95508 l 0.0392,-10.13334 -5.75819,-0.53333 c -5.90128,-0.54659 -6.65322,-1.12656 -8.60472,-6.63687 -1.18435,-3.34417 -4.69424,-4.59418 -10.06882,-3.5859 -2.78975,0.52336 -3.78271,1.34361 -4.33872,3.58406 -0.39657,1.59796 -1.72911,3.98538 -2.96122,5.30538 -1.8933,2.02835 -3.3497,2.4 -9.40511,2.4 h -7.16492 l -1.59571,4 c -2.87739,7.21281 -6.10259,19.09744 -6.10259,22.48761 0,2.54833 0.68528,3.67864 2.93585,4.84246 1.61472,0.835 3.78895,2.46084 4.83162,3.61298 1.04267,1.15214 3.8566,2.97901 6.25317,4.05971 l 4.35742,1.96492 -0.45389,8.64773 c -0.47561,9.06149 -1.5158,11.54492 -6.46682,15.4394 -6.73547,5.29811 -35.14801,9.09264 -45.65597,6.0974 z m 28.76937,-5.07003 c 14.04049,-1.76053 19.1608,-5.23666 21.20716,-14.39732 1.48429,-6.64455 0.19824,-8.7457 -5.84925,-9.5565 -7.97415,-1.06912 -8.38553,-1.30821 -6.27103,-3.64471 2.42497,-2.67957 1.01469,-3.34772 -6.50373,-3.08129 -3.49348,0.1238 -7.7225,-0.43564 -9.64652,-1.27611 -3.95479,-1.72757 -5.58907,-0.79653 -3.75551,2.13947 0.72782,1.16543 0.85543,2.29228 0.29857,2.63644 -0.53491,0.33059 -5.88344,1.06898 -11.88563,1.64088 -12.72121,1.21208 -15.33818,2.52642 -16.25283,8.16275 -1.46483,9.02669 1.61123,15.33364 8.48194,17.39082 4.36349,1.30648 19.70082,1.29915 30.17683,-0.0144 z m 94.70875,-5.91295 c 10.97128,-1.13934 15.83803,-7.91257 13.53412,-18.8359 -0.77828,-3.68998 -1.68532,-4.92422 -4.87571,-6.63448 -3.91801,-2.10032 -3.9243,-2.10022 -16.06903,0.26667 -16.13737,3.14501 -15.73351,3.18179 -14.99559,-1.36552 0.74011,-4.56074 0.0421,-4.64103 -4.63626,-0.53334 -4.25811,3.73868 -6.7627,4.02177 -9.43703,1.06667 -1.06185,-1.17333 -2.81625,-2.13333 -3.89865,-2.13333 -2.79252,0 -2.61421,4.2974 0.20893,5.03567 3.3607,0.87884 1.88548,2.77606 -3.32469,4.27575 -5.70223,1.64133 -7.38559,3.68497 -7.38559,8.9663 0,6.10568 3.67343,9.7245 10.80511,10.64448 5.81813,0.75053 29.96539,0.29682 40.07439,-0.75297 z m -66.44099,-65.58441 c 2.52262,-2.99795 3.86975,-8.68608 1.96149,-8.28215 -0.44,0.0931 -1.64,-0.14686 -2.66667,-0.53333 -1.02666,-0.38647 -2.65536,-0.95397 -3.61933,-1.26112 -0.96397,-0.30714 -1.51109,-0.80002 -1.21582,-1.09529 0.29527,-0.29527 5.04397,0.1941 10.55267,1.08748 5.5087,0.89339 12.05582,1.62627 14.54915,1.62863 4.27896,0.004 5.83811,1.20533 3.46667,2.67096 -1.74615,1.07917 -1.21553,4.33464 1.03909,6.37504 2.02575,1.83328 2.34072,1.81782 8.28992,-0.40703 7.26638,-2.71745 19.26942,-10.06827 20.13852,-12.33309 0.33363,-0.86942 -0.40008,-3.20961 -1.63047,-5.20041 -2.67799,-4.33308 -2.82061,-6.82172 -0.53564,-9.34658 2.36572,-2.61409 4.60494,-9.30247 4.60494,-13.7546 0,-4.81811 -2.14922,-10.77084 -5.78084,-16.01126 l -2.88771,-4.16697 -7.23799,3.64499 c -11.37988,5.73082 -15.163,6.34916 -26.25847,4.29191 -12.87546,-2.38728 -19.14474,-5.45914 -26.26593,-12.86995 l -5.95269,-6.19479 -3.2947,5.19521 c -4.05076,6.38739 -4.1093,7.77031 -0.36137,8.53673 8.53165,1.74465 10.91916,5.95195 6.10782,10.76329 -2.65051,2.6505 -3.27862,2.79314 -9.67121,2.19619 -3.76013,-0.35113 -6.8366,-0.49462 -6.8366,-0.31888 0,0.17574 1.36987,4.88223 3.04417,10.45887 l 3.04418,10.13933 -2.06952,5.54781 c -1.902,5.09874 -1.93388,5.75481 -0.39387,8.10516 2.24827,3.43129 10.11036,8.73061 17.52164,11.81018 7.91588,3.28925 9.07514,3.22581 12.35857,-0.67633 z m 58.7014,-67.02093 c 0.32953,-0.53319 -0.87897,-2.21319 -2.68556,-3.73333 -2.96382,-2.49389 -5.25435,-3.50429 -5.25435,-2.3178 0,0.24535 -0.26761,1.14346 -0.59468,1.9958 -1.25792,3.27808 6.68297,7.05132 8.53459,4.05533 z m -70.55361,-18.50762 c 4.11499,-4.55238 7.16486,-8.594 6.77748,-8.98138 -0.56036,-0.56036 -19.47974,-3.20534 -24.88053,-3.47836 -1.4248,-0.072 -7.81658,12.12518 -7.81658,14.9161 0,1.91703 2.87219,3.11462 7.52946,3.13947 1.5012,0.008 3.6612,0.72976 4.8,1.60389 3.46427,2.65915 5.79438,1.42472 13.59017,-7.19972 z m 55.14703,-3.863 c 0,-0.51704 -1.8,-2.28475 -4,-3.92826 -2.2,-1.64351 -6.79746,-5.38043 -10.21659,-8.30427 -7.32726,-6.26586 -6.51195,-7.97388 2.61159,-5.47109 21.79771,5.97958 23.69189,6.28662 38.805,6.29008 16.3856,0.004 23.30892,-1.63662 30.69967,-7.27382 4.25158,-3.24284 7.77878,-9.23976 6.8532,-11.65178 -0.83003,-2.16302 -7.64392,-5.64937 -13.00829,-6.65573 -8.47776,-1.59043 -11.42517,-8.29174 -9.09006,-20.66735 1.15796,-6.13697 1.11675,-7.5584 -0.2975,-10.26078 -1.71402,-3.27518 -6.88362,-8.49682 -11.39436,-11.50907 -6.88311,-4.5965 -17.49991,0.88278 -21.83941,11.27121 -2.55773,6.12302 -2.27929,23.69511 0.46063,29.06929 1.16446,2.28403 1.87393,4.39605 1.57659,4.69339 -0.29733,0.29733 -2.81007,-0.5873 -5.58387,-1.96586 -6.83131,-3.39511 -20.50722,-4.17043 -30.15028,-1.70927 -11.35875,2.89903 -18.10563,10.07716 -14.97317,15.93022 3.93835,7.35886 39.54685,27.29679 39.54685,22.14309 z m 17.91257,-4.21855 c -0.39325,-2.04195 -5.9738,-3.35905 -9.19052,-2.16911 -3.5734,1.32188 -2.88115,3.93865 1.14462,4.32681 5.47819,0.5282 8.41165,-0.25848 8.0459,-2.1577 z m 6.62077,0.89195 c 0,-0.58667 -0.21168,-1.06667 -0.47039,-1.06667 -0.25871,0 -0.76703,0.48 -1.12961,1.06667 -0.36258,0.58666 -0.15091,1.06666 0.47038,1.06666 0.62129,0 1.12962,-0.48 1.12962,-1.06666 z"
       id="path1" />
  </g>
</svg>
