<?xml version="1.0" encoding="UTF-8" standalone="no"?>
<!-- Created with Inkscape (http://www.inkscape.org/) -->

<svg
   width="210mm"
   height="297mm"
   viewBox="0 0 210 297"
   version="1.1"
   id="svg1"
   xml:space="preserve"
   inkscape:version="1.3 (0e150ed6c4, 2023-07-21)"
   sodipodi:docname="Mikey Frame 5.svg"
   xmlns:inkscape="http://www.inkscape.org/namespaces/inkscape"
   xmlns:sodipodi="http://sodipodi.sourceforge.net/DTD/sodipodi-0.dtd"
   xmlns="http://www.w3.org/2000/svg"
   xmlns:svg="http://www.w3.org/2000/svg"><sodipodi:namedview
     id="namedview1"
     pagecolor="#ffffff"
     bordercolor="#000000"
     borderopacity="0.25"
     inkscape:showpageshadow="2"
     inkscape:pageopacity="0.0"
     inkscape:pagecheckerboard="0"
     inkscape:deskcolor="#d1d1d1"
     inkscape:document-units="mm"
     inkscape:zoom="0.70110129"
     inkscape:cx="397.23219"
     inkscape:cy="561.25984"
     inkscape:window-width="1920"
     inkscape:window-height="1001"
     inkscape:window-x="-9"
     inkscape:window-y="-9"
     inkscape:window-maximized="1"
     inkscape:current-layer="layer1" /><defs
     id="defs1" /><g
     inkscape:label="Layer 1"
     inkscape:groupmode="layer"
     id="layer1"><path
       style="fill:#000000"
       d="m 33.827598,230.39288 c -2.748084,-0.72367 -3.704167,-1.89915 -3.704167,-4.55417 0,-3.35949 1.34191,-4.66649 4.791121,-4.66649 1.268704,0 1.629022,-0.16598 2.248291,-1.03566 0.416099,-0.58436 1.130234,-1.08397 1.638811,-1.14653 0.805979,-0.0991 1.023861,-0.48415 2.0591,-3.63864 0.63676,-1.94028 1.35704,-3.94833 1.600622,-4.46233 0.416028,-0.87789 0.353161,-1.0156 -1.037023,-2.27155 -1.507043,-1.36152 -1.533578,-1.47166 -0.872139,-3.61995 l 0.255188,-0.82883 -1.195058,0.61799 c -1.720502,0.8897 -5.150023,4.49677 -7.193638,7.56606 -4.583505,6.88391 -6.955174,9.52253 -11.071992,12.3182 -3.143954,2.13502 -5.63224,2.95939 -8.789714,2.91203 -1.415357,-0.0212 -2.7250441,-0.13234 -2.9104169,-0.2469 -0.8796089,-0.54363 -0.1286787,-0.87222 1.9932869,-0.87222 3.289238,0 6.269318,-0.86434 9.13495,-2.64948 3.310338,-2.06217 5.363467,-4.02187 7.75772,-7.40469 1.098614,-1.55222 2.224221,-3.13972 2.501349,-3.52778 0.277128,-0.38805 1.217312,-1.72844 2.089297,-2.97864 2.383114,-3.41677 4.963081,-6.2218 6.190035,-6.73002 0.884198,-0.36625 1.049181,-0.5958 0.857595,-1.19325 -0.130472,-0.40686 -0.428519,-1.69225 -0.662327,-2.85642 -0.468583,-2.33314 -0.914327,-2.67281 -1.388855,-1.05833 -0.566282,1.92664 -1.80041,4.05834 -2.473164,4.27186 -1.224713,0.38871 -1.753185,-0.62316 -1.428518,-2.7352 0.159746,-1.03919 0.296017,-2.04103 0.302825,-2.22631 0.0225,-0.61234 -1.728956,-0.78573 -3.118783,-0.30876 -1.895318,0.65046 -3.172403,0.58672 -4.149897,-0.20712 l -0.832833,-0.67636 0.742356,-0.99763 c 0.439182,-0.5902 1.410936,-1.21443 2.379452,-1.5285 1.15181,-0.3735 1.637629,-0.72118 1.638894,-1.17286 0.0019,-0.68516 1.689294,-3.32516 2.617861,-4.0958 0.307416,-0.25514 0.558938,-0.78407 0.558938,-1.17542 0,-0.39134 0.47625,-1.48554 1.058333,-2.43155 0.582084,-0.946 1.058334,-1.84667 1.058334,-2.00148 0,-0.15482 0.465433,-0.72739 1.034297,-1.2724 1.278719,-1.22509 2.976473,-1.57516 7.736214,-1.59516 l 3.655233,-0.0154 -0.292166,-1.32291 c -0.160692,-0.72761 -0.299428,-2.43417 -0.308303,-3.79237 -0.01847,-2.82653 -0.241781,-3.35138 -1.425917,-3.35138 -1.374215,0 -4.496404,-1.31862 -5.678391,-2.3982 -0.877105,-0.80111 -1.144459,-1.39023 -1.339554,-2.95172 -0.583226,-4.66798 3.009713,-8.09376 7.987106,-7.61549 2.170569,0.20856 5.580605,2.4555 6.093981,4.01544 0.227917,0.69255 0.540069,1.02031 0.881945,0.92606 1.472062,-0.40583 1.479867,-0.42045 0.731913,-1.37132 -0.553017,-0.70305 -0.731913,-1.43965 -0.731913,-3.01363 0,-4.54866 3.256071,-7.78497 7.232552,-7.18866 3.313859,0.49694 5.610475,3.33012 5.631996,6.9478 0.0084,1.41306 -0.167269,2.18873 -0.60552,2.67361 -0.339549,0.37568 -0.617361,0.77453 -0.617361,0.88633 0,0.11181 0.754062,0.63137 1.675694,1.15457 1.82997,1.03887 4.417403,3.61847 5.305423,5.28937 0.321673,0.60526 0.600671,2.10944 0.651712,3.51361 l 0.08925,2.45527 1.8716,0.38015 c 1.029381,0.20908 2.174675,0.5534 2.5451,0.76516 0.531203,0.30368 1.026501,0.20772 2.344288,-0.45416 2.722877,-1.36763 3.86138,-1.06014 3.86138,1.04289 0,1.37955 -2.668053,3.40958 -4.481192,3.40958 -0.653014,0 -1.609366,0.50559 -2.75722,1.45765 -1.88206,1.56103 -3.960658,2.5945 -5.980345,2.9734 -1.354674,0.25414 -1.589227,0.4846 -2.127077,2.08999 -0.385446,1.15049 -1.547811,1.53176 -4.794068,1.57252 -1.38288,0.0174 -1.678793,0.15141 -2.028473,0.91887 -0.762206,1.67287 -0.251366,3.21202 1.387333,4.18003 0.910995,0.53813 1.055206,0.54613 1.238424,0.0687 0.114051,-0.29721 -0.125328,-0.96334 -0.531953,-1.48028 -0.94481,-1.20113 -0.929872,-1.40917 0.152084,-2.1181 0.859959,-0.56346 0.999957,-0.53364 3.96875,0.84532 3.894761,1.80906 4.538658,1.9519 6.179134,1.37073 1.631975,-0.57815 3.734485,-0.29343 4.268156,0.57799 0.321992,0.52578 0.218732,0.78869 -0.583894,1.48662 -0.536285,0.46634 -1.647535,1.03831 -2.469445,1.27104 -0.821909,0.23274 -1.732506,0.64557 -2.023548,0.91739 -0.466697,0.43589 -0.425051,0.57305 0.352778,1.16189 0.485069,0.36721 1.318507,1.00404 1.852083,1.41518 1.836472,1.41508 0.934164,3.16331 -1.632658,3.16331 -0.840742,0 -2.68887,-1.67016 -2.68887,-2.42995 0,-0.81042 -0.829785,-0.19698 -1.169381,0.8645 -0.505331,1.57953 -1.661854,2.67269 -2.699546,2.55164 -0.847971,-0.0989 -0.890185,-0.20624 -0.82719,-2.10287 0.06456,-1.94365 0.03398,-2.014 -1.111648,-2.55764 -1.504748,-0.71405 -1.600568,-0.70475 -1.600568,0.15535 0,0.3929 -0.56004,1.82646 -1.244533,3.18568 l -1.244534,2.47131 0.891756,1.16915 c 0.490465,0.64304 0.891755,1.3812 0.891755,1.64037 0,0.25916 -0.695895,1.11926 -1.546433,1.91132 l -1.546433,1.4401 -0.129261,3.89719 -0.129262,3.89718 1.30008,1.14205 1.300079,1.14206 1.976116,-0.57448 c 2.289177,-0.66548 4.405621,-0.44845 5.303648,0.54386 0.730781,0.8075 0.850161,5.0686 0.186868,6.66993 -0.668899,1.61486 -2.091575,1.90743 -9.439626,1.94121 l -6.428392,0.0295 -0.979942,-0.97815 c -0.829516,-0.82801 -0.979942,-1.27041 -0.979942,-2.882 0,-1.48882 0.173029,-2.08802 0.79375,-2.74874 0.436562,-0.4647 0.79375,-1.08215 0.79375,-1.37211 0,-0.88552 0.917347,-1.84574 2.16449,-2.26565 1.337661,-0.45039 1.658505,-1.43945 1.695735,-5.22741 l 0.02033,-2.06852 -1.146528,0.17419 c -1.539687,0.23393 -2.244791,-0.1992 -2.733134,-1.6789 -0.390893,-1.18441 -0.480393,-1.23743 -2.089079,-1.23743 -1.658816,0 -1.686265,0.0186 -2.109065,1.42979 -0.498473,1.66376 -1.411439,2.15119 -3.073656,1.64104 -1.70477,-0.5232 -2.148415,-0.16554 -2.617461,2.11019 -0.232493,1.12801 -0.620049,2.4478 -0.861235,2.93287 -0.241187,0.48507 -0.5366,1.39788 -0.656474,2.02847 -0.181943,0.95711 -0.110701,1.14653 0.431209,1.14653 0.357038,0 1.027757,0.28852 1.490486,0.64116 0.462729,0.35263 1.363329,0.85066 2.001335,1.10671 1.493002,0.59921 1.9698,1.52337 1.689692,3.27506 -0.465889,2.91351 -1.518025,4.05953 -4.634889,5.04844 -1.960831,0.62212 -8.59252,0.98615 -10.209258,0.5604 z m 10.048177,-1.66684 c 2.294238,-0.68131 3.749489,-2.05477 4.087782,-3.85803 0.217245,-1.15801 0.136286,-1.44387 -0.571173,-2.01673 -0.510792,-0.41362 -1.10034,-0.58628 -1.550096,-0.45398 -0.399191,0.11742 -1.273205,0.31257 -1.942254,0.43366 l -1.216453,0.22016 1.216453,-1.0916 1.216453,-1.09161 -0.881944,-0.34277 c -0.649508,-0.25243 -1.098672,-0.20525 -1.704284,0.17902 -0.729029,0.46258 -0.980025,0.4587 -2.212,-0.0342 -0.764314,-0.30582 -1.545198,-0.55603 -1.7353,-0.55603 -0.536364,0 -0.40827,0.69358 0.248977,1.34811 0.556859,0.55457 0.364575,0.60337 -3.028241,0.76856 -4.245931,0.20672 -4.62193,0.4804 -4.62193,3.36413 0,2.99514 1.2066,3.63644 6.903331,3.66906 2.599145,0.0149 4.535307,-0.1649 5.790679,-0.53771 z m 25.102506,-1.54812 c 0.512181,-0.24148 1.107493,-0.8259 1.322917,-1.2987 0.45246,-0.99304 0.514757,-3.9669 0.09689,-4.62525 -0.624895,-0.98452 -2.467762,-1.12182 -5.671693,-0.42255 -1.709781,0.37317 -3.368653,0.77824 -3.686383,0.90016 -0.723575,0.27767 -0.75565,-0.32527 -0.04852,-0.91214 0.291042,-0.24154 0.529167,-0.65785 0.529167,-0.92514 0,-0.7918 -0.932356,-0.55439 -1.55506,0.39598 -0.769724,1.17475 -2.081853,1.16812 -2.620114,-0.0132 -0.345022,-0.75724 -0.516824,-0.83686 -1.114959,-0.51675 -0.802787,0.42964 -0.956621,1.41193 -0.221119,1.41193 0.267284,0 0.683597,0.23813 0.92514,0.52917 0.369294,0.44497 0.306005,0.52993 -0.397776,0.53398 -2.393183,0.0138 -3.226844,0.95405 -2.908044,3.27996 0.169206,1.23449 0.399484,1.62572 1.141532,1.93943 1.283285,0.54251 12.952417,0.31514 14.208026,-0.27684 z M 49.094937,210.3925 c 0.845055,-0.5919 1.065207,-2.11385 0.343078,-2.37175 -1.158086,-0.4136 0.281834,-0.59609 3.034121,-0.38454 2.502601,0.19237 2.980359,0.32003 2.656791,0.7099 -0.533305,0.6426 0.508401,2.24278 1.46003,2.24278 1.05265,0 5.039524,-1.98684 5.966179,-2.97322 l 0.816605,-0.86924 -0.691353,-1.16558 c -0.380244,-0.64106 -0.955488,-1.14352 -1.278321,-1.11658 -0.779064,0.065 -0.741618,-0.32885 0.104017,-1.09414 0.999077,-0.90415 1.881101,-3.87683 1.847771,-6.22753 -0.0317,-2.23561 -0.890375,-4.3797 -1.583641,-3.9543 -0.234272,0.14375 -1.060948,0.68342 -1.837059,1.19927 -1.700023,1.12994 -3.394976,1.69975 -5.291667,1.77894 -2.018953,0.0843 -5.896049,-0.58541 -7.153467,-1.23565 -1.177691,-0.60901 -3.253478,-2.93698 -3.253478,-3.64874 0,-0.79528 -0.903788,-0.47835 -1.697546,0.59526 -1.057325,1.43011 -0.979971,1.70871 0.551018,1.98458 1.585254,0.28564 2.204861,0.72406 2.204861,1.56011 0,0.89084 -1.421582,1.69831 -3.21633,1.82688 l -1.54617,0.11077 0.0441,1.76389 c 0.03596,1.43834 0.565038,3.19048 1.452351,4.80975 0.0674,0.123 -0.114828,0.46101 -0.404953,0.75113 -0.290124,0.29013 -0.627634,0.92647 -0.750022,1.41411 -0.182309,0.72637 0.0052,1.06879 1.0376,1.8947 1.17233,0.93785 5.219076,2.90458 6.038956,2.93494 0.199362,0.007 0.7153,-0.2337 1.146528,-0.53574 z m -9.270116,-22.02861 c 0.830651,-0.91786 3.233745,-0.97149 3.95202,-0.0882 0.430426,0.52932 0.532108,0.54189 0.712949,0.0882 0.244553,-0.61354 1.921266,-2.25865 3.595548,-3.52778 l 1.163491,-0.88194 -2.595337,-0.0772 c -1.427436,-0.0424 -3.273378,-0.26245 -4.102094,-0.48891 -1.300523,-0.3554 -1.597896,-0.32927 -2.172626,0.19085 -0.366229,0.33143 -0.852274,1.10706 -1.080101,1.72363 -0.227828,0.61656 -0.628926,1.62078 -0.891331,2.2316 -0.702984,1.63639 0.205952,2.16842 1.417481,0.8297 z m 28.670937,-1.91862 c 0.3676,-0.3676 -0.08626,-0.46242 -3.255026,-0.68003 -2.080323,-0.14287 -3.338051,-0.39591 -3.683168,-0.74103 -0.76263,-0.76263 -0.346491,-0.96603 2.330882,-1.13932 4.351524,-0.28163 9.233368,-1.11451 10.929014,-1.86458 2.101898,-0.92977 2.896672,-1.63541 3.531036,-3.13505 0.469035,-1.10879 0.449852,-1.24458 -0.286572,-2.02847 -0.635553,-0.67651 -1.14724,-0.84012 -2.627468,-0.84012 -1.519476,0 -1.926946,-0.13763 -2.349967,-0.79375 -0.813864,-1.26233 -0.988205,-2.45007 -0.566321,-3.85819 0.529332,-1.76676 -0.03853,-3.05883 -2.197447,-4.99988 -2.419027,-2.17491 -3.749541,-2.02464 -5.500587,0.62124 -1.283594,1.93955 -1.584637,5.98733 -0.6361,8.55288 0.348213,0.94183 0.751029,1.87117 0.895146,2.0652 0.168166,0.2264 -0.643432,0.35844 -2.265608,0.36859 -2.911766,0.0182 -5.711152,1.05031 -8.013286,2.95437 -1.855096,1.53433 -1.830953,2.45033 0.105785,4.0136 1.279369,1.03266 1.857588,1.24201 3.941715,1.42716 1.57091,0.13956 2.609404,0.0784 2.910417,-0.17143 0.318855,-0.26462 0.608544,-0.27431 0.90898,-0.0304 0.242534,0.19691 0.758472,0.44513 1.146527,0.55161 0.822703,0.22574 4.391545,0.0181 4.682048,-0.2724 z"
       id="path1" /></g></svg>
