<?xml version="1.0" encoding="UTF-8" standalone="no"?>
<!-- Created with Inkscape (http://www.inkscape.org/) -->

<svg
   version="1.1"
   id="svg1"
   width="793.59998"
   height="1122.1333"
   viewBox="0 0 793.59998 1122.1333"
   sodipodi:docname="Mikey Frame 1.png"
   xmlns:inkscape="http://www.inkscape.org/namespaces/inkscape"
   xmlns:sodipodi="http://sodipodi.sourceforge.net/DTD/sodipodi-0.dtd"
   xmlns="http://www.w3.org/2000/svg"
   xmlns:svg="http://www.w3.org/2000/svg">
  <defs
     id="defs1" />
  <sodipodi:namedview
     id="namedview1"
     pagecolor="#ffffff"
     bordercolor="#000000"
     borderopacity="0.25"
     inkscape:showpageshadow="2"
     inkscape:pageopacity="0.0"
     inkscape:pagecheckerboard="0"
     inkscape:deskcolor="#d1d1d1" />
  <g
     inkscape:groupmode="layer"
     inkscape:label="Image"
     id="g1">
    <path
       style="fill:#000000"
       d="m 357.52985,711.39342 c -5.93865,-1.16896 -11.51446,-4.63917 -12.32738,-7.67217 -1.04233,-3.88897 -0.75738,-15.54084 0.39752,-16.2546 0.58667,-0.36258 1.06667,-1.50724 1.06667,-2.54369 0,-1.03644 1.11093,-2.92811 2.46874,-4.20371 2.54675,-2.39254 4.56146,-3.13524 3.39792,-1.2526 -0.36258,0.58666 -0.13584,1.06666 0.50386,1.06666 0.6397,0 1.43546,-0.70975 1.76834,-1.57724 0.36093,-0.94055 2.70886,-1.85629 5.81646,-2.26853 3.66823,-0.48661 6.16078,-1.59875 8.41824,-3.75609 1.76386,-1.68564 3.84772,-3.0648 4.63079,-3.0648 2.98599,0 6.01076,-5.31061 11.43064,-20.06884 l 5.6074,-15.26883 -4.57247,-4.65901 c -4.00711,-4.08295 -4.49905,-5.09657 -3.97861,-8.19783 0.32662,-1.94636 0.92605,-4.37882 1.33206,-5.40549 3.22645,-8.15861 -19.98594,14.56767 -29.68841,29.06666 -15.78101,23.58256 -27.60422,36.85442 -38.48787,43.20364 -2.87076,1.67473 -9.83076,4.63473 -15.46666,6.57779 -12.24797,4.22265 -21.10461,4.6558 -30.32614,1.48313 -13.38477,-4.60504 -11.85733,-6.20587 2.47904,-2.59816 9.8588,2.48093 10.3446,2.50409 17.93124,0.85469 8.93979,-1.94359 20.02344,-6.2925 26.92019,-10.56273 10.24797,-6.34518 16.82425,-14.21645 32.93977,-39.42624 5.95381,-9.31364 13.18723,-19.90242 16.07428,-23.53062 l 5.24918,-6.59673 -3.29129,-2.43335 c -3.23213,-2.38962 -3.28189,-2.56466 -2.76852,-9.73955 l 0.52275,-7.30619 -13.1294,0.66543 c -11.3389,0.57468 -13.50994,0.41609 -15.91987,-1.16296 -2.06311,-1.3518 -2.70418,-2.56914 -2.4594,-4.67022 0.41169,-3.53386 4.0801,-5.52102 10.23121,-5.5422 5.23975,-0.018 5.07992,0.23525 7.06608,-11.19794 1.04249,-6.00104 2.04464,-8.83576 3.39384,-9.6 4.75901,-2.69566 6.50059,-5.4962 7.21896,-11.60845 1.39391,-11.85994 5.97198,-18.64219 14.45989,-21.42178 2.69193,-0.88155 11.61442,-2.62475 19.82775,-3.87378 8.21334,-1.24904 15.13892,-2.46619 15.3902,-2.70479 0.25127,-0.2386 -0.89877,-3.27011 -2.55564,-6.73669 -2.78494,-5.82676 -2.96949,-6.99235 -2.44307,-15.43022 0.41202,-6.60418 1.19222,-10.18289 2.82231,-12.94568 1.23908,-2.10008 2.25287,-4.0309 2.25287,-4.29069 0,-0.2598 -3.72,-0.49344 -8.26667,-0.51919 -9.65243,-0.0547 -14.44693,-1.53266 -20.48498,-6.31489 -6.35126,-5.03028 -7.87572,-8.60333 -7.27181,-17.04373 1.18013,-16.49382 11.12111,-24.90346 29.62346,-25.06014 14.01597,-0.1187 16.16413,1.45076 18.04333,13.18255 0.6035,3.76767 1.54645,7.29948 2.09544,7.84847 1.17608,1.17608 7.92782,-0.79648 9.59272,-2.80256 0.76944,-0.92712 0.61939,-2.7292 -0.49706,-5.96973 -1.16799,-3.39012 -1.40236,-6.6394 -0.86919,-12.0503 0.60859,-6.17617 1.42783,-8.45355 4.92485,-13.69038 6.33033,-9.47974 9.20684,-11.11913 19.50991,-11.11913 7.12488,0 9.31706,0.44014 13.28169,2.66666 11.62283,6.52735 14.58748,26.88977 4.91149,33.73401 -7.40861,5.24041 -7.69399,5.60093 -5.67643,7.17075 1.01755,0.79173 1.53755,1.75205 1.15556,2.13405 -0.38199,0.38199 0.61379,0.69453 2.21286,0.69453 1.68024,0 2.62718,0.4534 2.24351,1.0742 -1.01368,1.64015 2.48985,2.53762 4.23908,1.08589 1.90716,-1.58281 4.42906,-7.1e-4 9.53052,5.9789 6.55429,7.68252 7.48238,10.47806 8.08288,24.34684 l 0.55217,12.7525 4.47661,1.11416 c 2.46213,0.6128 5.8484,2.43417 7.52503,4.04751 3.13503,3.01666 6.6839,3.66172 11.12892,2.02285 6.37801,-2.35157 8.20122,-2.3451 10.42042,0.0369 2.58431,2.77393 2.88706,8.5498 0.56961,10.86724 -0.88701,0.88701 -3.88701,1.92515 -6.66667,2.30698 -9.16528,1.259 -13.54612,2.77464 -16.78725,5.80791 -6.94001,6.49493 -17.63424,9.6001 -33.12,9.61669 -7.58256,0.008 -10.38617,1.16906 -9.34919,3.87137 0.36756,0.95785 2.29554,1.47002 5.53357,1.47002 3.89649,0 6.57799,0.94475 12.41921,4.37555 10.61985,6.23748 11.50395,6.50458 24.51641,7.40701 13.22282,0.91701 15.46666,1.52143 15.46666,4.16625 0,4.06953 -8.52981,8.45072 -16.62222,8.53771 -2.39555,0.0258 -4.66394,0.3552 -5.04086,0.73212 -0.37692,0.37692 1.96656,3.54964 5.20772,7.05048 8.96386,9.68204 9.60674,10.89543 7.48678,14.13088 -2.96183,4.52033 -8.46412,3.18953 -16.16619,-3.90999 -3.90744,-3.60175 -5.0737,-4.19618 -5.83047,-2.97171 -0.52029,0.84186 -0.6869,2.56294 -0.37024,3.82462 1.26682,5.04742 -5.80202,13.19042 -11.45044,13.19042 -4.646,0 -6.62499,-3.80667 -5.72477,-11.01181 0.46119,-3.69123 0.27861,-6.62876 -0.50274,-8.08874 -1.82992,-3.41923 -3.00708,-1.84093 -3.00708,4.03182 0,5.51304 -1.95352,12.93539 -3.40452,12.93539 -0.47278,0 -1.10354,1.08 -1.40168,2.4 -0.29815,1.32 -1.61011,4.82708 -2.91547,7.7935 l -2.37339,5.39349 3.32446,3.32446 c 5.00529,5.00529 4.60416,9.03049 -1.31577,13.20324 l -4.64022,3.27073 0.10689,15.74364 c 0.11643,17.15007 0.0487,16.93355 7.02675,22.46028 3.88952,3.08055 3.97174,3.09469 9.07214,1.55969 9.81067,-2.95258 17.92048,-1.83484 20.31738,2.80024 2.2154,4.28412 1.96557,15.4486 -0.46548,20.80124 -4.25659,9.37209 -10.24962,10.88173 -35.84391,9.02906 -28.19716,-2.04109 -32.55448,-3.8636 -32.5099,-13.59775 0.0136,-2.95937 0.92843,-6.91334 2.17079,-9.38182 6.84455,-13.59962 7.18544,-14.06149 12.07451,-16.35962 4.31943,-2.03038 5.01573,-2.86975 6.48513,-7.81776 1.64763,-5.54819 2.15312,-15.4249 1.00785,-19.69253 -0.56041,-2.08828 -1.14725,-2.22673 -7.33369,-1.73014 l -6.72453,0.53978 -1.39936,-3.86986 c -1.36896,-3.78581 -1.52214,-3.86987 -7.05174,-3.86987 -5.59626,0 -5.65239,0.0325 -5.65239,3.27013 0,7.11213 -3.85107,9.28537 -13.30938,7.51077 -2.98066,-0.55924 -6.05663,-0.59625 -7.01307,-0.0844 -2.4064,1.28787 -10.98779,26.68317 -9.51811,28.16737 0.61875,0.62486 3.14384,1.63855 5.61133,2.25263 3.68263,0.9165 5.20748,2.14874 8.51172,6.87833 2.21396,3.169 4.55047,7.51443 5.19226,9.65653 2.31573,7.72923 -4.90755,17.43905 -14.71946,19.78647 -1.66207,0.39764 -3.62196,1.19556 -4.35529,1.77317 -0.8985,0.7077 -1.33333,0.65973 -1.33333,-0.14708 0,-1.46327 -6.32147,-1.56002 -8.53334,-0.13061 -1.24014,0.80145 -0.88028,1.06606 1.6,1.17654 l 3.2,0.14253 -3.2,0.81427 c -4.30514,1.09547 -20.22788,1.05052 -25.9368,-0.0732 z m 18.47014,-3.12677 c -0.3976,-0.64334 1.03723,-1.06667 3.61532,-1.06667 6.70999,0 21.34761,-5.0655 24.89849,-8.61638 2.64871,-2.64871 3.02671,-3.75749 2.74556,-8.05361 -0.25901,-3.95771 -0.91658,-5.42131 -3.19832,-7.11869 -2.67735,-1.99169 -3.04909,-2.02083 -5.47774,-0.42952 -1.433,0.93894 -2.90048,1.41215 -3.26105,1.05157 -1.47045,-1.47044 -0.49244,-3.61487 2.09777,-4.59967 1.51435,-0.57575 2.55676,-1.64387 2.31645,-2.3736 -0.7965,-2.41871 -5.17717,-2.07584 -9.21316,0.72111 -2.18423,1.51367 -4.47952,2.75212 -5.10065,2.75212 -0.62113,0 -2.94133,-1.44 -5.15601,-3.2 -5.97946,-4.75188 -10.83978,-3.83924 -6.2955,1.18213 3.07815,3.40132 0.81756,4.4971 -7.77849,3.77047 -13.55003,-1.1454 -19.01074,3.37594 -18.24719,15.10822 0.27714,4.25833 0.81819,5.26902 3.94559,7.37045 1.99343,1.33947 5.11343,2.46914 6.93334,2.51037 2.81492,0.0638 2.99043,0.21183 1.17559,0.9917 -1.41716,0.60897 1.02104,0.94189 7.26295,0.99169 6.01041,0.048 9.15873,-0.30939 8.73705,-0.99169 z m 115.14414,-10.27322 c 3.15922,-3.77945 4.23657,-6.09725 4.58618,-9.86667 0.57289,-6.17684 -1.06057,-10.54092 -4.42411,-11.81973 -3.50456,-1.33243 -22.87113,0.68898 -25.97288,2.71095 -2.68653,1.7513 -2.98355,1.35413 -1.16499,-1.55784 1.63936,-2.62504 0.43956,-5.46016 -2.31069,-5.46016 -1.21512,0 -4.09106,0.96 -6.39099,2.13333 -5.51453,2.81331 -8.5168,2.69192 -11.15993,-0.45122 -1.73746,-2.06616 -2.65479,-2.39397 -4.5734,-1.63437 -3.49746,1.38468 -2.94657,3.77061 1.58094,6.84714 l 3.98095,2.70512 -5.31428,0.0163 c -2.92285,0.009 -5.88425,0.37876 -6.58088,0.82171 -1.8043,1.14728 -3.5334,6.17107 -3.5334,10.26608 0,4.84233 2.82723,6.98778 10.66896,8.0962 3.6427,0.5149 6.89238,1.20546 7.22151,1.53459 0.32913,0.32913 9.29678,0.59842 19.9281,0.59842 h 19.32967 z m -74.69805,-60.77424 c 1.08602,-0.41674 1.68724,-1.95478 1.68724,-4.31627 0,-3.00032 -0.60222,-3.99992 -3.30505,-5.48588 -4.38311,-2.40975 -8.64783,-5.6864 -8.10615,-6.22808 0.23897,-0.23897 3.02424,0.77107 6.18951,2.24452 4.91922,2.28992 7.30414,2.68288 16.42169,2.70575 11.84075,0.0297 15.59639,1.12982 10.23613,2.99842 -4.17108,1.45404 -4.72786,5.529 -0.75545,5.529 3.24081,0 20.13258,-4.87171 24.21927,-6.98502 3.7796,-1.95451 4.19329,-6.3726 0.92516,-9.88052 -2.68456,-2.88153 -3.69309,-2.90779 -7.15304,-0.18619 -3.83214,3.01436 -4.31861,1.7543 -0.92337,-2.39175 7.92332,-9.67544 13.4513,-20.67679 13.4513,-26.76969 0,-2.97042 -3.03665,-14.84826 -4.05501,-15.86116 -0.40974,-0.40755 -4.31561,1.03245 -8.67971,3.2 l -7.93472,3.941 -14.46528,-0.0195 c -16.69886,-0.0225 -20.06611,-1.078 -31.10338,-9.74937 -7.28934,-5.72683 -8.06314,-5.64665 -12.92646,1.33944 -2.46667,3.54333 -3.88948,7.89611 -2.58103,7.89611 0.21326,0 2.94828,0.4856 6.07782,1.0791 6.3646,1.20703 10.6011,4.45839 10.6011,8.13598 0,3.6716 -3.70823,5.05037 -13.06666,4.85833 -4.9973,-0.10254 -8.26667,0.25891 -8.26667,0.91394 0,1.49046 4.83471,10.34541 8.12394,14.87932 2.63249,3.62865 2.64731,3.74276 0.52866,4.06942 -2.91498,0.44943 -7.58593,6.1456 -7.58593,9.25093 0,2.89964 5.187,7.68688 9.41554,8.68989 1.56812,0.37196 3.65935,1.37745 4.64718,2.23444 3.94429,3.42184 14.05112,5.57031 18.38337,3.90786 z M 383.61517,606.3976 c 0.94691,-2.46761 -0.4253,-6.52079 -3.32242,-9.81366 l -2.62535,-2.98396 -0.0337,5.51276 c -0.0185,3.03202 0.25764,6.27202 0.61374,7.2 0.82208,2.14229 4.55557,2.20131 5.36773,0.0849 z m -3.06222,-48.99078 c 2.77587,-1.42625 7.88916,-2.93181 11.36286,-3.34571 6.03072,-0.71857 6.64785,-1.08457 13.67152,-8.10824 10.35975,-10.35975 9.96546,-11.05019 -6.22556,-10.90171 -16.26363,0.14915 -18.25816,1.00231 -21.51146,9.20146 -2.46267,6.20657 -4.30592,15.74736 -3.04234,15.74736 0.38387,0 2.96912,-1.16692 5.74498,-2.59316 z m 89.84704,-0.23949 c 0,-0.38462 -1.25837,-2.34911 -2.79637,-4.36554 -2.59698,-3.40481 -2.92021,-3.5403 -4.53333,-1.90023 -1.60749,1.63434 -1.51388,1.95976 1.25584,4.36554 2.81067,2.44134 6.07386,3.46224 6.07386,1.90023 z m 26.37777,0.0549 c -0.35444,-0.35445 -1.27444,-0.39234 -2.04444,-0.0842 -0.85092,0.3405 -0.59816,0.59326 0.64444,0.64444 1.12445,0.0463 1.75445,-0.20579 1.4,-0.56023 z M 460.1228,546.0559 c 1.65721,-1.30356 2.81052,-3.27327 2.81052,-4.8 0,-3.22835 -0.37928,-3.22211 -4.70519,0.0774 -6.02593,4.5962 -13.22562,2.71859 -19.09807,-4.98058 -3.49156,-4.57767 -4.70752,-7.86524 -6.07487,-16.42449 -1.18728,-7.43211 -0.0774,-20.84369 2.20462,-26.64053 1.14337,-2.90438 1.31109,-2.98531 2.11601,-1.02107 0.48083,1.17334 0.90796,4.24721 0.9492,6.83083 0.1371,8.5906 11.28111,24.93652 20.80651,30.51878 7.04818,4.13051 19.16227,5.37578 31.53119,3.24125 10.6122,-1.83136 13.84012,-1.54683 6.24494,0.55048 -2.55256,0.70485 -4.10981,1.47346 -3.46057,1.70803 1.86831,0.675 11.6471,-3.42022 11.36637,-4.76008 -0.13926,-0.66465 0.89025,-2.44225 2.28779,-3.95023 5.1815,-5.59092 4.33927,-14.14914 -1.72708,-17.54958 -2.41122,-1.35159 -3.47607,-1.40053 -6.4,-0.29412 -5.39447,2.04125 -6.50607,-0.18756 -5.7332,-11.49536 0.34083,-4.98666 0.90841,-11.07468 1.26128,-13.52892 0.52335,-3.63993 0.0867,-5.48184 -2.36967,-9.99493 -6.34389,-11.65582 -15.63894,-14.70168 -23.83049,-7.80895 -4.50914,3.79419 -7.20009,9.43185 -8.55737,17.92809 -0.99262,6.21355 -0.88335,7.67058 0.87302,11.64114 1.1042,2.49624 3.61396,6.36812 5.57724,8.60417 2.90881,3.31295 3.18414,3.99402 1.4873,3.67914 -1.22886,-0.22804 -4.92393,-4.63816 -9.01563,-10.7603 -7.71588,-11.54477 -11.95863,-16.35727 -15.15849,-17.19405 -1.5085,-0.39448 -2.30401,0.0512 -2.68383,1.50364 -0.36037,1.37806 -1.47361,2.06777 -3.34875,2.07473 -1.54491,0.006 -5.32893,1.18364 -8.40893,2.61759 -4.16968,1.94127 -5.6,2.23527 -5.6,1.15107 0,-1.47696 5.18085,-6.36855 7.69393,-7.26436 0.75501,-0.26913 1.01583,-0.87195 0.57962,-1.33959 -1.20761,-1.29462 -8.32474,1.19451 -13.81665,4.8322 -6.71193,4.44579 -8.86592,9.13197 -8.82187,19.19267 0.0515,11.76823 3.5005,17.35261 15.36348,24.87568 2.01585,1.27837 4.91782,4.48431 6.44883,7.12431 6.15656,10.61608 22.32715,17.06903 29.20881,11.65592 z m -2.93954,-6.7393 c 0.0641,-0.0641 0.42546,-1.40544 0.80294,-2.98066 0.61005,-2.54579 -0.10549,-3.53578 -6.4393,-8.90915 -7.96692,-6.75882 -11.1598,-8.54159 -13.61223,-7.60051 -5.59548,2.14719 2.70959,17.51244 10.7259,19.84402 2.37425,0.69057 7.69943,0.46956 8.52269,-0.3537 z"
       id="path1" />
  </g>
</svg>
